<svg width="58" height="21" viewBox="0 0 58 21" fill="none" xmlns="http://www.w3.org/2000/svg">
<path d="M2.57636 20.2426C2.01933 20.2426 1.55215 20.1168 1.1748 19.8652C0.797459 19.5957 0.563866 19.2363 0.474023 18.7871C0.384179 18.3199 0.465038 17.7988 0.7166 17.2238L7.42792 2.77698C7.75135 2.0762 8.14667 1.5641 8.61385 1.24066C9.09901 0.917221 9.64705 0.755503 10.258 0.755503C10.8689 0.755503 11.399 0.917221 11.8482 1.24066C12.3154 1.5641 12.7197 2.0762 13.0611 2.77698L19.7724 17.2238C20.0599 17.7988 20.1588 18.3199 20.0689 18.7871C19.997 19.2543 19.7724 19.6137 19.3951 19.8652C19.0357 20.1168 18.5865 20.2426 18.0474 20.2426C17.3287 20.2426 16.7716 20.0809 16.3763 19.7574C15.999 19.434 15.6576 18.9129 15.3521 18.1941L13.8967 14.7711L15.7834 16.1457H4.6787L6.59237 14.7711L5.1369 18.1941C4.81347 18.9129 4.48105 19.434 4.13964 19.7574C3.79824 20.0809 3.27714 20.2426 2.57636 20.2426ZM10.2041 6.17307L7.07753 13.6391L6.32284 12.3453H14.1662L13.4115 13.6391L10.258 6.17307H10.2041ZM31.3654 20.2965C29.2631 20.2965 27.4572 19.8922 25.9478 19.0836C24.4385 18.275 23.2795 17.134 22.4709 15.6606C21.6803 14.1871 21.285 12.4621 21.285 10.4856C21.285 9.01213 21.5096 7.67346 21.9588 6.46956C22.426 5.26565 23.0908 4.23245 23.9533 3.36995C24.8338 2.50745 25.8939 1.85159 27.1338 1.40238C28.3916 0.93519 29.8021 0.701597 31.3654 0.701597C32.192 0.701597 33.0455 0.800425 33.9259 0.998081C34.8244 1.17777 35.615 1.45628 36.2978 1.83363C36.8009 2.10316 37.1513 2.44456 37.349 2.85784C37.5466 3.27112 37.6095 3.69339 37.5377 4.12464C37.4838 4.55589 37.331 4.94222 37.0795 5.28362C36.8279 5.62503 36.5045 5.85862 36.1091 5.9844C35.7138 6.09221 35.2826 6.02932 34.8154 5.79573C34.2763 5.54417 33.7373 5.3555 33.1982 5.22971C32.6771 5.08596 32.1291 5.01409 31.5541 5.01409C30.44 5.01409 29.5056 5.22971 28.751 5.66096C28.0142 6.07424 27.4572 6.68518 27.0799 7.49377C26.7025 8.30236 26.5139 9.29963 26.5139 10.4856C26.5139 11.6715 26.7025 12.6777 27.0799 13.5043C27.4572 14.3129 28.0142 14.9328 28.751 15.3641C29.5056 15.7774 30.44 15.984 31.5541 15.984C32.0213 15.984 32.5244 15.9301 33.0635 15.8223C33.6025 15.6965 34.1326 15.5078 34.6537 15.2563C35.1927 15.0227 35.6689 14.9598 36.0822 15.0676C36.5134 15.1754 36.8548 15.391 37.1064 15.7145C37.3759 16.0379 37.5466 16.4152 37.6185 16.8465C37.6904 17.2598 37.6275 17.6731 37.4298 18.0863C37.2502 18.4996 36.9267 18.832 36.4595 19.0836C35.8306 19.4609 35.049 19.7574 34.1146 19.973C33.1982 20.1887 32.2818 20.2965 31.3654 20.2965ZM48.1281 20.2426C47.4453 20.2426 46.8883 20.0988 46.457 19.8113C46.0437 19.5238 45.6934 19.0656 45.4059 18.4367L38.8832 4.04378C38.5957 3.41487 38.5059 2.84886 38.6137 2.34573C38.7215 1.84261 38.9731 1.45628 39.3684 1.18675C39.7637 0.899253 40.2578 0.755503 40.8508 0.755503C41.5875 0.755503 42.1355 0.917221 42.4949 1.24066C42.8723 1.5641 43.1957 2.04027 43.4652 2.66917L48.9637 15.391H47.4543L52.9527 2.64222C53.2222 2.01331 53.5457 1.54613 53.923 1.24066C54.3004 0.917221 54.8304 0.755503 55.5133 0.755503C56.0703 0.755503 56.5375 0.899253 56.9148 1.18675C57.2922 1.45628 57.5258 1.84261 57.6156 2.34573C57.7234 2.84886 57.6336 3.41487 57.3461 4.04378L50.7965 18.4367C50.5269 19.0656 50.1855 19.5238 49.7723 19.8113C49.359 20.0988 48.8109 20.2426 48.1281 20.2426Z" fill="#E966A0"/>
</svg>
