<svg width="58" height="21" viewBox="0 0 58 21" fill="none" xmlns="http://www.w3.org/2000/svg">
<path d="M3.31249 20C2.46796 20 1.82109 19.7844 1.37187 19.3531C0.940622 18.9039 0.724997 18.266 0.724997 17.4395V3.55862C0.724997 2.73206 0.940622 2.10316 1.37187 1.67191C1.82109 1.22269 2.46796 0.998081 3.31249 0.998081H8.5953C11.9015 0.998081 14.4531 1.82464 16.25 3.47776C18.0648 5.13089 18.9722 7.46682 18.9722 10.4856C18.9722 11.9949 18.7386 13.3426 18.2714 14.5285C17.8043 15.6965 17.1304 16.6938 16.25 17.5203C15.3695 18.3289 14.2824 18.9488 12.9886 19.3801C11.7129 19.7934 10.2484 20 8.5953 20H3.31249ZM5.68436 15.984H8.27186C9.2242 15.984 10.0418 15.8672 10.7246 15.6336C11.4254 15.4 12.0004 15.0586 12.4496 14.6094C12.9168 14.1602 13.2582 13.5942 13.4738 12.9113C13.7074 12.2285 13.8242 11.4199 13.8242 10.4856C13.8242 8.61682 13.366 7.24221 12.4496 6.36174C11.5332 5.46331 10.1406 5.01409 8.27186 5.01409H5.68436V15.984ZM31.509 20.2965C29.4066 20.2965 27.6008 19.8922 26.0914 19.0836C24.582 18.275 23.4231 17.134 22.6145 15.6606C21.8239 14.1871 21.4285 12.4621 21.4285 10.4856C21.4285 9.01213 21.6531 7.67346 22.1024 6.46956C22.5696 5.26565 23.2344 4.23245 24.0969 3.36995C24.9774 2.50745 26.0375 1.85159 27.2774 1.40238C28.5352 0.93519 29.9457 0.701597 31.509 0.701597C32.3356 0.701597 33.1891 0.800425 34.0695 0.998081C34.968 1.17777 35.7586 1.45628 36.4414 1.83363C36.9445 2.10316 37.2949 2.44456 37.4926 2.85784C37.6902 3.27112 37.7531 3.69339 37.6812 4.12464C37.6273 4.55589 37.4746 4.94222 37.223 5.28362C36.9715 5.62503 36.648 5.85862 36.2527 5.9844C35.8574 6.09221 35.4262 6.02932 34.959 5.79573C34.4199 5.54417 33.8809 5.3555 33.3418 5.22971C32.8207 5.08596 32.2727 5.01409 31.6977 5.01409C30.5836 5.01409 29.6492 5.22971 28.8945 5.66096C28.1578 6.07424 27.6008 6.68518 27.2235 7.49377C26.8461 8.30236 26.6574 9.29963 26.6574 10.4856C26.6574 11.6715 26.8461 12.6777 27.2235 13.5043C27.6008 14.3129 28.1578 14.9328 28.8945 15.3641C29.6492 15.7774 30.5836 15.984 31.6977 15.984C32.1648 15.984 32.668 15.9301 33.207 15.8223C33.7461 15.6965 34.2762 15.5078 34.7973 15.2563C35.3363 15.0227 35.8125 14.9598 36.2258 15.0676C36.657 15.1754 36.9984 15.391 37.25 15.7145C37.5195 16.0379 37.6902 16.4152 37.7621 16.8465C37.834 17.2598 37.7711 17.6731 37.5734 18.0863C37.3937 18.4996 37.0703 18.832 36.6031 19.0836C35.9742 19.4609 35.1926 19.7574 34.2582 19.973C33.3418 20.1887 32.4254 20.2965 31.509 20.2965ZM48.2717 20.2426C47.5889 20.2426 47.0319 20.0988 46.6006 19.8113C46.1873 19.5238 45.8369 19.0656 45.5494 18.4367L39.0268 4.04378C38.7393 3.41487 38.6495 2.84886 38.7573 2.34573C38.8651 1.84261 39.1166 1.45628 39.5119 1.18675C39.9073 0.899253 40.4014 0.755503 40.9944 0.755503C41.7311 0.755503 42.2791 0.917221 42.6385 1.24066C43.0158 1.5641 43.3393 2.04027 43.6088 2.66917L49.1072 15.391H47.5979L53.0963 2.64222C53.3658 2.01331 53.6893 1.54613 54.0666 1.24066C54.444 0.917221 54.974 0.755503 55.6568 0.755503C56.2139 0.755503 56.6811 0.899253 57.0584 1.18675C57.4357 1.45628 57.6693 1.84261 57.7592 2.34573C57.867 2.84886 57.7772 3.41487 57.4897 4.04378L50.9401 18.4367C50.6705 19.0656 50.3291 19.5238 49.9158 19.8113C49.5026 20.0988 48.9545 20.2426 48.2717 20.2426Z" fill="#E966A0"/>
</svg>
