<svg width="38" height="21" viewBox="0 0 38 21" fill="none" xmlns="http://www.w3.org/2000/svg">
<path d="M8.11288 20.2965C6.63944 20.2965 5.35468 20.018 4.25859 19.4609C3.16249 18.9039 2.30898 18.1043 1.69804 17.0621C1.08711 16.0199 0.781639 14.7891 0.781639 13.3695C0.781639 12.2914 0.952342 11.3301 1.29375 10.4856C1.63515 9.62307 2.12929 8.89533 2.77617 8.30236C3.42304 7.69143 4.1957 7.23323 5.09413 6.92776C5.99257 6.60432 6.99882 6.4426 8.11288 6.4426C9.58631 6.4426 10.8711 6.72112 11.9672 7.27815C13.0633 7.83518 13.9078 8.63479 14.5008 9.67697C15.1117 10.7012 15.4172 11.932 15.4172 13.3695C15.4172 14.4297 15.2465 15.391 14.9051 16.2535C14.5636 17.116 14.0695 17.8527 13.4226 18.4637C12.7937 19.0566 12.0211 19.5148 11.1047 19.8383C10.2062 20.1437 9.20897 20.2965 8.11288 20.2965ZM8.11288 16.7656C8.59803 16.7656 9.02928 16.6488 9.40662 16.4152C9.78397 16.1637 10.0715 15.7953 10.2691 15.3102C10.4847 14.807 10.5926 14.1602 10.5926 13.3695C10.5926 12.1656 10.359 11.3031 9.89178 10.782C9.42459 10.243 8.83163 9.97346 8.11288 9.97346C7.62772 9.97346 7.19647 10.0903 6.81913 10.3238C6.44179 10.5574 6.1453 10.9258 5.92968 11.4289C5.71405 11.9141 5.60624 12.561 5.60624 13.3695C5.60624 14.5555 5.83983 15.418 6.30702 15.957C6.77421 16.4961 7.37616 16.7656 8.11288 16.7656ZM21.0148 20.2426C20.2421 20.2426 19.6491 20.0359 19.2359 19.6227C18.8226 19.2094 18.6159 18.6074 18.6159 17.8168V10.2699H17.9152C17.3402 10.2699 16.8909 10.1172 16.5675 9.81174C16.262 9.50627 16.1093 9.06604 16.1093 8.49104C16.1093 7.91604 16.262 7.48479 16.5675 7.19729C16.8909 6.89182 17.3402 6.73909 17.9152 6.73909H19.9905L18.6159 8.00588V7.25119C18.6159 5.25667 19.1101 3.76526 20.0984 2.77698C21.1046 1.77074 22.596 1.16878 24.5726 0.971128L25.3542 0.890268C25.9292 0.818393 26.3874 0.890268 26.7288 1.10589C27.0702 1.30355 27.3038 1.57308 27.4296 1.91449C27.5554 2.23792 27.5823 2.57933 27.5105 2.9387C27.4566 3.29808 27.3218 3.60354 27.1062 3.85511C26.8905 4.10667 26.603 4.25042 26.2437 4.28636L25.8663 4.31331C24.9499 4.38518 24.312 4.58284 23.9527 4.90628C23.5933 5.22971 23.4136 5.70588 23.4136 6.33479V7.22424L22.8206 6.73909H24.9499C25.5429 6.73909 25.9921 6.89182 26.2976 7.19729C26.603 7.48479 26.7558 7.91604 26.7558 8.49104C26.7558 9.06604 26.603 9.50627 26.2976 9.81174C25.9921 10.1172 25.5429 10.2699 24.9499 10.2699H23.4136V17.8168C23.4136 19.434 22.614 20.2426 21.0148 20.2426ZM31.0432 20.2426C30.2705 20.2426 29.6776 20.0359 29.2643 19.6227C28.851 19.2094 28.6444 18.6074 28.6444 17.8168V10.2699H27.9436C27.3686 10.2699 26.9194 10.1172 26.5959 9.81174C26.2905 9.50627 26.1377 9.06604 26.1377 8.49104C26.1377 7.91604 26.2905 7.48479 26.5959 7.19729C26.9194 6.89182 27.3686 6.73909 27.9436 6.73909H30.019L28.6444 8.00588V7.25119C28.6444 5.25667 29.1385 3.76526 30.1268 2.77698C31.133 1.77074 32.6245 1.16878 34.601 0.971128L35.3826 0.890268C35.9576 0.818393 36.4158 0.890268 36.7573 1.10589C37.0987 1.30355 37.3323 1.57308 37.458 1.91449C37.5838 2.23792 37.6108 2.57933 37.5389 2.9387C37.485 3.29808 37.3502 3.60354 37.1346 3.85511C36.919 4.10667 36.6315 4.25042 36.2721 4.28636L35.8948 4.31331C34.9784 4.38518 34.3405 4.58284 33.9811 4.90628C33.6217 5.22971 33.442 5.70588 33.442 6.33479V7.22424L32.8491 6.73909H34.9784C35.5713 6.73909 36.0205 6.89182 36.326 7.19729C36.6315 7.48479 36.7842 7.91604 36.7842 8.49104C36.7842 9.06604 36.6315 9.50627 36.326 9.81174C36.0205 10.1172 35.5713 10.2699 34.9784 10.2699H33.442V17.8168C33.442 19.434 32.6424 20.2426 31.0432 20.2426Z" fill="#E966A0"/>
</svg>
