<svg width="22" height="20" viewBox="0 0 22 20" fill="none" xmlns="http://www.w3.org/2000/svg">
<path d="M2.61445 20C1.96757 20 1.47343 19.8293 1.13203 19.4879C0.790624 19.1465 0.619921 18.6613 0.619921 18.0324C0.619921 17.3856 0.790624 16.8914 1.13203 16.55C1.47343 16.2086 1.96757 16.0379 2.61445 16.0379H7.14257V17.2238C4.96835 16.3254 3.42304 15.1844 2.50664 13.8008C1.6082 12.4172 1.15898 10.809 1.15898 8.97619C1.15898 7.26916 1.59023 5.80471 2.45273 4.58284C3.3332 3.343 4.51913 2.39066 6.01054 1.72581C7.51991 1.043 9.21795 0.701597 11.1047 0.701597C12.5242 0.701597 13.8359 0.899253 15.0398 1.29457C16.2437 1.67191 17.2949 2.21995 18.1933 2.9387C19.0918 3.63948 19.7925 4.50198 20.2957 5.5262C20.7988 6.55042 21.0504 7.70041 21.0504 8.97619C21.0504 10.216 20.8527 11.3481 20.4574 12.3723C20.08 13.3785 19.4511 14.2859 18.5707 15.0945C17.6902 15.9031 16.5312 16.6129 15.0937 17.2238V16.0379H19.5949C20.2418 16.0379 20.7359 16.2086 21.0773 16.55C21.4187 16.8914 21.5894 17.3856 21.5894 18.0324C21.5894 18.6613 21.4187 19.1465 21.0773 19.4879C20.7359 19.8293 20.2418 20 19.5949 20H14.4199C13.9347 20 13.5215 19.9012 13.1801 19.7035C12.8566 19.4879 12.6051 19.2184 12.4254 18.8949C12.2636 18.5535 12.1828 18.1941 12.1828 17.8168C12.1828 17.4395 12.2277 17.116 12.3176 16.8465C12.4074 16.559 12.5511 16.2805 12.7488 16.0109C12.9465 15.7414 13.198 15.4629 13.5035 15.1754C14.0605 14.6543 14.5187 14.1063 14.8781 13.5313C15.2375 12.9563 15.498 12.3543 15.6597 11.7254C15.8215 11.0785 15.9023 10.4137 15.9023 9.73088C15.9023 8.68869 15.7047 7.80823 15.3093 7.08948C14.914 6.35276 14.357 5.79573 13.6383 5.41839C12.9375 5.04104 12.0929 4.85237 11.1047 4.85237C10.1344 4.85237 9.28983 5.04104 8.57108 5.41839C7.85233 5.79573 7.2953 6.35276 6.89999 7.08948C6.50468 7.80823 6.30702 8.68869 6.30702 9.73088C6.30702 10.3418 6.38788 10.9707 6.5496 11.6176C6.71132 12.2645 6.97186 12.9024 7.33124 13.5313C7.69061 14.1422 8.14881 14.6902 8.70584 15.1754C9.191 15.6066 9.53241 16.0109 9.73006 16.3883C9.94569 16.7656 10.0535 17.2238 10.0535 17.7629C10.0535 18.3559 9.85584 18.877 9.46053 19.3262C9.06522 19.7754 8.50819 20 7.78944 20H2.61445Z" fill="#E966A0"/>
</svg>
