<svg width="444" height="135" viewBox="0 0 444 135" fill="none" xmlns="http://www.w3.org/2000/svg">
<g filter="url(#filter0_d_154_932)">
<rect x="7" y="3" width="430" height="121" rx="33" stroke="#9575DE" stroke-width="6"/>
<rect x="7" y="3" width="430" height="121" rx="33" fill="#151515" stroke="#9575DE" stroke-width="6"/>
<path d="M42.4932 34.3066C42.4932 35.1803 42.3571 35.986 42.085 36.7236C41.8128 37.4613 41.4189 38.0951 40.9033 38.625C40.3877 39.1549 39.7718 39.5632 39.0557 39.8496C38.3395 40.1289 37.5339 40.2686 36.6387 40.2686C35.7507 40.2686 34.9521 40.1253 34.2432 39.8389C33.5342 39.5524 32.9183 39.1442 32.3955 38.6143C31.8799 38.0771 31.486 37.4469 31.2139 36.7236C30.9489 35.9932 30.8164 35.1875 30.8164 34.3066C30.8164 33.4186 30.9525 32.6058 31.2246 31.8682C31.4967 31.1305 31.887 30.5003 32.3955 29.9775C32.904 29.4548 33.5199 29.0537 34.2432 28.7744C34.9665 28.488 35.765 28.3447 36.6387 28.3447C37.5267 28.3447 38.3324 28.488 39.0557 28.7744C39.779 29.0609 40.3984 29.4691 40.9141 29.999C41.4297 30.529 41.82 31.1592 42.085 31.8896C42.3571 32.6201 42.4932 33.4258 42.4932 34.3066ZM39.5498 34.3066C39.5498 33.1107 39.2848 32.1797 38.7549 31.5137C38.2321 30.8477 37.5267 30.5146 36.6387 30.5146C36.0658 30.5146 35.5609 30.665 35.124 30.9658C34.6872 31.2594 34.3506 31.6963 34.1143 32.2764C33.8779 32.8564 33.7598 33.5332 33.7598 34.3066C33.7598 35.0729 33.8743 35.7425 34.1035 36.3154C34.3398 36.8883 34.6729 37.3288 35.1025 37.6367C35.5394 37.9375 36.0514 38.0879 36.6387 38.0879C37.5267 38.0879 38.2321 37.7549 38.7549 37.0889C39.2848 36.4157 39.5498 35.4883 39.5498 34.3066ZM47.5205 25.6592V30.1387C48.0719 29.5658 48.6341 29.1289 49.207 28.8281C49.7799 28.5202 50.4889 28.3662 51.334 28.3662C52.3079 28.3662 53.1602 28.599 53.8906 29.0645C54.6283 29.5228 55.1976 30.1924 55.5986 31.0732C56.0068 31.9469 56.2109 32.9854 56.2109 34.1885C56.2109 35.0765 56.0964 35.8929 55.8672 36.6377C55.6452 37.3753 55.3193 38.0163 54.8896 38.5605C54.46 39.1048 53.9372 39.5273 53.3213 39.8281C52.7126 40.1217 52.0394 40.2686 51.3018 40.2686C50.8506 40.2686 50.4245 40.2148 50.0234 40.1074C49.6296 40 49.293 39.8604 49.0137 39.6885C48.7344 39.5094 48.4945 39.3268 48.2939 39.1406C48.1006 38.9544 47.8428 38.6751 47.5205 38.3027V38.5928C47.5205 39.1442 47.388 39.5632 47.123 39.8496C46.8581 40.1289 46.5215 40.2686 46.1133 40.2686C45.6979 40.2686 45.3649 40.1289 45.1143 39.8496C44.8708 39.5632 44.749 39.1442 44.749 38.5928V25.7881C44.749 25.1937 44.8672 24.7461 45.1035 24.4453C45.347 24.1374 45.6836 23.9834 46.1133 23.9834C46.5645 23.9834 46.9118 24.1302 47.1553 24.4238C47.3988 24.7103 47.5205 25.1221 47.5205 25.6592ZM47.6602 34.3711C47.6602 35.5384 47.9251 36.4372 48.4551 37.0674C48.9922 37.6904 49.694 38.002 50.5605 38.002C51.2982 38.002 51.932 37.6833 52.4619 37.0459C52.999 36.4014 53.2676 35.4811 53.2676 34.2852C53.2676 33.5117 53.1566 32.8457 52.9346 32.2871C52.7126 31.7285 52.3975 31.2988 51.9893 30.998C51.5811 30.6901 51.1048 30.5361 50.5605 30.5361C50.002 30.5361 49.5042 30.6901 49.0674 30.998C48.6305 31.2988 48.2868 31.7393 48.0361 32.3193C47.7855 32.8923 47.6602 33.5762 47.6602 34.3711ZM61.5176 30.0957V40.043C61.5176 40.752 61.4925 41.3285 61.4424 41.7725C61.3994 42.2236 61.335 42.5495 61.249 42.75C60.762 43.9961 59.7272 44.6191 58.1445 44.6191C57.2565 44.6191 56.5833 44.4974 56.125 44.2539C55.6667 44.0104 55.4375 43.6559 55.4375 43.1904C55.4375 42.8467 55.5413 42.5638 55.749 42.3418C55.9567 42.127 56.2288 42.0195 56.5654 42.0195C56.6084 42.0195 56.68 42.0231 56.7803 42.0303C56.8734 42.0446 57.013 42.0589 57.1992 42.0732C57.3926 42.0876 57.5251 42.0947 57.5967 42.0947C57.9906 42.0947 58.252 41.9408 58.3809 41.6328C58.5169 41.3249 58.585 40.7734 58.585 39.9785V30.0957C58.585 29.5156 58.721 29.0788 58.9932 28.7852C59.2653 28.4915 59.6234 28.3447 60.0674 28.3447C60.4971 28.3447 60.8444 28.4915 61.1094 28.7852C61.3815 29.0716 61.5176 29.5085 61.5176 30.0957ZM60.0674 26.9805C59.6592 26.9805 59.3083 26.8551 59.0146 26.6045C58.7282 26.3538 58.585 25.9994 58.585 25.541C58.585 25.1257 58.7318 24.7855 59.0254 24.5205C59.3262 24.2484 59.6735 24.1123 60.0674 24.1123C60.4469 24.1123 60.7835 24.2341 61.0771 24.4775C61.3708 24.721 61.5176 25.0755 61.5176 25.541C61.5176 25.9922 61.3743 26.3467 61.0879 26.6045C60.8014 26.8551 60.4613 26.9805 60.0674 26.9805ZM72.7217 35.0264H66.9853C66.9925 35.6924 67.125 36.2796 67.3828 36.7881C67.6478 37.2965 67.9951 37.6797 68.4248 37.9375C68.8616 38.1953 69.3415 38.3242 69.8643 38.3242C70.2152 38.3242 70.5338 38.2848 70.8203 38.2061C71.1139 38.1201 71.3968 37.9912 71.6689 37.8193C71.9411 37.6403 72.1917 37.4505 72.4209 37.25C72.6501 37.0495 72.9473 36.7773 73.3125 36.4336C73.4629 36.3047 73.6777 36.2402 73.957 36.2402C74.2578 36.2402 74.5013 36.3226 74.6875 36.4873C74.8737 36.652 74.9668 36.8848 74.9668 37.1855C74.9668 37.4505 74.863 37.762 74.6553 38.1201C74.4476 38.471 74.1325 38.8112 73.71 39.1406C73.2946 39.4629 72.7682 39.7314 72.1309 39.9463C71.5006 40.1611 70.7738 40.2686 69.9502 40.2686C68.0667 40.2686 66.6022 39.7314 65.5566 38.6572C64.5111 37.583 63.9883 36.1257 63.9883 34.2852C63.9883 33.4186 64.1172 32.6165 64.375 31.8789C64.6328 31.1341 65.0088 30.4967 65.5029 29.9668C65.9971 29.4368 66.6058 29.0322 67.3291 28.7529C68.0524 28.4665 68.8545 28.3232 69.7353 28.3232C70.8812 28.3232 71.8623 28.5667 72.6787 29.0537C73.5023 29.5335 74.1182 30.1566 74.5264 30.9229C74.9346 31.6891 75.1387 32.4697 75.1387 33.2646C75.1387 34.0023 74.9274 34.4821 74.5049 34.7041C74.0824 34.9189 73.488 35.0264 72.7217 35.0264ZM66.9853 33.3613H72.3027C72.2311 32.3587 71.959 31.6104 71.4863 31.1162C71.0208 30.6149 70.4049 30.3643 69.6387 30.3643C68.9082 30.3643 68.3066 30.6185 67.834 31.127C67.3685 31.6283 67.0856 32.373 66.9853 33.3613ZM88.1367 36.6377C88.1367 37.0029 88.0257 37.3932 87.8037 37.8086C87.5889 38.224 87.2559 38.6214 86.8047 39.001C86.3607 39.3734 85.7985 39.6742 85.1182 39.9033C84.4378 40.1325 83.6715 40.2471 82.8193 40.2471C81.0075 40.2471 79.5931 39.7207 78.5762 38.668C77.5592 37.6081 77.0508 36.1901 77.0508 34.4141C77.0508 33.2109 77.2835 32.1475 77.749 31.2236C78.2145 30.2998 78.8877 29.5872 79.7686 29.0859C80.6494 28.5775 81.7021 28.3232 82.9268 28.3232C83.6859 28.3232 84.3805 28.4342 85.0107 28.6563C85.6481 28.8783 86.1852 29.1647 86.6221 29.5156C87.0661 29.8665 87.4027 30.2425 87.6318 30.6436C87.8682 31.0374 87.9863 31.4063 87.9863 31.75C87.9863 32.1009 87.8538 32.3981 87.5889 32.6416C87.331 32.8851 87.0159 33.0068 86.6435 33.0068C86.4001 33.0068 86.196 32.946 86.0312 32.8242C85.8737 32.6953 85.6947 32.4912 85.4941 32.2119C85.1361 31.6676 84.7601 31.2594 84.3662 30.9873C83.9795 30.7152 83.4853 30.5791 82.8838 30.5791C82.0172 30.5791 81.319 30.9193 80.7891 31.5996C80.2591 32.2728 79.9941 33.1966 79.9941 34.3711C79.9941 34.9225 80.0622 35.431 80.1982 35.8965C80.3343 36.3548 80.5312 36.7487 80.7891 37.0781C81.0469 37.4004 81.3584 37.6475 81.7236 37.8193C82.0889 37.984 82.4899 38.0664 82.9268 38.0664C83.514 38.0664 84.0153 37.9303 84.4307 37.6582C84.8532 37.3861 85.2256 36.9707 85.5478 36.4121C85.7269 36.0827 85.9202 35.8249 86.1279 35.6387C86.3356 35.4525 86.5898 35.3594 86.8906 35.3594C87.2487 35.3594 87.5459 35.4954 87.7822 35.7676C88.0185 36.0397 88.1367 36.3298 88.1367 36.6377ZM90.8652 28.6025H91.1875V26.8408C91.1875 26.3682 91.1982 25.9994 91.2197 25.7344C91.2484 25.4622 91.32 25.2295 91.4346 25.0361C91.5491 24.8356 91.7139 24.6745 91.9287 24.5527C92.1436 24.4238 92.3835 24.3594 92.6484 24.3594C93.0208 24.3594 93.3574 24.499 93.6582 24.7783C93.8587 24.9645 93.984 25.1937 94.0342 25.4658C94.0915 25.7308 94.1201 26.1104 94.1201 26.6045V28.6025H95.1943C95.6097 28.6025 95.9248 28.7028 96.1396 28.9033C96.3616 29.0967 96.4727 29.3473 96.4727 29.6553C96.4727 30.0492 96.3151 30.3249 96 30.4824C95.6921 30.64 95.248 30.7188 94.668 30.7188H94.1201V36.1113C94.1201 36.5697 94.1344 36.9242 94.1631 37.1748C94.1989 37.4183 94.2848 37.6188 94.4209 37.7764C94.5641 37.9268 94.7933 38.002 95.1084 38.002C95.2803 38.002 95.513 37.9733 95.8066 37.916C96.1003 37.8516 96.3294 37.8193 96.4941 37.8193C96.7305 37.8193 96.9417 37.916 97.1279 38.1094C97.3213 38.2956 97.418 38.5283 97.418 38.8076C97.418 39.2803 97.1602 39.6419 96.6445 39.8926C96.1289 40.1432 95.3877 40.2686 94.4209 40.2686C93.5042 40.2686 92.8096 40.1146 92.3369 39.8066C91.8643 39.4987 91.5527 39.0726 91.4023 38.5283C91.2591 37.984 91.1875 37.2572 91.1875 36.3477V30.7188H90.8008C90.3783 30.7188 90.056 30.6185 89.834 30.418C89.612 30.2174 89.501 29.9632 89.501 29.6553C89.501 29.3473 89.6156 29.0967 89.8447 28.9033C90.0811 28.7028 90.4212 28.6025 90.8652 28.6025ZM101.436 30.0098V38.4854C101.436 39.0726 101.296 39.5166 101.017 39.8174C100.737 40.1182 100.383 40.2686 99.9531 40.2686C99.5234 40.2686 99.1725 40.1146 98.9004 39.8066C98.6354 39.4987 98.5029 39.0583 98.5029 38.4854V30.0957C98.5029 29.5156 98.6354 29.0788 98.9004 28.7852C99.1725 28.4915 99.5234 28.3447 99.9531 28.3447C100.383 28.3447 100.737 28.4915 101.017 28.7852C101.296 29.0788 101.436 29.487 101.436 30.0098ZM99.9853 26.9805C99.5771 26.9805 99.2262 26.8551 98.9326 26.6045C98.6462 26.3538 98.5029 25.9994 98.5029 25.541C98.5029 25.1257 98.6497 24.7855 98.9434 24.5205C99.2441 24.2484 99.5915 24.1123 99.9853 24.1123C100.365 24.1123 100.701 24.2341 100.995 24.4775C101.289 24.721 101.436 25.0755 101.436 25.541C101.436 25.9922 101.292 26.3467 101.006 26.6045C100.719 26.8551 100.379 26.9805 99.9853 26.9805ZM106.549 30.1709L108.923 36.8311L111.479 29.8809C111.68 29.3223 111.877 28.9284 112.07 28.6992C112.264 28.4629 112.557 28.3447 112.951 28.3447C113.324 28.3447 113.639 28.4701 113.896 28.7207C114.161 28.9714 114.294 29.2614 114.294 29.5908C114.294 29.7197 114.269 29.8701 114.219 30.042C114.176 30.2139 114.122 30.375 114.058 30.5254C114 30.6758 113.932 30.8477 113.854 31.041L111.039 38.0234C110.96 38.224 110.856 38.4782 110.728 38.7861C110.606 39.0941 110.466 39.359 110.309 39.5811C110.158 39.7959 109.968 39.9642 109.739 40.0859C109.517 40.2077 109.245 40.2686 108.923 40.2686C108.507 40.2686 108.174 40.1755 107.924 39.9893C107.68 39.7959 107.498 39.5882 107.376 39.3662C107.261 39.137 107.064 38.6895 106.785 38.0234L103.992 31.1162C103.928 30.9443 103.86 30.7725 103.788 30.6006C103.724 30.4287 103.666 30.2533 103.616 30.0742C103.573 29.8952 103.552 29.7412 103.552 29.6123C103.552 29.4118 103.613 29.2148 103.734 29.0215C103.856 28.821 104.024 28.6598 104.239 28.5381C104.454 28.4092 104.687 28.3447 104.937 28.3447C105.424 28.3447 105.757 28.4844 105.937 28.7637C106.123 29.043 106.327 29.512 106.549 30.1709ZM124.284 35.0264H118.548C118.555 35.6924 118.687 36.2796 118.945 36.7881C119.21 37.2965 119.558 37.6797 119.987 37.9375C120.424 38.1953 120.904 38.3242 121.427 38.3242C121.778 38.3242 122.096 38.2848 122.383 38.2061C122.676 38.1201 122.959 37.9912 123.231 37.8193C123.504 37.6403 123.754 37.4505 123.983 37.25C124.213 37.0495 124.51 36.7773 124.875 36.4336C125.025 36.3047 125.24 36.2402 125.52 36.2402C125.82 36.2402 126.064 36.3226 126.25 36.4873C126.436 36.652 126.529 36.8848 126.529 37.1855C126.529 37.4505 126.425 37.762 126.218 38.1201C126.01 38.471 125.695 38.8112 125.272 39.1406C124.857 39.4629 124.331 39.7314 123.693 39.9463C123.063 40.1611 122.336 40.2686 121.513 40.2686C119.629 40.2686 118.165 39.7314 117.119 38.6572C116.074 37.583 115.551 36.1257 115.551 34.2852C115.551 33.4186 115.68 32.6165 115.937 31.8789C116.195 31.1341 116.571 30.4967 117.065 29.9668C117.56 29.4368 118.168 29.0322 118.892 28.7529C119.615 28.4665 120.417 28.3232 121.298 28.3232C122.444 28.3232 123.425 28.5667 124.241 29.0537C125.065 29.5335 125.681 30.1566 126.089 30.9229C126.497 31.6891 126.701 32.4697 126.701 33.2646C126.701 34.0023 126.49 34.4821 126.067 34.7041C125.645 34.9189 125.05 35.0264 124.284 35.0264ZM118.548 33.3613H123.865C123.794 32.3587 123.521 31.6104 123.049 31.1162C122.583 30.6149 121.967 30.3643 121.201 30.3643C120.471 30.3643 119.869 30.6185 119.396 31.127C118.931 31.6283 118.648 32.373 118.548 33.3613ZM138.625 36.4336C138.625 37.2428 138.428 37.9375 138.034 38.5176C137.64 39.0905 137.057 39.5273 136.283 39.8281C135.517 40.1217 134.582 40.2686 133.479 40.2686C132.427 40.2686 131.524 40.1074 130.772 39.7852C130.02 39.4629 129.465 39.0618 129.107 38.582C128.749 38.0951 128.57 37.6081 128.57 37.1211C128.57 36.7988 128.685 36.5231 128.914 36.2939C129.143 36.0648 129.433 35.9502 129.784 35.9502C130.092 35.9502 130.328 36.0254 130.493 36.1758C130.658 36.3262 130.815 36.5374 130.966 36.8096C131.267 37.3324 131.625 37.7227 132.04 37.9805C132.463 38.2383 133.035 38.3672 133.759 38.3672C134.346 38.3672 134.826 38.2383 135.198 37.9805C135.578 37.7155 135.768 37.4147 135.768 37.0781C135.768 36.5625 135.571 36.1865 135.177 35.9502C134.79 35.7139 134.149 35.4883 133.254 35.2734C132.244 35.0228 131.421 34.7614 130.783 34.4893C130.153 34.21 129.648 33.8447 129.269 33.3936C128.889 32.9424 128.699 32.3874 128.699 31.7285C128.699 31.1413 128.875 30.5863 129.226 30.0635C129.576 29.5407 130.092 29.1253 130.772 28.8174C131.46 28.5023 132.287 28.3447 133.254 28.3447C134.013 28.3447 134.693 28.4235 135.295 28.5811C135.904 28.7386 136.409 28.9499 136.81 29.2148C137.218 29.4798 137.526 29.7734 137.733 30.0957C137.948 30.418 138.056 30.7331 138.056 31.041C138.056 31.3776 137.941 31.6533 137.712 31.8682C137.49 32.083 137.171 32.1904 136.756 32.1904C136.455 32.1904 136.197 32.1045 135.982 31.9326C135.775 31.7607 135.535 31.5029 135.263 31.1592C135.041 30.8727 134.779 30.6436 134.479 30.4717C134.178 30.2998 133.77 30.2139 133.254 30.2139C132.724 30.2139 132.284 30.3285 131.933 30.5576C131.582 30.7796 131.406 31.0589 131.406 31.3955C131.406 31.7035 131.535 31.9577 131.793 32.1582C132.051 32.3516 132.398 32.5127 132.835 32.6416C133.272 32.7705 133.873 32.9281 134.64 33.1143C135.549 33.3363 136.29 33.6012 136.863 33.9092C137.443 34.2171 137.88 34.5824 138.174 35.0049C138.475 35.4202 138.625 35.8965 138.625 36.4336ZM143.051 40.2686C142.607 40.2686 142.224 40.1253 141.901 39.8389C141.579 39.5524 141.418 39.1514 141.418 38.6357C141.418 38.1989 141.572 37.8229 141.88 37.5078C142.188 37.1927 142.567 37.0352 143.019 37.0352C143.47 37.0352 143.853 37.1927 144.168 37.5078C144.49 37.8158 144.651 38.1917 144.651 38.6357C144.651 39.1442 144.49 39.5452 144.168 39.8389C143.853 40.1253 143.48 40.2686 143.051 40.2686ZM141.418 29.9453C141.418 29.4368 141.576 29.043 141.891 28.7637C142.213 28.4844 142.6 28.3447 143.051 28.3447C143.488 28.3447 143.864 28.488 144.179 28.7744C144.494 29.0537 144.651 29.444 144.651 29.9453C144.651 30.3464 144.479 30.7152 144.136 31.0518C143.792 31.3883 143.42 31.5566 143.019 31.5566C142.582 31.5566 142.206 31.3955 141.891 31.0732C141.576 30.751 141.418 30.375 141.418 29.9453Z" fill="#9575DE"/>
<path d="M37.6286 63.3636H34.9437V67.4601C34.9437 68.0458 34.8055 68.49 34.5291 68.7927C34.2527 69.0954 33.9039 69.2468 33.4828 69.2468C33.0419 69.2468 32.6865 69.0987 32.4167 68.8026C32.1469 68.4999 32.012 68.059 32.012 67.4799V56.3255C32.012 55.6806 32.1601 55.22 32.4562 54.9436C32.7523 54.6672 33.2228 54.529 33.8678 54.529H37.6286C38.7408 54.529 39.5963 54.6145 40.1951 54.7856C40.7874 54.9502 41.2974 55.2233 41.7251 55.6049C42.1595 55.9866 42.4885 56.4539 42.7122 57.0066C42.936 57.5594 43.0479 58.1813 43.0479 58.8723C43.0479 60.3464 42.5938 61.4651 41.6857 62.2284C40.7775 62.9852 39.4252 63.3636 37.6286 63.3636ZM36.9179 56.7302H34.9437V61.1525H36.9179C37.6089 61.1525 38.1847 61.0801 38.6454 60.9353C39.1126 60.7905 39.4679 60.5536 39.7114 60.2246C39.9549 59.8956 40.0767 59.4645 40.0767 58.9315C40.0767 58.2932 39.8891 57.7733 39.514 57.3719C39.0928 56.9441 38.2275 56.7302 36.9179 56.7302ZM51.3494 67.7266C50.698 68.2333 50.0662 68.615 49.4542 68.8717C48.8488 69.1217 48.1677 69.2468 47.4109 69.2468C46.7199 69.2468 46.1112 69.1119 45.5847 68.8421C45.0649 68.5657 44.6634 68.1939 44.3805 67.7266C44.0975 67.2594 43.956 66.7527 43.956 66.2065C43.956 65.4694 44.1896 64.841 44.6568 64.3211C45.1241 63.8012 45.7657 63.4525 46.5817 63.2748C46.7528 63.2353 47.1773 63.1464 47.8551 63.0083C48.5329 62.8701 49.112 62.745 49.5924 62.6332C50.0794 62.5147 50.6058 62.3732 51.1718 62.2087C51.1389 61.498 50.9941 60.9781 50.7374 60.6491C50.4874 60.3134 49.9642 60.1456 49.1679 60.1456C48.4835 60.1456 47.967 60.2411 47.6182 60.4319C47.276 60.6227 46.9798 60.909 46.7298 61.2907C46.4863 61.6724 46.3119 61.9257 46.2066 62.0508C46.1079 62.1692 45.8907 62.2284 45.5551 62.2284C45.2524 62.2284 44.9892 62.133 44.7654 61.9422C44.5483 61.7448 44.4397 61.4947 44.4397 61.192C44.4397 60.7182 44.6075 60.2575 44.9431 59.81C45.2787 59.3625 45.8019 58.994 46.5126 58.7045C47.2233 58.4149 48.1084 58.2701 49.1679 58.2701C50.3525 58.2701 51.2836 58.4116 51.9614 58.6946C52.6393 58.971 53.1164 59.4119 53.3928 60.0173C53.6757 60.6227 53.8172 61.4256 53.8172 62.4259C53.8172 63.0576 53.8139 63.5939 53.8073 64.0348C53.8073 64.4758 53.8041 64.966 53.7975 65.5056C53.7975 66.0124 53.8797 66.5421 54.0442 67.0949C54.2153 67.6411 54.3009 67.9931 54.3009 68.1511C54.3009 68.4275 54.1693 68.6808 53.9061 68.9112C53.6494 69.1349 53.3566 69.2468 53.0275 69.2468C52.7511 69.2468 52.478 69.1185 52.2082 68.8618C51.9384 68.5986 51.6522 68.2202 51.3494 67.7266ZM51.1718 63.8276C50.7769 63.9723 50.2011 64.127 49.4443 64.2915C48.6941 64.4494 48.1742 64.5679 47.8847 64.6469C47.5951 64.7192 47.3187 64.8673 47.0555 65.0911C46.7923 65.3082 46.6607 65.6142 46.6607 66.0091C46.6607 66.4171 46.8153 66.7658 47.1246 67.0554C47.4339 67.3384 47.8386 67.4799 48.3388 67.4799C48.8718 67.4799 49.3621 67.3647 49.8096 67.1344C50.2636 66.8975 50.5959 66.5947 50.8065 66.2262C51.05 65.8182 51.1718 65.147 51.1718 64.2125V63.8276ZM65.2381 65.7228C65.2381 66.4664 65.0571 67.1048 64.6951 67.6378C64.3332 68.1642 63.7969 68.5657 63.0862 68.8421C62.382 69.1119 61.5232 69.2468 60.5098 69.2468C59.5424 69.2468 58.7133 69.0987 58.0223 68.8026C57.3313 68.5064 56.8213 68.1379 56.4923 67.697C56.1632 67.2495 55.9987 66.802 55.9987 66.3545C55.9987 66.0584 56.104 65.8051 56.3146 65.5945C56.5252 65.3839 56.7917 65.2786 57.1142 65.2786C57.3971 65.2786 57.6143 65.3477 57.7656 65.4859C57.917 65.6241 58.0618 65.8182 58.2 66.0683C58.4764 66.5487 58.8054 66.9073 59.1871 67.1442C59.5753 67.3811 60.1018 67.4996 60.7665 67.4996C61.3061 67.4996 61.747 67.3811 62.0892 67.1442C62.438 66.9007 62.6123 66.6244 62.6123 66.3151C62.6123 65.8413 62.4314 65.4958 62.0694 65.2786C61.7141 65.0614 61.1251 64.8541 60.3025 64.6567C59.3746 64.4264 58.6179 64.1862 58.0322 63.9361C57.4531 63.6795 56.9891 63.3439 56.6403 62.9293C56.2916 62.5147 56.1172 62.0047 56.1172 61.3993C56.1172 60.8596 56.2784 60.3496 56.6009 59.8692C56.9233 59.3889 57.3971 59.0072 58.0223 58.7242C58.654 58.4347 59.4141 58.2899 60.3025 58.2899C61.0001 58.2899 61.6252 58.3623 62.178 58.507C62.7374 58.6518 63.2013 58.8459 63.5698 59.0894C63.9449 59.3329 64.2279 59.6027 64.4188 59.8989C64.6162 60.195 64.7149 60.4845 64.7149 60.7675C64.7149 61.0768 64.6096 61.3302 64.399 61.5276C64.195 61.725 63.9022 61.8237 63.5205 61.8237C63.2441 61.8237 63.0072 61.7448 62.8098 61.5868C62.6189 61.4289 62.3985 61.192 62.1484 60.8761C61.9444 60.6129 61.7042 60.4023 61.4278 60.2443C61.1514 60.0864 60.7763 60.0074 60.3025 60.0074C59.8155 60.0074 59.4108 60.1127 59.0884 60.3233C58.7659 60.5273 58.6047 60.784 58.6047 61.0933C58.6047 61.3762 58.7231 61.6098 58.96 61.7941C59.197 61.9718 59.5161 62.1199 59.9175 62.2383C60.319 62.3568 60.8717 62.5015 61.5759 62.6726C62.4116 62.8766 63.0927 63.1201 63.6192 63.4031C64.1522 63.6861 64.5537 64.0217 64.8235 64.4099C65.0999 64.7916 65.2381 65.2292 65.2381 65.7228ZM74.3293 67.7266C73.6778 68.2333 73.0461 68.615 72.4341 68.8717C71.8286 69.1217 71.1475 69.2468 70.3908 69.2468C69.6998 69.2468 69.0911 69.1119 68.5646 68.8421C68.0447 68.5657 67.6433 68.1939 67.3603 67.7266C67.0774 67.2594 66.9359 66.7527 66.9359 66.2065C66.9359 65.4694 67.1695 64.841 67.6367 64.3211C68.104 63.8012 68.7456 63.4525 69.5616 63.2748C69.7327 63.2353 70.1571 63.1464 70.835 63.0083C71.5128 62.8701 72.0919 62.745 72.5723 62.6332C73.0592 62.5147 73.5857 62.3732 74.1516 62.2087C74.1187 61.498 73.974 60.9781 73.7173 60.6491C73.4672 60.3134 72.9441 60.1456 72.1478 60.1456C71.4634 60.1456 70.9468 60.2411 70.5981 60.4319C70.2559 60.6227 69.9597 60.909 69.7097 61.2907C69.4662 61.6724 69.2918 61.9257 69.1865 62.0508C69.0878 62.1692 68.8706 62.2284 68.535 62.2284C68.2323 62.2284 67.9691 62.133 67.7453 61.9422C67.5281 61.7448 67.4196 61.4947 67.4196 61.192C67.4196 60.7182 67.5874 60.2575 67.923 59.81C68.2586 59.3625 68.7818 58.994 69.4925 58.7045C70.2032 58.4149 71.0883 58.2701 72.1478 58.2701C73.3323 58.2701 74.2635 58.4116 74.9413 58.6946C75.6191 58.971 76.0962 59.4119 76.3726 60.0173C76.6556 60.6227 76.7971 61.4256 76.7971 62.4259C76.7971 63.0576 76.7938 63.5939 76.7872 64.0348C76.7872 64.4758 76.7839 64.966 76.7774 65.5056C76.7774 66.0124 76.8596 66.5421 77.0241 67.0949C77.1952 67.6411 77.2808 67.9931 77.2808 68.1511C77.2808 68.4275 77.1492 68.6808 76.8859 68.9112C76.6293 69.1349 76.3364 69.2468 76.0074 69.2468C75.731 69.2468 75.4579 69.1185 75.1881 68.8618C74.9183 68.5986 74.632 68.2202 74.3293 67.7266ZM74.1516 63.8276C73.7568 63.9723 73.181 64.127 72.4242 64.2915C71.674 64.4494 71.1541 64.5679 70.8646 64.6469C70.575 64.7192 70.2986 64.8673 70.0354 65.0911C69.7722 65.3082 69.6406 65.6142 69.6406 66.0091C69.6406 66.4171 69.7952 66.7658 70.1045 67.0554C70.4138 67.3384 70.8185 67.4799 71.3186 67.4799C71.8517 67.4799 72.3419 67.3647 72.7894 67.1344C73.2435 66.8975 73.5758 66.5947 73.7864 66.2262C74.0299 65.8182 74.1516 65.147 74.1516 64.2125V63.8276ZM81.9893 59.7804V60.1062C82.4631 59.481 82.9797 59.0236 83.539 58.7341C84.105 58.4379 84.7532 58.2899 85.4836 58.2899C86.1944 58.2899 86.8294 58.4445 87.3888 58.7538C87.9481 59.0631 88.366 59.5007 88.6424 60.0667C88.8201 60.3957 88.9352 60.7511 88.9879 61.1327C89.0405 61.5144 89.0669 62.0014 89.0669 62.5937V67.6082C89.0669 68.1478 88.9418 68.5558 88.6918 68.8322C88.4483 69.1086 88.1291 69.2468 87.7343 69.2468C87.3328 69.2468 87.0071 69.1053 86.757 68.8223C86.507 68.5393 86.3819 68.1346 86.3819 67.6082V63.1168C86.3819 62.2284 86.2569 61.5506 86.0068 61.0834C85.7633 60.6096 85.2731 60.3727 84.536 60.3727C84.0556 60.3727 83.618 60.5174 83.2232 60.807C82.8283 61.09 82.5388 61.4815 82.3545 61.9817C82.2229 62.3831 82.1571 63.1333 82.1571 64.2323V67.6082C82.1571 68.1544 82.0288 68.5657 81.7721 68.8421C81.5221 69.1119 81.1963 69.2468 80.7949 69.2468C80.4066 69.2468 80.0875 69.1053 79.8374 68.8223C79.5873 68.5393 79.4623 68.1346 79.4623 67.6082V59.8199C79.4623 59.3066 79.5742 58.9249 79.7979 58.6748C80.0216 58.4182 80.3277 58.2899 80.7159 58.2899C80.9528 58.2899 81.1667 58.3458 81.3575 58.4577C81.5484 58.5696 81.6997 58.7374 81.8116 58.9611C81.9301 59.1849 81.9893 59.458 81.9893 59.7804ZM101.672 60.2641V68.0919C101.672 68.9868 101.577 69.7568 101.386 70.4017C101.195 71.0466 100.889 71.5796 100.468 72.0008C100.047 72.422 99.494 72.7346 98.8096 72.9386C98.1318 73.1426 97.2862 73.2446 96.2727 73.2446C95.3449 73.2446 94.5157 73.113 93.7852 72.8497C93.0548 72.5931 92.4921 72.2575 92.0973 71.8429C91.7024 71.4349 91.505 71.0137 91.505 70.5794C91.505 70.2503 91.6169 69.9805 91.8406 69.7699C92.0644 69.5659 92.3342 69.4639 92.6501 69.4639C93.0449 69.4639 93.3904 69.6383 93.6865 69.9871C93.8313 70.1648 93.9794 70.3425 94.1307 70.5201C94.2887 70.7044 94.4598 70.8591 94.644 70.9841C94.8349 71.1157 95.0619 71.2111 95.3251 71.2703C95.5883 71.3362 95.8911 71.3691 96.2333 71.3691C96.9308 71.3691 97.4704 71.2703 97.8521 71.0729C98.2404 70.8821 98.5102 70.6123 98.6615 70.2635C98.8195 69.9147 98.9116 69.5396 98.9379 69.1382C98.9643 68.7434 98.984 68.105 98.9972 67.2232C98.5826 67.8023 98.1022 68.2432 97.556 68.5459C97.0164 68.8486 96.3715 69 95.6213 69C94.7197 69 93.93 68.7697 93.2522 68.309C92.581 67.8484 92.0644 67.2035 91.7024 66.3743C91.3405 65.5451 91.1595 64.5876 91.1595 63.5018C91.1595 62.6924 91.2681 61.9619 91.4853 61.3104C91.709 60.6589 92.0249 60.1094 92.4329 59.662C92.8409 59.2145 93.3114 58.8788 93.8445 58.6551C94.3775 58.4248 94.9632 58.3096 95.6015 58.3096C96.3649 58.3096 97.0262 58.4577 97.5856 58.7538C98.145 59.0434 98.6648 59.5007 99.1452 60.1259V59.7607C99.1452 59.2934 99.2604 58.9315 99.4907 58.6748C99.721 58.4182 100.017 58.2899 100.379 58.2899C100.899 58.2899 101.244 58.461 101.416 58.8032C101.587 59.1388 101.672 59.6258 101.672 60.2641ZM93.8642 63.6795C93.8642 64.7719 94.1011 65.5978 94.5749 66.1571C95.0553 66.7165 95.6739 66.9962 96.4307 66.9962C96.8782 66.9962 97.2993 66.8777 97.6942 66.6408C98.0956 66.3973 98.4213 66.0354 98.6714 65.555C98.9215 65.068 99.0465 64.479 99.0465 63.7881C99.0465 62.6891 98.803 61.8336 98.3161 61.2216C97.8357 60.6096 97.2006 60.3036 96.4109 60.3036C95.641 60.3036 95.0224 60.5964 94.5552 61.1821C94.0945 61.7678 93.8642 62.6002 93.8642 63.6795ZM112.126 65.3576V67.6082C112.126 68.1544 111.997 68.5657 111.741 68.8421C111.484 69.1119 111.158 69.2468 110.763 69.2468C110.375 69.2468 110.056 69.1086 109.806 68.8322C109.556 68.5558 109.431 68.1478 109.431 67.6082V60.1062C109.431 58.8953 109.869 58.2899 110.744 58.2899C111.191 58.2899 111.514 58.4314 111.711 58.7143C111.909 58.9973 112.017 59.4152 112.037 59.968C112.359 59.4152 112.688 58.9973 113.024 58.7143C113.366 58.4314 113.82 58.2899 114.386 58.2899C114.952 58.2899 115.502 58.4314 116.035 58.7143C116.568 58.9973 116.834 59.3724 116.834 59.8396C116.834 60.1687 116.719 60.4418 116.489 60.6589C116.265 60.8695 116.021 60.9748 115.758 60.9748C115.66 60.9748 115.419 60.9156 115.038 60.7971C114.663 60.6721 114.33 60.6096 114.041 60.6096C113.646 60.6096 113.323 60.7149 113.073 60.9255C112.823 61.1295 112.629 61.4355 112.491 61.8435C112.353 62.2515 112.257 62.7384 112.205 63.3044C112.152 63.8637 112.126 64.5481 112.126 65.3576ZM124.613 67.7266C123.961 68.2333 123.329 68.615 122.717 68.8717C122.112 69.1217 121.431 69.2468 120.674 69.2468C119.983 69.2468 119.374 69.1119 118.848 68.8421C118.328 68.5657 117.927 68.1939 117.644 67.7266C117.361 67.2594 117.219 66.7527 117.219 66.2065C117.219 65.4694 117.453 64.841 117.92 64.3211C118.387 63.8012 119.029 63.4525 119.845 63.2748C120.016 63.2353 120.44 63.1464 121.118 63.0083C121.796 62.8701 122.375 62.745 122.856 62.6332C123.343 62.5147 123.869 62.3732 124.435 62.2087C124.402 61.498 124.257 60.9781 124.001 60.6491C123.751 60.3134 123.227 60.1456 122.431 60.1456C121.747 60.1456 121.23 60.2411 120.881 60.4319C120.539 60.6227 120.243 60.909 119.993 61.2907C119.749 61.6724 119.575 61.9257 119.47 62.0508C119.371 62.1692 119.154 62.2284 118.818 62.2284C118.516 62.2284 118.252 62.133 118.029 61.9422C117.811 61.7448 117.703 61.4947 117.703 61.192C117.703 60.7182 117.871 60.2575 118.206 59.81C118.542 59.3625 119.065 58.994 119.776 58.7045C120.487 58.4149 121.372 58.2701 122.431 58.2701C123.616 58.2701 124.547 58.4116 125.225 58.6946C125.902 58.971 126.38 59.4119 126.656 60.0173C126.939 60.6227 127.08 61.4256 127.08 62.4259C127.08 63.0576 127.077 63.5939 127.071 64.0348C127.071 64.4758 127.067 64.966 127.061 65.5056C127.061 66.0124 127.143 66.5421 127.307 67.0949C127.479 67.6411 127.564 67.9931 127.564 68.1511C127.564 68.4275 127.432 68.6808 127.169 68.9112C126.913 69.1349 126.62 69.2468 126.291 69.2468C126.014 69.2468 125.741 69.1185 125.471 68.8618C125.202 68.5986 124.915 68.2202 124.613 67.7266ZM124.435 63.8276C124.04 63.9723 123.464 64.127 122.708 64.2915C121.957 64.4494 121.437 64.5679 121.148 64.6469C120.858 64.7192 120.582 64.8673 120.319 65.0911C120.055 65.3082 119.924 65.6142 119.924 66.0091C119.924 66.4171 120.079 66.7658 120.388 67.0554C120.697 67.3384 121.102 67.4799 121.602 67.4799C122.135 67.4799 122.625 67.3647 123.073 67.1344C123.527 66.8975 123.859 66.5947 124.07 66.2262C124.313 65.8182 124.435 65.147 124.435 64.2125V63.8276ZM138.787 63.9657V67.549C138.787 68.1149 138.659 68.5393 138.403 68.8223C138.146 69.1053 137.807 69.2468 137.386 69.2468C136.978 69.2468 136.645 69.1053 136.389 68.8223C136.139 68.5393 136.014 68.1149 136.014 67.549V63.255C136.014 62.5772 135.991 62.0508 135.945 61.6757C135.899 61.3006 135.774 60.9946 135.57 60.7576C135.366 60.5142 135.043 60.3924 134.602 60.3924C133.72 60.3924 133.138 60.6951 132.855 61.3006C132.579 61.906 132.44 62.7746 132.44 63.9065V67.549C132.44 68.1083 132.312 68.5328 132.055 68.8223C131.805 69.1053 131.473 69.2468 131.058 69.2468C130.65 69.2468 130.315 69.1053 130.052 68.8223C129.795 68.5328 129.667 68.1083 129.667 67.549V59.8396C129.667 59.3329 129.782 58.9479 130.012 58.6847C130.249 58.4215 130.558 58.2899 130.94 58.2899C131.309 58.2899 131.615 58.4149 131.858 58.665C132.108 58.9085 132.233 59.2474 132.233 59.6817V59.9383C132.7 59.379 133.2 58.9677 133.734 58.7045C134.267 58.4412 134.859 58.3096 135.51 58.3096C136.188 58.3096 136.771 58.4445 137.257 58.7143C137.744 58.9841 138.146 59.3921 138.462 59.9383C138.916 59.3856 139.403 58.9776 139.923 58.7143C140.443 58.4445 141.018 58.3096 141.65 58.3096C142.387 58.3096 143.022 58.4544 143.555 58.7439C144.088 59.0335 144.486 59.4481 144.75 59.9877C144.98 60.4747 145.095 61.2413 145.095 62.2877V67.549C145.095 68.1149 144.967 68.5393 144.71 68.8223C144.453 69.1053 144.115 69.2468 143.693 69.2468C143.285 69.2468 142.95 69.1053 142.687 68.8223C142.43 68.5328 142.302 68.1083 142.302 67.549V63.0181C142.302 62.439 142.275 61.9751 142.223 61.6263C142.177 61.2775 142.045 60.9847 141.828 60.7478C141.611 60.5109 141.282 60.3924 140.841 60.3924C140.485 60.3924 140.146 60.4977 139.824 60.7083C139.508 60.9189 139.261 61.2018 139.084 61.5572C138.886 62.0113 138.787 62.8141 138.787 63.9657ZM150.198 55.8221V59.9383C150.705 59.4119 151.222 59.0105 151.748 58.7341C152.275 58.4511 152.926 58.3096 153.703 58.3096C154.598 58.3096 155.381 58.5235 156.052 58.9512C156.73 59.3724 157.253 59.9877 157.622 60.7971C157.997 61.6 158.184 62.5542 158.184 63.6597C158.184 64.4758 158.079 65.226 157.868 65.9104C157.664 66.5882 157.365 67.1771 156.97 67.6773C156.575 68.1774 156.095 68.5657 155.529 68.8421C154.969 69.1119 154.351 69.2468 153.673 69.2468C153.259 69.2468 152.867 69.1974 152.498 69.0987C152.136 69 151.827 68.8717 151.571 68.7137C151.314 68.5492 151.093 68.3814 150.909 68.2103C150.732 68.0392 150.495 67.7826 150.198 67.4404V67.7069C150.198 68.2136 150.077 68.5986 149.833 68.8618C149.59 69.1185 149.28 69.2468 148.905 69.2468C148.524 69.2468 148.218 69.1185 147.987 68.8618C147.764 68.5986 147.652 68.2136 147.652 67.7069V55.9406C147.652 55.3944 147.76 54.9831 147.977 54.7067C148.201 54.4237 148.511 54.2822 148.905 54.2822C149.32 54.2822 149.639 54.4171 149.863 54.6869C150.087 54.9502 150.198 55.3285 150.198 55.8221ZM150.327 63.8276C150.327 64.9002 150.57 65.7261 151.057 66.3052C151.551 66.8777 152.196 67.164 152.992 67.164C153.67 67.164 154.252 66.8711 154.739 66.2855C155.233 65.6932 155.48 64.8476 155.48 63.7486C155.48 63.0379 155.378 62.4259 155.173 61.9126C154.969 61.3993 154.68 61.0044 154.305 60.728C153.93 60.4451 153.492 60.3036 152.992 60.3036C152.479 60.3036 152.021 60.4451 151.62 60.728C151.218 61.0044 150.903 61.4091 150.672 61.9422C150.442 62.4686 150.327 63.0971 150.327 63.8276ZM167.068 67.7266V67.3811C166.746 67.7891 166.407 68.1313 166.051 68.4077C165.696 68.6841 165.308 68.8881 164.887 69.0197C164.465 69.1579 163.985 69.227 163.445 69.227C162.794 69.227 162.208 69.0921 161.688 68.8223C161.175 68.5525 160.777 68.1807 160.494 67.7069C160.158 67.1344 159.991 66.3118 159.991 65.2391V59.8989C159.991 59.3592 160.112 58.9578 160.356 58.6946C160.599 58.4248 160.922 58.2899 161.323 58.2899C161.731 58.2899 162.06 58.4248 162.31 58.6946C162.56 58.9644 162.685 59.3658 162.685 59.8989V64.2125C162.685 64.8377 162.738 65.3642 162.843 65.7919C162.949 66.2131 163.136 66.5454 163.406 66.7889C163.682 67.0258 164.054 67.1442 164.521 67.1442C164.975 67.1442 165.403 67.0093 165.805 66.7395C166.206 66.4697 166.499 66.1176 166.683 65.6833C166.835 65.3016 166.91 64.4659 166.91 63.1761V59.8989C166.91 59.3658 167.035 58.9644 167.285 58.6946C167.535 58.4248 167.861 58.2899 168.263 58.2899C168.664 58.2899 168.986 58.4248 169.23 58.6946C169.473 58.9578 169.595 59.3592 169.595 59.8989V67.7069C169.595 68.2202 169.477 68.6052 169.24 68.8618C169.009 69.1185 168.71 69.2468 168.342 69.2468C167.973 69.2468 167.667 69.1152 167.424 68.8519C167.187 68.5821 167.068 68.207 167.068 67.7266ZM180.019 65.3576V67.6082C180.019 68.1544 179.891 68.5657 179.634 68.8421C179.377 69.1119 179.052 69.2468 178.657 69.2468C178.269 69.2468 177.949 69.1086 177.699 68.8322C177.449 68.5558 177.324 68.1478 177.324 67.6082V60.1062C177.324 58.8953 177.762 58.2899 178.637 58.2899C179.085 58.2899 179.407 58.4314 179.604 58.7143C179.802 58.9973 179.91 59.4152 179.93 59.968C180.253 59.4152 180.582 58.9973 180.917 58.7143C181.259 58.4314 181.714 58.2899 182.279 58.2899C182.845 58.2899 183.395 58.4314 183.928 58.7143C184.461 58.9973 184.728 59.3724 184.728 59.8396C184.728 60.1687 184.612 60.4418 184.382 60.6589C184.158 60.8695 183.915 60.9748 183.652 60.9748C183.553 60.9748 183.313 60.9156 182.931 60.7971C182.556 60.6721 182.224 60.6096 181.934 60.6096C181.539 60.6096 181.217 60.7149 180.967 60.9255C180.717 61.1295 180.522 61.4355 180.384 61.8435C180.246 62.2515 180.151 62.7384 180.098 63.3044C180.045 63.8637 180.019 64.5481 180.019 65.3576ZM192.506 67.7266C191.854 68.2333 191.223 68.615 190.611 68.8717C190.005 69.1217 189.324 69.2468 188.567 69.2468C187.876 69.2468 187.268 69.1119 186.741 68.8421C186.221 68.5657 185.82 68.1939 185.537 67.7266C185.254 67.2594 185.112 66.7527 185.112 66.2065C185.112 65.4694 185.346 64.841 185.813 64.3211C186.281 63.8012 186.922 63.4525 187.738 63.2748C187.909 63.2353 188.334 63.1464 189.012 63.0083C189.689 62.8701 190.268 62.745 190.749 62.6332C191.236 62.5147 191.762 62.3732 192.328 62.2087C192.295 61.498 192.151 60.9781 191.894 60.6491C191.644 60.3134 191.121 60.1456 190.324 60.1456C189.64 60.1456 189.123 60.2411 188.775 60.4319C188.432 60.6227 188.136 60.909 187.886 61.2907C187.643 61.6724 187.468 61.9257 187.363 62.0508C187.264 62.1692 187.047 62.2284 186.712 62.2284C186.409 62.2284 186.146 62.133 185.922 61.9422C185.705 61.7448 185.596 61.4947 185.596 61.192C185.596 60.7182 185.764 60.2575 186.1 59.81C186.435 59.3625 186.958 58.994 187.669 58.7045C188.38 58.4149 189.265 58.2701 190.324 58.2701C191.509 58.2701 192.44 58.4116 193.118 58.6946C193.796 58.971 194.273 59.4119 194.549 60.0173C194.832 60.6227 194.974 61.4256 194.974 62.4259C194.974 63.0576 194.97 63.5939 194.964 64.0348C194.964 64.4758 194.961 64.966 194.954 65.5056C194.954 66.0124 195.036 66.5421 195.201 67.0949C195.372 67.6411 195.457 67.9931 195.457 68.1511C195.457 68.4275 195.326 68.6808 195.063 68.9112C194.806 69.1349 194.513 69.2468 194.184 69.2468C193.908 69.2468 193.635 69.1185 193.365 68.8618C193.095 68.5986 192.809 68.2202 192.506 67.7266ZM192.328 63.8276C191.933 63.9723 191.358 64.127 190.601 64.2915C189.851 64.4494 189.331 64.5679 189.041 64.6469C188.752 64.7192 188.475 64.8673 188.212 65.0911C187.949 65.3082 187.817 65.6142 187.817 66.0091C187.817 66.4171 187.972 66.7658 188.281 67.0554C188.59 67.3384 188.995 67.4799 189.495 67.4799C190.028 67.4799 190.519 67.3647 190.966 67.1344C191.42 66.8975 191.752 66.5947 191.963 66.2262C192.207 65.8182 192.328 65.147 192.328 64.2125V63.8276ZM206.681 63.9657V67.549C206.681 68.1149 206.552 68.5393 206.296 68.8223C206.039 69.1053 205.7 69.2468 205.279 69.2468C204.871 69.2468 204.539 69.1053 204.282 68.8223C204.032 68.5393 203.907 68.1149 203.907 67.549V63.255C203.907 62.5772 203.884 62.0508 203.838 61.6757C203.792 61.3006 203.667 60.9946 203.463 60.7576C203.259 60.5142 202.936 60.3924 202.495 60.3924C201.614 60.3924 201.031 60.6951 200.748 61.3006C200.472 61.906 200.334 62.7746 200.334 63.9065V67.549C200.334 68.1083 200.205 68.5328 199.949 68.8223C199.699 69.1053 199.366 69.2468 198.952 69.2468C198.544 69.2468 198.208 69.1053 197.945 68.8223C197.688 68.5328 197.56 68.1083 197.56 67.549V59.8396C197.56 59.3329 197.675 58.9479 197.905 58.6847C198.142 58.4215 198.452 58.2899 198.833 58.2899C199.202 58.2899 199.508 58.4149 199.751 58.665C200.001 58.9085 200.126 59.2474 200.126 59.6817V59.9383C200.594 59.379 201.094 58.9677 201.627 58.7045C202.16 58.4412 202.752 58.3096 203.404 58.3096C204.081 58.3096 204.664 58.4445 205.151 58.7143C205.638 58.9841 206.039 59.3921 206.355 59.9383C206.809 59.3856 207.296 58.9776 207.816 58.7143C208.336 58.4445 208.912 58.3096 209.543 58.3096C210.28 58.3096 210.916 58.4544 211.449 58.7439C211.982 59.0335 212.38 59.4481 212.643 59.9877C212.873 60.4747 212.988 61.2413 212.988 62.2877V67.549C212.988 68.1149 212.86 68.5393 212.603 68.8223C212.347 69.1053 212.008 69.2468 211.587 69.2468C211.179 69.2468 210.843 69.1053 210.58 68.8223C210.323 68.5328 210.195 68.1083 210.195 67.549V63.0181C210.195 62.439 210.169 61.9751 210.116 61.6263C210.07 61.2775 209.938 60.9847 209.721 60.7478C209.504 60.5109 209.175 60.3924 208.734 60.3924C208.379 60.3924 208.04 60.4977 207.717 60.7083C207.401 60.9189 207.155 61.2018 206.977 61.5572C206.78 62.0113 206.681 62.8141 206.681 63.9657ZM218.092 55.8221V59.9383C218.598 59.4119 219.115 59.0105 219.642 58.7341C220.168 58.4511 220.819 58.3096 221.596 58.3096C222.491 58.3096 223.274 58.5235 223.945 58.9512C224.623 59.3724 225.146 59.9877 225.515 60.7971C225.89 61.6 226.077 62.5542 226.077 63.6597C226.077 64.4758 225.972 65.226 225.762 65.9104C225.558 66.5882 225.258 67.1771 224.863 67.6773C224.469 68.1774 223.988 68.5657 223.422 68.8421C222.863 69.1119 222.244 69.2468 221.566 69.2468C221.152 69.2468 220.76 69.1974 220.392 69.0987C220.03 69 219.721 68.8717 219.464 68.7137C219.207 68.5492 218.987 68.3814 218.803 68.2103C218.625 68.0392 218.388 67.7826 218.092 67.4404V67.7069C218.092 68.2136 217.97 68.5986 217.727 68.8618C217.483 69.1185 217.174 69.2468 216.799 69.2468C216.417 69.2468 216.111 69.1185 215.881 68.8618C215.657 68.5986 215.545 68.2136 215.545 67.7069V55.9406C215.545 55.3944 215.654 54.9831 215.871 54.7067C216.095 54.4237 216.404 54.2822 216.799 54.2822C217.213 54.2822 217.532 54.4171 217.756 54.6869C217.98 54.9502 218.092 55.3285 218.092 55.8221ZM218.22 63.8276C218.22 64.9002 218.464 65.7261 218.951 66.3052C219.444 66.8777 220.089 67.164 220.885 67.164C221.563 67.164 222.146 66.8711 222.632 66.2855C223.126 65.6932 223.373 64.8476 223.373 63.7486C223.373 63.0379 223.271 62.4259 223.067 61.9126C222.863 61.3993 222.573 61.0044 222.198 60.728C221.823 60.4451 221.385 60.3036 220.885 60.3036C220.372 60.3036 219.915 60.4451 219.513 60.728C219.112 61.0044 218.796 61.4091 218.566 61.9422C218.335 62.4686 218.22 63.0971 218.22 63.8276ZM234.961 67.7266V67.3811C234.639 67.7891 234.3 68.1313 233.945 68.4077C233.589 68.6841 233.201 68.8881 232.78 69.0197C232.359 69.1579 231.878 69.227 231.339 69.227C230.687 69.227 230.102 69.0921 229.582 68.8223C229.068 68.5525 228.67 68.1807 228.387 67.7069C228.052 67.1344 227.884 66.3118 227.884 65.2391V59.8989C227.884 59.3592 228.006 58.9578 228.249 58.6946C228.493 58.4248 228.815 58.2899 229.216 58.2899C229.625 58.2899 229.954 58.4248 230.204 58.6946C230.454 58.9644 230.579 59.3658 230.579 59.8989V64.2125C230.579 64.8377 230.631 65.3642 230.737 65.7919C230.842 66.2131 231.029 66.5454 231.299 66.7889C231.576 67.0258 231.947 67.1442 232.415 67.1442C232.869 67.1442 233.297 67.0093 233.698 66.7395C234.099 66.4697 234.392 66.1176 234.576 65.6833C234.728 65.3016 234.804 64.4659 234.804 63.1761V59.8989C234.804 59.3658 234.929 58.9644 235.179 58.6946C235.429 58.4248 235.754 58.2899 236.156 58.2899C236.557 58.2899 236.88 58.4248 237.123 58.6946C237.367 58.9578 237.488 59.3592 237.488 59.8989V67.7069C237.488 68.2202 237.37 68.6052 237.133 68.8618C236.903 69.1185 236.603 69.2468 236.235 69.2468C235.866 69.2468 235.56 69.1152 235.317 68.8519C235.08 68.5821 234.961 68.207 234.961 67.7266ZM247.725 69.5824L247.972 68.9803L244.655 60.6293C244.451 60.1489 244.349 59.8002 244.349 59.583C244.349 59.3527 244.408 59.1388 244.527 58.9414C244.645 58.7439 244.806 58.586 245.01 58.4676C245.221 58.3491 245.438 58.2899 245.662 58.2899C246.05 58.2899 246.343 58.4149 246.54 58.665C246.738 58.9085 246.912 59.2605 247.063 59.7212L249.344 66.3545L251.505 60.1851C251.677 59.685 251.831 59.2934 251.969 59.0105C252.108 58.7275 252.252 58.5367 252.404 58.4379C252.562 58.3392 252.782 58.2899 253.065 58.2899C253.269 58.2899 253.463 58.3458 253.647 58.4577C253.838 58.563 253.983 58.7078 254.082 58.892C254.187 59.0763 254.24 59.2704 254.24 59.4744C254.213 59.5994 254.171 59.7771 254.111 60.0074C254.052 60.2378 253.98 60.4714 253.894 60.7083L250.38 69.9081C250.077 70.7176 249.781 71.3526 249.492 71.8133C249.202 72.2739 248.817 72.626 248.337 72.8695C247.863 73.1195 247.221 73.2446 246.412 73.2446C245.622 73.2446 245.03 73.159 244.635 72.9879C244.24 72.8168 244.043 72.5042 244.043 72.0502C244.043 71.7409 244.135 71.5007 244.319 71.3296C244.51 71.1651 244.79 71.0828 245.158 71.0828C245.303 71.0828 245.445 71.1025 245.583 71.142C245.754 71.1815 245.902 71.2013 246.027 71.2013C246.336 71.2013 246.58 71.1552 246.757 71.0631C246.935 70.9709 247.093 70.8097 247.231 70.5794C247.376 70.3556 247.541 70.0233 247.725 69.5824ZM262.729 67.7266C262.077 68.2333 261.446 68.615 260.834 68.8717C260.228 69.1217 259.547 69.2468 258.79 69.2468C258.099 69.2468 257.491 69.1119 256.964 68.8421C256.444 68.5657 256.043 68.1939 255.76 67.7266C255.477 67.2594 255.335 66.7527 255.335 66.2065C255.335 65.4694 255.569 64.841 256.036 64.3211C256.503 63.8012 257.145 63.4525 257.961 63.2748C258.132 63.2353 258.557 63.1464 259.234 63.0083C259.912 62.8701 260.491 62.745 260.972 62.6332C261.459 62.5147 261.985 62.3732 262.551 62.2087C262.518 61.498 262.373 60.9781 262.117 60.6491C261.867 60.3134 261.344 60.1456 260.547 60.1456C259.863 60.1456 259.346 60.2411 258.998 60.4319C258.655 60.6227 258.359 60.909 258.109 61.2907C257.866 61.6724 257.691 61.9257 257.586 62.0508C257.487 62.1692 257.27 62.2284 256.934 62.2284C256.632 62.2284 256.369 62.133 256.145 61.9422C255.928 61.7448 255.819 61.4947 255.819 61.192C255.819 60.7182 255.987 60.2575 256.322 59.81C256.658 59.3625 257.181 58.994 257.892 58.7045C258.603 58.4149 259.488 58.2701 260.547 58.2701C261.732 58.2701 262.663 58.4116 263.341 58.6946C264.019 58.971 264.496 59.4119 264.772 60.0173C265.055 60.6227 265.197 61.4256 265.197 62.4259C265.197 63.0576 265.193 63.5939 265.187 64.0348C265.187 64.4758 265.183 64.966 265.177 65.5056C265.177 66.0124 265.259 66.5421 265.424 67.0949C265.595 67.6411 265.68 67.9931 265.68 68.1511C265.68 68.4275 265.549 68.6808 265.285 68.9112C265.029 69.1349 264.736 69.2468 264.407 69.2468C264.131 69.2468 263.857 69.1185 263.588 68.8618C263.318 68.5986 263.032 68.2202 262.729 67.7266ZM262.551 63.8276C262.156 63.9723 261.58 64.127 260.824 64.2915C260.074 64.4494 259.554 64.5679 259.264 64.6469C258.975 64.7192 258.698 64.8673 258.435 65.0911C258.172 65.3082 258.04 65.6142 258.04 66.0091C258.04 66.4171 258.195 66.7658 258.504 67.0554C258.813 67.3384 259.218 67.4799 259.718 67.4799C260.251 67.4799 260.741 67.3647 261.189 67.1344C261.643 66.8975 261.975 66.5947 262.186 66.2262C262.429 65.8182 262.551 65.147 262.551 64.2125V63.8276ZM270.389 59.7804V60.1062C270.863 59.481 271.379 59.0236 271.939 58.7341C272.504 58.4379 273.153 58.2899 273.883 58.2899C274.594 58.2899 275.229 58.4445 275.788 58.7538C276.348 59.0631 276.766 59.5007 277.042 60.0667C277.22 60.3957 277.335 60.7511 277.387 61.1327C277.44 61.5144 277.466 62.0014 277.466 62.5937V67.6082C277.466 68.1478 277.341 68.5558 277.091 68.8322C276.848 69.1086 276.529 69.2468 276.134 69.2468C275.732 69.2468 275.407 69.1053 275.157 68.8223C274.906 68.5393 274.781 68.1346 274.781 67.6082V63.1168C274.781 62.2284 274.656 61.5506 274.406 61.0834C274.163 60.6096 273.673 60.3727 272.936 60.3727C272.455 60.3727 272.018 60.5174 271.623 60.807C271.228 61.09 270.938 61.4815 270.754 61.9817C270.622 62.3831 270.557 63.1333 270.557 64.2323V67.6082C270.557 68.1544 270.428 68.5657 270.172 68.8421C269.922 69.1119 269.596 69.2468 269.194 69.2468C268.806 69.2468 268.487 69.1053 268.237 68.8223C267.987 68.5393 267.862 68.1346 267.862 67.6082V59.8199C267.862 59.3066 267.974 58.9249 268.197 58.6748C268.421 58.4182 268.727 58.2899 269.115 58.2899C269.352 58.2899 269.566 58.3458 269.757 58.4577C269.948 58.5696 270.099 58.7374 270.211 58.9611C270.33 59.1849 270.389 59.458 270.389 59.7804ZM290.072 60.2641V68.0919C290.072 68.9868 289.976 69.7568 289.785 70.4017C289.595 71.0466 289.289 71.5796 288.867 72.0008C288.446 72.422 287.894 72.7346 287.209 72.9386C286.531 73.1426 285.686 73.2446 284.672 73.2446C283.744 73.2446 282.915 73.113 282.185 72.8497C281.454 72.5931 280.892 72.2575 280.497 71.8429C280.102 71.4349 279.905 71.0137 279.905 70.5794C279.905 70.2503 280.016 69.9805 280.24 69.7699C280.464 69.5659 280.734 69.4639 281.05 69.4639C281.444 69.4639 281.79 69.6383 282.086 69.9871C282.231 70.1648 282.379 70.3425 282.53 70.5201C282.688 70.7044 282.859 70.8591 283.044 70.9841C283.234 71.1157 283.461 71.2111 283.725 71.2703C283.988 71.3362 284.291 71.3691 284.633 71.3691C285.33 71.3691 285.87 71.2703 286.252 71.0729C286.64 70.8821 286.91 70.6123 287.061 70.2635C287.219 69.9147 287.311 69.5396 287.337 69.1382C287.364 68.7434 287.383 68.105 287.397 67.2232C286.982 67.8023 286.502 68.2432 285.955 68.5459C285.416 68.8486 284.771 69 284.021 69C283.119 69 282.33 68.7697 281.652 68.309C280.98 67.8484 280.464 67.2035 280.102 66.3743C279.74 65.5451 279.559 64.5876 279.559 63.5018C279.559 62.6924 279.668 61.9619 279.885 61.3104C280.109 60.6589 280.424 60.1094 280.832 59.662C281.24 59.2145 281.711 58.8788 282.244 58.6551C282.777 58.4248 283.363 58.3096 284.001 58.3096C284.764 58.3096 285.426 58.4577 285.985 58.7538C286.544 59.0434 287.064 59.5007 287.545 60.1259V59.7607C287.545 59.2934 287.66 58.9315 287.89 58.6748C288.121 58.4182 288.417 58.2899 288.779 58.2899C289.298 58.2899 289.644 58.461 289.815 58.8032C289.986 59.1388 290.072 59.6258 290.072 60.2641ZM282.264 63.6795C282.264 64.7719 282.501 65.5978 282.974 66.1571C283.455 66.7165 284.073 66.9962 284.83 66.9962C285.278 66.9962 285.699 66.8777 286.094 66.6408C286.495 66.3973 286.821 66.0354 287.071 65.555C287.321 65.068 287.446 64.479 287.446 63.7881C287.446 62.6891 287.203 61.8336 286.716 61.2216C286.235 60.6096 285.6 60.3036 284.81 60.3036C284.04 60.3036 283.422 60.5964 282.955 61.1821C282.494 61.7678 282.264 62.6002 282.264 63.6795ZM306.527 65.7228C306.527 66.4664 306.346 67.1048 305.984 67.6378C305.622 68.1642 305.086 68.5657 304.375 68.8421C303.671 69.1119 302.812 69.2468 301.799 69.2468C300.831 69.2468 300.002 69.0987 299.311 68.8026C298.62 68.5064 298.11 68.1379 297.781 67.697C297.452 67.2495 297.287 66.802 297.287 66.3545C297.287 66.0584 297.393 65.8051 297.603 65.5945C297.814 65.3839 298.08 65.2786 298.403 65.2786C298.686 65.2786 298.903 65.3477 299.054 65.4859C299.206 65.6241 299.351 65.8182 299.489 66.0683C299.765 66.5487 300.094 66.9073 300.476 67.1442C300.864 67.3811 301.391 67.4996 302.055 67.4996C302.595 67.4996 303.036 67.3811 303.378 67.1442C303.727 66.9007 303.901 66.6244 303.901 66.3151C303.901 65.8413 303.72 65.4958 303.358 65.2786C303.003 65.0614 302.414 64.8541 301.591 64.6567C300.663 64.4264 299.907 64.1862 299.321 63.9361C298.742 63.6795 298.278 63.3439 297.929 62.9293C297.58 62.5147 297.406 62.0047 297.406 61.3993C297.406 60.8596 297.567 60.3496 297.89 59.8692C298.212 59.3889 298.686 59.0072 299.311 58.7242C299.943 58.4347 300.703 58.2899 301.591 58.2899C302.289 58.2899 302.914 58.3623 303.467 58.507C304.026 58.6518 304.49 58.8459 304.859 59.0894C305.234 59.3329 305.517 59.6027 305.708 59.8989C305.905 60.195 306.004 60.4845 306.004 60.7675C306.004 61.0768 305.898 61.3302 305.688 61.5276C305.484 61.725 305.191 61.8237 304.809 61.8237C304.533 61.8237 304.296 61.7448 304.099 61.5868C303.908 61.4289 303.687 61.192 303.437 60.8761C303.233 60.6129 302.993 60.4023 302.717 60.2443C302.44 60.0864 302.065 60.0074 301.591 60.0074C301.104 60.0074 300.7 60.1127 300.377 60.3233C300.055 60.5273 299.893 60.784 299.893 61.0933C299.893 61.3762 300.012 61.6098 300.249 61.7941C300.486 61.9718 300.805 62.1199 301.206 62.2383C301.608 62.3568 302.161 62.5015 302.865 62.6726C303.7 62.8766 304.382 63.1201 304.908 63.4031C305.441 63.6861 305.842 64.0217 306.112 64.4099C306.389 64.7916 306.527 65.2292 306.527 65.7228ZM316.329 64.4297H311.058C311.064 65.0417 311.186 65.5813 311.423 66.0485C311.666 66.5158 311.986 66.8678 312.38 67.1048C312.782 67.3417 313.223 67.4601 313.703 67.4601C314.026 67.4601 314.318 67.4239 314.582 67.3515C314.851 67.2726 315.111 67.1541 315.361 66.9962C315.612 66.8317 315.842 66.6573 316.052 66.473C316.263 66.2887 316.536 66.0387 316.872 65.7228C317.01 65.6043 317.207 65.5451 317.464 65.5451C317.74 65.5451 317.964 65.6208 318.135 65.7722C318.306 65.9235 318.392 66.1374 318.392 66.4138C318.392 66.6573 318.296 66.9435 318.106 67.2726C317.915 67.595 317.625 67.9076 317.237 68.2103C316.855 68.5064 316.372 68.7532 315.786 68.9506C315.207 69.1481 314.539 69.2468 313.782 69.2468C312.051 69.2468 310.706 68.7532 309.745 67.7661C308.784 66.779 308.304 65.4398 308.304 63.7486C308.304 62.9523 308.422 62.2153 308.659 61.5375C308.896 60.8531 309.241 60.2674 309.695 59.7804C310.15 59.2934 310.709 58.9216 311.374 58.665C312.038 58.4017 312.775 58.2701 313.585 58.2701C314.638 58.2701 315.539 58.4939 316.289 58.9414C317.046 59.3823 317.612 59.9548 317.987 60.6589C318.362 61.3631 318.55 62.0804 318.55 62.8108C318.55 63.4886 318.356 63.9296 317.967 64.1336C317.579 64.331 317.033 64.4297 316.329 64.4297ZM311.058 62.8997H315.944C315.878 61.9784 315.628 61.2907 315.194 60.8366C314.766 60.376 314.2 60.1456 313.496 60.1456C312.825 60.1456 312.272 60.3793 311.837 60.8465C311.41 61.3071 311.15 61.9915 311.058 62.8997ZM329.507 65.7228C329.507 66.4664 329.326 67.1048 328.964 67.6378C328.602 68.1642 328.066 68.5657 327.355 68.8421C326.651 69.1119 325.792 69.2468 324.778 69.2468C323.811 69.2468 322.982 69.0987 322.291 68.8026C321.6 68.5064 321.09 68.1379 320.761 67.697C320.432 67.2495 320.267 66.802 320.267 66.3545C320.267 66.0584 320.373 65.8051 320.583 65.5945C320.794 65.3839 321.06 65.2786 321.383 65.2786C321.666 65.2786 321.883 65.3477 322.034 65.4859C322.186 65.6241 322.33 65.8182 322.469 66.0683C322.745 66.5487 323.074 66.9073 323.456 67.1442C323.844 67.3811 324.37 67.4996 325.035 67.4996C325.575 67.4996 326.016 67.3811 326.358 67.1442C326.707 66.9007 326.881 66.6244 326.881 66.3151C326.881 65.8413 326.7 65.4958 326.338 65.2786C325.983 65.0614 325.394 64.8541 324.571 64.6567C323.643 64.4264 322.887 64.1862 322.301 63.9361C321.722 63.6795 321.258 63.3439 320.909 62.9293C320.56 62.5147 320.386 62.0047 320.386 61.3993C320.386 60.8596 320.547 60.3496 320.87 59.8692C321.192 59.3889 321.666 59.0072 322.291 58.7242C322.923 58.4347 323.683 58.2899 324.571 58.2899C325.269 58.2899 325.894 58.3623 326.447 58.507C327.006 58.6518 327.47 58.8459 327.838 59.0894C328.214 59.3329 328.497 59.6027 328.687 59.8989C328.885 60.195 328.984 60.4845 328.984 60.7675C328.984 61.0768 328.878 61.3302 328.668 61.5276C328.464 61.725 328.171 61.8237 327.789 61.8237C327.513 61.8237 327.276 61.7448 327.078 61.5868C326.888 61.4289 326.667 61.192 326.417 60.8761C326.213 60.6129 325.973 60.4023 325.696 60.2443C325.42 60.0864 325.045 60.0074 324.571 60.0074C324.084 60.0074 323.679 60.1127 323.357 60.3233C323.035 60.5273 322.873 60.784 322.873 61.0933C322.873 61.3762 322.992 61.6098 323.229 61.7941C323.466 61.9718 323.785 62.1199 324.186 62.2383C324.588 62.3568 325.14 62.5015 325.845 62.6726C326.68 62.8766 327.361 63.1201 327.888 63.4031C328.421 63.6861 328.822 64.0217 329.092 64.4099C329.369 64.7916 329.507 65.2292 329.507 65.7228ZM338.786 67.7266V67.3811C338.463 67.7891 338.124 68.1313 337.769 68.4077C337.413 68.6841 337.025 68.8881 336.604 69.0197C336.183 69.1579 335.702 69.227 335.163 69.227C334.511 69.227 333.926 69.0921 333.406 68.8223C332.892 68.5525 332.494 68.1807 332.211 67.7069C331.876 67.1344 331.708 66.3118 331.708 65.2391V59.8989C331.708 59.3592 331.83 58.9578 332.073 58.6946C332.317 58.4248 332.639 58.2899 333.041 58.2899C333.449 58.2899 333.778 58.4248 334.028 58.6946C334.278 58.9644 334.403 59.3658 334.403 59.8989V64.2125C334.403 64.8377 334.455 65.3642 334.561 65.7919C334.666 66.2131 334.854 66.5454 335.123 66.7889C335.4 67.0258 335.772 67.1442 336.239 67.1442C336.693 67.1442 337.121 67.0093 337.522 66.7395C337.923 66.4697 338.216 66.1176 338.401 65.6833C338.552 65.3016 338.628 64.4659 338.628 63.1761V59.8989C338.628 59.3658 338.753 58.9644 339.003 58.6946C339.253 58.4248 339.579 58.2899 339.98 58.2899C340.381 58.2899 340.704 58.4248 340.947 58.6946C341.191 58.9578 341.313 59.3592 341.313 59.8989V67.7069C341.313 68.2202 341.194 68.6052 340.957 68.8618C340.727 69.1185 340.427 69.2468 340.059 69.2468C339.69 69.2468 339.384 69.1152 339.141 68.8519C338.904 68.5821 338.786 68.207 338.786 67.7266ZM350.818 67.7266C350.167 68.2333 349.535 68.615 348.923 68.8717C348.318 69.1217 347.637 69.2468 346.88 69.2468C346.189 69.2468 345.58 69.1119 345.054 68.8421C344.534 68.5657 344.132 68.1939 343.849 67.7266C343.566 67.2594 343.425 66.7527 343.425 66.2065C343.425 65.4694 343.659 64.841 344.126 64.3211C344.593 63.8012 345.235 63.4525 346.051 63.2748C346.222 63.2353 346.646 63.1464 347.324 63.0083C348.002 62.8701 348.581 62.745 349.061 62.6332C349.548 62.5147 350.075 62.3732 350.641 62.2087C350.608 61.498 350.463 60.9781 350.206 60.6491C349.956 60.3134 349.433 60.1456 348.637 60.1456C347.952 60.1456 347.436 60.2411 347.087 60.4319C346.745 60.6227 346.449 60.909 346.199 61.2907C345.955 61.6724 345.781 61.9257 345.676 62.0508C345.577 62.1692 345.36 62.2284 345.024 62.2284C344.721 62.2284 344.458 62.133 344.234 61.9422C344.017 61.7448 343.909 61.4947 343.909 61.192C343.909 60.7182 344.076 60.2575 344.412 59.81C344.748 59.3625 345.271 58.994 345.982 58.7045C346.692 58.4149 347.577 58.2701 348.637 58.2701C349.821 58.2701 350.753 58.4116 351.43 58.6946C352.108 58.971 352.585 59.4119 352.862 60.0173C353.145 60.6227 353.286 61.4256 353.286 62.4259C353.286 63.0576 353.283 63.5939 353.276 64.0348C353.276 64.4758 353.273 64.966 353.266 65.5056C353.266 66.0124 353.349 66.5421 353.513 67.0949C353.684 67.6411 353.77 67.9931 353.77 68.1511C353.77 68.4275 353.638 68.6808 353.375 68.9112C353.118 69.1349 352.825 69.2468 352.496 69.2468C352.22 69.2468 351.947 69.1185 351.677 68.8618C351.407 68.5986 351.121 68.2202 350.818 67.7266ZM350.641 63.8276C350.246 63.9723 349.67 64.127 348.913 64.2915C348.163 64.4494 347.643 64.5679 347.354 64.6469C347.064 64.7192 346.788 64.8673 346.524 65.0911C346.261 65.3082 346.13 65.6142 346.13 66.0091C346.13 66.4171 346.284 66.7658 346.594 67.0554C346.903 67.3384 347.308 67.4799 347.808 67.4799C348.341 67.4799 348.831 67.3647 349.278 67.1344C349.733 66.8975 350.065 66.5947 350.275 66.2262C350.519 65.8182 350.641 65.147 350.641 64.2125V63.8276ZM358.725 59.8199V67.6082C358.725 68.1478 358.597 68.5558 358.34 68.8322C358.083 69.1086 357.758 69.2468 357.363 69.2468C356.968 69.2468 356.646 69.1053 356.396 68.8223C356.152 68.5393 356.03 68.1346 356.03 67.6082V59.8989C356.03 59.3658 356.152 58.9644 356.396 58.6946C356.646 58.4248 356.968 58.2899 357.363 58.2899C357.758 58.2899 358.083 58.4248 358.34 58.6946C358.597 58.9644 358.725 59.3395 358.725 59.8199ZM357.393 57.0362C357.017 57.0362 356.695 56.9211 356.425 56.6908C356.162 56.4604 356.03 56.1347 356.03 55.7135C356.03 55.3318 356.165 55.0193 356.435 54.7758C356.711 54.5257 357.031 54.4007 357.393 54.4007C357.741 54.4007 358.051 54.5125 358.32 54.7363C358.59 54.96 358.725 55.2858 358.725 55.7135C358.725 56.1281 358.594 56.4539 358.33 56.6908C358.067 56.9211 357.754 57.0362 357.393 57.0362ZM362.407 62.7319L362.091 58.0036C362.032 57.0823 362.002 56.4209 362.002 56.0195C362.002 55.4733 362.144 55.0489 362.427 54.7462C362.716 54.4369 363.095 54.2822 363.562 54.2822C364.128 54.2822 364.506 54.4796 364.697 54.8745C364.888 55.2627 364.983 55.8254 364.983 56.5624C364.983 56.9968 364.96 57.4377 364.914 57.8852L364.49 62.7516C364.444 63.3307 364.345 63.7749 364.194 64.0842C364.042 64.3935 363.792 64.5481 363.443 64.5481C363.088 64.5481 362.841 64.4001 362.703 64.1039C362.565 63.8012 362.466 63.3439 362.407 62.7319ZM363.503 69.227C363.101 69.227 362.749 69.0987 362.447 68.8421C362.15 68.5788 362.002 68.2136 362.002 67.7464C362.002 67.3384 362.144 66.9929 362.427 66.7099C362.716 66.4204 363.068 66.2756 363.483 66.2756C363.898 66.2756 364.25 66.4204 364.539 66.7099C364.835 66.9929 364.983 67.3384 364.983 67.7464C364.983 68.207 364.835 68.569 364.539 68.8322C364.243 69.0954 363.898 69.227 363.503 69.227Z" fill="#F5F5F5"/>
</g>
<defs>
<filter id="filter0_d_154_932" x="0" y="0" width="444" height="135" filterUnits="userSpaceOnUse" color-interpolation-filters="sRGB">
<feFlood flood-opacity="0" result="BackgroundImageFix"/>
<feColorMatrix in="SourceAlpha" type="matrix" values="0 0 0 0 0 0 0 0 0 0 0 0 0 0 0 0 0 0 127 0" result="hardAlpha"/>
<feOffset dy="4"/>
<feGaussianBlur stdDeviation="2"/>
<feComposite in2="hardAlpha" operator="out"/>
<feColorMatrix type="matrix" values="0 0 0 0 0 0 0 0 0 0 0 0 0 0 0 0 0 0 0.25 0"/>
<feBlend mode="normal" in2="BackgroundImageFix" result="effect1_dropShadow_154_932"/>
<feBlend mode="normal" in="SourceGraphic" in2="effect1_dropShadow_154_932" result="shape"/>
</filter>
</defs>
</svg>
