<svg width="209" height="97" viewBox="0 0 209 97" fill="none" xmlns="http://www.w3.org/2000/svg">
<g filter="url(#filter0_d_176_3)">
<rect x="5.5" y="1.5" width="198" height="86" rx="43" fill="#333333" stroke="#9575DE" stroke-width="3"/>
<path d="M30.52 54.352C26.744 54.352 24.856 52.2507 24.856 48.048V33.616C24.856 31.9733 25.6667 31.152 27.288 31.152C28.888 31.152 29.688 31.9733 29.688 33.616V47.856C29.688 48.7307 29.8693 49.3813 30.232 49.808C30.616 50.2133 31.1173 50.416 31.736 50.416C31.9067 50.416 32.0667 50.4053 32.216 50.384C32.3867 50.3627 32.5467 50.352 32.696 50.352C33.0373 50.3307 33.272 50.4373 33.4 50.672C33.5493 50.9067 33.624 51.3867 33.624 52.112C33.624 53.3493 33.1013 54.0533 32.056 54.224C31.8427 54.2453 31.5973 54.2667 31.32 54.288C31.0427 54.3307 30.776 54.352 30.52 54.352ZM40.8243 54.352C39.6509 54.352 38.6163 54.128 37.7203 53.68C36.8243 53.232 36.1096 52.624 35.5763 51.856C35.0643 51.088 34.8083 50.224 34.8083 49.264C34.8083 48.1333 35.1069 47.2267 35.7043 46.544C36.3016 45.8613 37.2723 45.3813 38.6163 45.104C39.9603 44.8053 41.7416 44.656 43.9603 44.656H45.1123V44.112C45.1123 43.1733 44.8989 42.512 44.4723 42.128C44.0456 41.7227 43.3203 41.52 42.2963 41.52C41.7203 41.52 41.0909 41.5947 40.4083 41.744C39.7256 41.872 38.9896 42.096 38.2003 42.416C37.6029 42.672 37.1016 42.6933 36.6963 42.48C36.2909 42.2453 36.0243 41.904 35.8963 41.456C35.7683 40.9867 35.8003 40.5173 35.9923 40.048C36.2056 39.5787 36.6109 39.2373 37.2083 39.024C38.2109 38.64 39.1496 38.3733 40.0243 38.224C40.9203 38.0533 41.7416 37.968 42.4883 37.968C44.9203 37.968 46.7336 38.5227 47.9283 39.632C49.1229 40.72 49.7203 42.416 49.7203 44.72V51.824C49.7203 53.4667 48.9736 54.288 47.4803 54.288C45.9656 54.288 45.2083 53.4667 45.2083 51.824V51.632C44.8883 52.464 44.3443 53.1253 43.5763 53.616C42.8296 54.1067 41.9123 54.352 40.8243 54.352ZM41.9123 51.12C42.8083 51.12 43.5656 50.8107 44.1843 50.192C44.8029 49.5733 45.1123 48.7733 45.1123 47.792V47.152H43.9923C42.3496 47.152 41.1869 47.3013 40.5043 47.6C39.8216 47.8773 39.4803 48.368 39.4803 49.072C39.4803 49.6693 39.6829 50.16 40.0883 50.544C40.5149 50.928 41.1229 51.12 41.9123 51.12ZM55.7568 60.048C54.1354 60.048 53.3248 59.2267 53.3248 57.584V40.464C53.3248 38.8427 54.1141 38.032 55.6927 38.032C57.2928 38.032 58.0928 38.8427 58.0928 40.464V40.56C58.5408 39.7707 59.2021 39.1413 60.0768 38.672C60.9514 38.2027 61.9328 37.968 63.0208 37.968C64.3861 37.968 65.5808 38.2987 66.6048 38.96C67.6501 39.6213 68.4608 40.56 69.0368 41.776C69.6128 42.992 69.9008 44.4427 69.9008 46.128C69.9008 47.8133 69.6128 49.2747 69.0368 50.512C68.4608 51.728 67.6501 52.6773 66.6048 53.36C65.5808 54.0213 64.3861 54.352 63.0208 54.352C61.9754 54.352 61.0154 54.128 60.1408 53.68C59.2874 53.232 58.6261 52.6347 58.1568 51.888V57.584C58.1568 59.2267 57.3568 60.048 55.7568 60.048ZM61.5808 50.736C62.6048 50.736 63.4368 50.3627 64.0768 49.616C64.7168 48.8693 65.0368 47.7067 65.0368 46.128C65.0368 44.5707 64.7168 43.4293 64.0768 42.704C63.4368 41.9573 62.6048 41.584 61.5808 41.584C60.5354 41.584 59.6928 41.9573 59.0528 42.704C58.4128 43.4293 58.0928 44.5707 58.0928 46.128C58.0928 47.7067 58.4128 48.8693 59.0528 49.616C59.6928 50.3627 60.5354 50.736 61.5808 50.736ZM89.5055 54.352C85.0895 54.352 82.8815 52.208 82.8815 47.92V41.904H81.5375C80.2788 41.904 79.6495 41.3067 79.6495 40.112C79.6495 38.896 80.2788 38.288 81.5375 38.288H82.8815V35.856C82.8815 34.2133 83.6922 33.392 85.3135 33.392C86.9135 33.392 87.7135 34.2133 87.7135 35.856V38.288H90.7535C91.9908 38.288 92.6095 38.896 92.6095 40.112C92.6095 41.3067 91.9908 41.904 90.7535 41.904H87.7135V47.728C87.7135 48.624 87.9162 49.296 88.3215 49.744C88.7482 50.192 89.4202 50.416 90.3375 50.416C90.6575 50.416 90.9562 50.384 91.2335 50.32C91.5108 50.256 91.7668 50.2133 92.0015 50.192C92.3002 50.1707 92.5455 50.2667 92.7375 50.48C92.9295 50.6933 93.0255 51.1307 93.0255 51.792C93.0255 52.3253 92.9402 52.784 92.7695 53.168C92.5988 53.5307 92.3002 53.7973 91.8735 53.968C91.5962 54.0747 91.2122 54.16 90.7215 54.224C90.2522 54.3093 89.8468 54.352 89.5055 54.352ZM100.043 54.352C98.8697 54.352 97.835 54.128 96.939 53.68C96.043 53.232 95.3283 52.624 94.795 51.856C94.283 51.088 94.027 50.224 94.027 49.264C94.027 48.1333 94.3257 47.2267 94.923 46.544C95.5203 45.8613 96.491 45.3813 97.835 45.104C99.179 44.8053 100.96 44.656 103.179 44.656H104.331V44.112C104.331 43.1733 104.118 42.512 103.691 42.128C103.264 41.7227 102.539 41.52 101.515 41.52C100.939 41.52 100.31 41.5947 99.627 41.744C98.9443 41.872 98.2083 42.096 97.419 42.416C96.8217 42.672 96.3203 42.6933 95.915 42.48C95.5097 42.2453 95.243 41.904 95.115 41.456C94.987 40.9867 95.019 40.5173 95.211 40.048C95.4243 39.5787 95.8297 39.2373 96.427 39.024C97.4297 38.64 98.3683 38.3733 99.243 38.224C100.139 38.0533 100.96 37.968 101.707 37.968C104.139 37.968 105.952 38.5227 107.147 39.632C108.342 40.72 108.939 42.416 108.939 44.72V51.824C108.939 53.4667 108.192 54.288 106.699 54.288C105.184 54.288 104.427 53.4667 104.427 51.824V51.632C104.107 52.464 103.563 53.1253 102.795 53.616C102.048 54.1067 101.131 54.352 100.043 54.352ZM101.131 51.12C102.027 51.12 102.784 50.8107 103.403 50.192C104.022 49.5733 104.331 48.7733 104.331 47.792V47.152H103.211C101.568 47.152 100.406 47.3013 99.723 47.6C99.0403 47.8773 98.699 48.368 98.699 49.072C98.699 49.6693 98.9017 50.16 99.307 50.544C99.7337 50.928 100.342 51.12 101.131 51.12ZM114.976 54.288C113.354 54.288 112.544 53.4667 112.544 51.824V40.464C112.544 38.8427 113.333 38.032 114.911 38.032C116.49 38.032 117.28 38.8427 117.28 40.464V40.592C117.813 39.7387 118.528 39.088 119.424 38.64C120.32 38.192 121.322 37.968 122.432 37.968C124.288 37.968 125.674 38.512 126.592 39.6C127.509 40.6667 127.968 42.32 127.968 44.56V51.824C127.968 53.4667 127.157 54.288 125.536 54.288C124.768 54.288 124.17 54.0747 123.744 53.648C123.338 53.2213 123.136 52.6133 123.136 51.824V44.784C123.136 43.696 122.933 42.9173 122.528 42.448C122.122 41.9573 121.525 41.712 120.736 41.712C119.712 41.712 118.89 42.032 118.272 42.672C117.674 43.312 117.376 44.1653 117.376 45.232V51.824C117.376 53.4667 116.576 54.288 114.976 54.288ZM139.127 60.112C137.975 60.112 136.876 60.016 135.831 59.824C134.785 59.632 133.847 59.344 133.015 58.96C132.396 58.704 132.001 58.3413 131.831 57.872C131.66 57.4027 131.66 56.944 131.831 56.496C132.023 56.048 132.311 55.7067 132.695 55.472C133.1 55.2587 133.548 55.2587 134.039 55.472C134.977 55.8987 135.841 56.176 136.631 56.304C137.441 56.432 138.135 56.496 138.711 56.496C141.441 56.496 142.807 55.2373 142.807 52.72V50.928C142.38 51.7387 141.708 52.3893 140.791 52.88C139.873 53.3707 138.871 53.616 137.783 53.616C136.375 53.616 135.148 53.296 134.103 52.656C133.057 51.9947 132.247 51.0773 131.671 49.904C131.095 48.7307 130.807 47.3547 130.807 45.776C130.807 44.2187 131.095 42.8533 131.671 41.68C132.247 40.5067 133.057 39.6 134.103 38.96C135.148 38.2987 136.375 37.968 137.783 37.968C138.871 37.968 139.863 38.2027 140.759 38.672C141.655 39.1413 142.316 39.76 142.743 40.528V40.464C142.743 39.6747 142.945 39.0773 143.351 38.672C143.777 38.2453 144.375 38.032 145.143 38.032C146.721 38.032 147.511 38.8427 147.511 40.464V52.176C147.511 54.8213 146.796 56.8053 145.367 58.128C143.937 59.4507 141.857 60.112 139.127 60.112ZM139.223 50C140.289 50 141.143 49.6267 141.783 48.88C142.444 48.1333 142.775 47.0987 142.775 45.776C142.775 44.4533 142.444 43.4293 141.783 42.704C141.143 41.9573 140.289 41.584 139.223 41.584C138.135 41.584 137.271 41.9573 136.631 42.704C135.991 43.4293 135.671 44.4533 135.671 45.776C135.671 47.0987 135.991 48.1333 136.631 48.88C137.271 49.6267 138.135 50 139.223 50ZM156.574 54.352C155.401 54.352 154.366 54.128 153.47 53.68C152.574 53.232 151.86 52.624 151.326 51.856C150.814 51.088 150.558 50.224 150.558 49.264C150.558 48.1333 150.857 47.2267 151.454 46.544C152.052 45.8613 153.022 45.3813 154.366 45.104C155.71 44.8053 157.492 44.656 159.71 44.656H160.862V44.112C160.862 43.1733 160.649 42.512 160.222 42.128C159.796 41.7227 159.07 41.52 158.046 41.52C157.47 41.52 156.841 41.5947 156.158 41.744C155.476 41.872 154.74 42.096 153.95 42.416C153.353 42.672 152.852 42.6933 152.446 42.48C152.041 42.2453 151.774 41.904 151.646 41.456C151.518 40.9867 151.55 40.5173 151.742 40.048C151.956 39.5787 152.361 39.2373 152.958 39.024C153.961 38.64 154.9 38.3733 155.774 38.224C156.67 38.0533 157.492 37.968 158.238 37.968C160.67 37.968 162.484 38.5227 163.678 39.632C164.873 40.72 165.47 42.416 165.47 44.72V51.824C165.47 53.4667 164.724 54.288 163.23 54.288C161.716 54.288 160.958 53.4667 160.958 51.824V51.632C160.638 52.464 160.094 53.1253 159.326 53.616C158.58 54.1067 157.662 54.352 156.574 54.352ZM157.662 51.12C158.558 51.12 159.316 50.8107 159.934 50.192C160.553 49.5733 160.862 48.7733 160.862 47.792V47.152H159.742C158.1 47.152 156.937 47.3013 156.254 47.6C155.572 47.8773 155.23 48.368 155.23 49.072C155.23 49.6693 155.433 50.16 155.838 50.544C156.265 50.928 156.873 51.12 157.662 51.12ZM171.507 54.288C169.885 54.288 169.075 53.4667 169.075 51.824V40.464C169.075 38.8427 169.864 38.032 171.443 38.032C173.021 38.032 173.811 38.8427 173.811 40.464V40.592C174.344 39.7387 175.059 39.088 175.955 38.64C176.851 38.192 177.853 37.968 178.963 37.968C180.819 37.968 182.205 38.512 183.123 39.6C184.04 40.6667 184.499 42.32 184.499 44.56V51.824C184.499 53.4667 183.688 54.288 182.067 54.288C181.299 54.288 180.701 54.0747 180.275 53.648C179.869 53.2213 179.667 52.6133 179.667 51.824V44.784C179.667 43.696 179.464 42.9173 179.059 42.448C178.653 41.9573 178.056 41.712 177.267 41.712C176.243 41.712 175.421 42.032 174.803 42.672C174.205 43.312 173.907 44.1653 173.907 45.232V51.824C173.907 53.4667 173.107 54.288 171.507 54.288Z" fill="#F5F5F5"/>
</g>
<defs>
<filter id="filter0_d_176_3" x="0" y="0" width="209" height="97" filterUnits="userSpaceOnUse" color-interpolation-filters="sRGB">
<feFlood flood-opacity="0" result="BackgroundImageFix"/>
<feColorMatrix in="SourceAlpha" type="matrix" values="0 0 0 0 0 0 0 0 0 0 0 0 0 0 0 0 0 0 127 0" result="hardAlpha"/>
<feOffset dy="4"/>
<feGaussianBlur stdDeviation="2"/>
<feComposite in2="hardAlpha" operator="out"/>
<feColorMatrix type="matrix" values="0 0 0 0 0 0 0 0 0 0 0 0 0 0 0 0 0 0 0.25 0"/>
<feBlend mode="normal" in2="BackgroundImageFix" result="effect1_dropShadow_176_3"/>
<feBlend mode="normal" in="SourceGraphic" in2="effect1_dropShadow_176_3" result="shape"/>
</filter>
</defs>
</svg>
