<svg width="145" height="69" viewBox="0 0 145 69" fill="none" xmlns="http://www.w3.org/2000/svg">
<g filter="url(#filter0_d_222_65)">
<rect x="5.5" y="1.5" width="134" height="57.6617" rx="28.8308" fill="#4B4B4B" stroke="#9575DE" stroke-width="3"/>
<path d="M33.2472 36.1509C32.3975 36.1509 31.9727 35.7205 31.9727 34.8596V28.9061C31.9727 28.0564 32.3864 27.6316 33.2137 27.6316C34.041 27.6316 34.4547 28.0564 34.4547 28.9061V28.9732C34.7342 28.526 35.1087 28.185 35.5783 27.9502C36.0479 27.7154 36.5734 27.598 37.1547 27.598C38.1274 27.598 38.8541 27.8831 39.3349 28.4533C39.8156 29.0123 40.056 29.8788 40.056 31.0527V34.8596C40.056 35.7205 39.6312 36.1509 38.7815 36.1509C38.379 36.1509 38.0659 36.0391 37.8423 35.8155C37.6299 35.5919 37.5237 35.2733 37.5237 34.8596V31.1701C37.5237 30.5999 37.4175 30.1919 37.205 29.9459C36.9926 29.6887 36.6796 29.5602 36.2659 29.5602C35.7293 29.5602 35.2988 29.7279 34.9746 30.0633C34.6615 30.3987 34.505 30.8459 34.505 31.4049V34.8596C34.505 35.7205 34.0858 36.1509 33.2472 36.1509ZM44.1118 39.1696C43.6646 39.1696 43.346 39.0019 43.1559 38.6665C42.977 38.3423 42.9882 37.9621 43.1895 37.5261L44.0783 35.5472L41.3447 29.2751C41.1658 28.839 41.1658 28.4589 41.3447 28.1347C41.5348 27.7993 41.9093 27.6316 42.4683 27.6316C42.7702 27.6316 43.0106 27.7042 43.1895 27.8496C43.3795 27.9837 43.5528 28.2465 43.7093 28.6378L45.4199 32.9981L47.1976 28.621C47.3541 28.2409 47.5274 27.9837 47.7175 27.8496C47.9187 27.7042 48.187 27.6316 48.5225 27.6316C48.9473 27.6316 49.2436 27.7993 49.4113 28.1347C49.5902 28.4589 49.5846 28.8334 49.3945 29.2583L45.4535 38.1969C45.2858 38.5771 45.0957 38.8342 44.8833 38.9684C44.682 39.1025 44.4249 39.1696 44.1118 39.1696ZM53.4267 36.1845C52.8118 36.1845 52.2696 36.0671 51.8 35.8323C51.3304 35.5975 50.9559 35.2789 50.6764 34.8764C50.4081 34.4739 50.2739 34.0211 50.2739 33.518C50.2739 32.9254 50.4304 32.4503 50.7435 32.0925C51.0565 31.7347 51.5652 31.4832 52.2696 31.3378C52.9739 31.1813 53.9075 31.103 55.0702 31.103H55.674V30.8179C55.674 30.326 55.5622 29.9794 55.3386 29.7782C55.115 29.5658 54.7348 29.4595 54.1982 29.4595C53.8963 29.4595 53.5665 29.4987 53.2087 29.5769C52.851 29.644 52.4652 29.7614 52.0516 29.9291C51.7385 30.0633 51.4758 30.0745 51.2634 29.9627C51.0509 29.8397 50.9112 29.6608 50.8441 29.426C50.777 29.18 50.7938 28.9341 50.8944 28.6881C51.0062 28.4421 51.2186 28.2633 51.5317 28.1515C52.0572 27.9502 52.5491 27.8105 53.0075 27.7322C53.4771 27.6427 53.9075 27.598 54.2988 27.598C55.5734 27.598 56.5237 27.8887 57.1498 28.4701C57.7759 29.0403 58.0889 29.9291 58.0889 31.1366V34.8596C58.0889 35.7205 57.6976 36.1509 56.915 36.1509C56.1212 36.1509 55.7243 35.7205 55.7243 34.8596V34.759C55.5566 35.195 55.2715 35.5416 54.869 35.7988C54.4777 36.0559 53.9969 36.1845 53.4267 36.1845ZM53.9969 34.4907C54.4665 34.4907 54.8634 34.3285 55.1876 34.0043C55.5119 33.6801 55.674 33.2608 55.674 32.7465V32.4111H55.087C54.2261 32.4111 53.6168 32.4894 53.259 32.6459C52.9013 32.7913 52.7224 33.0484 52.7224 33.4174C52.7224 33.7304 52.8286 33.9876 53.041 34.1888C53.2646 34.39 53.5833 34.4907 53.9969 34.4907ZM62.9463 36.1845C60.9674 36.1845 59.9779 35.0832 59.9779 32.8807V25.3173C59.9779 24.4564 60.4028 24.0259 61.2525 24.0259C62.091 24.0259 62.5103 24.4564 62.5103 25.3173V32.7801C62.5103 33.2385 62.6053 33.5795 62.7954 33.8031C62.9966 34.0155 63.2594 34.1217 63.5836 34.1217C63.673 34.1217 63.7569 34.1161 63.8351 34.1049C63.9246 34.0938 64.0084 34.0882 64.0867 34.0882C64.2656 34.077 64.3886 34.1329 64.4556 34.2559C64.5339 34.3789 64.573 34.6304 64.573 35.0105C64.573 35.659 64.2991 36.028 63.7513 36.1174C63.6395 36.1286 63.5109 36.1398 63.3656 36.1509C63.2202 36.1733 63.0805 36.1845 62.9463 36.1845ZM68.3465 36.1845C67.7316 36.1845 67.1894 36.0671 66.7198 35.8323C66.2502 35.5975 65.8757 35.2789 65.5962 34.8764C65.3278 34.4739 65.1937 34.0211 65.1937 33.518C65.1937 32.9254 65.3502 32.4503 65.6632 32.0925C65.9763 31.7347 66.485 31.4832 67.1894 31.3378C67.8937 31.1813 68.8273 31.103 69.99 31.103H70.5937V30.8179C70.5937 30.326 70.4819 29.9794 70.2583 29.7782C70.0347 29.5658 69.6546 29.4595 69.1179 29.4595C68.8161 29.4595 68.4863 29.4987 68.1285 29.5769C67.7707 29.644 67.385 29.7614 66.9713 29.9291C66.6583 30.0633 66.3956 30.0745 66.1831 29.9627C65.9707 29.8397 65.8309 29.6608 65.7639 29.426C65.6968 29.18 65.7136 28.9341 65.8142 28.6881C65.926 28.4421 66.1384 28.2633 66.4515 28.1515C66.9769 27.9502 67.4689 27.8105 67.9272 27.7322C68.3968 27.6427 68.8273 27.598 69.2186 27.598C70.4931 27.598 71.4434 27.8887 72.0695 28.4701C72.6956 29.0403 73.0087 29.9291 73.0087 31.1366V34.8596C73.0087 35.7205 72.6174 36.1509 71.8348 36.1509C71.041 36.1509 70.6441 35.7205 70.6441 34.8596V34.759C70.4764 35.195 70.1913 35.5416 69.7888 35.7988C69.3975 36.0559 68.9167 36.1845 68.3465 36.1845ZM68.9167 34.4907C69.3863 34.4907 69.7832 34.3285 70.1074 34.0043C70.4316 33.6801 70.5937 33.2608 70.5937 32.7465V32.4111H70.0068C69.1459 32.4111 68.5366 32.4894 68.1788 32.6459C67.821 32.7913 67.6422 33.0484 67.6422 33.4174C67.6422 33.7304 67.7484 33.9876 67.9608 34.1888C68.1844 34.39 68.503 34.4907 68.9167 34.4907ZM75.7362 36.436C75.6356 36.7491 75.4623 36.9559 75.2163 37.0565C74.9816 37.1572 74.7412 37.1683 74.4952 37.0901C74.2493 37.023 74.0592 36.8832 73.925 36.6708C73.7797 36.4584 73.7629 36.1845 73.8747 35.8491L77.6648 24.0259C77.7654 23.7129 77.9332 23.506 78.1679 23.4054C78.4139 23.3048 78.6599 23.288 78.9058 23.3551C79.1518 23.4222 79.3419 23.5675 79.476 23.7911C79.6214 24.0036 79.6381 24.2719 79.5263 24.5961L75.7362 36.436ZM80.7587 36.1509C79.909 36.1509 79.4842 35.7205 79.4842 34.8596V28.9061C79.4842 28.0564 79.8978 27.6316 80.7252 27.6316C81.5525 27.6316 81.9662 28.0564 81.9662 28.9061V28.9564C82.2121 28.5316 82.5475 28.2018 82.9724 27.967C83.4084 27.721 83.9115 27.598 84.4817 27.598C85.0631 27.598 85.555 27.7266 85.9575 27.9837C86.3712 28.2409 86.6842 28.6322 86.8967 29.1577C87.1538 28.6657 87.5228 28.2856 88.0035 28.0173C88.4954 27.7378 89.0377 27.598 89.6302 27.598C90.5694 27.598 91.2682 27.8831 91.7265 28.4533C92.1849 29.0123 92.4141 29.8788 92.4141 31.0527V34.8596C92.4141 35.2733 92.3023 35.5919 92.0787 35.8155C91.8663 36.0391 91.5588 36.1509 91.1564 36.1509C90.3067 36.1509 89.8818 35.7205 89.8818 34.8596V31.1366C89.8818 30.5887 89.7924 30.1919 89.6135 29.9459C89.4458 29.6887 89.1551 29.5602 88.7414 29.5602C88.2607 29.5602 87.8861 29.7279 87.6178 30.0633C87.3495 30.3987 87.2153 30.8738 87.2153 31.4888V34.8596C87.2153 35.7205 86.796 36.1509 85.9575 36.1509C85.555 36.1509 85.242 36.0391 85.0184 35.8155C84.7948 35.5919 84.683 35.2733 84.683 34.8596V31.1366C84.683 30.5887 84.5935 30.1919 84.4147 29.9459C84.2358 29.6887 83.9451 29.5602 83.5426 29.5602C83.0618 29.5602 82.6873 29.7279 82.419 30.0633C82.1506 30.3987 82.0165 30.8738 82.0165 31.4888V34.8596C82.0165 35.7205 81.5972 36.1509 80.7587 36.1509ZM97.1379 36.1845C96.523 36.1845 95.9807 36.0671 95.5112 35.8323C95.0416 35.5975 94.667 35.2789 94.3875 34.8764C94.1192 34.4739 93.985 34.0211 93.985 33.518C93.985 32.9254 94.1416 32.4503 94.4546 32.0925C94.7677 31.7347 95.2764 31.4832 95.9807 31.3378C96.6851 31.1813 97.6186 31.103 98.7814 31.103H99.3851V30.8179C99.3851 30.326 99.2733 29.9794 99.0497 29.7782C98.8261 29.5658 98.446 29.4595 97.9093 29.4595C97.6075 29.4595 97.2776 29.4987 96.9199 29.5769C96.5621 29.644 96.1764 29.7614 95.7627 29.9291C95.4497 30.0633 95.1869 30.0745 94.9745 29.9627C94.7621 29.8397 94.6223 29.6608 94.5552 29.426C94.4882 29.18 94.5049 28.9341 94.6056 28.6881C94.7174 28.4421 94.9298 28.2633 95.2428 28.1515C95.7683 27.9502 96.2602 27.8105 96.7186 27.7322C97.1882 27.6427 97.6186 27.598 98.0099 27.598C99.2845 27.598 100.235 27.8887 100.861 28.4701C101.487 29.0403 101.8 29.9291 101.8 31.1366V34.8596C101.8 35.7205 101.409 36.1509 100.626 36.1509C99.8323 36.1509 99.4354 35.7205 99.4354 34.8596V34.759C99.2677 35.195 98.9826 35.5416 98.5801 35.7988C98.1888 36.0559 97.7081 36.1845 97.1379 36.1845ZM97.7081 34.4907C98.1776 34.4907 98.5745 34.3285 98.8988 34.0043C99.223 33.6801 99.3851 33.2608 99.3851 32.7465V32.4111H98.7982C97.9373 32.4111 97.3279 32.4894 96.9702 32.6459C96.6124 32.7913 96.4335 33.0484 96.4335 33.4174C96.4335 33.7304 96.5397 33.9876 96.7522 34.1888C96.9758 34.39 97.2944 34.4907 97.7081 34.4907ZM107.731 36.1845C105.416 36.1845 104.259 35.0609 104.259 32.8136V29.6608H103.555C102.895 29.6608 102.565 29.3477 102.565 28.7216C102.565 28.0844 102.895 27.7657 103.555 27.7657H104.259V26.4912C104.259 25.6303 104.684 25.1999 105.534 25.1999C106.372 25.1999 106.792 25.6303 106.792 26.4912V27.7657H108.385C109.033 27.7657 109.357 28.0844 109.357 28.7216C109.357 29.3477 109.033 29.6608 108.385 29.6608H106.792V32.713C106.792 33.1826 106.898 33.5348 107.11 33.7695C107.334 34.0043 107.686 34.1217 108.167 34.1217C108.334 34.1217 108.491 34.1049 108.636 34.0714C108.782 34.0379 108.916 34.0155 109.039 34.0043C109.195 33.9931 109.324 34.0435 109.425 34.1553C109.525 34.2671 109.575 34.4963 109.575 34.8428C109.575 35.1223 109.531 35.3627 109.441 35.564C109.352 35.754 109.195 35.8938 108.972 35.9832C108.826 36.0391 108.625 36.0839 108.368 36.1174C108.122 36.1621 107.91 36.1845 107.731 36.1845ZM111.99 26.2564C111.52 26.2564 111.157 26.1502 110.899 25.9378C110.653 25.7142 110.53 25.4011 110.53 24.9986C110.53 24.5849 110.653 24.2719 110.899 24.0595C111.157 23.8359 111.52 23.7241 111.99 23.7241C112.951 23.7241 113.432 24.1489 113.432 24.9986C113.432 25.8371 112.951 26.2564 111.99 26.2564ZM111.99 36.1342C111.576 36.1342 111.257 36.0168 111.034 35.782C110.821 35.536 110.715 35.195 110.715 34.759V29.0235C110.715 28.0955 111.14 27.6316 111.99 27.6316C112.392 27.6316 112.699 27.7546 112.912 28.0005C113.135 28.2353 113.247 28.5763 113.247 29.0235V34.759C113.247 35.195 113.141 35.536 112.929 35.782C112.716 36.0168 112.403 36.1342 111.99 36.1342Z" fill="#F5F5F5"/>
</g>
<defs>
<filter id="filter0_d_222_65" x="0" y="0" width="145" height="68.6617" filterUnits="userSpaceOnUse" color-interpolation-filters="sRGB">
<feFlood flood-opacity="0" result="BackgroundImageFix"/>
<feColorMatrix in="SourceAlpha" type="matrix" values="0 0 0 0 0 0 0 0 0 0 0 0 0 0 0 0 0 0 127 0" result="hardAlpha"/>
<feOffset dy="4"/>
<feGaussianBlur stdDeviation="2"/>
<feComposite in2="hardAlpha" operator="out"/>
<feColorMatrix type="matrix" values="0 0 0 0 0 0 0 0 0 0 0 0 0 0 0 0 0 0 0.25 0"/>
<feBlend mode="normal" in2="BackgroundImageFix" result="effect1_dropShadow_222_65"/>
<feBlend mode="normal" in="SourceGraphic" in2="effect1_dropShadow_222_65" result="shape"/>
</filter>
</defs>
</svg>
