<svg width="378" height="116" viewBox="0 0 378 116" fill="none" xmlns="http://www.w3.org/2000/svg">
<g filter="url(#filter0_d_119_171)">
<rect x="6.45" y="3.45" width="365.5" height="102.85" rx="28.05" stroke="#9575DE" stroke-width="5.1"/>
<rect x="6.45" y="3.45" width="365.5" height="102.85" rx="28.05" fill="#151515" stroke="#9575DE" stroke-width="5.1"/>
<path d="M36.6192 30.2107C36.6192 30.9533 36.5035 31.6382 36.2722 32.2651C36.0409 32.8921 35.7061 33.4308 35.2678 33.8813C34.8295 34.3318 34.306 34.6787 33.6973 34.9222C33.0886 35.1596 32.4038 35.2783 31.6429 35.2783C30.8881 35.2783 30.2093 35.1566 29.6067 34.9131C29.0041 34.6696 28.4805 34.3226 28.0362 33.8722C27.5979 33.4156 27.2631 32.8799 27.0318 32.2651C26.8066 31.6442 26.6939 30.9594 26.6939 30.2107C26.6939 29.4559 26.8096 28.765 27.0409 28.138C27.2722 27.511 27.604 26.9753 28.0362 26.531C28.4684 26.0866 28.9919 25.7457 29.6067 25.5083C30.2215 25.2648 30.9002 25.1431 31.6429 25.1431C32.3977 25.1431 33.0825 25.2648 33.6973 25.5083C34.3121 25.7518 34.8387 26.0988 35.277 26.5492C35.7152 26.9997 36.047 27.5354 36.2722 28.1563C36.5035 28.7771 36.6192 29.462 36.6192 30.2107ZM34.1173 30.2107C34.1173 29.1941 33.8921 28.4028 33.4416 27.8367C32.9973 27.2706 32.3977 26.9875 31.6429 26.9875C31.1559 26.9875 30.7267 27.1153 30.3554 27.371C29.9841 27.6206 29.698 27.9919 29.4971 28.485C29.2962 28.978 29.1958 29.5533 29.1958 30.2107C29.1958 30.862 29.2932 31.4312 29.488 31.9182C29.6889 32.4051 29.9719 32.7795 30.3372 33.0413C30.7085 33.2969 31.1437 33.4248 31.6429 33.4248C32.3977 33.4248 32.9973 33.1417 33.4416 32.5756C33.8921 32.0034 34.1173 31.2151 34.1173 30.2107ZM40.8924 22.8604V26.6679C41.3611 26.1809 41.839 25.8096 42.326 25.554C42.813 25.2922 43.4156 25.1613 44.1339 25.1613C44.9617 25.1613 45.6861 25.3592 46.307 25.7548C46.934 26.1444 47.418 26.7136 47.7588 27.4623C48.1058 28.2049 48.2793 29.0876 48.2793 30.1103C48.2793 30.8651 48.1819 31.559 47.9871 32.1921C47.7984 32.8191 47.5214 33.3639 47.1562 33.8265C46.791 34.2891 46.3466 34.6483 45.8231 34.904C45.3057 35.1535 44.7335 35.2783 44.1065 35.2783C43.723 35.2783 43.3608 35.2327 43.0199 35.1414C42.6851 35.05 42.399 34.9313 42.1616 34.7853C41.9242 34.6331 41.7203 34.4778 41.5499 34.3196C41.3855 34.1613 41.1664 33.9239 40.8924 33.6074V33.8539C40.8924 34.3226 40.7798 34.6787 40.5546 34.9222C40.3294 35.1596 40.0433 35.2783 39.6963 35.2783C39.3432 35.2783 39.0602 35.1596 38.8471 34.9222C38.6402 34.6787 38.5367 34.3226 38.5367 33.8539V22.9699C38.5367 22.4647 38.6371 22.0842 38.838 21.8286C39.045 21.5668 39.3311 21.4359 39.6963 21.4359C40.0798 21.4359 40.375 21.5607 40.582 21.8103C40.7889 22.0538 40.8924 22.4038 40.8924 22.8604ZM41.0111 30.2655C41.0111 31.2577 41.2364 32.0216 41.6868 32.5573C42.1434 33.0869 42.7399 33.3517 43.4765 33.3517C44.1034 33.3517 44.6422 33.0808 45.0926 32.5391C45.5492 31.9912 45.7774 31.209 45.7774 30.1924C45.7774 29.535 45.6831 28.9689 45.4944 28.4941C45.3057 28.0193 45.0378 27.6541 44.6909 27.3984C44.3439 27.1366 43.9391 27.0058 43.4765 27.0058C43.0017 27.0058 42.5786 27.1366 42.2073 27.3984C41.836 27.6541 41.5438 28.0284 41.3307 28.5215C41.1177 29.0085 41.0111 29.5898 41.0111 30.2655ZM52.7899 26.6314V35.0866C52.7899 35.6892 52.7686 36.1792 52.726 36.5566C52.6895 36.9401 52.6347 37.2171 52.5617 37.3875C52.1477 38.4467 51.2681 38.9763 49.9228 38.9763C49.168 38.9763 48.5958 38.8728 48.2062 38.6659C47.8167 38.4589 47.6219 38.1576 47.6219 37.7619C47.6219 37.4697 47.7101 37.2293 47.8867 37.0406C48.0632 36.858 48.2945 36.7667 48.5806 36.7667C48.6171 36.7667 48.678 36.7697 48.7632 36.7758C48.8424 36.788 48.9611 36.8001 49.1193 36.8123C49.2837 36.8245 49.3963 36.8306 49.4572 36.8306C49.792 36.8306 50.0142 36.6997 50.1237 36.4379C50.2394 36.1762 50.2972 35.7075 50.2972 35.0318V26.6314C50.2972 26.1383 50.4129 25.767 50.6442 25.5174C50.8755 25.2679 51.1799 25.1431 51.5573 25.1431C51.9225 25.1431 52.2177 25.2679 52.443 25.5174C52.6743 25.7609 52.7899 26.1322 52.7899 26.6314ZM51.5573 23.9834C51.2103 23.9834 50.912 23.8769 50.6624 23.6639C50.419 23.4508 50.2972 23.1495 50.2972 22.7599C50.2972 22.4069 50.422 22.1177 50.6716 21.8925C50.9272 21.6612 51.2225 21.5455 51.5573 21.5455C51.8799 21.5455 52.166 21.649 52.4156 21.856C52.6651 22.0629 52.7899 22.3642 52.7899 22.7599C52.7899 23.1434 52.6682 23.4447 52.4247 23.6639C52.1812 23.8769 51.8921 23.9834 51.5573 23.9834ZM62.3134 30.8225H57.4375C57.4436 31.3886 57.5562 31.8877 57.7754 32.3199C58.0006 32.7521 58.2958 33.0778 58.6611 33.2969C59.0324 33.5161 59.4402 33.6256 59.8846 33.6256C60.1829 33.6256 60.4538 33.5922 60.6973 33.5252C60.9468 33.4521 61.1873 33.3426 61.4186 33.1965C61.6499 33.0443 61.863 32.883 62.0578 32.7125C62.2526 32.5421 62.5052 32.3108 62.8156 32.0186C62.9435 31.909 63.1261 31.8542 63.3635 31.8542C63.6191 31.8542 63.8261 31.9243 63.9844 32.0643C64.1426 32.2043 64.2218 32.4021 64.2218 32.6578C64.2218 32.883 64.1335 33.1478 63.957 33.4521C63.7805 33.7504 63.5126 34.0396 63.1535 34.3196C62.8004 34.5935 62.353 34.8218 61.8112 35.0044C61.2756 35.187 60.6577 35.2783 59.9577 35.2783C58.3567 35.2783 57.1119 34.8218 56.2231 33.9087C55.3344 32.9956 54.89 31.7569 54.89 30.1924C54.89 29.4559 54.9996 28.7741 55.2187 28.1471C55.4379 27.514 55.7575 26.9723 56.1775 26.5218C56.5975 26.0714 57.1149 25.7274 57.7297 25.49C58.3445 25.2466 59.0263 25.1248 59.775 25.1248C60.749 25.1248 61.583 25.3318 62.2769 25.7457C62.9769 26.1535 63.5004 26.6831 63.8474 27.3345C64.1944 27.9858 64.3679 28.6493 64.3679 29.325C64.3679 29.952 64.1883 30.3598 63.8291 30.5485C63.47 30.7312 62.9648 30.8225 62.3134 30.8225ZM57.4375 29.4072H61.9573C61.8964 28.555 61.6651 27.9188 61.2634 27.4988C60.8677 27.0727 60.3442 26.8597 59.6929 26.8597C59.072 26.8597 58.5606 27.0758 58.1589 27.508C57.7632 27.9341 57.5228 28.5671 57.4375 29.4072ZM75.4162 32.1921C75.4162 32.5025 75.3219 32.8343 75.1331 33.1874C74.9505 33.5404 74.6675 33.8783 74.284 34.2009C73.9066 34.5174 73.4287 34.7731 72.8504 34.9679C72.2721 35.1627 71.6208 35.2601 70.8964 35.2601C69.3564 35.2601 68.1541 34.8126 67.2897 33.9178C66.4254 33.0169 65.9932 31.8116 65.9932 30.302C65.9932 29.2793 66.191 28.3754 66.5867 27.5901C66.9823 26.8049 67.5545 26.1992 68.3033 25.7731C69.052 25.3409 69.9468 25.1248 70.9877 25.1248C71.633 25.1248 72.2234 25.2192 72.7591 25.4079C73.3009 25.5966 73.7574 25.8401 74.1288 26.1383C74.5062 26.4366 74.7923 26.7562 74.9871 27.0971C75.1879 27.4319 75.2884 27.7454 75.2884 28.0375C75.2884 28.3358 75.1758 28.5884 74.9505 28.7954C74.7314 29.0024 74.4636 29.1059 74.147 29.1059C73.9401 29.1059 73.7666 29.0541 73.6266 28.9506C73.4926 28.8411 73.3405 28.6676 73.17 28.4302C72.8657 27.9675 72.5461 27.6206 72.2113 27.3893C71.8826 27.1579 71.4625 27.0423 70.9512 27.0423C70.2147 27.0423 69.6212 27.3314 69.1707 27.9097C68.7202 28.4819 68.495 29.2672 68.495 30.2655C68.495 30.7342 68.5528 31.1664 68.6685 31.5621C68.7842 31.9516 68.9516 32.2864 69.1707 32.5665C69.3898 32.8404 69.6546 33.0504 69.9651 33.1965C70.2755 33.3365 70.6164 33.4065 70.9877 33.4065C71.4869 33.4065 71.913 33.2908 72.2661 33.0595C72.6252 32.8282 72.9417 32.4751 73.2157 32.0003C73.3678 31.7203 73.5322 31.5012 73.7087 31.3429C73.8853 31.1847 74.1014 31.1055 74.357 31.1055C74.6614 31.1055 74.914 31.2212 75.1149 31.4525C75.3158 31.6838 75.4162 31.9303 75.4162 32.1921ZM77.7354 25.3622H78.0094V23.8647C78.0094 23.463 78.0185 23.1495 78.0368 22.9243C78.0611 22.693 78.122 22.4951 78.2194 22.3308C78.3168 22.1603 78.4568 22.0234 78.6394 21.9199C78.822 21.8103 79.0259 21.7555 79.2512 21.7555C79.5677 21.7555 79.8538 21.8742 80.1095 22.1116C80.2799 22.2699 80.3864 22.4647 80.429 22.696C80.4777 22.9212 80.5021 23.2438 80.5021 23.6639V25.3622H81.4152C81.7682 25.3622 82.0361 25.4474 82.2187 25.6179C82.4074 25.7822 82.5018 25.9953 82.5018 26.257C82.5018 26.5918 82.3678 26.8262 82.1 26.9601C81.8382 27.094 81.4608 27.161 80.9678 27.161H80.5021V31.7447C80.5021 32.1343 80.5143 32.4356 80.5386 32.6486C80.5691 32.8556 80.6421 33.026 80.7578 33.16C80.8795 33.2878 81.0743 33.3517 81.3421 33.3517C81.4882 33.3517 81.6861 33.3274 81.9356 33.2787C82.1852 33.2239 82.38 33.1965 82.52 33.1965C82.7209 33.1965 82.9005 33.2787 83.0587 33.443C83.2231 33.6013 83.3053 33.7991 83.3053 34.0365C83.3053 34.4383 83.0861 34.7457 82.6478 34.9587C82.2096 35.1718 81.5795 35.2783 80.7578 35.2783C79.9786 35.2783 79.3881 35.1474 78.9864 34.8857C78.5846 34.6239 78.3198 34.2618 78.192 33.7991C78.0702 33.3365 78.0094 32.7186 78.0094 31.9456V27.161H77.6807C77.3215 27.161 77.0476 27.0758 76.8589 26.9053C76.6702 26.7349 76.5758 26.5188 76.5758 26.257C76.5758 25.9953 76.6732 25.7822 76.868 25.6179C77.0689 25.4474 77.358 25.3622 77.7354 25.3622ZM86.7202 26.5584V33.7626C86.7202 34.2618 86.6015 34.6392 86.3641 34.8948C86.1267 35.1505 85.8254 35.2783 85.4601 35.2783C85.0949 35.2783 84.7966 35.1474 84.5653 34.8857C84.3401 34.6239 84.2275 34.2496 84.2275 33.7626V26.6314C84.2275 26.1383 84.3401 25.767 84.5653 25.5174C84.7966 25.2679 85.0949 25.1431 85.4601 25.1431C85.8254 25.1431 86.1267 25.2679 86.3641 25.5174C86.6015 25.767 86.7202 26.114 86.7202 26.5584ZM85.4875 23.9834C85.1406 23.9834 84.8423 23.8769 84.5927 23.6639C84.3492 23.4508 84.2275 23.1495 84.2275 22.7599C84.2275 22.4069 84.3523 22.1177 84.6018 21.8925C84.8575 21.6612 85.1527 21.5455 85.4875 21.5455C85.8102 21.5455 86.0963 21.649 86.3458 21.856C86.5954 22.0629 86.7202 22.3642 86.7202 22.7599C86.7202 23.1434 86.5985 23.4447 86.355 23.6639C86.1115 23.8769 85.8223 23.9834 85.4875 23.9834ZM91.0665 26.6953L93.0844 32.3564L95.2576 26.4488C95.428 25.974 95.5954 25.6392 95.7598 25.4444C95.9241 25.2435 96.1737 25.1431 96.5085 25.1431C96.825 25.1431 97.0929 25.2496 97.312 25.4626C97.5372 25.6757 97.6498 25.9222 97.6498 26.2022C97.6498 26.3118 97.6285 26.4396 97.5859 26.5857C97.5494 26.7318 97.5038 26.8688 97.449 26.9966C97.4003 27.1245 97.3424 27.2706 97.2755 27.4349L94.8832 33.37C94.8162 33.5404 94.728 33.7565 94.6184 34.0183C94.5149 34.28 94.3962 34.5052 94.2623 34.6939C94.1345 34.8766 93.9732 35.0196 93.7784 35.1231C93.5897 35.2266 93.3583 35.2783 93.0844 35.2783C92.7314 35.2783 92.4483 35.1992 92.2352 35.0409C92.0283 34.8766 91.8731 34.7 91.7696 34.5113C91.6722 34.3165 91.5048 33.9361 91.2674 33.37L88.8934 27.4988C88.8386 27.3527 88.7807 27.2066 88.7199 27.0605C88.6651 26.9145 88.6164 26.7653 88.5738 26.6131C88.5373 26.461 88.519 26.3301 88.519 26.2205C88.519 26.0501 88.5707 25.8827 88.6742 25.7183C88.7777 25.5479 88.9207 25.4109 89.1034 25.3074C89.286 25.1979 89.4838 25.1431 89.6969 25.1431C90.1108 25.1431 90.3939 25.2618 90.546 25.4992C90.7043 25.7366 90.8778 26.1353 91.0665 26.6953ZM106.142 30.8225H101.266C101.272 31.3886 101.384 31.8877 101.604 32.3199C101.829 32.7521 102.124 33.0778 102.489 33.2969C102.861 33.5161 103.268 33.6256 103.713 33.6256C104.011 33.6256 104.282 33.5922 104.525 33.5252C104.775 33.4521 105.015 33.3426 105.247 33.1965C105.478 33.0443 105.691 32.883 105.886 32.7125C106.081 32.5421 106.333 32.3108 106.644 32.0186C106.772 31.909 106.954 31.8542 107.192 31.8542C107.447 31.8542 107.654 31.9243 107.812 32.0643C107.971 32.2043 108.05 32.4021 108.05 32.6578C108.05 32.883 107.962 33.1478 107.785 33.4521C107.609 33.7504 107.341 34.0396 106.982 34.3196C106.629 34.5935 106.181 34.8218 105.639 35.0044C105.104 35.187 104.486 35.2783 103.786 35.2783C102.185 35.2783 100.94 34.8218 100.051 33.9087C99.1625 32.9956 98.7182 31.7569 98.7182 30.1924C98.7182 29.4559 98.8277 28.7741 99.0469 28.1471C99.266 27.514 99.5856 26.9723 100.006 26.5218C100.426 26.0714 100.943 25.7274 101.558 25.49C102.173 25.2466 102.854 25.1248 103.603 25.1248C104.577 25.1248 105.411 25.3318 106.105 25.7457C106.805 26.1535 107.329 26.6831 107.676 27.3345C108.022 27.9858 108.196 28.6493 108.196 29.325C108.196 29.952 108.016 30.3598 107.657 30.5485C107.298 30.7312 106.793 30.8225 106.142 30.8225ZM101.266 29.4072H105.785C105.725 28.555 105.493 27.9188 105.091 27.4988C104.696 27.0727 104.172 26.8597 103.521 26.8597C102.9 26.8597 102.389 27.0758 101.987 27.508C101.591 27.9341 101.351 28.5671 101.266 29.4072ZM118.331 32.0186C118.331 32.7065 118.164 33.2969 117.829 33.79C117.494 34.277 116.998 34.6483 116.341 34.904C115.689 35.1535 114.895 35.2783 113.958 35.2783C113.063 35.2783 112.296 35.1414 111.657 34.8674C111.017 34.5935 110.546 34.2526 110.241 33.8448C109.937 33.4308 109.785 33.0169 109.785 32.603C109.785 32.3291 109.882 32.0947 110.077 31.8999C110.272 31.7051 110.518 31.6077 110.817 31.6077C111.078 31.6077 111.279 31.6716 111.419 31.7995C111.559 31.9273 111.693 32.1069 111.821 32.3382C112.077 32.7826 112.381 33.1143 112.734 33.3334C113.093 33.5526 113.58 33.6622 114.195 33.6622C114.694 33.6622 115.102 33.5526 115.419 33.3334C115.741 33.1082 115.902 32.8526 115.902 32.5665C115.902 32.1282 115.735 31.8086 115.4 31.6077C115.072 31.4068 114.527 31.2151 113.766 31.0325C112.908 30.8194 112.207 30.5972 111.666 30.3659C111.13 30.1285 110.701 29.8181 110.378 29.4346C110.056 29.0511 109.894 28.5793 109.894 28.0193C109.894 27.5201 110.043 27.0484 110.342 26.604C110.64 26.1596 111.078 25.8066 111.657 25.5448C112.241 25.277 112.944 25.1431 113.766 25.1431C114.411 25.1431 114.989 25.21 115.501 25.3439C116.018 25.4779 116.447 25.6574 116.788 25.8827C117.135 26.1079 117.397 26.3575 117.573 26.6314C117.756 26.9053 117.847 27.1732 117.847 27.4349C117.847 27.721 117.75 27.9554 117.555 28.138C117.366 28.3206 117.096 28.4119 116.742 28.4119C116.487 28.4119 116.268 28.3389 116.085 28.1928C115.909 28.0467 115.705 27.8275 115.473 27.5354C115.285 27.2919 115.062 27.0971 114.807 26.951C114.551 26.8049 114.204 26.7318 113.766 26.7318C113.315 26.7318 112.941 26.8292 112.643 27.024C112.344 27.2127 112.195 27.4501 112.195 27.7362C112.195 27.998 112.305 28.2141 112.524 28.3845C112.743 28.5489 113.038 28.6858 113.41 28.7954C113.781 28.905 114.292 29.0389 114.944 29.1972C115.717 29.3859 116.347 29.6111 116.834 29.8729C117.327 30.1346 117.698 30.4451 117.948 30.8042C118.203 31.1573 118.331 31.5621 118.331 32.0186ZM122.093 35.2783C121.716 35.2783 121.39 35.1566 121.116 34.9131C120.842 34.6696 120.705 34.3287 120.705 33.8904C120.705 33.5191 120.836 33.1995 121.098 32.9317C121.36 32.6639 121.682 32.5299 122.066 32.5299C122.449 32.5299 122.775 32.6639 123.043 32.9317C123.317 33.1934 123.454 33.513 123.454 33.8904C123.454 34.3226 123.317 34.6635 123.043 34.9131C122.775 35.1566 122.458 35.2783 122.093 35.2783ZM120.705 26.5036C120.705 26.0714 120.839 25.7366 121.107 25.4992C121.381 25.2618 121.71 25.1431 122.093 25.1431C122.464 25.1431 122.784 25.2648 123.052 25.5083C123.32 25.7457 123.454 26.0775 123.454 26.5036C123.454 26.8445 123.308 27.1579 123.015 27.444C122.723 27.7301 122.407 27.8732 122.066 27.8732C121.694 27.8732 121.375 27.7362 121.107 27.4623C120.839 27.1884 120.705 26.8688 120.705 26.5036Z" fill="#9575DE"/>
<path d="M27.5512 58.217V48.2827C27.5512 47.824 27.6519 47.4772 27.8533 47.2423C28.0602 47.0074 28.3371 46.8899 28.6839 46.8899C29.0307 46.8899 29.3104 47.0074 29.523 47.2423C29.7355 47.4716 29.8418 47.8184 29.8418 48.2827V58.217C29.8418 58.6812 29.7327 59.0308 29.5146 59.2658C29.302 59.4951 29.0251 59.6098 28.6839 59.6098C28.3483 59.6098 28.0742 59.4895 27.8617 59.249C27.6547 59.0085 27.5512 58.6645 27.5512 58.217ZM38.0057 58.3177C37.4519 58.7484 36.9149 59.0728 36.3947 59.2909C35.8801 59.5035 35.3012 59.6098 34.6579 59.6098C34.0706 59.6098 33.5532 59.4951 33.1057 59.2658C32.6638 59.0308 32.3226 58.7148 32.082 58.3177C31.8415 57.9205 31.7213 57.4898 31.7213 57.0255C31.7213 56.3991 31.9198 55.8649 32.317 55.423C32.7141 54.9811 33.2595 54.6846 33.9531 54.5336C34.0985 54.5 34.4593 54.4245 35.0355 54.307C35.6116 54.1896 36.1038 54.0833 36.5122 53.9882C36.9261 53.8875 37.3736 53.7673 37.8547 53.6274C37.8267 53.0233 37.7036 52.5814 37.4855 52.3017C37.2729 52.0165 36.8282 51.8738 36.1514 51.8738C35.5697 51.8738 35.1306 51.9549 34.8341 52.1171C34.5432 52.2794 34.2915 52.5227 34.079 52.8471C33.872 53.1715 33.7238 53.3869 33.6343 53.4932C33.5504 53.5939 33.3658 53.6442 33.0805 53.6442C32.8232 53.6442 32.5994 53.5631 32.4093 53.4009C32.2247 53.2331 32.1324 53.0205 32.1324 52.7632C32.1324 52.3605 32.275 51.9689 32.5603 51.5885C32.8456 51.2082 33.2903 50.8949 33.8944 50.6488C34.4985 50.4027 35.2508 50.2796 36.1514 50.2796C37.1582 50.2796 37.9497 50.3999 38.5259 50.6404C39.102 50.8754 39.5076 51.2501 39.7425 51.7647C39.983 52.2794 40.1033 52.9618 40.1033 53.812C40.1033 54.349 40.1005 54.8049 40.0949 55.1796C40.0949 55.5544 40.0921 55.9711 40.0865 56.4298C40.0865 56.8605 40.1564 57.3108 40.2963 57.7807C40.4417 58.2449 40.5144 58.5442 40.5144 58.6784C40.5144 58.9134 40.4025 59.1287 40.1788 59.3245C39.9606 59.5147 39.7117 59.6098 39.432 59.6098C39.1971 59.6098 38.965 59.5007 38.7356 59.2826C38.5063 59.0588 38.263 58.7372 38.0057 58.3177ZM37.8547 55.0034C37.519 55.1265 37.0296 55.258 36.3863 55.3978C35.7487 55.532 35.3068 55.6327 35.0606 55.6998C34.8145 55.7614 34.5796 55.8872 34.3558 56.0774C34.1321 56.262 34.0202 56.5221 34.0202 56.8577C34.0202 57.2045 34.1517 57.501 34.4146 57.7471C34.6775 57.9876 35.0215 58.1079 35.4466 58.1079C35.8997 58.1079 36.3164 58.01 36.6968 57.8142C37.0827 57.6129 37.3652 57.3556 37.5442 57.0423C37.7512 56.6955 37.8547 56.125 37.8547 55.3307V55.0034ZM48.1413 58.561L46.1192 55.2384L44.8774 56.413V58.2338C44.8774 58.6757 44.76 59.0169 44.525 59.2574C44.2957 59.4923 44.03 59.6098 43.7279 59.6098C43.3755 59.6098 43.0987 59.4923 42.8973 59.2574C42.6959 59.0225 42.5952 58.6757 42.5952 58.217V48.4505C42.5952 47.9415 42.6931 47.5555 42.8889 47.2926C43.0847 47.0242 43.3644 46.8899 43.7279 46.8899C44.0803 46.8899 44.36 47.0102 44.567 47.2507C44.774 47.4912 44.8774 47.8464 44.8774 48.3163V53.8707L47.4533 51.169C47.7721 50.8334 48.0155 50.6041 48.1833 50.481C48.3511 50.3579 48.5552 50.2964 48.7958 50.2964C49.081 50.2964 49.3188 50.3887 49.5089 50.5733C49.6991 50.7523 49.7942 50.9788 49.7942 51.2529C49.7942 51.5885 49.4838 52.036 48.8629 52.5954L47.6463 53.7113L49.9956 57.4031C50.169 57.6772 50.2921 57.887 50.3648 58.0324C50.4431 58.1722 50.4822 58.3065 50.4822 58.4351C50.4822 58.7987 50.3815 59.0868 50.1802 59.2993C49.9844 59.5063 49.7243 59.6098 49.3999 59.6098C49.1202 59.6098 48.9048 59.5343 48.7538 59.3832C48.6028 59.2322 48.3986 58.9581 48.1413 58.561ZM57.7987 58.3177V58.024C57.5246 58.3708 57.2365 58.6617 56.9345 58.8966C56.6324 59.1315 56.3024 59.3049 55.9444 59.4168C55.5864 59.5343 55.1781 59.593 54.7194 59.593C54.1656 59.593 53.6678 59.4783 53.2259 59.249C52.7896 59.0197 52.4512 58.7036 52.2107 58.3009C51.9254 57.8142 51.7827 57.115 51.7827 56.2033V51.6641C51.7827 51.2054 51.8862 50.8642 52.0932 50.6404C52.3002 50.4111 52.5742 50.2964 52.9155 50.2964C53.2623 50.2964 53.5419 50.4111 53.7545 50.6404C53.9671 50.8698 54.0733 51.211 54.0733 51.6641V55.3307C54.0733 55.8621 54.1181 56.3096 54.2076 56.6731C54.2971 57.0311 54.4565 57.3136 54.6858 57.5206C54.9208 57.7219 55.2368 57.8226 55.634 57.8226C56.0199 57.8226 56.3835 57.708 56.7247 57.4786C57.0659 57.2493 57.3148 56.95 57.4715 56.5808C57.6001 56.2564 57.6644 55.546 57.6644 54.4497V51.6641C57.6644 51.211 57.7707 50.8698 57.9833 50.6404C58.1958 50.4111 58.4727 50.2964 58.8139 50.2964C59.1551 50.2964 59.4292 50.4111 59.6362 50.6404C59.8431 50.8642 59.9466 51.2054 59.9466 51.6641V58.3009C59.9466 58.7372 59.8459 59.0644 59.6446 59.2826C59.4488 59.5007 59.1943 59.6098 58.881 59.6098C58.5678 59.6098 58.3077 59.4979 58.1007 59.2742C57.8994 59.0448 57.7987 58.726 57.7987 58.3177ZM67.9427 58.561L65.9206 55.2384L64.6788 56.413V58.2338C64.6788 58.6757 64.5614 59.0169 64.3264 59.2574C64.0971 59.4923 63.8314 59.6098 63.5293 59.6098C63.1769 59.6098 62.9001 59.4923 62.6987 59.2574C62.4973 59.0225 62.3966 58.6757 62.3966 58.217V48.4505C62.3966 47.9415 62.4945 47.5555 62.6903 47.2926C62.8861 47.0242 63.1658 46.8899 63.5293 46.8899C63.8817 46.8899 64.1614 47.0102 64.3684 47.2507C64.5753 47.4912 64.6788 47.8464 64.6788 48.3163V53.8707L67.2547 51.169C67.5735 50.8334 67.8168 50.6041 67.9847 50.481C68.1525 50.3579 68.3566 50.2964 68.5972 50.2964C68.8824 50.2964 69.1202 50.3887 69.3103 50.5733C69.5005 50.7523 69.5956 50.9788 69.5956 51.2529C69.5956 51.5885 69.2852 52.036 68.6643 52.5954L67.4477 53.7113L69.797 57.4031C69.9704 57.6772 70.0934 57.887 70.1662 58.0324C70.2445 58.1722 70.2836 58.3065 70.2836 58.4351C70.2836 58.7987 70.1829 59.0868 69.9816 59.2993C69.7858 59.5063 69.5257 59.6098 69.2013 59.6098C68.9216 59.6098 68.7062 59.5343 68.5552 59.3832C68.4042 59.2322 68.2 58.9581 67.9427 58.561ZM77.2225 58.3177C76.6687 58.7484 76.1318 59.0728 75.6115 59.2909C75.0969 59.5035 74.518 59.6098 73.8747 59.6098C73.2874 59.6098 72.77 59.4951 72.3225 59.2658C71.8806 59.0308 71.5394 58.7148 71.2989 58.3177C71.0583 57.9205 70.9381 57.4898 70.9381 57.0255C70.9381 56.3991 71.1367 55.8649 71.5338 55.423C71.9309 54.9811 72.4763 54.6846 73.1699 54.5336C73.3154 54.5 73.6762 54.4245 74.2523 54.307C74.8284 54.1896 75.3207 54.0833 75.729 53.9882C76.1429 53.8875 76.5904 53.7673 77.0715 53.6274C77.0435 53.0233 76.9204 52.5814 76.7023 52.3017C76.4897 52.0165 76.045 51.8738 75.3682 51.8738C74.7865 51.8738 74.3474 51.9549 74.0509 52.1171C73.7601 52.2794 73.5083 52.5227 73.2958 52.8471C73.0888 53.1715 72.9406 53.3869 72.8511 53.4932C72.7672 53.5939 72.5826 53.6442 72.2973 53.6442C72.04 53.6442 71.8163 53.5631 71.6261 53.4009C71.4415 53.2331 71.3492 53.0205 71.3492 52.7632C71.3492 52.3605 71.4918 51.9689 71.7771 51.5885C72.0624 51.2082 72.5071 50.8949 73.1112 50.6488C73.7153 50.4027 74.4676 50.2796 75.3682 50.2796C76.3751 50.2796 77.1666 50.3999 77.7427 50.6404C78.3189 50.8754 78.7244 51.2501 78.9593 51.7647C79.1998 52.2794 79.3201 52.9618 79.3201 53.812C79.3201 54.349 79.3173 54.8049 79.3117 55.1796C79.3117 55.5544 79.3089 55.9711 79.3033 56.4298C79.3033 56.8605 79.3732 57.3108 79.5131 57.7807C79.6585 58.2449 79.7312 58.5442 79.7312 58.6784C79.7312 58.9134 79.6194 59.1287 79.3956 59.3245C79.1775 59.5147 78.9286 59.6098 78.6489 59.6098C78.4139 59.6098 78.1818 59.5007 77.9525 59.2826C77.7231 59.0588 77.4798 58.7372 77.2225 58.3177ZM77.0715 55.0034C76.7359 55.1265 76.2464 55.258 75.6032 55.3978C74.9655 55.532 74.5236 55.6327 74.2775 55.6998C74.0313 55.7614 73.7964 55.8872 73.5727 56.0774C73.3489 56.262 73.2371 56.5221 73.2371 56.8577C73.2371 57.2045 73.3685 57.501 73.6314 57.7471C73.8943 57.9876 74.2383 58.1079 74.6634 58.1079C75.1165 58.1079 75.5332 58.01 75.9136 57.8142C76.2996 57.6129 76.582 57.3556 76.761 57.0423C76.968 56.6955 77.0715 56.125 77.0715 55.3307V55.0034ZM83.7335 51.5634V51.8403C84.1362 51.3089 84.5753 50.9201 85.0508 50.674C85.5318 50.4223 86.0828 50.2964 86.7037 50.2964C87.3078 50.2964 87.8476 50.4279 88.323 50.6908C88.7985 50.9537 89.1537 51.3256 89.3886 51.8067C89.5396 52.0864 89.6375 52.3884 89.6823 52.7129C89.727 53.0373 89.7494 53.4512 89.7494 53.9546V58.217C89.7494 58.6757 89.6431 59.0225 89.4306 59.2574C89.2236 59.4923 88.9523 59.6098 88.6167 59.6098C88.2755 59.6098 87.9986 59.4895 87.786 59.249C87.5735 59.0085 87.4672 58.6645 87.4672 58.217V54.3993C87.4672 53.6442 87.3609 53.0681 87.1484 52.6709C86.9414 52.2682 86.5247 52.0668 85.8982 52.0668C85.4899 52.0668 85.1179 52.1899 84.7823 52.436C84.4467 52.6765 84.2005 53.0093 84.0439 53.4344C83.932 53.7756 83.8761 54.4133 83.8761 55.3475V58.217C83.8761 58.6812 83.767 59.0308 83.5489 59.2658C83.3363 59.4951 83.0594 59.6098 82.7182 59.6098C82.3882 59.6098 82.1169 59.4895 81.9044 59.249C81.6918 59.0085 81.5855 58.6645 81.5855 58.217V51.5969C81.5855 51.1606 81.6806 50.8362 81.8708 50.6236C82.061 50.4055 82.3211 50.2964 82.6511 50.2964C82.8525 50.2964 83.0343 50.344 83.1965 50.4391C83.3587 50.5341 83.4874 50.6768 83.5824 50.867C83.6831 51.0571 83.7335 51.2893 83.7335 51.5634ZM98.4503 51.5802V51.857C98.881 51.3256 99.3285 50.9369 99.7927 50.6908C100.257 50.4391 100.783 50.3132 101.37 50.3132C102.075 50.3132 102.724 50.495 103.317 50.8586C103.91 51.2222 104.377 51.7536 104.718 52.4528C105.065 53.152 105.238 53.9798 105.238 54.9363C105.238 55.6411 105.137 56.29 104.936 56.8829C104.74 57.4702 104.469 57.9653 104.122 58.368C103.775 58.7651 103.364 59.0728 102.889 59.2909C102.419 59.5035 101.913 59.6098 101.37 59.6098C100.716 59.6098 100.165 59.4783 99.7172 59.2154C99.2753 58.9525 98.853 58.5666 98.4503 58.0576V61.4976C98.4503 62.5045 98.0839 63.0079 97.3511 63.0079C96.9204 63.0079 96.6351 62.8765 96.4953 62.6136C96.3555 62.3562 96.2855 61.9787 96.2855 61.4808V51.5969C96.2855 51.1606 96.3806 50.8362 96.5708 50.6236C96.761 50.4055 97.0211 50.2964 97.3511 50.2964C97.6756 50.2964 97.9385 50.4083 98.1398 50.632C98.3468 50.8502 98.4503 51.1662 98.4503 51.5802ZM102.939 54.9111C102.939 54.307 102.847 53.7896 102.662 53.3589C102.478 52.9226 102.22 52.5898 101.89 52.3605C101.566 52.1255 101.205 52.0081 100.808 52.0081C100.176 52.0081 99.6417 52.257 99.2054 52.7548C98.7747 53.2526 98.5593 53.9854 98.5593 54.9531C98.5593 55.8649 98.7747 56.5752 99.2054 57.0843C99.6361 57.5877 100.17 57.8394 100.808 57.8394C101.188 57.8394 101.541 57.7303 101.865 57.5122C102.19 57.2884 102.45 56.9556 102.645 56.5137C102.841 56.0718 102.939 55.5376 102.939 54.9111ZM109.349 56.304V58.217C109.349 58.6812 109.24 59.0308 109.022 59.2658C108.804 59.4951 108.527 59.6098 108.192 59.6098C107.862 59.6098 107.59 59.4923 107.378 59.2574C107.165 59.0225 107.059 58.6757 107.059 58.217V51.8403C107.059 50.811 107.431 50.2964 108.175 50.2964C108.555 50.2964 108.829 50.4167 108.997 50.6572C109.165 50.8977 109.257 51.2529 109.274 51.7228C109.548 51.2529 109.828 50.8977 110.113 50.6572C110.404 50.4167 110.79 50.2964 111.271 50.2964C111.752 50.2964 112.219 50.4167 112.672 50.6572C113.125 50.8977 113.352 51.2166 113.352 51.6137C113.352 51.8934 113.254 52.1255 113.058 52.3101C112.868 52.4891 112.661 52.5786 112.437 52.5786C112.353 52.5786 112.149 52.5283 111.825 52.4276C111.506 52.3213 111.223 52.2682 110.977 52.2682C110.642 52.2682 110.367 52.3577 110.155 52.5367C109.942 52.7101 109.777 52.9702 109.66 53.317C109.542 53.6638 109.461 54.0777 109.417 54.5588C109.372 55.0342 109.349 55.6159 109.349 56.304ZM122.531 54.9531C122.531 55.6355 122.425 56.2648 122.212 56.8409C121.999 57.4171 121.692 57.9121 121.289 58.3261C120.886 58.74 120.405 59.0588 119.846 59.2826C119.286 59.5007 118.657 59.6098 117.958 59.6098C117.264 59.6098 116.641 59.4979 116.087 59.2742C115.533 59.0504 115.052 58.7316 114.644 58.3177C114.241 57.8981 113.933 57.4059 113.721 56.8409C113.514 56.2704 113.41 55.6411 113.41 54.9531C113.41 54.2595 113.517 53.6246 113.729 53.0485C113.942 52.4723 114.247 51.9801 114.644 51.5718C115.041 51.1634 115.522 50.8502 116.087 50.632C116.652 50.4083 117.276 50.2964 117.958 50.2964C118.652 50.2964 119.281 50.4083 119.846 50.632C120.411 50.8558 120.895 51.1746 121.297 51.5885C121.7 52.0025 122.005 52.4947 122.212 53.0653C122.425 53.6358 122.531 54.2651 122.531 54.9531ZM120.232 54.9531C120.232 54.019 120.025 53.2918 119.611 52.7716C119.203 52.2514 118.652 51.9913 117.958 51.9913C117.511 51.9913 117.116 52.1087 116.775 52.3437C116.434 52.573 116.171 52.9142 115.986 53.3673C115.802 53.8204 115.709 54.349 115.709 54.9531C115.709 55.5516 115.799 56.0746 115.978 56.5221C116.162 56.9696 116.423 57.3136 116.758 57.5541C117.099 57.7891 117.499 57.9065 117.958 57.9065C118.652 57.9065 119.203 57.6464 119.611 57.1262C120.025 56.6004 120.232 55.876 120.232 54.9531ZM131.718 56.6144C131.718 57.2465 131.564 57.7891 131.257 58.2421C130.949 58.6896 130.493 59.0308 129.889 59.2658C129.291 59.4951 128.561 59.6098 127.699 59.6098C126.877 59.6098 126.172 59.4839 125.585 59.2322C124.998 58.9805 124.564 58.6673 124.284 58.2925C124.005 57.9121 123.865 57.5318 123.865 57.1514C123.865 56.8997 123.954 56.6843 124.133 56.5053C124.312 56.3263 124.539 56.2368 124.813 56.2368C125.053 56.2368 125.238 56.2956 125.367 56.413C125.495 56.5305 125.618 56.6955 125.736 56.9081C125.971 57.3164 126.251 57.6213 126.575 57.8226C126.905 58.024 127.352 58.1247 127.917 58.1247C128.376 58.1247 128.751 58.024 129.042 57.8226C129.338 57.6157 129.486 57.3807 129.486 57.1178C129.486 56.7151 129.333 56.4214 129.025 56.2368C128.723 56.0522 128.222 55.876 127.523 55.7082C126.734 55.5125 126.091 55.3083 125.593 55.0957C125.101 54.8776 124.707 54.5923 124.41 54.2399C124.114 53.8875 123.966 53.454 123.966 52.9394C123.966 52.4807 124.103 52.0472 124.377 51.6389C124.651 51.2306 125.053 50.9061 125.585 50.6656C126.122 50.4195 126.768 50.2964 127.523 50.2964C128.116 50.2964 128.647 50.3579 129.117 50.481C129.593 50.6041 129.987 50.7691 130.3 50.976C130.619 51.183 130.86 51.4123 131.022 51.6641C131.19 51.9158 131.274 52.1619 131.274 52.4024C131.274 52.6653 131.184 52.8807 131.005 53.0485C130.832 53.2163 130.583 53.3002 130.258 53.3002C130.023 53.3002 129.822 53.2331 129.654 53.0988C129.492 52.9646 129.305 52.7632 129.092 52.4947C128.919 52.271 128.715 52.092 128.48 51.9577C128.245 51.8235 127.926 51.7564 127.523 51.7564C127.109 51.7564 126.765 51.8458 126.491 52.0248C126.217 52.1982 126.08 52.4164 126.08 52.6793C126.08 52.9198 126.181 53.1184 126.382 53.275C126.583 53.426 126.855 53.5519 127.196 53.6526C127.537 53.7533 128.007 53.8763 128.605 54.0218C129.316 54.1952 129.895 54.4021 130.342 54.6427C130.795 54.8832 131.137 55.1685 131.366 55.4985C131.601 55.8229 131.718 56.1949 131.718 56.6144ZM140.05 55.5153H135.569C135.575 56.0355 135.679 56.4941 135.88 56.8913C136.087 57.2884 136.358 57.5877 136.694 57.7891C137.035 57.9904 137.41 58.0911 137.818 58.0911C138.092 58.0911 138.341 58.0604 138.565 57.9988C138.794 57.9317 139.015 57.831 139.228 57.6968C139.44 57.5569 139.636 57.4087 139.815 57.2521C139.994 57.0955 140.226 56.8829 140.511 56.6144C140.629 56.5137 140.797 56.4634 141.015 56.4634C141.25 56.4634 141.44 56.5277 141.585 56.6564C141.731 56.785 141.804 56.9668 141.804 57.2017C141.804 57.4087 141.722 57.652 141.56 57.9317C141.398 58.2058 141.152 58.4715 140.822 58.7288C140.497 58.9805 140.086 59.1903 139.589 59.3581C139.096 59.5259 138.529 59.6098 137.885 59.6098C136.414 59.6098 135.27 59.1903 134.454 58.3512C133.637 57.5122 133.229 56.3739 133.229 54.9363C133.229 54.2595 133.329 53.633 133.531 53.0569C133.732 52.4751 134.026 51.9773 134.412 51.5634C134.798 51.1494 135.273 50.8334 135.838 50.6153C136.403 50.3915 137.029 50.2796 137.717 50.2796C138.612 50.2796 139.379 50.4698 140.016 50.8502C140.66 51.225 141.141 51.7116 141.46 52.3101C141.778 52.9086 141.938 53.5183 141.938 54.1392C141.938 54.7154 141.773 55.0901 141.443 55.2635C141.113 55.4314 140.648 55.5153 140.05 55.5153ZM135.569 54.2147H139.723C139.667 53.4316 139.454 52.8471 139.085 52.4611C138.721 52.0696 138.24 51.8738 137.642 51.8738C137.071 51.8738 136.602 52.0724 136.232 52.4695C135.869 52.8611 135.648 53.4428 135.569 54.2147ZM150.152 58.3009V58.0743C149.844 58.4267 149.54 58.7148 149.237 58.9386C148.941 59.1567 148.617 59.3217 148.264 59.4336C147.917 59.5511 147.537 59.6098 147.123 59.6098C146.575 59.6098 146.066 59.4951 145.596 59.2658C145.132 59.0308 144.729 58.698 144.388 58.2673C144.047 57.8366 143.787 57.3304 143.608 56.7487C143.434 56.1669 143.347 55.5376 143.347 54.8608C143.347 53.4288 143.697 52.3129 144.396 51.513C145.095 50.7131 146.016 50.3132 147.157 50.3132C147.817 50.3132 148.373 50.4279 148.826 50.6572C149.279 50.881 149.721 51.2278 150.152 51.6976V48.3163C150.152 47.8464 150.244 47.4912 150.429 47.2507C150.619 47.0102 150.888 46.8899 151.234 46.8899C151.581 46.8899 151.847 47.0018 152.032 47.2255C152.222 47.4437 152.317 47.7681 152.317 48.1988V58.3009C152.317 58.7372 152.216 59.0644 152.015 59.2826C151.813 59.5007 151.553 59.6098 151.234 59.6098C150.921 59.6098 150.661 59.4979 150.454 59.2742C150.253 59.0448 150.152 58.7204 150.152 58.3009ZM145.646 54.9363C145.646 55.5572 145.741 56.0858 145.932 56.5221C146.127 56.9584 146.393 57.2884 146.729 57.5122C147.064 57.7303 147.431 57.8394 147.828 57.8394C148.231 57.8394 148.597 57.7359 148.927 57.529C149.263 57.3164 149.528 56.9948 149.724 56.5641C149.926 56.1278 150.026 55.5852 150.026 54.9363C150.026 54.3266 149.926 53.8036 149.724 53.3673C149.528 52.9254 149.26 52.5898 148.919 52.3605C148.583 52.1255 148.214 52.0081 147.811 52.0081C147.392 52.0081 147.017 52.1283 146.687 52.3689C146.357 52.6038 146.099 52.945 145.915 53.3925C145.736 53.8344 145.646 54.349 145.646 54.9363ZM160.565 58.3177V58.024C160.29 58.3708 160.002 58.6617 159.7 58.8966C159.398 59.1315 159.068 59.3049 158.71 59.4168C158.352 59.5343 157.944 59.593 157.485 59.593C156.932 59.593 156.434 59.4783 155.992 59.249C155.555 59.0197 155.217 58.7036 154.977 58.3009C154.691 57.8142 154.549 57.115 154.549 56.2033V51.6641C154.549 51.2054 154.652 50.8642 154.859 50.6404C155.066 50.4111 155.34 50.2964 155.681 50.2964C156.028 50.2964 156.308 50.4111 156.52 50.6404C156.733 50.8698 156.839 51.211 156.839 51.6641V55.3307C156.839 55.8621 156.884 56.3096 156.973 56.6731C157.063 57.0311 157.222 57.3136 157.452 57.5206C157.687 57.7219 158.003 57.8226 158.4 57.8226C158.786 57.8226 159.149 57.708 159.491 57.4786C159.832 57.2493 160.081 56.95 160.237 56.5808C160.366 56.2564 160.43 55.546 160.43 54.4497V51.6641C160.43 51.211 160.537 50.8698 160.749 50.6404C160.962 50.4111 161.239 50.2964 161.58 50.2964C161.921 50.2964 162.195 50.4111 162.402 50.6404C162.609 50.8642 162.713 51.2054 162.713 51.6641V58.3009C162.713 58.7372 162.612 59.0644 162.41 59.2826C162.215 59.5007 161.96 59.6098 161.647 59.6098C161.334 59.6098 161.074 59.4979 160.867 59.2742C160.665 59.0448 160.565 58.726 160.565 58.3177ZM167.277 56.304V58.217C167.277 58.6812 167.168 59.0308 166.95 59.2658C166.732 59.4951 166.455 59.6098 166.119 59.6098C165.789 59.6098 165.518 59.4923 165.305 59.2574C165.093 59.0225 164.986 58.6757 164.986 58.217V51.8403C164.986 50.811 165.358 50.2964 166.102 50.2964C166.483 50.2964 166.757 50.4167 166.924 50.6572C167.092 50.8977 167.185 51.2529 167.201 51.7228C167.475 51.2529 167.755 50.8977 168.04 50.6572C168.331 50.4167 168.717 50.2964 169.198 50.2964C169.679 50.2964 170.146 50.4167 170.599 50.6572C171.053 50.8977 171.279 51.2166 171.279 51.6137C171.279 51.8934 171.181 52.1255 170.985 52.3101C170.795 52.4891 170.588 52.5786 170.365 52.5786C170.281 52.5786 170.076 52.5283 169.752 52.4276C169.433 52.3213 169.151 52.2682 168.905 52.2682C168.569 52.2682 168.295 52.3577 168.082 52.5367C167.87 52.7101 167.705 52.9702 167.587 53.317C167.47 53.6638 167.389 54.0777 167.344 54.5588C167.299 55.0342 167.277 55.6159 167.277 56.304ZM179.502 48.4002V52.7129L184.393 47.6115C184.628 47.3654 184.827 47.1836 184.989 47.0661C185.157 46.9486 185.378 46.8899 185.652 46.8899C186.01 46.8899 186.298 46.9962 186.516 47.2087C186.74 47.4157 186.852 47.6702 186.852 47.9723C186.852 48.3359 186.664 48.6966 186.29 49.0546L183.261 51.9242L186.751 56.9249C186.997 57.2717 187.182 57.5765 187.305 57.8394C187.428 58.0967 187.489 58.3484 187.489 58.5945C187.489 58.8686 187.38 59.1064 187.162 59.3077C186.95 59.5091 186.659 59.6098 186.29 59.6098C185.943 59.6098 185.66 59.5371 185.442 59.3916C185.224 59.2406 185.039 59.042 184.888 58.7959C184.737 58.5498 184.603 58.3261 184.486 58.1247L181.541 53.5939L179.502 55.5488V58.0911C179.502 58.6057 179.384 58.9889 179.149 59.2406C178.914 59.4867 178.612 59.6098 178.243 59.6098C178.031 59.6098 177.826 59.5538 177.631 59.442C177.435 59.3301 177.284 59.1791 177.178 58.9889C177.099 58.8323 177.052 58.6505 177.035 58.4435C177.018 58.2366 177.01 57.9373 177.01 57.5457V48.4002C177.01 47.8968 177.119 47.5192 177.337 47.2675C177.561 47.0158 177.863 46.8899 178.243 46.8899C178.618 46.8899 178.92 47.0158 179.149 47.2675C179.384 47.5136 179.502 47.8912 179.502 48.4002ZM193.077 51.9745C193.592 51.9745 194.034 51.8235 194.403 51.5214C194.778 51.2194 194.965 50.7859 194.965 50.2209C194.965 49.7902 194.817 49.421 194.521 49.1134C194.224 48.8001 193.824 48.6435 193.321 48.6435C192.98 48.6435 192.697 48.6911 192.473 48.7861C192.255 48.8812 192.082 49.0071 191.953 49.1637C191.824 49.3203 191.701 49.5217 191.584 49.7678C191.472 50.0139 191.369 50.2461 191.273 50.4642C191.218 50.5817 191.117 50.674 190.971 50.7411C190.826 50.8082 190.658 50.8418 190.468 50.8418C190.244 50.8418 190.037 50.7523 189.847 50.5733C189.663 50.3887 189.57 50.1454 189.57 49.8433C189.57 49.5525 189.657 49.2476 189.83 48.9288C190.009 48.6043 190.267 48.2967 190.602 48.0058C190.943 47.715 191.366 47.4828 191.869 47.3094C192.373 47.1304 192.935 47.0409 193.556 47.0409C194.098 47.0409 194.593 47.1164 195.041 47.2675C195.488 47.4129 195.877 47.6255 196.207 47.9051C196.537 48.1848 196.786 48.5093 196.954 48.8784C197.122 49.2476 197.206 49.6448 197.206 50.0699C197.206 50.6292 197.082 51.1103 196.836 51.513C196.596 51.9102 196.249 52.2989 195.796 52.6793C196.232 52.9142 196.599 53.1827 196.895 53.4848C197.197 53.7868 197.424 54.1224 197.575 54.4916C197.726 54.8552 197.801 55.2496 197.801 55.6747C197.801 56.1837 197.698 56.6759 197.491 57.1514C197.289 57.6268 196.99 58.052 196.593 58.4267C196.196 58.7959 195.723 59.0868 195.175 59.2993C194.632 59.5063 194.031 59.6098 193.371 59.6098C192.7 59.6098 192.099 59.4895 191.567 59.249C191.036 59.0085 190.597 58.7092 190.25 58.3512C189.909 57.9876 189.649 57.6129 189.47 57.2269C189.296 56.8409 189.209 56.5221 189.209 56.2704C189.209 55.946 189.313 55.6859 189.52 55.4901C189.732 55.2887 189.995 55.188 190.309 55.188C190.465 55.188 190.616 55.2356 190.762 55.3307C190.907 55.4202 191.002 55.5292 191.047 55.6579C191.338 56.4354 191.648 57.0143 191.978 57.3947C192.314 57.7695 192.784 57.9569 193.388 57.9569C193.735 57.9569 194.068 57.873 194.386 57.7052C194.711 57.5318 194.976 57.2772 195.183 56.9416C195.396 56.606 195.502 56.2173 195.502 55.7754C195.502 55.1209 195.323 54.6091 194.965 54.2399C194.607 53.8651 194.109 53.6778 193.472 53.6778C193.36 53.6778 193.187 53.6889 192.952 53.7113C192.717 53.7337 192.566 53.7449 192.498 53.7449C192.191 53.7449 191.953 53.6694 191.785 53.5183C191.618 53.3617 191.534 53.1464 191.534 52.8723C191.534 52.6038 191.634 52.3884 191.836 52.2262C192.037 52.0584 192.336 51.9745 192.733 51.9745H193.077ZM201.292 59.6098C200.945 59.6098 200.646 59.4979 200.394 59.2742C200.142 59.0504 200.016 58.7372 200.016 58.3344C200.016 57.9932 200.137 57.6996 200.377 57.4534C200.618 57.2073 200.914 57.0843 201.266 57.0843C201.619 57.0843 201.918 57.2073 202.164 57.4534C202.416 57.694 202.542 57.9876 202.542 58.3344C202.542 58.7316 202.416 59.0448 202.164 59.2742C201.918 59.4979 201.627 59.6098 201.292 59.6098ZM218.962 55.7082C218.962 56.4522 218.769 57.1206 218.383 57.7135C218.003 58.3065 217.443 58.7707 216.705 59.1064C215.967 59.442 215.091 59.6098 214.079 59.6098C212.865 59.6098 211.864 59.3804 211.075 58.9218C210.516 58.5917 210.06 58.1526 209.707 57.6045C209.36 57.0507 209.187 56.5137 209.187 55.9935C209.187 55.6915 209.291 55.4342 209.497 55.2216C209.71 55.0034 209.979 54.8944 210.303 54.8944C210.566 54.8944 210.787 54.9783 210.966 55.1461C211.15 55.3139 211.307 55.5628 211.436 55.8928C211.592 56.2844 211.76 56.6116 211.939 56.8745C212.124 57.1374 212.381 57.3556 212.711 57.529C213.041 57.6968 213.475 57.7807 214.012 57.7807C214.75 57.7807 215.348 57.6101 215.807 57.2689C216.271 56.9221 216.503 56.4913 216.503 55.9767C216.503 55.5684 216.378 55.2384 216.126 54.9867C215.88 54.7294 215.558 54.5336 215.161 54.3993C214.769 54.2651 214.244 54.1224 213.584 53.9714C212.7 53.7645 211.959 53.5239 211.36 53.2498C210.767 52.9702 210.295 52.5926 209.942 52.1171C209.595 51.6361 209.422 51.0404 209.422 50.33C209.422 49.6532 209.607 49.0518 209.976 48.526C210.345 48.0002 210.879 47.5975 211.578 47.3178C212.278 47.0325 213.1 46.8899 214.045 46.8899C214.8 46.8899 215.452 46.985 216 47.1752C216.554 47.3598 217.013 47.6087 217.376 47.9219C217.74 48.2296 218.005 48.554 218.173 48.8952C218.341 49.2364 218.425 49.5692 218.425 49.8937C218.425 50.1901 218.319 50.4586 218.106 50.6992C217.899 50.9341 217.639 51.0516 217.326 51.0516C217.04 51.0516 216.822 50.9816 216.671 50.8418C216.526 50.6964 216.366 50.4614 216.193 50.137C215.969 49.6727 215.701 49.3119 215.388 49.0546C215.074 48.7917 214.571 48.6603 213.877 48.6603C213.234 48.6603 212.714 48.8029 212.317 49.0882C211.925 49.3679 211.729 49.7063 211.729 50.1034C211.729 50.3496 211.796 50.5621 211.931 50.7411C212.065 50.9201 212.25 51.0739 212.484 51.2026C212.719 51.3312 212.957 51.4319 213.198 51.5046C213.438 51.5774 213.835 51.6836 214.389 51.8235C215.083 51.9857 215.709 52.1647 216.269 52.3605C216.834 52.5562 217.312 52.794 217.703 53.0736C218.1 53.3533 218.408 53.7085 218.626 54.1392C218.85 54.5643 218.962 55.0873 218.962 55.7082ZM227.31 55.5153H222.83C222.835 56.0355 222.939 56.4941 223.14 56.8913C223.347 57.2884 223.619 57.5877 223.954 57.7891C224.295 57.9904 224.67 58.0911 225.079 58.0911C225.353 58.0911 225.602 58.0604 225.825 57.9988C226.055 57.9317 226.276 57.831 226.488 57.6968C226.701 57.5569 226.896 57.4087 227.075 57.2521C227.254 57.0955 227.487 56.8829 227.772 56.6144C227.889 56.5137 228.057 56.4634 228.275 56.4634C228.51 56.4634 228.7 56.5277 228.846 56.6564C228.991 56.785 229.064 56.9668 229.064 57.2017C229.064 57.4087 228.983 57.652 228.821 57.9317C228.658 58.2058 228.412 58.4715 228.082 58.7288C227.758 58.9805 227.347 59.1903 226.849 59.3581C226.357 59.5259 225.789 59.6098 225.146 59.6098C223.675 59.6098 222.531 59.1903 221.714 58.3512C220.897 57.5122 220.489 56.3739 220.489 54.9363C220.489 54.2595 220.59 53.633 220.791 53.0569C220.992 52.4751 221.286 51.9773 221.672 51.5634C222.058 51.1494 222.533 50.8334 223.098 50.6153C223.663 50.3915 224.29 50.2796 224.978 50.2796C225.873 50.2796 226.639 50.4698 227.277 50.8502C227.92 51.225 228.401 51.7116 228.72 52.3101C229.039 52.9086 229.198 53.5183 229.198 54.1392C229.198 54.7154 229.033 55.0901 228.703 55.2635C228.373 55.4314 227.909 55.5153 227.31 55.5153ZM222.83 54.2147H226.983C226.927 53.4316 226.715 52.8471 226.345 52.4611C225.982 52.0696 225.501 51.8738 224.902 51.8738C224.332 51.8738 223.862 52.0724 223.493 52.4695C223.129 52.8611 222.908 53.4428 222.83 54.2147ZM231.262 50.4978H231.514V49.1218C231.514 48.7526 231.522 48.4645 231.539 48.2575C231.562 48.045 231.617 47.8632 231.707 47.7122C231.796 47.5555 231.925 47.4297 232.093 47.3346C232.261 47.2339 232.448 47.1836 232.655 47.1836C232.946 47.1836 233.209 47.2926 233.444 47.5108C233.6 47.6562 233.698 47.8352 233.737 48.0478C233.782 48.2547 233.805 48.5512 233.805 48.9372V50.4978H234.644C234.968 50.4978 235.214 50.5761 235.382 50.7327C235.555 50.8837 235.642 51.0795 235.642 51.32C235.642 51.6277 235.519 51.8431 235.273 51.9661C235.032 52.0892 234.686 52.1507 234.232 52.1507H233.805V56.3627C233.805 56.7207 233.816 56.9976 233.838 57.1933C233.866 57.3835 233.933 57.5401 234.039 57.6632C234.151 57.7807 234.33 57.8394 234.576 57.8394C234.711 57.8394 234.892 57.817 235.122 57.7723C235.351 57.7219 235.53 57.6968 235.659 57.6968C235.843 57.6968 236.008 57.7723 236.154 57.9233C236.305 58.0687 236.38 58.2505 236.38 58.4687C236.38 58.8379 236.179 59.1203 235.776 59.3161C235.374 59.5119 234.795 59.6098 234.039 59.6098C233.323 59.6098 232.781 59.4895 232.412 59.249C232.043 59.0085 231.799 58.6757 231.682 58.2505C231.57 57.8254 231.514 57.2577 231.514 56.5473V52.1507H231.212C230.882 52.1507 230.63 52.0724 230.457 51.9158C230.283 51.7591 230.197 51.5606 230.197 51.32C230.197 51.0795 230.286 50.8837 230.465 50.7327C230.65 50.5761 230.915 50.4978 231.262 50.4978ZM243.621 55.5153H239.141C239.146 56.0355 239.25 56.4941 239.451 56.8913C239.658 57.2884 239.93 57.5877 240.265 57.7891C240.606 57.9904 240.981 58.0911 241.389 58.0911C241.664 58.0911 241.912 58.0604 242.136 57.9988C242.366 57.9317 242.587 57.831 242.799 57.6968C243.012 57.5569 243.207 57.4087 243.386 57.2521C243.565 57.0955 243.798 56.8829 244.083 56.6144C244.2 56.5137 244.368 56.4634 244.586 56.4634C244.821 56.4634 245.011 56.5277 245.157 56.6564C245.302 56.785 245.375 56.9668 245.375 57.2017C245.375 57.4087 245.294 57.652 245.132 57.9317C244.969 58.2058 244.723 58.4715 244.393 58.7288C244.069 58.9805 243.658 59.1903 243.16 59.3581C242.668 59.5259 242.1 59.6098 241.457 59.6098C239.985 59.6098 238.842 59.1903 238.025 58.3512C237.208 57.5122 236.8 56.3739 236.8 54.9363C236.8 54.2595 236.901 53.633 237.102 53.0569C237.303 52.4751 237.597 51.9773 237.983 51.5634C238.369 51.1494 238.844 50.8334 239.409 50.6153C239.974 50.3915 240.601 50.2796 241.289 50.2796C242.184 50.2796 242.95 50.4698 243.588 50.8502C244.231 51.225 244.712 51.7116 245.031 52.3101C245.35 52.9086 245.509 53.5183 245.509 54.1392C245.509 54.7154 245.344 55.0901 245.014 55.2635C244.684 55.4314 244.22 55.5153 243.621 55.5153ZM239.141 54.2147H243.294C243.238 53.4316 243.026 52.8471 242.656 52.4611C242.293 52.0696 241.812 51.8738 241.213 51.8738C240.643 51.8738 240.173 52.0724 239.804 52.4695C239.44 52.8611 239.219 53.4428 239.141 54.2147ZM247.447 58.217V48.2827C247.447 47.824 247.548 47.4772 247.749 47.2423C247.956 47.0074 248.233 46.8899 248.58 46.8899C248.927 46.8899 249.207 47.0074 249.419 47.2423C249.632 47.4716 249.738 47.8184 249.738 48.2827V58.217C249.738 58.6812 249.629 59.0308 249.411 59.2658C249.198 59.4951 248.921 59.6098 248.58 59.6098C248.244 59.6098 247.97 59.4895 247.758 59.249C247.551 59.0085 247.447 58.6645 247.447 58.217ZM257.902 58.3177C257.348 58.7484 256.811 59.0728 256.291 59.2909C255.776 59.5035 255.197 59.6098 254.554 59.6098C253.967 59.6098 253.449 59.4951 253.002 59.2658C252.56 59.0308 252.219 58.7148 251.978 58.3177C251.738 57.9205 251.617 57.4898 251.617 57.0255C251.617 56.3991 251.816 55.8649 252.213 55.423C252.61 54.9811 253.156 54.6846 253.849 54.5336C253.995 54.5 254.355 54.4245 254.932 54.307C255.508 54.1896 256 54.0833 256.408 53.9882C256.822 53.8875 257.27 53.7673 257.751 53.6274C257.723 53.0233 257.6 52.5814 257.382 52.3017C257.169 52.0165 256.724 51.8738 256.048 51.8738C255.466 51.8738 255.027 51.9549 254.73 52.1171C254.439 52.2794 254.188 52.5227 253.975 52.8471C253.768 53.1715 253.62 53.3869 253.53 53.4932C253.447 53.5939 253.262 53.6442 252.977 53.6442C252.719 53.6442 252.496 53.5631 252.305 53.4009C252.121 53.2331 252.029 53.0205 252.029 52.7632C252.029 52.3605 252.171 51.9689 252.456 51.5885C252.742 51.2082 253.186 50.8949 253.791 50.6488C254.395 50.4027 255.147 50.2796 256.048 50.2796C257.054 50.2796 257.846 50.3999 258.422 50.6404C258.998 50.8754 259.404 51.2501 259.639 51.7647C259.879 52.2794 259.999 52.9618 259.999 53.812C259.999 54.349 259.997 54.8049 259.991 55.1796C259.991 55.5544 259.988 55.9711 259.983 56.4298C259.983 56.8605 260.053 57.3108 260.192 57.7807C260.338 58.2449 260.411 58.5442 260.411 58.6784C260.411 58.9134 260.299 59.1287 260.075 59.3245C259.857 59.5147 259.608 59.6098 259.328 59.6098C259.093 59.6098 258.861 59.5007 258.632 59.2826C258.402 59.0588 258.159 58.7372 257.902 58.3177ZM257.751 55.0034C257.415 55.1265 256.926 55.258 256.282 55.3978C255.645 55.532 255.203 55.6327 254.957 55.6998C254.711 55.7614 254.476 55.8872 254.252 56.0774C254.028 56.262 253.916 56.5221 253.916 56.8577C253.916 57.2045 254.048 57.501 254.311 57.7471C254.574 57.9876 254.918 58.1079 255.343 58.1079C255.796 58.1079 256.213 58.01 256.593 57.8142C256.979 57.6129 257.261 57.3556 257.44 57.0423C257.647 56.6955 257.751 56.125 257.751 55.3307V55.0034ZM264.572 48.2827V51.6808C264.863 51.3452 265.146 51.0795 265.42 50.8837C265.699 50.688 266.007 50.5425 266.343 50.4474C266.678 50.3468 267.039 50.2964 267.425 50.2964C268.007 50.2964 268.521 50.4195 268.969 50.6656C269.422 50.9117 269.777 51.2697 270.034 51.7396C270.197 52.0137 270.306 52.3213 270.362 52.6625C270.418 52.9981 270.446 53.3869 270.446 53.8288V58.217C270.446 58.6757 270.339 59.0225 270.127 59.2574C269.92 59.4923 269.643 59.6098 269.296 59.6098C268.541 59.6098 268.163 59.1455 268.163 58.217V54.349C268.163 53.6162 268.054 53.0541 267.836 52.6625C267.618 52.2654 267.204 52.0668 266.594 52.0668C266.186 52.0668 265.817 52.1843 265.487 52.4192C265.162 52.6485 264.919 52.9646 264.757 53.3673C264.634 53.7085 264.572 54.3154 264.572 55.188V58.217C264.572 58.6701 264.469 59.0169 264.262 59.2574C264.06 59.4923 263.778 59.6098 263.414 59.6098C262.659 59.6098 262.282 59.1455 262.282 58.217V48.2827C262.282 47.8184 262.38 47.4716 262.575 47.2423C262.777 47.0074 263.056 46.8899 263.414 46.8899C263.778 46.8899 264.06 47.0074 264.262 47.2423C264.469 47.4772 264.572 47.824 264.572 48.2827ZM279.306 51.5969V58.217C279.306 58.6757 279.197 59.0225 278.979 59.2574C278.76 59.4923 278.484 59.6098 278.148 59.6098C277.812 59.6098 277.538 59.4895 277.326 59.249C277.119 59.0085 277.015 58.6645 277.015 58.217V51.6641C277.015 51.211 277.119 50.8698 277.326 50.6404C277.538 50.4111 277.812 50.2964 278.148 50.2964C278.484 50.2964 278.76 50.4111 278.979 50.6404C279.197 50.8698 279.306 51.1886 279.306 51.5969ZM278.173 49.2308C277.854 49.2308 277.58 49.1329 277.351 48.9372C277.127 48.7414 277.015 48.4645 277.015 48.1065C277.015 47.7821 277.13 47.5164 277.359 47.3094C277.594 47.0969 277.865 46.9906 278.173 46.9906C278.47 46.9906 278.732 47.0857 278.962 47.2759C279.191 47.466 279.306 47.7429 279.306 48.1065C279.306 48.4589 279.194 48.7358 278.97 48.9372C278.746 49.1329 278.481 49.2308 278.173 49.2308ZM281.806 50.4978H282.058V49.1218C282.058 48.7526 282.066 48.4645 282.083 48.2575C282.105 48.045 282.161 47.8632 282.251 47.7122C282.34 47.5555 282.469 47.4297 282.637 47.3346C282.805 47.2339 282.992 47.1836 283.199 47.1836C283.49 47.1836 283.753 47.2926 283.988 47.5108C284.144 47.6562 284.242 47.8352 284.281 48.0478C284.326 48.2547 284.348 48.5512 284.348 48.9372V50.4978H285.187C285.512 50.4978 285.758 50.5761 285.926 50.7327C286.099 50.8837 286.186 51.0795 286.186 51.32C286.186 51.6277 286.063 51.8431 285.817 51.9661C285.576 52.0892 285.229 52.1507 284.776 52.1507H284.348V56.3627C284.348 56.7207 284.36 56.9976 284.382 57.1933C284.41 57.3835 284.477 57.5401 284.583 57.6632C284.695 57.7807 284.874 57.8394 285.12 57.8394C285.255 57.8394 285.436 57.817 285.666 57.7723C285.895 57.7219 286.074 57.6968 286.203 57.6968C286.387 57.6968 286.552 57.7723 286.698 57.9233C286.849 58.0687 286.924 58.2505 286.924 58.4687C286.924 58.8379 286.723 59.1203 286.32 59.3161C285.917 59.5119 285.339 59.6098 284.583 59.6098C283.867 59.6098 283.325 59.4895 282.956 59.249C282.586 59.0085 282.343 58.6757 282.226 58.2505C282.114 57.8254 282.058 57.2577 282.058 56.5473V52.1507H281.756C281.426 52.1507 281.174 52.0724 281.001 51.9158C280.827 51.7591 280.741 51.5606 280.741 51.32C280.741 51.0795 280.83 50.8837 281.009 50.7327C281.194 50.5761 281.459 50.4978 281.806 50.4978ZM293.721 58.3177V58.024C293.446 58.3708 293.158 58.6617 292.856 58.8966C292.554 59.1315 292.224 59.3049 291.866 59.4168C291.508 59.5343 291.1 59.593 290.641 59.593C290.087 59.593 289.59 59.4783 289.148 59.249C288.711 59.0197 288.373 58.7036 288.133 58.3009C287.847 57.8142 287.705 57.115 287.705 56.2033V51.6641C287.705 51.2054 287.808 50.8642 288.015 50.6404C288.222 50.4111 288.496 50.2964 288.837 50.2964C289.184 50.2964 289.464 50.4111 289.676 50.6404C289.889 50.8698 289.995 51.211 289.995 51.6641V55.3307C289.995 55.8621 290.04 56.3096 290.129 56.6731C290.219 57.0311 290.378 57.3136 290.608 57.5206C290.843 57.7219 291.159 57.8226 291.556 57.8226C291.942 57.8226 292.305 57.708 292.647 57.4786C292.988 57.2493 293.237 56.95 293.393 56.5808C293.522 56.2564 293.586 55.546 293.586 54.4497V51.6641C293.586 51.211 293.693 50.8698 293.905 50.6404C294.118 50.4111 294.395 50.2964 294.736 50.2964C295.077 50.2964 295.351 50.4111 295.558 50.6404C295.765 50.8642 295.868 51.2054 295.868 51.6641V58.3009C295.868 58.7372 295.768 59.0644 295.566 59.2826C295.371 59.5007 295.116 59.6098 294.803 59.6098C294.49 59.6098 294.23 59.4979 294.023 59.2742C293.821 59.0448 293.721 58.726 293.721 58.3177ZM29.6656 68.1988V71.6976C30.0963 71.2501 30.5354 70.9089 30.9829 70.674C31.4304 70.4335 31.9842 70.3132 32.6442 70.3132C33.4049 70.3132 34.0706 70.495 34.6411 70.8586C35.2173 71.2166 35.662 71.7396 35.9752 72.4276C36.294 73.11 36.4535 73.9211 36.4535 74.8608C36.4535 75.5544 36.364 76.1921 36.185 76.7738C36.0116 77.35 35.757 77.8506 35.4214 78.2757C35.0858 78.7008 34.6775 79.0308 34.1964 79.2658C33.721 79.4951 33.1952 79.6098 32.619 79.6098C32.2666 79.6098 31.9338 79.5678 31.6206 79.4839C31.3129 79.4 31.05 79.2909 30.8319 79.1567C30.6137 79.0169 30.4263 78.8742 30.2697 78.7288C30.1187 78.5834 29.9173 78.3652 29.6656 78.0743V78.3009C29.6656 78.7316 29.5621 79.0588 29.3552 79.2826C29.1482 79.5007 28.8853 79.6098 28.5665 79.6098C28.242 79.6098 27.9819 79.5007 27.7861 79.2826C27.596 79.0588 27.5009 78.7316 27.5009 78.3009V68.2995C27.5009 67.8352 27.5932 67.4856 27.7778 67.2507C27.9679 67.0102 28.2308 66.8899 28.5665 66.8899C28.9189 66.8899 29.1901 67.0046 29.3803 67.2339C29.5705 67.4577 29.6656 67.7793 29.6656 68.1988ZM29.7747 75.0034C29.7747 75.9152 29.9816 76.6172 30.3956 77.1094C30.8151 77.5961 31.3633 77.8394 32.0401 77.8394C32.6162 77.8394 33.1113 77.5905 33.5252 77.0927C33.9447 76.5892 34.1545 75.8705 34.1545 74.9363C34.1545 74.3322 34.0678 73.812 33.8944 73.3757C33.721 72.9394 33.4749 72.6038 33.156 72.3689C32.8372 72.1283 32.4652 72.0081 32.0401 72.0081C31.6038 72.0081 31.215 72.1283 30.8738 72.3689C30.5326 72.6038 30.2641 72.9478 30.0683 73.4009C29.8726 73.8484 29.7747 74.3826 29.7747 75.0034ZM44.0048 78.3177V78.024C43.7307 78.3708 43.4427 78.6617 43.1406 78.8966C42.8386 79.1315 42.5085 79.3049 42.1505 79.4168C41.7926 79.5343 41.3842 79.593 40.9255 79.593C40.3718 79.593 39.8739 79.4783 39.432 79.249C38.9957 79.0197 38.6573 78.7036 38.4168 78.3009C38.1315 77.8142 37.9889 77.115 37.9889 76.2033V71.6641C37.9889 71.2054 38.0924 70.8642 38.2993 70.6404C38.5063 70.4111 38.7804 70.2964 39.1216 70.2964C39.4684 70.2964 39.7481 70.4111 39.9606 70.6404C40.1732 70.8698 40.2795 71.211 40.2795 71.6641V75.3307C40.2795 75.8621 40.3242 76.3096 40.4137 76.6731C40.5032 77.0311 40.6626 77.3136 40.892 77.5206C41.1269 77.7219 41.443 77.8226 41.8401 77.8226C42.2261 77.8226 42.5896 77.708 42.9309 77.4786C43.2721 77.2493 43.521 76.95 43.6776 76.5808C43.8063 76.2564 43.8706 75.546 43.8706 74.4497V71.6641C43.8706 71.211 43.9769 70.8698 44.1894 70.6404C44.402 70.4111 44.6789 70.2964 45.0201 70.2964C45.3613 70.2964 45.6354 70.4111 45.8423 70.6404C46.0493 70.8642 46.1528 71.2054 46.1528 71.6641V78.3009C46.1528 78.7372 46.0521 79.0644 45.8507 79.2826C45.6549 79.5007 45.4004 79.6098 45.0872 79.6098C44.774 79.6098 44.5138 79.4979 44.3069 79.2742C44.1055 79.0448 44.0048 78.726 44.0048 78.3177ZM54.2328 78.3177C53.679 78.7484 53.142 79.0728 52.6218 79.2909C52.1072 79.5035 51.5282 79.6098 50.885 79.6098C50.2976 79.6098 49.7802 79.4951 49.3327 79.2658C48.8909 79.0308 48.5496 78.7148 48.3091 78.3177C48.0686 77.9205 47.9483 77.4898 47.9483 77.0255C47.9483 76.3991 48.1469 75.8649 48.544 75.423C48.9412 74.9811 49.4866 74.6846 50.1802 74.5336C50.3256 74.5 50.6864 74.4245 51.2625 74.307C51.8387 74.1896 52.3309 74.0833 52.7393 73.9882C53.1532 73.8875 53.6007 73.7673 54.0817 73.6274C54.0538 73.0233 53.9307 72.5814 53.7125 72.3017C53.5 72.0165 53.0553 71.8738 52.3785 71.8738C51.7967 71.8738 51.3576 71.9549 51.0612 72.1171C50.7703 72.2794 50.5186 72.5227 50.306 72.8471C50.0991 73.1715 49.9508 73.3869 49.8613 73.4932C49.7774 73.5939 49.5929 73.6442 49.3076 73.6442C49.0503 73.6442 48.8265 73.5631 48.6363 73.4009C48.4518 73.2331 48.3595 73.0205 48.3595 72.7632C48.3595 72.3605 48.5021 71.9689 48.7874 71.5885C49.0726 71.2082 49.5173 70.8949 50.1214 70.6488C50.7256 70.4027 51.4779 70.2796 52.3785 70.2796C53.3853 70.2796 54.1768 70.3999 54.753 70.6404C55.3291 70.8754 55.7346 71.2501 55.9696 71.7647C56.2101 72.2794 56.3304 72.9618 56.3304 73.812C56.3304 74.349 56.3276 74.8049 56.322 75.1796C56.322 75.5544 56.3192 75.9711 56.3136 76.4298C56.3136 76.8605 56.3835 77.3108 56.5233 77.7807C56.6688 78.2449 56.7415 78.5442 56.7415 78.6784C56.7415 78.9134 56.6296 79.1287 56.4059 79.3245C56.1877 79.5147 55.9388 79.6098 55.6591 79.6098C55.4242 79.6098 55.1921 79.5007 54.9627 79.2826C54.7334 79.0588 54.4901 78.7372 54.2328 78.3177ZM54.0817 75.0034C53.7461 75.1265 53.2567 75.258 52.6134 75.3978C51.9757 75.532 51.5338 75.6327 51.2877 75.6998C51.0416 75.7614 50.8067 75.8872 50.5829 76.0774C50.3592 76.262 50.2473 76.5221 50.2473 76.8577C50.2473 77.2045 50.3788 77.501 50.6417 77.7471C50.9046 77.9876 51.2486 78.1079 51.6737 78.1079C52.1268 78.1079 52.5435 78.01 52.9238 77.8142C53.3098 77.6129 53.5923 77.3556 53.7713 77.0423C53.9782 76.6955 54.0817 76.125 54.0817 75.3307V75.0034ZM58.3525 70.4978H58.6042V69.1218C58.6042 68.7526 58.6126 68.4645 58.6293 68.2575C58.6517 68.045 58.7076 67.8632 58.7971 67.7122C58.8866 67.5555 59.0153 67.4297 59.1831 67.3346C59.3509 67.2339 59.5383 67.1836 59.7453 67.1836C60.0361 67.1836 60.299 67.2926 60.534 67.5108C60.6906 67.6562 60.7885 67.8352 60.8276 68.0478C60.8724 68.2547 60.8947 68.5512 60.8947 68.9372V70.4978H61.7338C62.0582 70.4978 62.3043 70.5761 62.4721 70.7327C62.6455 70.8837 62.7323 71.0795 62.7323 71.32C62.7323 71.6277 62.6092 71.8431 62.3631 71.9661C62.1225 72.0892 61.7757 72.1507 61.3227 72.1507H60.8947V76.3627C60.8947 76.7207 60.9059 76.9976 60.9283 77.1933C60.9563 77.3835 61.0234 77.5401 61.1297 77.6632C61.2416 77.7807 61.4205 77.8394 61.6667 77.8394C61.8009 77.8394 61.9827 77.817 62.212 77.7723C62.4414 77.7219 62.6204 77.6968 62.749 77.6968C62.9336 77.6968 63.0986 77.7723 63.2441 77.9233C63.3951 78.0687 63.4706 78.2505 63.4706 78.4687C63.4706 78.8379 63.2692 79.1203 62.8665 79.3161C62.4638 79.5119 61.8848 79.6098 61.1297 79.6098C60.4137 79.6098 59.8711 79.4895 59.5019 79.249C59.1328 79.0085 58.8894 78.6757 58.772 78.2505C58.6601 77.8254 58.6042 77.2577 58.6042 76.5473V72.1507H58.3021C57.9721 72.1507 57.7204 72.0724 57.547 71.9158C57.3736 71.7591 57.2869 71.5606 57.2869 71.32C57.2869 71.0795 57.3764 70.8837 57.5554 70.7327C57.7399 70.5761 58.0056 70.4978 58.3525 70.4978ZM64.318 78.217V68.2827C64.318 67.824 64.4187 67.4772 64.6201 67.2423C64.8271 67.0074 65.1039 66.8899 65.4507 66.8899C65.7976 66.8899 66.0772 67.0074 66.2898 67.2423C66.5023 67.4716 66.6086 67.8184 66.6086 68.2827V78.217C66.6086 78.6812 66.4995 79.0308 66.2814 79.2658C66.0688 79.4951 65.792 79.6098 65.4507 79.6098C65.1151 79.6098 64.841 79.4895 64.6285 79.249C64.4215 79.0085 64.318 78.6645 64.318 78.217ZM74.7725 78.3177C74.2187 78.7484 73.6817 79.0728 73.1615 79.2909C72.6469 79.5035 72.068 79.6098 71.4247 79.6098C70.8374 79.6098 70.32 79.4951 69.8725 79.2658C69.4306 79.0308 69.0894 78.7148 68.8489 78.3177C68.6083 77.9205 68.4881 77.4898 68.4881 77.0255C68.4881 76.3991 68.6867 75.8649 69.0838 75.423C69.4809 74.9811 70.0263 74.6846 70.7199 74.5336C70.8654 74.5 71.2262 74.4245 71.8023 74.307C72.3784 74.1896 72.8707 74.0833 73.279 73.9882C73.6929 73.8875 74.1404 73.7673 74.6215 73.6274C74.5935 73.0233 74.4704 72.5814 74.2523 72.3017C74.0397 72.0165 73.595 71.8738 72.9182 71.8738C72.3365 71.8738 71.8974 71.9549 71.6009 72.1171C71.3101 72.2794 71.0583 72.5227 70.8458 72.8471C70.6388 73.1715 70.4906 73.3869 70.4011 73.4932C70.3172 73.5939 70.1326 73.6442 69.8473 73.6442C69.59 73.6442 69.3663 73.5631 69.1761 73.4009C68.9915 73.2331 68.8992 73.0205 68.8992 72.7632C68.8992 72.3605 69.0418 71.9689 69.3271 71.5885C69.6124 71.2082 70.0571 70.8949 70.6612 70.6488C71.2653 70.4027 72.0176 70.2796 72.9182 70.2796C73.9251 70.2796 74.7166 70.3999 75.2927 70.6404C75.8689 70.8754 76.2744 71.2501 76.5093 71.7647C76.7498 72.2794 76.8701 72.9618 76.8701 73.812C76.8701 74.349 76.8673 74.8049 76.8617 75.1796C76.8617 75.5544 76.8589 75.9711 76.8533 76.4298C76.8533 76.8605 76.9232 77.3108 77.0631 77.7807C77.2085 78.2449 77.2812 78.5442 77.2812 78.6784C77.2812 78.9134 77.1694 79.1287 76.9456 79.3245C76.7275 79.5147 76.4786 79.6098 76.1989 79.6098C75.9639 79.6098 75.7318 79.5007 75.5025 79.2826C75.2731 79.0588 75.0298 78.7372 74.7725 78.3177ZM74.6215 75.0034C74.2859 75.1265 73.7964 75.258 73.1532 75.3978C72.5155 75.532 72.0736 75.6327 71.8275 75.6998C71.5813 75.7614 71.3464 75.8872 71.1227 76.0774C70.8989 76.262 70.7871 76.5221 70.7871 76.8577C70.7871 77.2045 70.9185 77.501 71.1814 77.7471C71.4443 77.9876 71.7883 78.1079 72.2134 78.1079C72.6665 78.1079 73.0832 78.01 73.4636 77.8142C73.8496 77.6129 74.132 77.3556 74.311 77.0423C74.518 76.6955 74.6215 76.125 74.6215 75.3307V75.0034ZM81.4429 68.2827V71.6808C81.7338 71.3452 82.0162 71.0795 82.2903 70.8837C82.57 70.688 82.8776 70.5425 83.2133 70.4474C83.5489 70.3468 83.9097 70.2964 84.2956 70.2964C84.8774 70.2964 85.392 70.4195 85.8395 70.6656C86.2926 70.9117 86.6477 71.2697 86.9051 71.7396C87.0673 72.0137 87.1763 72.3213 87.2323 72.6625C87.2882 72.9981 87.3162 73.3869 87.3162 73.8288V78.217C87.3162 78.6757 87.2099 79.0225 86.9973 79.2574C86.7904 79.4923 86.5135 79.6098 86.1667 79.6098C85.4116 79.6098 85.034 79.1455 85.034 78.217V74.349C85.034 73.6162 84.9249 73.0541 84.7068 72.6625C84.4886 72.2654 84.0747 72.0668 83.465 72.0668C83.0566 72.0668 82.6875 72.1843 82.3574 72.4192C82.033 72.6485 81.7897 72.9646 81.6275 73.3673C81.5044 73.7085 81.4429 74.3154 81.4429 75.188V78.217C81.4429 78.6701 81.3394 79.0169 81.1324 79.2574C80.9311 79.4923 80.6486 79.6098 80.285 79.6098C79.5299 79.6098 79.1523 79.1455 79.1523 78.217V68.2827C79.1523 67.8184 79.2502 67.4716 79.446 67.2423C79.6473 67.0074 79.927 66.8899 80.285 66.8899C80.6486 66.8899 80.9311 67.0074 81.1324 67.2423C81.3394 67.4772 81.4429 67.824 81.4429 68.2827ZM93.8859 78.217V68.2827C93.8859 67.824 93.9866 67.4772 94.1879 67.2423C94.3949 67.0074 94.6718 66.8899 95.0186 66.8899C95.3654 66.8899 95.6451 67.0074 95.8576 67.2423C96.0702 67.4716 96.1765 67.8184 96.1765 68.2827V78.217C96.1765 78.6812 96.0674 79.0308 95.8492 79.2658C95.6367 79.4951 95.3598 79.6098 95.0186 79.6098C94.683 79.6098 94.4089 79.4895 94.1963 79.249C93.9894 79.0085 93.8859 78.6645 93.8859 78.217ZM104.34 78.3177C103.787 78.7484 103.25 79.0728 102.729 79.2909C102.215 79.5035 101.636 79.6098 100.993 79.6098C100.405 79.6098 99.8878 79.4951 99.4403 79.2658C98.9984 79.0308 98.6572 78.7148 98.4167 78.3177C98.1762 77.9205 98.0559 77.4898 98.0559 77.0255C98.0559 76.3991 98.2545 75.8649 98.6516 75.423C99.0488 74.9811 99.5942 74.6846 100.288 74.5336C100.433 74.5 100.794 74.4245 101.37 74.307C101.946 74.1896 102.439 74.0833 102.847 73.9882C103.261 73.8875 103.708 73.7673 104.189 73.6274C104.161 73.0233 104.038 72.5814 103.82 72.3017C103.608 72.0165 103.163 71.8738 102.486 71.8738C101.904 71.8738 101.465 71.9549 101.169 72.1171C100.878 72.2794 100.626 72.5227 100.414 72.8471C100.207 73.1715 100.058 73.3869 99.9689 73.4932C99.885 73.5939 99.7004 73.6442 99.4152 73.6442C99.1579 73.6442 98.9341 73.5631 98.7439 73.4009C98.5593 73.2331 98.467 73.0205 98.467 72.7632C98.467 72.3605 98.6097 71.9689 98.895 71.5885C99.1802 71.2082 99.6249 70.8949 100.229 70.6488C100.833 70.4027 101.585 70.2796 102.486 70.2796C103.493 70.2796 104.284 70.3999 104.861 70.6404C105.437 70.8754 105.842 71.2501 106.077 71.7647C106.318 72.2794 106.438 72.9618 106.438 73.812C106.438 74.349 106.435 74.8049 106.43 75.1796C106.43 75.5544 106.427 75.9711 106.421 76.4298C106.421 76.8605 106.491 77.3108 106.631 77.7807C106.776 78.2449 106.849 78.5442 106.849 78.6784C106.849 78.9134 106.737 79.1287 106.513 79.3245C106.295 79.5147 106.046 79.6098 105.767 79.6098C105.532 79.6098 105.3 79.5007 105.07 79.2826C104.841 79.0588 104.598 78.7372 104.34 78.3177ZM104.189 75.0034C103.854 75.1265 103.364 75.258 102.721 75.3978C102.083 75.532 101.641 75.6327 101.395 75.6998C101.149 75.7614 100.914 75.8872 100.691 76.0774C100.467 76.262 100.355 76.5221 100.355 76.8577C100.355 77.2045 100.486 77.501 100.749 77.7471C101.012 77.9876 101.356 78.1079 101.781 78.1079C102.234 78.1079 102.651 78.01 103.031 77.8142C103.417 77.6129 103.7 77.3556 103.879 77.0423C104.086 76.6955 104.189 76.125 104.189 75.3307V75.0034ZM116.389 75.1209V78.1666C116.389 78.6477 116.28 79.0085 116.062 79.249C115.844 79.4895 115.556 79.6098 115.198 79.6098C114.851 79.6098 114.568 79.4895 114.35 79.249C114.138 79.0085 114.031 78.6477 114.031 78.1666V74.5168C114.031 73.9407 114.012 73.4932 113.973 73.1743C113.933 72.8555 113.827 72.5954 113.654 72.394C113.48 72.1871 113.206 72.0836 112.831 72.0836C112.082 72.0836 111.587 72.3409 111.346 72.8555C111.111 73.3701 110.994 74.1085 110.994 75.0706V78.1666C110.994 78.6421 110.885 79.0029 110.667 79.249C110.454 79.4895 110.172 79.6098 109.819 79.6098C109.472 79.6098 109.187 79.4895 108.963 79.249C108.745 79.0029 108.636 78.6421 108.636 78.1666V71.6137C108.636 71.183 108.734 70.8558 108.93 70.632C109.131 70.4083 109.394 70.2964 109.719 70.2964C110.032 70.2964 110.292 70.4027 110.499 70.6153C110.711 70.8222 110.818 71.1103 110.818 71.4795V71.6976C111.215 71.2222 111.64 70.8726 112.093 70.6488C112.546 70.4251 113.05 70.3132 113.603 70.3132C114.18 70.3132 114.675 70.4279 115.088 70.6572C115.502 70.8865 115.844 71.2333 116.112 71.6976C116.498 71.2278 116.912 70.881 117.354 70.6572C117.796 70.4279 118.285 70.3132 118.822 70.3132C119.449 70.3132 119.988 70.4363 120.442 70.6824C120.895 70.9285 121.233 71.2809 121.457 71.7396C121.653 72.1535 121.75 72.8052 121.75 73.6945V78.1666C121.75 78.6477 121.641 79.0085 121.423 79.249C121.205 79.4895 120.917 79.6098 120.559 79.6098C120.212 79.6098 119.927 79.4895 119.703 79.249C119.485 79.0029 119.376 78.6421 119.376 78.1666V74.3154C119.376 73.8232 119.354 73.4288 119.309 73.1324C119.27 72.8359 119.158 72.587 118.973 72.3856C118.789 72.1843 118.509 72.0836 118.134 72.0836C117.832 72.0836 117.544 72.1731 117.27 72.3521C117.001 72.5311 116.792 72.7716 116.641 73.0736C116.473 73.4596 116.389 74.142 116.389 75.1209ZM126.088 71.5802V71.857C126.519 71.3256 126.967 70.9369 127.431 70.6908C127.895 70.4391 128.421 70.3132 129.008 70.3132C129.713 70.3132 130.362 70.495 130.955 70.8586C131.548 71.2222 132.015 71.7536 132.356 72.4528C132.703 73.152 132.876 73.9798 132.876 74.9363C132.876 75.6411 132.775 76.29 132.574 76.8829C132.378 77.4702 132.107 77.9653 131.76 78.368C131.413 78.7651 131.002 79.0728 130.527 79.2909C130.057 79.5035 129.551 79.6098 129.008 79.6098C128.354 79.6098 127.803 79.4783 127.355 79.2154C126.913 78.9525 126.491 78.5666 126.088 78.0576V81.4976C126.088 82.5045 125.722 83.0079 124.989 83.0079C124.558 83.0079 124.273 82.8765 124.133 82.6136C123.994 82.3562 123.924 81.9787 123.924 81.4808V71.5969C123.924 71.1606 124.019 70.8362 124.209 70.6236C124.399 70.4055 124.659 70.2964 124.989 70.2964C125.314 70.2964 125.577 70.4083 125.778 70.632C125.985 70.8502 126.088 71.1662 126.088 71.5802ZM130.577 74.9111C130.577 74.307 130.485 73.7896 130.3 73.3589C130.116 72.9226 129.858 72.5898 129.528 72.3605C129.204 72.1255 128.843 72.0081 128.446 72.0081C127.814 72.0081 127.28 72.257 126.843 72.7548C126.413 73.2526 126.197 73.9854 126.197 74.9531C126.197 75.8649 126.413 76.5752 126.843 77.0843C127.274 77.5877 127.808 77.8394 128.446 77.8394C128.826 77.8394 129.179 77.7303 129.503 77.5122C129.828 77.2884 130.088 76.9556 130.284 76.5137C130.479 76.0718 130.577 75.5376 130.577 74.9111ZM140.662 78.3177V78.024C140.388 78.3708 140.1 78.6617 139.798 78.8966C139.496 79.1315 139.166 79.3049 138.808 79.4168C138.45 79.5343 138.042 79.593 137.583 79.593C137.029 79.593 136.532 79.4783 136.09 79.249C135.653 79.0197 135.315 78.7036 135.074 78.3009C134.789 77.8142 134.647 77.115 134.647 76.2033V71.6641C134.647 71.2054 134.75 70.8642 134.957 70.6404C135.164 70.4111 135.438 70.2964 135.779 70.2964C136.126 70.2964 136.406 70.4111 136.618 70.6404C136.831 70.8698 136.937 71.211 136.937 71.6641V75.3307C136.937 75.8621 136.982 76.3096 137.071 76.6731C137.161 77.0311 137.32 77.3136 137.55 77.5206C137.785 77.7219 138.101 77.8226 138.498 77.8226C138.884 77.8226 139.247 77.708 139.589 77.4786C139.93 77.2493 140.179 76.95 140.335 76.5808C140.464 76.2564 140.528 75.546 140.528 74.4497V71.6641C140.528 71.211 140.635 70.8698 140.847 70.6404C141.06 70.4111 141.337 70.2964 141.678 70.2964C142.019 70.2964 142.293 70.4111 142.5 70.6404C142.707 70.8642 142.81 71.2054 142.81 71.6641V78.3009C142.81 78.7372 142.71 79.0644 142.508 79.2826C142.313 79.5007 142.058 79.6098 141.745 79.6098C141.432 79.6098 141.172 79.4979 140.965 79.2742C140.763 79.0448 140.662 78.726 140.662 78.3177ZM157.015 75.1209V78.1666C157.015 78.6477 156.906 79.0085 156.688 79.249C156.47 79.4895 156.182 79.6098 155.824 79.6098C155.477 79.6098 155.195 79.4895 154.977 79.249C154.764 79.0085 154.658 78.6477 154.658 78.1666V74.5168C154.658 73.9407 154.638 73.4932 154.599 73.1743C154.56 72.8555 154.454 72.5954 154.28 72.394C154.107 72.1871 153.833 72.0836 153.458 72.0836C152.708 72.0836 152.213 72.3409 151.973 72.8555C151.738 73.3701 151.62 74.1085 151.62 75.0706V78.1666C151.62 78.6421 151.511 79.0029 151.293 79.249C151.081 79.4895 150.798 79.6098 150.446 79.6098C150.099 79.6098 149.814 79.4895 149.59 79.249C149.372 79.0029 149.263 78.6421 149.263 78.1666V71.6137C149.263 71.183 149.361 70.8558 149.556 70.632C149.758 70.4083 150.021 70.2964 150.345 70.2964C150.658 70.2964 150.918 70.4027 151.125 70.6153C151.338 70.8222 151.444 71.1103 151.444 71.4795V71.6976C151.841 71.2222 152.266 70.8726 152.72 70.6488C153.173 70.4251 153.676 70.3132 154.23 70.3132C154.806 70.3132 155.301 70.4279 155.715 70.6572C156.129 70.8865 156.47 71.2333 156.739 71.6976C157.124 71.2278 157.538 70.881 157.98 70.6572C158.422 70.4279 158.912 70.3132 159.449 70.3132C160.075 70.3132 160.615 70.4363 161.068 70.6824C161.521 70.9285 161.859 71.2809 162.083 71.7396C162.279 72.1535 162.377 72.8052 162.377 73.6945V78.1666C162.377 78.6477 162.268 79.0085 162.05 79.249C161.832 79.4895 161.543 79.6098 161.185 79.6098C160.839 79.6098 160.553 79.4895 160.33 79.249C160.111 79.0029 160.002 78.6421 160.002 78.1666V74.3154C160.002 73.8232 159.98 73.4288 159.935 73.1324C159.896 72.8359 159.784 72.587 159.6 72.3856C159.415 72.1843 159.135 72.0836 158.761 72.0836C158.459 72.0836 158.17 72.1731 157.896 72.3521C157.628 72.5311 157.418 72.7716 157.267 73.0736C157.099 73.4596 157.015 74.142 157.015 75.1209ZM170.994 75.5153H166.513C166.519 76.0355 166.622 76.4941 166.824 76.8913C167.031 77.2884 167.302 77.5877 167.638 77.7891C167.979 77.9904 168.354 78.0911 168.762 78.0911C169.036 78.0911 169.285 78.0604 169.509 77.9988C169.738 77.9317 169.959 77.831 170.172 77.6968C170.384 77.5569 170.58 77.4087 170.759 77.2521C170.938 77.0955 171.17 76.8829 171.455 76.6144C171.573 76.5137 171.741 76.4634 171.959 76.4634C172.194 76.4634 172.384 76.5277 172.529 76.6564C172.675 76.785 172.747 76.9668 172.747 77.2017C172.747 77.4087 172.666 77.652 172.504 77.9317C172.342 78.2058 172.096 78.4715 171.766 78.7288C171.441 78.9805 171.03 79.1903 170.532 79.3581C170.04 79.5259 169.472 79.6098 168.829 79.6098C167.358 79.6098 166.214 79.1903 165.397 78.3512C164.581 77.5122 164.172 76.3739 164.172 74.9363C164.172 74.2595 164.273 73.633 164.474 73.0569C164.676 72.4751 164.97 71.9773 165.355 71.5634C165.741 71.1494 166.217 70.8334 166.782 70.6153C167.347 70.3915 167.973 70.2796 168.661 70.2796C169.556 70.2796 170.323 70.4698 170.96 70.8502C171.604 71.225 172.085 71.7116 172.403 72.3101C172.722 72.9086 172.882 73.5183 172.882 74.1392C172.882 74.7154 172.717 75.0901 172.387 75.2635C172.057 75.4314 171.592 75.5153 170.994 75.5153ZM166.513 74.2147H170.667C170.611 73.4316 170.398 72.8471 170.029 72.4611C169.665 72.0696 169.184 71.8738 168.586 71.8738C168.015 71.8738 167.545 72.0724 167.176 72.4695C166.813 72.8611 166.592 73.4428 166.513 74.2147ZM176.901 71.5634V71.8403C177.303 71.3089 177.743 70.9201 178.218 70.674C178.699 70.4223 179.25 70.2964 179.871 70.2964C180.475 70.2964 181.015 70.4279 181.49 70.6908C181.966 70.9537 182.321 71.3256 182.556 71.8067C182.707 72.0864 182.805 72.3884 182.85 72.7129C182.894 73.0373 182.917 73.4512 182.917 73.9546V78.217C182.917 78.6757 182.81 79.0225 182.598 79.2574C182.391 79.4923 182.12 79.6098 181.784 79.6098C181.443 79.6098 181.166 79.4895 180.953 79.249C180.741 79.0085 180.634 78.6645 180.634 78.217V74.3993C180.634 73.6442 180.528 73.0681 180.316 72.6709C180.109 72.2682 179.692 72.0668 179.065 72.0668C178.657 72.0668 178.285 72.1899 177.95 72.436C177.614 72.6765 177.368 73.0093 177.211 73.4344C177.099 73.7756 177.043 74.4133 177.043 75.3475V78.217C177.043 78.6812 176.934 79.0308 176.716 79.2658C176.504 79.4951 176.227 79.6098 175.885 79.6098C175.555 79.6098 175.284 79.4895 175.072 79.249C174.859 79.0085 174.753 78.6645 174.753 78.217V71.5969C174.753 71.1606 174.848 70.8362 175.038 70.6236C175.228 70.4055 175.488 70.2964 175.818 70.2964C176.02 70.2964 176.202 70.344 176.364 70.4391C176.526 70.5341 176.655 70.6768 176.75 70.867C176.85 71.0571 176.901 71.2893 176.901 71.5634ZM187.322 79.8951L187.531 79.3832L184.712 72.2849C184.539 71.8766 184.452 71.5802 184.452 71.3956C184.452 71.1998 184.502 71.018 184.603 70.8502C184.704 70.6824 184.841 70.5481 185.014 70.4474C185.193 70.3468 185.378 70.2964 185.568 70.2964C185.898 70.2964 186.147 70.4027 186.315 70.6153C186.483 70.8222 186.631 71.1215 186.759 71.513L188.698 77.1514L190.535 71.9074C190.681 71.4823 190.812 71.1494 190.929 70.9089C191.047 70.6684 191.17 70.5062 191.299 70.4223C191.433 70.3384 191.62 70.2964 191.861 70.2964C192.034 70.2964 192.199 70.344 192.356 70.4391C192.518 70.5286 192.641 70.6516 192.725 70.8082C192.815 70.9649 192.859 71.1299 192.859 71.3033C192.837 71.4095 192.801 71.5606 192.75 71.7564C192.7 71.9521 192.638 72.1507 192.566 72.3521L189.579 80.1719C189.321 80.86 189.07 81.3997 188.823 81.7913C188.577 82.1828 188.25 82.4821 187.842 82.6891C187.439 82.9016 186.894 83.0079 186.206 83.0079C185.534 83.0079 185.031 82.9352 184.695 82.7898C184.36 82.6443 184.192 82.3786 184.192 81.9927C184.192 81.7298 184.27 81.5256 184.427 81.3802C184.589 81.2403 184.827 81.1704 185.14 81.1704C185.263 81.1704 185.383 81.1872 185.501 81.2207C185.646 81.2543 185.772 81.2711 185.878 81.2711C186.141 81.2711 186.348 81.2319 186.499 81.1536C186.65 81.0753 186.785 80.9383 186.902 80.7425C187.025 80.5523 187.165 80.2698 187.322 79.8951ZM200.075 78.3177C199.521 78.7484 198.984 79.0728 198.464 79.2909C197.949 79.5035 197.371 79.6098 196.727 79.6098C196.14 79.6098 195.623 79.4951 195.175 79.2658C194.733 79.0308 194.392 78.7148 194.151 78.3177C193.911 77.9205 193.791 77.4898 193.791 77.0255C193.791 76.3991 193.989 75.8649 194.386 75.423C194.783 74.9811 195.329 74.6846 196.022 74.5336C196.168 74.5 196.529 74.4245 197.105 74.307C197.681 74.1896 198.173 74.0833 198.582 73.9882C198.995 73.8875 199.443 73.7673 199.924 73.6274C199.896 73.0233 199.773 72.5814 199.555 72.3017C199.342 72.0165 198.898 71.8738 198.221 71.8738C197.639 71.8738 197.2 71.9549 196.903 72.1171C196.613 72.2794 196.361 72.5227 196.148 72.8471C195.941 73.1715 195.793 73.3869 195.704 73.4932C195.62 73.5939 195.435 73.6442 195.15 73.6442C194.893 73.6442 194.669 73.5631 194.479 73.4009C194.294 73.2331 194.202 73.0205 194.202 72.7632C194.202 72.3605 194.344 71.9689 194.63 71.5885C194.915 71.2082 195.36 70.8949 195.964 70.6488C196.568 70.4027 197.32 70.2796 198.221 70.2796C199.228 70.2796 200.019 70.3999 200.595 70.6404C201.171 70.8754 201.577 71.2501 201.812 71.7647C202.052 72.2794 202.173 72.9618 202.173 73.812C202.173 74.349 202.17 74.8049 202.164 75.1796C202.164 75.5544 202.161 75.9711 202.156 76.4298C202.156 76.8605 202.226 77.3108 202.366 77.7807C202.511 78.2449 202.584 78.5442 202.584 78.6784C202.584 78.9134 202.472 79.1287 202.248 79.3245C202.03 79.5147 201.781 79.6098 201.501 79.6098C201.266 79.6098 201.034 79.5007 200.805 79.2826C200.576 79.0588 200.332 78.7372 200.075 78.3177ZM199.924 75.0034C199.588 75.1265 199.099 75.258 198.456 75.3978C197.818 75.532 197.376 75.6327 197.13 75.6998C196.884 75.7614 196.649 75.8872 196.425 76.0774C196.201 76.262 196.09 76.5221 196.09 76.8577C196.09 77.2045 196.221 77.501 196.484 77.7471C196.747 77.9876 197.091 78.1079 197.516 78.1079C197.969 78.1079 198.386 78.01 198.766 77.8142C199.152 77.6129 199.435 77.3556 199.614 77.0423C199.821 76.6955 199.924 76.125 199.924 75.3307V75.0034ZM204.505 78.217V68.2827C204.505 67.824 204.606 67.4772 204.807 67.2423C205.014 67.0074 205.291 66.8899 205.638 66.8899C205.985 66.8899 206.264 67.0074 206.477 67.2423C206.689 67.4716 206.796 67.8184 206.796 68.2827V78.217C206.796 78.6812 206.687 79.0308 206.469 79.2658C206.256 79.4951 205.979 79.6098 205.638 79.6098C205.302 79.6098 205.028 79.4895 204.816 79.249C204.609 79.0085 204.505 78.6645 204.505 78.217ZM214.96 78.3177C214.406 78.7484 213.869 79.0728 213.349 79.2909C212.834 79.5035 212.255 79.6098 211.612 79.6098C211.025 79.6098 210.507 79.4951 210.06 79.2658C209.618 79.0308 209.277 78.7148 209.036 78.3177C208.795 77.9205 208.675 77.4898 208.675 77.0255C208.675 76.3991 208.874 75.8649 209.271 75.423C209.668 74.9811 210.213 74.6846 210.907 74.5336C211.053 74.5 211.413 74.4245 211.989 74.307C212.566 74.1896 213.058 74.0833 213.466 73.9882C213.88 73.8875 214.328 73.7673 214.809 73.6274C214.781 73.0233 214.658 72.5814 214.439 72.3017C214.227 72.0165 213.782 71.8738 213.105 71.8738C212.524 71.8738 212.085 71.9549 211.788 72.1171C211.497 72.2794 211.245 72.5227 211.033 72.8471C210.826 73.1715 210.678 73.3869 210.588 73.4932C210.504 73.5939 210.32 73.6442 210.034 73.6442C209.777 73.6442 209.553 73.5631 209.363 73.4009C209.179 73.2331 209.086 73.0205 209.086 72.7632C209.086 72.3605 209.229 71.9689 209.514 71.5885C209.8 71.2082 210.244 70.8949 210.848 70.6488C211.452 70.4027 212.205 70.2796 213.105 70.2796C214.112 70.2796 214.904 70.3999 215.48 70.6404C216.056 70.8754 216.462 71.2501 216.696 71.7647C216.937 72.2794 217.057 72.9618 217.057 73.812C217.057 74.349 217.054 74.8049 217.049 75.1796C217.049 75.5544 217.046 75.9711 217.04 76.4298C217.04 76.8605 217.11 77.3108 217.25 77.7807C217.396 78.2449 217.468 78.5442 217.468 78.6784C217.468 78.9134 217.357 79.1287 217.133 79.3245C216.915 79.5147 216.666 79.6098 216.386 79.6098C216.151 79.6098 215.919 79.5007 215.69 79.2826C215.46 79.0588 215.217 78.7372 214.96 78.3177ZM214.809 75.0034C214.473 75.1265 213.984 75.258 213.34 75.3978C212.703 75.532 212.261 75.6327 212.015 75.6998C211.768 75.7614 211.534 75.8872 211.31 76.0774C211.086 76.262 210.974 76.5221 210.974 76.8577C210.974 77.2045 211.106 77.501 211.369 77.7471C211.631 77.9876 211.975 78.1079 212.401 78.1079C212.854 78.1079 213.27 78.01 213.651 77.8142C214.037 77.6129 214.319 77.3556 214.498 77.0423C214.705 76.6955 214.809 76.125 214.809 75.3307V75.0034ZM220.908 79.6098C220.562 79.6098 220.262 79.4979 220.011 79.2742C219.759 79.0504 219.633 78.7372 219.633 78.3344C219.633 77.9932 219.753 77.6996 219.994 77.4534C220.234 77.2073 220.531 77.0843 220.883 77.0843C221.236 77.0843 221.535 77.2073 221.781 77.4534C222.033 77.694 222.159 77.9876 222.159 78.3344C222.159 78.7316 222.033 79.0448 221.781 79.2742C221.535 79.4979 221.244 79.6098 220.908 79.6098Z" fill="#F5F5F5"/>
</g>
<defs>
<filter id="filter0_d_119_171" x="0.499902" y="0.900024" width="377.4" height="114.75" filterUnits="userSpaceOnUse" color-interpolation-filters="sRGB">
<feFlood flood-opacity="0" result="BackgroundImageFix"/>
<feColorMatrix in="SourceAlpha" type="matrix" values="0 0 0 0 0 0 0 0 0 0 0 0 0 0 0 0 0 0 127 0" result="hardAlpha"/>
<feOffset dy="3.4"/>
<feGaussianBlur stdDeviation="1.7"/>
<feComposite in2="hardAlpha" operator="out"/>
<feColorMatrix type="matrix" values="0 0 0 0 0 0 0 0 0 0 0 0 0 0 0 0 0 0 0.25 0"/>
<feBlend mode="normal" in2="BackgroundImageFix" result="effect1_dropShadow_119_171"/>
<feBlend mode="normal" in="SourceGraphic" in2="effect1_dropShadow_119_171" result="shape"/>
</filter>
</defs>
</svg>
