<svg width="137" height="61" viewBox="0 0 137 61" fill="none" xmlns="http://www.w3.org/2000/svg">
<rect x="1.5" y="1.5" width="134" height="57.6617" rx="28.8308" fill="#151515" stroke="#9575DE" stroke-width="3"/>
<path d="M35.2472 36.1509C34.3975 36.1509 33.9727 35.7205 33.9727 34.8596V28.9061C33.9727 28.0564 34.3864 27.6316 35.2137 27.6316C36.041 27.6316 36.4547 28.0564 36.4547 28.9061V28.9732C36.7342 28.526 37.1087 28.185 37.5783 27.9502C38.0479 27.7154 38.5734 27.598 39.1547 27.598C40.1274 27.598 40.8541 27.8831 41.3349 28.4533C41.8156 29.0123 42.056 29.8788 42.056 31.0527V34.8596C42.056 35.7205 41.6312 36.1509 40.7815 36.1509C40.379 36.1509 40.0659 36.0391 39.8423 35.8155C39.6299 35.5919 39.5237 35.2733 39.5237 34.8596V31.1701C39.5237 30.5999 39.4175 30.1919 39.205 29.9459C38.9926 29.6887 38.6796 29.5602 38.2659 29.5602C37.7293 29.5602 37.2988 29.7279 36.9746 30.0633C36.6615 30.3987 36.505 30.8459 36.505 31.4049V34.8596C36.505 35.7205 36.0858 36.1509 35.2472 36.1509ZM46.1118 39.1696C45.6646 39.1696 45.346 39.0019 45.1559 38.6665C44.977 38.3423 44.9882 37.9621 45.1895 37.5261L46.0783 35.5472L43.3447 29.2751C43.1658 28.839 43.1658 28.4589 43.3447 28.1347C43.5348 27.7993 43.9093 27.6316 44.4683 27.6316C44.7702 27.6316 45.0106 27.7042 45.1895 27.8496C45.3795 27.9837 45.5528 28.2465 45.7093 28.6378L47.4199 32.9981L49.1976 28.621C49.3541 28.2409 49.5274 27.9837 49.7175 27.8496C49.9187 27.7042 50.187 27.6316 50.5225 27.6316C50.9473 27.6316 51.2436 27.7993 51.4113 28.1347C51.5902 28.4589 51.5846 28.8334 51.3945 29.2583L47.4535 38.1969C47.2858 38.5771 47.0957 38.8342 46.8833 38.9684C46.682 39.1025 46.4249 39.1696 46.1118 39.1696ZM55.4267 36.1845C54.8118 36.1845 54.2696 36.0671 53.8 35.8323C53.3304 35.5975 52.9559 35.2789 52.6764 34.8764C52.4081 34.4739 52.2739 34.0211 52.2739 33.518C52.2739 32.9254 52.4304 32.4503 52.7435 32.0925C53.0565 31.7347 53.5652 31.4832 54.2696 31.3378C54.9739 31.1813 55.9075 31.103 57.0702 31.103H57.674V30.8179C57.674 30.326 57.5622 29.9794 57.3386 29.7782C57.115 29.5658 56.7348 29.4595 56.1982 29.4595C55.8963 29.4595 55.5665 29.4987 55.2087 29.5769C54.851 29.644 54.4652 29.7614 54.0516 29.9291C53.7385 30.0633 53.4758 30.0745 53.2634 29.9627C53.0509 29.8397 52.9112 29.6608 52.8441 29.426C52.777 29.18 52.7938 28.9341 52.8944 28.6881C53.0062 28.4421 53.2186 28.2633 53.5317 28.1515C54.0572 27.9502 54.5491 27.8105 55.0075 27.7322C55.4771 27.6427 55.9075 27.598 56.2988 27.598C57.5734 27.598 58.5237 27.8887 59.1498 28.4701C59.7759 29.0403 60.0889 29.9291 60.0889 31.1366V34.8596C60.0889 35.7205 59.6976 36.1509 58.915 36.1509C58.1212 36.1509 57.7243 35.7205 57.7243 34.8596V34.759C57.5566 35.195 57.2715 35.5416 56.869 35.7988C56.4777 36.0559 55.9969 36.1845 55.4267 36.1845ZM55.9969 34.4907C56.4665 34.4907 56.8634 34.3285 57.1876 34.0043C57.5119 33.6801 57.674 33.2608 57.674 32.7465V32.4111H57.087C56.2261 32.4111 55.6168 32.4894 55.259 32.6459C54.9013 32.7913 54.7224 33.0484 54.7224 33.4174C54.7224 33.7304 54.8286 33.9876 55.041 34.1888C55.2646 34.39 55.5833 34.4907 55.9969 34.4907ZM64.9463 36.1845C62.9674 36.1845 61.9779 35.0832 61.9779 32.8807V25.3173C61.9779 24.4564 62.4028 24.0259 63.2525 24.0259C64.091 24.0259 64.5103 24.4564 64.5103 25.3173V32.7801C64.5103 33.2385 64.6053 33.5795 64.7954 33.8031C64.9966 34.0155 65.2594 34.1217 65.5836 34.1217C65.673 34.1217 65.7569 34.1161 65.8351 34.1049C65.9246 34.0938 66.0084 34.0882 66.0867 34.0882C66.2656 34.077 66.3886 34.1329 66.4556 34.2559C66.5339 34.3789 66.573 34.6304 66.573 35.0105C66.573 35.659 66.2991 36.028 65.7513 36.1174C65.6395 36.1286 65.5109 36.1398 65.3656 36.1509C65.2202 36.1733 65.0805 36.1845 64.9463 36.1845ZM70.3465 36.1845C69.7316 36.1845 69.1894 36.0671 68.7198 35.8323C68.2502 35.5975 67.8757 35.2789 67.5962 34.8764C67.3278 34.4739 67.1937 34.0211 67.1937 33.518C67.1937 32.9254 67.3502 32.4503 67.6632 32.0925C67.9763 31.7347 68.485 31.4832 69.1894 31.3378C69.8937 31.1813 70.8273 31.103 71.99 31.103H72.5937V30.8179C72.5937 30.326 72.4819 29.9794 72.2583 29.7782C72.0347 29.5658 71.6546 29.4595 71.1179 29.4595C70.8161 29.4595 70.4863 29.4987 70.1285 29.5769C69.7707 29.644 69.385 29.7614 68.9713 29.9291C68.6583 30.0633 68.3956 30.0745 68.1831 29.9627C67.9707 29.8397 67.8309 29.6608 67.7639 29.426C67.6968 29.18 67.7136 28.9341 67.8142 28.6881C67.926 28.4421 68.1384 28.2633 68.4515 28.1515C68.9769 27.9502 69.4689 27.8105 69.9272 27.7322C70.3968 27.6427 70.8273 27.598 71.2186 27.598C72.4931 27.598 73.4434 27.8887 74.0695 28.4701C74.6956 29.0403 75.0087 29.9291 75.0087 31.1366V34.8596C75.0087 35.7205 74.6174 36.1509 73.8348 36.1509C73.041 36.1509 72.6441 35.7205 72.6441 34.8596V34.759C72.4764 35.195 72.1913 35.5416 71.7888 35.7988C71.3975 36.0559 70.9167 36.1845 70.3465 36.1845ZM70.9167 34.4907C71.3863 34.4907 71.7832 34.3285 72.1074 34.0043C72.4316 33.6801 72.5937 33.2608 72.5937 32.7465V32.4111H72.0068C71.1459 32.4111 70.5366 32.4894 70.1788 32.6459C69.821 32.7913 69.6422 33.0484 69.6422 33.4174C69.6422 33.7304 69.7484 33.9876 69.9608 34.1888C70.1844 34.39 70.503 34.4907 70.9167 34.4907ZM78.1723 36.1509C77.3226 36.1509 76.8977 35.7205 76.8977 34.8596V25.3173C76.8977 24.4564 77.3226 24.0259 78.1723 24.0259C79.0108 24.0259 79.43 24.4564 79.43 25.3173V31.1701H79.4636L81.8953 28.4701C82.1413 28.1906 82.3649 27.9837 82.5661 27.8496C82.7674 27.7042 83.0469 27.6316 83.4046 27.6316C83.7512 27.6316 84.0195 27.721 84.2096 27.8999C84.3997 28.0676 84.4947 28.2856 84.4947 28.5539C84.4947 28.8111 84.3829 29.0626 84.1593 29.3086L82.0127 31.7068L84.4444 34.5074C84.6568 34.7758 84.7463 35.0385 84.7127 35.2956C84.6904 35.5416 84.5786 35.7484 84.3773 35.9161C84.1761 36.0727 83.9189 36.1509 83.6059 36.1509C83.2146 36.1509 82.9071 36.0783 82.6835 35.9329C82.4711 35.7876 82.2419 35.564 81.9959 35.2621L79.4636 32.4447H79.43V34.8596C79.43 35.7205 79.0108 36.1509 78.1723 36.1509ZM88.9512 36.1845C88.3363 36.1845 87.794 36.0671 87.3244 35.8323C86.8549 35.5975 86.4803 35.2789 86.2008 34.8764C85.9325 34.4739 85.7983 34.0211 85.7983 33.518C85.7983 32.9254 85.9549 32.4503 86.2679 32.0925C86.581 31.7347 87.0897 31.4832 87.794 31.3378C88.4984 31.1813 89.4319 31.103 90.5947 31.103H91.1984V30.8179C91.1984 30.326 91.0866 29.9794 90.863 29.7782C90.6394 29.5658 90.2593 29.4595 89.7226 29.4595C89.4207 29.4595 89.0909 29.4987 88.7332 29.5769C88.3754 29.644 87.9897 29.7614 87.576 29.9291C87.263 30.0633 87.0002 30.0745 86.7878 29.9627C86.5754 29.8397 86.4356 29.6608 86.3685 29.426C86.3014 29.18 86.3182 28.9341 86.4188 28.6881C86.5306 28.4421 86.7431 28.2633 87.0561 28.1515C87.5816 27.9502 88.0735 27.8105 88.5319 27.7322C89.0015 27.6427 89.4319 27.598 89.8232 27.598C91.0978 27.598 92.0481 27.8887 92.6742 28.4701C93.3003 29.0403 93.6133 29.9291 93.6133 31.1366V34.8596C93.6133 35.7205 93.222 36.1509 92.4394 36.1509C91.6456 36.1509 91.2487 35.7205 91.2487 34.8596V34.759C91.081 35.195 90.7959 35.5416 90.3934 35.7988C90.0021 36.0559 89.5214 36.1845 88.9512 36.1845ZM89.5214 34.4907C89.9909 34.4907 90.3878 34.3285 90.7121 34.0043C91.0363 33.6801 91.1984 33.2608 91.1984 32.7465V32.4111H90.6114C89.7506 32.4111 89.1412 32.4894 88.7835 32.6459C88.4257 32.7913 88.2468 33.0484 88.2468 33.4174C88.2468 33.7304 88.353 33.9876 88.5655 34.1888C88.7891 34.39 89.1077 34.4907 89.5214 34.4907ZM96.7769 36.1509C95.9272 36.1509 95.5024 35.7205 95.5024 34.8596V28.9061C95.5024 28.0564 95.916 27.6316 96.7434 27.6316C97.5707 27.6316 97.9844 28.0564 97.9844 28.9061V28.9732C98.2639 28.526 98.6384 28.185 99.108 27.9502C99.5776 27.7154 100.103 27.598 100.684 27.598C101.657 27.598 102.384 27.8831 102.865 28.4533C103.345 29.0123 103.586 29.8788 103.586 31.0527V34.8596C103.586 35.7205 103.161 36.1509 102.311 36.1509C101.909 36.1509 101.596 36.0391 101.372 35.8155C101.16 35.5919 101.053 35.2733 101.053 34.8596V31.1701C101.053 30.5999 100.947 30.1919 100.735 29.9459C100.522 29.6887 100.209 29.5602 99.7956 29.5602C99.2589 29.5602 98.8285 29.7279 98.5043 30.0633C98.1912 30.3987 98.0347 30.8459 98.0347 31.4049V34.8596C98.0347 35.7205 97.6154 36.1509 96.7769 36.1509Z" fill="#F5F5F5"/>
</svg>
