<svg width="94" height="45" viewBox="0 0 94 45" fill="none" xmlns="http://www.w3.org/2000/svg">
<g filter="url(#filter0_d_222_55)">
<rect x="3.9635" y="0.963504" width="86.073" height="37.0382" rx="18.5191" fill="#333333" stroke="#9575DE" stroke-width="1.92701"/>
<path d="M16.7563 21.9448C16.4947 21.9448 16.2242 21.9211 15.9448 21.8735C15.6713 21.8259 15.4216 21.7457 15.1957 21.6327C15.047 21.5554 14.9489 21.4573 14.9014 21.3384C14.8598 21.2195 14.8598 21.1036 14.9014 20.9906C14.943 20.8777 15.0173 20.7944 15.1243 20.7409C15.2313 20.6815 15.3562 20.6815 15.4989 20.7409C15.7426 20.842 15.9656 20.9133 16.1677 20.9549C16.3758 20.9966 16.575 21.0174 16.7652 21.0174C17.0149 21.0174 17.1993 20.9787 17.3182 20.9014C17.4371 20.8182 17.4965 20.7112 17.4965 20.5804C17.4965 20.3723 17.3449 20.2415 17.0417 20.188L16.1053 20.0186C15.7308 19.9532 15.4454 19.8194 15.2492 19.6172C15.053 19.4151 14.9549 19.1505 14.9549 18.8235C14.9549 18.5263 15.0381 18.2706 15.2046 18.0566C15.3711 17.8426 15.6 17.6761 15.8913 17.5572C16.1826 17.4383 16.5185 17.3788 16.899 17.3788C17.4222 17.3788 17.8859 17.4799 18.2902 17.682C18.427 17.7474 18.5102 17.8396 18.5399 17.9585C18.5756 18.0774 18.5697 18.1933 18.5221 18.3063C18.4745 18.4193 18.3972 18.5055 18.2902 18.5649C18.1832 18.6184 18.0554 18.6125 17.9067 18.5471C17.7106 18.4579 17.5322 18.3955 17.3717 18.3598C17.2111 18.3182 17.0595 18.2974 16.9169 18.2974C16.6493 18.2974 16.4561 18.342 16.3372 18.4311C16.2183 18.5144 16.1588 18.6214 16.1588 18.7522C16.1588 18.9603 16.2985 19.0911 16.578 19.1446L17.5144 19.314C17.9008 19.3794 18.1951 19.5102 18.3972 19.7064C18.5994 19.8967 18.7004 20.1583 18.7004 20.4912C18.7004 20.949 18.5221 21.3057 18.1654 21.5614C17.8086 21.817 17.339 21.9448 16.7563 21.9448ZM20.9495 21.9448C20.6225 21.9448 20.3341 21.8824 20.0844 21.7576C19.8347 21.6327 19.6355 21.4633 19.4869 21.2492C19.3442 21.0352 19.2729 20.7944 19.2729 20.5269C19.2729 20.2118 19.3561 19.9591 19.5226 19.7688C19.689 19.5786 19.9596 19.4448 20.3341 19.3675C20.7087 19.2843 21.2051 19.2427 21.8234 19.2427H22.1445V19.0911C22.1445 18.8295 22.085 18.6452 21.9661 18.5382C21.8472 18.4252 21.6451 18.3687 21.3597 18.3687C21.1992 18.3687 21.0238 18.3895 20.8335 18.4311C20.6433 18.4668 20.4382 18.5292 20.2182 18.6184C20.0517 18.6898 19.912 18.6957 19.799 18.6363C19.6861 18.5709 19.6118 18.4757 19.5761 18.3509C19.5404 18.2201 19.5493 18.0893 19.6028 17.9585C19.6623 17.8277 19.7753 17.7326 19.9417 17.6731C20.2212 17.5661 20.4827 17.4918 20.7265 17.4502C20.9762 17.4026 21.2051 17.3788 21.4132 17.3788C22.091 17.3788 22.5963 17.5334 22.9293 17.8426C23.2622 18.1458 23.4287 18.6184 23.4287 19.2605V21.2403C23.4287 21.6981 23.2206 21.927 22.8044 21.927C22.3823 21.927 22.1712 21.6981 22.1712 21.2403V21.1868C22.082 21.4187 21.9304 21.603 21.7164 21.7397C21.5083 21.8765 21.2527 21.9448 20.9495 21.9448ZM21.2527 21.0441C21.5024 21.0441 21.7134 20.9579 21.8858 20.7855C22.0583 20.6131 22.1445 20.3901 22.1445 20.1166V19.9383H21.8323C21.3745 19.9383 21.0505 19.9799 20.8603 20.0631C20.67 20.1404 20.5749 20.2772 20.5749 20.4734C20.5749 20.6398 20.6314 20.7766 20.7443 20.8836C20.8632 20.9906 21.0327 21.0441 21.2527 21.0441ZM25.1288 21.927C24.6769 21.927 24.451 21.6981 24.451 21.2403V18.0744C24.451 17.6226 24.671 17.3967 25.111 17.3967C25.5509 17.3967 25.7709 17.6226 25.7709 18.0744V18.1012C25.9017 17.8753 26.08 17.6999 26.306 17.575C26.5378 17.4442 26.8054 17.3788 27.1086 17.3788C27.4177 17.3788 27.6793 17.4472 27.8934 17.5839C28.1133 17.7207 28.2798 17.9288 28.3928 18.2082C28.5295 17.9466 28.7257 17.7445 28.9814 17.6018C29.243 17.4531 29.5313 17.3788 29.8464 17.3788C30.3458 17.3788 30.7174 17.5304 30.9612 17.8336C31.2049 18.1309 31.3268 18.5917 31.3268 19.2159V21.2403C31.3268 21.4603 31.2673 21.6297 31.1484 21.7486C31.0355 21.8675 30.872 21.927 30.6579 21.927C30.2061 21.927 29.9802 21.6981 29.9802 21.2403V19.2605C29.9802 18.9692 29.9326 18.7581 29.8375 18.6273C29.7483 18.4906 29.5937 18.4222 29.3738 18.4222C29.1181 18.4222 28.9189 18.5114 28.7762 18.6898C28.6336 18.8681 28.5622 19.1208 28.5622 19.4478V21.2403C28.5622 21.6981 28.3393 21.927 27.8934 21.927C27.6793 21.927 27.5129 21.8675 27.394 21.7486C27.2751 21.6297 27.2156 21.4603 27.2156 21.2403V19.2605C27.2156 18.9692 27.168 18.7581 27.0729 18.6273C26.9778 18.4906 26.8232 18.4222 26.6092 18.4222C26.3535 18.4222 26.1544 18.5114 26.0117 18.6898C25.869 18.8681 25.7976 19.1208 25.7976 19.4478V21.2403C25.7976 21.6981 25.5747 21.927 25.1288 21.927ZM35.0605 21.9448C34.7573 21.9448 34.4838 21.8794 34.2401 21.7486C33.9963 21.6178 33.812 21.4395 33.6871 21.2136V21.2403C33.6871 21.6981 33.4672 21.927 33.0272 21.927C32.5813 21.927 32.3584 21.6981 32.3584 21.2403V16.166C32.3584 15.7082 32.5843 15.4793 33.0361 15.4793C33.482 15.4793 33.705 15.7082 33.705 16.166V18.0566C33.8358 17.8485 34.0201 17.685 34.2579 17.5661C34.5016 17.4413 34.7692 17.3788 35.0605 17.3788C35.441 17.3788 35.7739 17.471 36.0593 17.6553C36.3506 17.8396 36.5766 18.1012 36.7371 18.4401C36.8976 18.779 36.9779 19.1832 36.9779 19.6529C36.9779 20.1226 36.8976 20.5299 36.7371 20.8747C36.5766 21.2136 36.3506 21.4781 36.0593 21.6684C35.7739 21.8527 35.441 21.9448 35.0605 21.9448ZM34.6592 20.9371C34.9446 20.9371 35.1764 20.8331 35.3548 20.625C35.5332 20.4169 35.6223 20.0929 35.6223 19.6529C35.6223 19.2189 35.5332 18.9008 35.3548 18.6987C35.1764 18.4906 34.9446 18.3866 34.6592 18.3866C34.3679 18.3866 34.133 18.4906 33.9547 18.6987C33.7763 18.9008 33.6871 19.2189 33.6871 19.6529C33.6871 20.0929 33.7763 20.4169 33.9547 20.625C34.133 20.8331 34.3679 20.9371 34.6592 20.9371ZM39.4156 21.9448C38.8568 21.9448 38.4436 21.7903 38.176 21.4811C37.9144 21.1719 37.7836 20.7082 37.7836 20.0899V18.0744C37.7836 17.6226 38.0066 17.3967 38.4525 17.3967C38.9043 17.3967 39.1302 17.6226 39.1302 18.0744V20.1256C39.1302 20.6428 39.3532 20.9014 39.7991 20.9014C40.0547 20.9014 40.2628 20.8123 40.4234 20.6339C40.5898 20.4496 40.6731 20.2088 40.6731 19.9115V18.0744C40.6731 17.6226 40.896 17.3967 41.3419 17.3967C41.7938 17.3967 42.0197 17.6226 42.0197 18.0744V21.2403C42.0197 21.6981 41.8027 21.927 41.3687 21.927C41.1546 21.927 40.9911 21.8675 40.8782 21.7486C40.7652 21.6297 40.7087 21.4633 40.7087 21.2492C40.4174 21.713 39.9864 21.9448 39.4156 21.9448ZM43.7395 21.927C43.2876 21.927 43.0617 21.6981 43.0617 21.2403V18.0744C43.0617 17.6226 43.2817 17.3967 43.7216 17.3967C44.1616 17.3967 44.3816 17.6226 44.3816 18.0744V18.1101C44.5302 17.8723 44.7294 17.691 44.9791 17.5661C45.2288 17.4413 45.5082 17.3788 45.8174 17.3788C46.3346 17.3788 46.721 17.5304 46.9767 17.8336C47.2323 18.1309 47.3602 18.5917 47.3602 19.2159V21.2403C47.3602 21.6981 47.1342 21.927 46.6824 21.927C46.4684 21.927 46.3019 21.8675 46.183 21.7486C46.07 21.6297 46.0135 21.4603 46.0135 21.2403V19.2784C46.0135 18.9751 45.9571 18.7581 45.8441 18.6273C45.7311 18.4906 45.5647 18.4222 45.3447 18.4222C45.0593 18.4222 44.8304 18.5114 44.658 18.6898C44.4915 18.8681 44.4083 19.1059 44.4083 19.4032V21.2403C44.4083 21.6981 44.1854 21.927 43.7395 21.927ZM50.4701 23.5501C50.1491 23.5501 49.8429 23.5233 49.5516 23.4698C49.2602 23.4163 48.9986 23.336 48.7668 23.229C48.5944 23.1577 48.4844 23.0566 48.4368 22.9258C48.3892 22.795 48.3892 22.6672 48.4368 22.5423C48.4903 22.4175 48.5706 22.3224 48.6776 22.257C48.7905 22.1975 48.9154 22.1975 49.0521 22.257C49.3137 22.3759 49.5545 22.4532 49.7745 22.4888C50.0004 22.5245 50.1936 22.5423 50.3542 22.5423C51.1152 22.5423 51.4957 22.1916 51.4957 21.49V20.9906C51.3768 21.2165 51.1895 21.3979 50.9338 21.5346C50.6782 21.6714 50.3988 21.7397 50.0955 21.7397C49.7032 21.7397 49.3613 21.6505 49.07 21.4722C48.7787 21.2879 48.5527 21.0322 48.3922 20.7052C48.2317 20.3782 48.1514 19.9948 48.1514 19.5548C48.1514 19.1208 48.2317 18.7403 48.3922 18.4133C48.5527 18.0863 48.7787 17.8336 49.07 17.6553C49.3613 17.471 49.7032 17.3788 50.0955 17.3788C50.3988 17.3788 50.6752 17.4442 50.9249 17.575C51.1746 17.7058 51.3589 17.8782 51.4778 18.0923V18.0744C51.4778 17.8545 51.5343 17.688 51.6473 17.575C51.7662 17.4561 51.9327 17.3967 52.1467 17.3967C52.5866 17.3967 52.8066 17.6226 52.8066 18.0744V21.3384C52.8066 22.0756 52.6074 22.6286 52.2091 22.9972C51.8108 23.3658 51.2311 23.5501 50.4701 23.5501ZM50.4969 20.732C50.7941 20.732 51.0319 20.6279 51.2103 20.4199C51.3946 20.2118 51.4868 19.9234 51.4868 19.5548C51.4868 19.1862 51.3946 18.9008 51.2103 18.6987C51.0319 18.4906 50.7941 18.3866 50.4969 18.3866C50.1936 18.3866 49.9529 18.4906 49.7745 18.6987C49.5961 18.9008 49.507 19.1862 49.507 19.5548C49.507 19.9234 49.5961 20.2118 49.7745 20.4199C49.9529 20.6279 50.1936 20.732 50.4969 20.732ZM57.0206 21.927C56.5688 21.927 56.3429 21.6981 56.3429 21.2403V16.166C56.3429 15.7082 56.5688 15.4793 57.0206 15.4793C57.4665 15.4793 57.6895 15.7082 57.6895 16.166V19.2784H57.7073L59.0004 17.8426C59.1312 17.6939 59.2501 17.5839 59.3572 17.5126C59.4642 17.4353 59.6128 17.3967 59.8031 17.3967C59.9874 17.3967 60.1301 17.4442 60.2311 17.5393C60.3322 17.6285 60.3827 17.7445 60.3827 17.8872C60.3827 18.0239 60.3233 18.1577 60.2044 18.2885L59.0629 19.5637L60.356 21.053C60.4689 21.1957 60.5165 21.3354 60.4987 21.4722C60.4868 21.603 60.4273 21.713 60.3203 21.8022C60.2133 21.8854 60.0765 21.927 59.9101 21.927C59.702 21.927 59.5385 21.8884 59.4196 21.8111C59.3066 21.7338 59.1847 21.6149 59.054 21.4543L57.7073 19.9561H57.6895V21.2403C57.6895 21.6981 57.4665 21.927 57.0206 21.927ZM62.7526 21.9448C62.4256 21.9448 62.1372 21.8824 61.8875 21.7576C61.6378 21.6327 61.4386 21.4633 61.29 21.2492C61.1473 21.0352 61.076 20.7944 61.076 20.5269C61.076 20.2118 61.1592 19.9591 61.3257 19.7688C61.4921 19.5786 61.7627 19.4448 62.1372 19.3675C62.5118 19.2843 63.0082 19.2427 63.6265 19.2427H63.9476V19.0911C63.9476 18.8295 63.8881 18.6452 63.7692 18.5382C63.6503 18.4252 63.4482 18.3687 63.1628 18.3687C63.0023 18.3687 62.8269 18.3895 62.6366 18.4311C62.4464 18.4668 62.2413 18.5292 62.0213 18.6184C61.8548 18.6898 61.7151 18.6957 61.6021 18.6363C61.4892 18.5709 61.4149 18.4757 61.3792 18.3509C61.3435 18.2201 61.3524 18.0893 61.4059 17.9585C61.4654 17.8277 61.5783 17.7326 61.7448 17.6731C62.0242 17.5661 62.2858 17.4918 62.5296 17.4502C62.7793 17.4026 63.0082 17.3788 63.2163 17.3788C63.8941 17.3788 64.3994 17.5334 64.7323 17.8426C65.0653 18.1458 65.2318 18.6184 65.2318 19.2605V21.2403C65.2318 21.6981 65.0237 21.927 64.6075 21.927C64.1854 21.927 63.9743 21.6981 63.9743 21.2403V21.1868C63.8851 21.4187 63.7335 21.603 63.5195 21.7397C63.3114 21.8765 63.0558 21.9448 62.7526 21.9448ZM63.0558 21.0441C63.3055 21.0441 63.5165 20.9579 63.6889 20.7855C63.8614 20.6131 63.9476 20.3901 63.9476 20.1166V19.9383H63.6354C63.1776 19.9383 62.8536 19.9799 62.6634 20.0631C62.4731 20.1404 62.378 20.2772 62.378 20.4734C62.378 20.6398 62.4345 20.7766 62.5474 20.8836C62.6663 20.9906 62.8358 21.0441 63.0558 21.0441ZM68.9384 21.9448C68.6352 21.9448 68.3617 21.8794 68.118 21.7486C67.8742 21.6178 67.6899 21.4395 67.5651 21.2136V21.2403C67.5651 21.6981 67.3451 21.927 66.9051 21.927C66.4592 21.927 66.2363 21.6981 66.2363 21.2403V16.166C66.2363 15.7082 66.4622 15.4793 66.914 15.4793C67.3599 15.4793 67.5829 15.7082 67.5829 16.166V18.0566C67.7137 17.8485 67.898 17.685 68.1358 17.5661C68.3796 17.4413 68.6471 17.3788 68.9384 17.3788C69.3189 17.3788 69.6519 17.471 69.9372 17.6553C70.2286 17.8396 70.4545 18.1012 70.615 18.4401C70.7755 18.779 70.8558 19.1832 70.8558 19.6529C70.8558 20.1226 70.7755 20.5299 70.615 20.8747C70.4545 21.2136 70.2286 21.4781 69.9372 21.6684C69.6519 21.8527 69.3189 21.9448 68.9384 21.9448ZM68.5371 20.9371C68.8225 20.9371 69.0544 20.8331 69.2327 20.625C69.4111 20.4169 69.5003 20.0929 69.5003 19.6529C69.5003 19.2189 69.4111 18.9008 69.2327 18.6987C69.0544 18.4906 68.8225 18.3866 68.5371 18.3866C68.2458 18.3866 68.011 18.4906 67.8326 18.6987C67.6542 18.9008 67.5651 19.2189 67.5651 19.6529C67.5651 20.0929 67.6542 20.4169 67.8326 20.625C68.011 20.8331 68.2458 20.9371 68.5371 20.9371ZM73.9535 21.9448C73.4362 21.9448 72.9903 21.8527 72.6158 21.6684C72.2472 21.4781 71.9618 21.2136 71.7597 20.8747C71.5635 20.5299 71.4654 20.1256 71.4654 19.6618C71.4654 19.21 71.5605 18.8146 71.7507 18.4757C71.9469 18.1309 72.2115 17.8634 72.5444 17.6731C72.8833 17.4769 73.2727 17.3788 73.7127 17.3788C74.3488 17.3788 74.8542 17.581 75.2288 17.9852C75.6033 18.3836 75.7906 18.9246 75.7906 19.6083C75.7906 19.8342 75.6509 19.9472 75.3714 19.9472H72.7496C72.7971 20.292 72.922 20.5447 73.1241 20.7052C73.3322 20.8598 73.6176 20.9371 73.9802 20.9371C74.1229 20.9371 74.2834 20.9222 74.4618 20.8925C74.6461 20.8568 74.8215 20.7974 74.988 20.7142C75.1604 20.6309 75.306 20.6161 75.4249 20.6696C75.5439 20.7171 75.6241 20.8004 75.6657 20.9193C75.7133 21.0382 75.7133 21.163 75.6657 21.2938C75.6241 21.4187 75.526 21.5227 75.3714 21.606C75.1634 21.7189 74.9315 21.8022 74.6758 21.8557C74.4261 21.9151 74.1853 21.9448 73.9535 21.9448ZM73.7662 18.2706C73.4808 18.2706 73.249 18.3568 73.0706 18.5292C72.8982 18.7017 72.7912 18.9424 72.7496 19.2516H74.6758C74.6402 18.5976 74.337 18.2706 73.7662 18.2706ZM78.1523 21.9448C77.1 21.9448 76.5738 21.3592 76.5738 20.188V16.166C76.5738 15.7082 76.7998 15.4793 77.2516 15.4793C77.6975 15.4793 77.9205 15.7082 77.9205 16.166V20.1345C77.9205 20.3782 77.971 20.5596 78.0721 20.6785C78.1791 20.7914 78.3188 20.8479 78.4912 20.8479C78.5388 20.8479 78.5834 20.845 78.625 20.839C78.6725 20.8331 78.7171 20.8301 78.7587 20.8301C78.8539 20.8241 78.9193 20.8539 78.9549 20.9193C78.9966 20.9847 79.0174 21.1184 79.0174 21.3206C79.0174 21.6654 78.8717 21.8616 78.5804 21.9092C78.5209 21.9151 78.4526 21.9211 78.3753 21.927C78.298 21.9389 78.2237 21.9448 78.1523 21.9448Z" fill="#F5F5F5"/>
</g>
<defs>
<filter id="filter0_d_222_55" x="0.430657" y="0" width="93.1387" height="44.1038" filterUnits="userSpaceOnUse" color-interpolation-filters="sRGB">
<feFlood flood-opacity="0" result="BackgroundImageFix"/>
<feColorMatrix in="SourceAlpha" type="matrix" values="0 0 0 0 0 0 0 0 0 0 0 0 0 0 0 0 0 0 127 0" result="hardAlpha"/>
<feOffset dy="2.56934"/>
<feGaussianBlur stdDeviation="1.28467"/>
<feComposite in2="hardAlpha" operator="out"/>
<feColorMatrix type="matrix" values="0 0 0 0 0 0 0 0 0 0 0 0 0 0 0 0 0 0 0.25 0"/>
<feBlend mode="normal" in2="BackgroundImageFix" result="effect1_dropShadow_222_55"/>
<feBlend mode="normal" in="SourceGraphic" in2="effect1_dropShadow_222_55" result="shape"/>
</filter>
</defs>
</svg>
