<svg width="131" height="146" viewBox="0 0 131 146" fill="none" xmlns="http://www.w3.org/2000/svg">
<rect width="131" height="146" fill="#F5F5F5"/>
<circle cx="91" cy="95" r="8" fill="#151515"/>
<circle cx="43" cy="95" r="8" fill="#FF4B4B"/>
<circle cx="66" cy="48" r="20" fill="#FFC700" fill-opacity="0.85"/>
<line x1="51" y1="94.5" x2="83" y2="94.5" stroke="black"/>
<line x1="66.5" y1="94" x2="66.5" y2="114" stroke="black"/>
<line x1="75.4976" y1="102.487" x2="57.2815" y2="125.14" stroke="black"/>
<line x1="56.3726" y1="102.667" x2="75.7567" y2="124.329" stroke="black"/>
<path d="M85.3125 33.1016C86.7319 33.0129 86.6948 30.1155 87.1912 28.8746" stroke="#FFC700" stroke-width="3" stroke-linecap="round"/>
<path d="M40.694 38.268C39.8506 37.5183 38.372 37.3812 37.876 36.3893" stroke="#FFC700" stroke-width="3" stroke-linecap="round"/>
<path d="M85.3125 62.6908C85.474 63.4176 86.1078 63.4767 86.7215 63.6301" stroke="#FFC700" stroke-width="3" stroke-linecap="round"/>
<path d="M43.9814 70.6752H47.2691" stroke="#FFC700" stroke-width="3" stroke-linecap="round"/>
<path d="M66.5258 23.2385C66.5258 22.2787 66.2431 21.3554 66.0562 20.4205" stroke="#FFC700" stroke-width="3" stroke-linecap="round"/>
</svg>
