<svg width="131" height="146" viewBox="0 0 131 146" fill="none" xmlns="http://www.w3.org/2000/svg">
<rect width="131" height="146" fill="#F5F5F5"/>
<circle cx="45" cy="87" r="8" fill="#151515"/>
<circle cx="45" cy="121" r="8" fill="#151515"/>
<circle cx="86" cy="87" r="8" fill="#FF4B4B"/>
<circle cx="86" cy="121" r="8" fill="#FF4B4B"/>
<path d="M45.5 113V95" stroke="black" stroke-dasharray="3 3"/>
<line x1="86.5059" y1="113.002" x2="86.4864" y2="108.624" stroke="black"/>
<line x1="87.6474" y1="105.786" x2="91.5263" y2="102.85" stroke="black"/>
<line x1="86.4463" y1="99.3805" x2="86.4269" y2="95.0022" stroke="black"/>
<circle cx="86.7365" cy="106.92" r="1.20268" transform="rotate(89.7457 86.7365 106.92)" stroke="black"/>
<circle cx="86.7102" cy="101.082" r="1.20268" transform="rotate(89.7457 86.7102 101.082)" stroke="black"/>
<rect x="41" y="5" width="49" height="68" fill="#E1E1E1"/>
<rect x="61.8975" y="25" width="7.92647" height="25" fill="#6554AF"/>
<path d="M61.8975 25H69.8239V38H61.8975V25Z" fill="#9575DE"/>
<path d="M63.5139 45.0566C63.2427 45.0566 63.0059 45.0034 62.8033 44.897C62.6042 44.7872 62.4497 44.6344 62.3399 44.4387C62.23 44.2396 62.1751 44.0044 62.1751 43.7332C62.1751 43.4655 62.23 43.2337 62.3399 43.0381C62.4497 42.839 62.6042 42.6862 62.8033 42.5798C63.0059 42.4733 63.2427 42.4201 63.5139 42.4201C63.7851 42.4201 64.0203 42.4733 64.2194 42.5798C64.4219 42.6862 64.5781 42.839 64.688 43.0381C64.8013 43.2337 64.8579 43.4655 64.8579 43.7332C64.8579 44.0044 64.8013 44.2396 64.688 44.4387C64.5781 44.6344 64.4219 44.7872 64.2194 44.897C64.0203 45.0034 63.7851 45.0566 63.5139 45.0566ZM63.5139 44.4748C63.6787 44.4748 63.8126 44.4147 63.9156 44.2945C64.022 44.1744 64.0752 43.9873 64.0752 43.7332C64.0752 43.4826 64.022 43.299 63.9156 43.1823C63.8126 43.0621 63.6787 43.002 63.5139 43.002C63.3491 43.002 63.2153 43.0621 63.1123 43.1823C63.0093 43.299 62.9578 43.4826 62.9578 43.7332C62.9578 43.9873 63.0093 44.1744 63.1123 44.2945C63.2153 44.4147 63.3491 44.4748 63.5139 44.4748ZM65.8929 45.0463C65.7659 45.0463 65.668 45.012 65.5994 44.9434C65.5341 44.8747 65.5015 44.7769 65.5015 44.6498V43.0535H65.3161C65.1136 43.0535 65.0123 42.9574 65.0123 42.7651C65.0123 42.5695 65.1136 42.4716 65.3161 42.4716H65.5015C65.5084 42.1215 65.6028 41.8589 65.7847 41.6838C65.9701 41.5053 66.2379 41.3988 66.5881 41.3645L66.7528 41.3491C66.8661 41.3388 66.9485 41.3611 67 41.416C67.0549 41.4675 67.0841 41.531 67.0876 41.6065C67.0944 41.6821 67.0773 41.7507 67.0361 41.8125C66.9983 41.8709 66.9417 41.9035 66.8661 41.9103L66.794 41.9155C66.6087 41.9292 66.4765 41.9739 66.3975 42.0494C66.3186 42.1215 66.2791 42.233 66.2791 42.3841V42.4716H66.6447C66.8472 42.4716 66.9485 42.5695 66.9485 42.7651C66.9485 42.9574 66.8472 43.0535 66.6447 43.0535H66.2791V44.6498C66.2791 44.9142 66.1504 45.0463 65.8929 45.0463ZM67.7183 45.0463C67.5913 45.0463 67.4935 45.012 67.4248 44.9434C67.3596 44.8747 67.327 44.7769 67.327 44.6498V43.0535H67.1416C66.939 43.0535 66.8378 42.9574 66.8378 42.7651C66.8378 42.5695 66.939 42.4716 67.1416 42.4716H67.327C67.3338 42.1215 67.4282 41.8589 67.6102 41.6838C67.7956 41.5053 68.0633 41.3988 68.4135 41.3645L68.5783 41.3491C68.6916 41.3388 68.7739 41.3611 68.8254 41.416C68.8804 41.4675 68.9095 41.531 68.913 41.6065C68.9198 41.6821 68.9027 41.7507 68.8615 41.8125C68.8237 41.8709 68.7671 41.9035 68.6916 41.9103L68.6195 41.9155C68.4341 41.9292 68.3019 41.9739 68.223 42.0494C68.144 42.1215 68.1045 42.233 68.1045 42.3841V42.4716H68.4701C68.6727 42.4716 68.7739 42.5695 68.7739 42.7651C68.7739 42.9574 68.6727 43.0535 68.4701 43.0535H68.1045V44.6498C68.1045 44.9142 67.9758 45.0463 67.7183 45.0463Z" fill="#151515"/>
</svg>
