<svg width="94" height="45" viewBox="0 0 94 45" fill="none" xmlns="http://www.w3.org/2000/svg">
<g filter="url(#filter0_d_341_53)">
<rect x="3.9635" y="0.963504" width="86.073" height="37.0382" rx="18.5191" fill="#151515" stroke="#9575DE" stroke-width="1.92701"/>
<path d="M30.2128 22.0803C29.761 22.0803 29.5351 21.8514 29.5351 21.3936V18.2277C29.5351 17.7758 29.7551 17.5499 30.195 17.5499C30.635 17.5499 30.8549 17.7758 30.8549 18.2277V18.2544C30.9857 18.0285 31.1641 17.8531 31.39 17.7283C31.6219 17.5975 31.8894 17.5321 32.1926 17.5321C32.5018 17.5321 32.7634 17.6005 32.9774 17.7372C33.1974 17.8739 33.3639 18.082 33.4768 18.3615C33.6136 18.0999 33.8098 17.8977 34.0654 17.755C34.327 17.6064 34.6154 17.5321 34.9305 17.5321C35.4299 17.5321 35.8015 17.6837 36.0452 17.9869C36.289 18.2842 36.4109 18.7449 36.4109 19.3692V21.3936C36.4109 21.6136 36.3514 21.783 36.2325 21.9019C36.1195 22.0208 35.956 22.0803 35.742 22.0803C35.2902 22.0803 35.0642 21.8514 35.0642 21.3936V19.4138C35.0642 19.1225 35.0167 18.9114 34.9215 18.7806C34.8324 18.6439 34.6778 18.5755 34.4578 18.5755C34.2022 18.5755 34.003 18.6647 33.8603 18.843C33.7176 19.0214 33.6463 19.2741 33.6463 19.6011V21.3936C33.6463 21.8514 33.4233 22.0803 32.9774 22.0803C32.7634 22.0803 32.5969 22.0208 32.478 21.9019C32.3591 21.783 32.2997 21.6136 32.2997 21.3936V19.4138C32.2997 19.1225 32.2521 18.9114 32.157 18.7806C32.0618 18.6439 31.9073 18.5755 31.6932 18.5755C31.4376 18.5755 31.2384 18.6647 31.0957 18.843C30.953 19.0214 30.8817 19.2741 30.8817 19.6011V21.3936C30.8817 21.8514 30.6587 22.0803 30.2128 22.0803ZM39.7165 22.0981C39.1993 22.0981 38.7534 22.0059 38.3788 21.8216C38.0102 21.6314 37.7248 21.3668 37.5227 21.0279C37.3265 20.6831 37.2284 20.2788 37.2284 19.8151C37.2284 19.3632 37.3235 18.9679 37.5138 18.629C37.71 18.2842 37.9745 18.0166 38.3075 17.8264C38.6463 17.6302 39.0358 17.5321 39.4757 17.5321C40.1119 17.5321 40.6172 17.7342 40.9918 18.1385C41.3663 18.5368 41.5536 19.0779 41.5536 19.7616C41.5536 19.9875 41.4139 20.1005 41.1345 20.1005H38.5126C38.5601 20.4453 38.685 20.698 38.8871 20.8585C39.0952 21.0131 39.3806 21.0904 39.7433 21.0904C39.8859 21.0904 40.0465 21.0755 40.2248 21.0458C40.4091 21.0101 40.5845 20.9506 40.751 20.8674C40.9234 20.7842 41.0691 20.7693 41.188 20.8228C41.3069 20.8704 41.3871 20.9536 41.4288 21.0725C41.4763 21.1914 41.4763 21.3163 41.4288 21.4471C41.3871 21.5719 41.289 21.676 41.1345 21.7592C40.9264 21.8722 40.6945 21.9554 40.4389 22.0089C40.1892 22.0684 39.9484 22.0981 39.7165 22.0981ZM39.5292 18.4239C39.2438 18.4239 39.012 18.5101 38.8336 18.6825C38.6612 18.8549 38.5542 19.0957 38.5126 19.4049H40.4389C40.4032 18.7509 40.1 18.4239 39.5292 18.4239ZM43.8172 22.0981C43.4903 22.0981 43.2019 22.0357 42.9522 21.9108C42.7025 21.786 42.5033 21.6165 42.3547 21.4025C42.212 21.1885 42.1407 20.9477 42.1407 20.6801C42.1407 20.365 42.2239 20.1124 42.3904 19.9221C42.5568 19.7319 42.8273 19.5981 43.2019 19.5208C43.5765 19.4376 44.0729 19.3959 44.6912 19.3959H45.0123V19.2443C45.0123 18.9827 44.9528 18.7984 44.8339 18.6914C44.715 18.5785 44.5129 18.522 44.2275 18.522C44.067 18.522 43.8916 18.5428 43.7013 18.5844C43.5111 18.6201 43.3059 18.6825 43.086 18.7717C42.9195 18.843 42.7798 18.849 42.6668 18.7895C42.5539 18.7241 42.4795 18.629 42.4439 18.5041C42.4082 18.3733 42.4171 18.2426 42.4706 18.1118C42.5301 17.981 42.643 17.8858 42.8095 17.8264C43.0889 17.7194 43.3505 17.645 43.5943 17.6034C43.844 17.5559 44.0729 17.5321 44.281 17.5321C44.9588 17.5321 45.4641 17.6867 45.797 17.9958C46.13 18.299 46.2964 18.7717 46.2964 19.4138V21.3936C46.2964 21.8514 46.0884 22.0803 45.6722 22.0803C45.2501 22.0803 45.039 21.8514 45.039 21.3936V21.3401C44.9498 21.5719 44.7982 21.7562 44.5842 21.893C44.3761 22.0297 44.1205 22.0981 43.8172 22.0981ZM44.1205 21.1974C44.3702 21.1974 44.5812 21.1112 44.7536 20.9388C44.9261 20.7663 45.0123 20.5434 45.0123 20.2699V20.0915H44.7001C44.2423 20.0915 43.9183 20.1332 43.7281 20.2164C43.5378 20.2937 43.4427 20.4304 43.4427 20.6266C43.4427 20.7931 43.4992 20.9298 43.6121 21.0369C43.731 21.1439 43.9005 21.1974 44.1205 21.1974ZM48.9776 22.0981C48.716 22.0981 48.4455 22.0743 48.166 22.0268C47.8925 21.9792 47.6428 21.8989 47.4169 21.786C47.2683 21.7087 47.1702 21.6106 47.1226 21.4917C47.081 21.3728 47.081 21.2568 47.1226 21.1439C47.1642 21.0309 47.2386 20.9477 47.3456 20.8942C47.4526 20.8347 47.5774 20.8347 47.7201 20.8942C47.9639 20.9952 48.1868 21.0666 48.389 21.1082C48.5971 21.1498 48.7962 21.1706 48.9865 21.1706C49.2362 21.1706 49.4205 21.132 49.5394 21.0547C49.6583 20.9715 49.7178 20.8644 49.7178 20.7336C49.7178 20.5256 49.5661 20.3948 49.2629 20.3413L48.3265 20.1718C47.952 20.1064 47.6666 19.9726 47.4704 19.7705C47.2742 19.5684 47.1761 19.3038 47.1761 18.9768C47.1761 18.6795 47.2594 18.4239 47.4258 18.2099C47.5923 17.9958 47.8212 17.8294 48.1125 17.7104C48.4038 17.5915 48.7397 17.5321 49.1202 17.5321C49.6434 17.5321 50.1072 17.6332 50.5115 17.8353C50.6482 17.9007 50.7314 17.9928 50.7612 18.1118C50.7968 18.2307 50.7909 18.3466 50.7433 18.4596C50.6958 18.5725 50.6185 18.6587 50.5115 18.7182C50.4044 18.7717 50.2766 18.7657 50.128 18.7003C49.9318 18.6112 49.7534 18.5487 49.5929 18.5131C49.4324 18.4714 49.2808 18.4506 49.1381 18.4506C48.8705 18.4506 48.6773 18.4952 48.5584 18.5844C48.4395 18.6676 48.3801 18.7747 48.3801 18.9055C48.3801 19.1135 48.5198 19.2443 48.7992 19.2978L49.7356 19.4673C50.122 19.5327 50.4163 19.6635 50.6185 19.8597C50.8206 20.0499 50.9217 20.3115 50.9217 20.6445C50.9217 21.1023 50.7433 21.459 50.3866 21.7146C50.0299 21.9703 49.5602 22.0981 48.9776 22.0981ZM53.3045 22.0981C52.7456 22.0981 52.3324 21.9435 52.0649 21.6344C51.8033 21.3252 51.6725 20.8615 51.6725 20.2432V18.2277C51.6725 17.7758 51.8954 17.5499 52.3413 17.5499C52.7932 17.5499 53.0191 17.7758 53.0191 18.2277V20.2788C53.0191 20.7961 53.242 21.0547 53.6879 21.0547C53.9436 21.0547 54.1517 20.9655 54.3122 20.7872C54.4787 20.6028 54.5619 20.3621 54.5619 20.0648V18.2277C54.5619 17.7758 54.7848 17.5499 55.2307 17.5499C55.6826 17.5499 55.9085 17.7758 55.9085 18.2277V21.3936C55.9085 21.8514 55.6915 22.0803 55.2575 22.0803C55.0435 22.0803 54.88 22.0208 54.767 21.9019C54.654 21.783 54.5976 21.6165 54.5976 21.4025C54.3062 21.8662 53.8752 22.0981 53.3045 22.0981ZM57.6461 22.0803C57.1824 22.0803 56.9505 21.8514 56.9505 21.3936V18.2277C56.9505 17.7758 57.1705 17.5499 57.6105 17.5499C58.0504 17.5499 58.2704 17.7758 58.2704 18.2277V18.3882C58.4844 17.8591 58.9273 17.5737 59.5992 17.5321C59.7478 17.5202 59.8608 17.5588 59.9381 17.648C60.0213 17.7313 60.0659 17.871 60.0718 18.0672C60.0837 18.2515 60.0451 18.3971 59.9559 18.5041C59.8727 18.6112 59.73 18.6766 59.5278 18.7003L59.3227 18.7182C58.6568 18.7836 58.3239 19.1225 58.3239 19.7348V21.3936C58.3239 21.8514 58.098 22.0803 57.6461 22.0803ZM62.8214 22.0981C62.3042 22.0981 61.8583 22.0059 61.4837 21.8216C61.1151 21.6314 60.8297 21.3668 60.6276 21.0279C60.4314 20.6831 60.3333 20.2788 60.3333 19.8151C60.3333 19.3632 60.4284 18.9679 60.6187 18.629C60.8149 18.2842 61.0794 18.0166 61.4124 17.8264C61.7513 17.6302 62.1407 17.5321 62.5806 17.5321C63.2168 17.5321 63.7221 17.7342 64.0967 18.1385C64.4713 18.5368 64.6585 19.0779 64.6585 19.7616C64.6585 19.9875 64.5188 20.1005 64.2394 20.1005H61.6175C61.6651 20.4453 61.7899 20.698 61.992 20.8585C62.2001 21.0131 62.4855 21.0904 62.8482 21.0904C62.9909 21.0904 63.1514 21.0755 63.3297 21.0458C63.5141 21.0101 63.6894 20.9506 63.8559 20.8674C64.0283 20.7842 64.174 20.7693 64.2929 20.8228C64.4118 20.8704 64.4921 20.9536 64.5337 21.0725C64.5812 21.1914 64.5812 21.3163 64.5337 21.4471C64.4921 21.5719 64.394 21.676 64.2394 21.7592C64.0313 21.8722 63.7994 21.9554 63.5438 22.0089C63.2941 22.0684 63.0533 22.0981 62.8214 22.0981ZM62.6341 18.4239C62.3488 18.4239 62.1169 18.5101 61.9385 18.6825C61.7661 18.8549 61.6591 19.0957 61.6175 19.4049H63.5438C63.5081 18.7509 63.2049 18.4239 62.6341 18.4239Z" fill="#F5F5F5"/>
</g>
<defs>
<filter id="filter0_d_341_53" x="0.430657" y="0" width="93.1387" height="44.1039" filterUnits="userSpaceOnUse" color-interpolation-filters="sRGB">
<feFlood flood-opacity="0" result="BackgroundImageFix"/>
<feColorMatrix in="SourceAlpha" type="matrix" values="0 0 0 0 0 0 0 0 0 0 0 0 0 0 0 0 0 0 127 0" result="hardAlpha"/>
<feOffset dy="2.56934"/>
<feGaussianBlur stdDeviation="1.28467"/>
<feComposite in2="hardAlpha" operator="out"/>
<feColorMatrix type="matrix" values="0 0 0 0 0 0 0 0 0 0 0 0 0 0 0 0 0 0 0.25 0"/>
<feBlend mode="normal" in2="BackgroundImageFix" result="effect1_dropShadow_341_53"/>
<feBlend mode="normal" in="SourceGraphic" in2="effect1_dropShadow_341_53" result="shape"/>
</filter>
</defs>
</svg>
