<svg width="444" height="135" viewBox="0 0 444 135" fill="none" xmlns="http://www.w3.org/2000/svg">
<g filter="url(#filter0_d_291_700)">
<rect x="7" y="3" width="430" height="121" rx="33" stroke="#9575DE" stroke-width="6"/>
<rect x="7" y="3" width="430" height="121" rx="33" fill="#151515" stroke="#9575DE" stroke-width="6"/>
<path d="M42.4932 34.3066C42.4932 35.1803 42.3571 35.986 42.085 36.7236C41.8128 37.4613 41.4189 38.0951 40.9033 38.625C40.3877 39.1549 39.7718 39.5632 39.0557 39.8496C38.3395 40.1289 37.5339 40.2686 36.6387 40.2686C35.7507 40.2686 34.9521 40.1253 34.2432 39.8389C33.5342 39.5524 32.9183 39.1442 32.3955 38.6143C31.8799 38.0771 31.486 37.4469 31.2139 36.7236C30.9489 35.9932 30.8164 35.1875 30.8164 34.3066C30.8164 33.4186 30.9525 32.6058 31.2246 31.8682C31.4967 31.1305 31.887 30.5003 32.3955 29.9775C32.904 29.4548 33.5199 29.0537 34.2432 28.7744C34.9665 28.488 35.765 28.3447 36.6387 28.3447C37.5267 28.3447 38.3324 28.488 39.0557 28.7744C39.779 29.0609 40.3984 29.4691 40.9141 29.999C41.4297 30.529 41.82 31.1592 42.085 31.8896C42.3571 32.6201 42.4932 33.4258 42.4932 34.3066ZM39.5498 34.3066C39.5498 33.1107 39.2848 32.1797 38.7549 31.5137C38.2321 30.8477 37.5267 30.5146 36.6387 30.5146C36.0658 30.5146 35.5609 30.665 35.124 30.9658C34.6872 31.2594 34.3506 31.6963 34.1143 32.2764C33.8779 32.8564 33.7598 33.5332 33.7598 34.3066C33.7598 35.0729 33.8743 35.7425 34.1035 36.3154C34.3398 36.8883 34.6729 37.3288 35.1025 37.6367C35.5394 37.9375 36.0514 38.0879 36.6387 38.0879C37.5267 38.0879 38.2321 37.7549 38.7549 37.0889C39.2848 36.4157 39.5498 35.4883 39.5498 34.3066ZM47.5205 25.6592V30.1387C48.0719 29.5658 48.6341 29.1289 49.207 28.8281C49.7799 28.5202 50.4889 28.3662 51.334 28.3662C52.3079 28.3662 53.1602 28.599 53.8906 29.0645C54.6283 29.5228 55.1976 30.1924 55.5986 31.0732C56.0068 31.9469 56.2109 32.9854 56.2109 34.1885C56.2109 35.0765 56.0964 35.8929 55.8672 36.6377C55.6452 37.3753 55.3193 38.0163 54.8896 38.5605C54.46 39.1048 53.9372 39.5273 53.3213 39.8281C52.7126 40.1217 52.0394 40.2686 51.3018 40.2686C50.8506 40.2686 50.4245 40.2148 50.0234 40.1074C49.6296 40 49.293 39.8604 49.0137 39.6885C48.7344 39.5094 48.4945 39.3268 48.2939 39.1406C48.1006 38.9544 47.8428 38.6751 47.5205 38.3027V38.5928C47.5205 39.1442 47.388 39.5632 47.123 39.8496C46.8581 40.1289 46.5215 40.2686 46.1133 40.2686C45.6979 40.2686 45.3649 40.1289 45.1143 39.8496C44.8708 39.5632 44.749 39.1442 44.749 38.5928V25.7881C44.749 25.1937 44.8672 24.7461 45.1035 24.4453C45.347 24.1374 45.6836 23.9834 46.1133 23.9834C46.5645 23.9834 46.9118 24.1302 47.1553 24.4238C47.3988 24.7103 47.5205 25.1221 47.5205 25.6592ZM47.6602 34.3711C47.6602 35.5384 47.9251 36.4372 48.4551 37.0674C48.9922 37.6904 49.694 38.002 50.5605 38.002C51.2982 38.002 51.932 37.6833 52.4619 37.0459C52.999 36.4014 53.2676 35.4811 53.2676 34.2852C53.2676 33.5117 53.1566 32.8457 52.9346 32.2871C52.7126 31.7285 52.3975 31.2988 51.9893 30.998C51.5811 30.6901 51.1048 30.5361 50.5605 30.5361C50.002 30.5361 49.5042 30.6901 49.0674 30.998C48.6305 31.2988 48.2868 31.7393 48.0361 32.3193C47.7855 32.8923 47.6602 33.5762 47.6602 34.3711ZM61.5176 30.0957V40.043C61.5176 40.752 61.4925 41.3285 61.4424 41.7725C61.3994 42.2236 61.335 42.5495 61.249 42.75C60.762 43.9961 59.7272 44.6191 58.1445 44.6191C57.2565 44.6191 56.5833 44.4974 56.125 44.2539C55.6667 44.0104 55.4375 43.6559 55.4375 43.1904C55.4375 42.8467 55.5413 42.5638 55.749 42.3418C55.9567 42.127 56.2288 42.0195 56.5654 42.0195C56.6084 42.0195 56.68 42.0231 56.7803 42.0303C56.8734 42.0446 57.013 42.0589 57.1992 42.0732C57.3926 42.0876 57.5251 42.0947 57.5967 42.0947C57.9906 42.0947 58.252 41.9408 58.3809 41.6328C58.5169 41.3249 58.585 40.7734 58.585 39.9785V30.0957C58.585 29.5156 58.721 29.0788 58.9932 28.7852C59.2653 28.4915 59.6234 28.3447 60.0674 28.3447C60.4971 28.3447 60.8444 28.4915 61.1094 28.7852C61.3815 29.0716 61.5176 29.5085 61.5176 30.0957ZM60.0674 26.9805C59.6592 26.9805 59.3083 26.8551 59.0146 26.6045C58.7282 26.3538 58.585 25.9994 58.585 25.541C58.585 25.1257 58.7318 24.7855 59.0254 24.5205C59.3262 24.2484 59.6735 24.1123 60.0674 24.1123C60.4469 24.1123 60.7835 24.2341 61.0771 24.4775C61.3708 24.721 61.5176 25.0755 61.5176 25.541C61.5176 25.9922 61.3743 26.3467 61.0879 26.6045C60.8014 26.8551 60.4613 26.9805 60.0674 26.9805ZM72.7217 35.0264H66.9853C66.9925 35.6924 67.125 36.2796 67.3828 36.7881C67.6478 37.2965 67.9951 37.6797 68.4248 37.9375C68.8616 38.1953 69.3415 38.3242 69.8643 38.3242C70.2152 38.3242 70.5338 38.2848 70.8203 38.2061C71.1139 38.1201 71.3968 37.9912 71.6689 37.8193C71.9411 37.6403 72.1917 37.4505 72.4209 37.25C72.6501 37.0495 72.9473 36.7773 73.3125 36.4336C73.4629 36.3047 73.6777 36.2402 73.957 36.2402C74.2578 36.2402 74.5013 36.3226 74.6875 36.4873C74.8737 36.652 74.9668 36.8848 74.9668 37.1855C74.9668 37.4505 74.863 37.762 74.6553 38.1201C74.4476 38.471 74.1325 38.8112 73.71 39.1406C73.2946 39.4629 72.7682 39.7314 72.1309 39.9463C71.5006 40.1611 70.7738 40.2686 69.9502 40.2686C68.0667 40.2686 66.6022 39.7314 65.5566 38.6572C64.5111 37.583 63.9883 36.1257 63.9883 34.2852C63.9883 33.4186 64.1172 32.6165 64.375 31.8789C64.6328 31.1341 65.0088 30.4967 65.5029 29.9668C65.9971 29.4368 66.6058 29.0322 67.3291 28.7529C68.0524 28.4665 68.8545 28.3232 69.7353 28.3232C70.8812 28.3232 71.8623 28.5667 72.6787 29.0537C73.5023 29.5335 74.1182 30.1566 74.5264 30.9229C74.9346 31.6891 75.1387 32.4697 75.1387 33.2646C75.1387 34.0023 74.9274 34.4821 74.5049 34.7041C74.0824 34.9189 73.488 35.0264 72.7217 35.0264ZM66.9853 33.3613H72.3027C72.2311 32.3587 71.959 31.6104 71.4863 31.1162C71.0208 30.6149 70.4049 30.3643 69.6387 30.3643C68.9082 30.3643 68.3066 30.6185 67.834 31.127C67.3685 31.6283 67.0856 32.373 66.9853 33.3613ZM88.1367 36.6377C88.1367 37.0029 88.0257 37.3932 87.8037 37.8086C87.5889 38.224 87.2559 38.6214 86.8047 39.001C86.3607 39.3734 85.7985 39.6742 85.1182 39.9033C84.4378 40.1325 83.6715 40.2471 82.8193 40.2471C81.0075 40.2471 79.5931 39.7207 78.5762 38.668C77.5592 37.6081 77.0508 36.1901 77.0508 34.4141C77.0508 33.2109 77.2835 32.1475 77.749 31.2236C78.2145 30.2998 78.8877 29.5872 79.7686 29.0859C80.6494 28.5775 81.7021 28.3232 82.9268 28.3232C83.6859 28.3232 84.3805 28.4342 85.0107 28.6563C85.6481 28.8783 86.1852 29.1647 86.6221 29.5156C87.0661 29.8665 87.4027 30.2425 87.6318 30.6436C87.8682 31.0374 87.9863 31.4063 87.9863 31.75C87.9863 32.1009 87.8538 32.3981 87.5889 32.6416C87.331 32.8851 87.0159 33.0068 86.6435 33.0068C86.4001 33.0068 86.196 32.946 86.0312 32.8242C85.8737 32.6953 85.6947 32.4912 85.4941 32.2119C85.1361 31.6676 84.7601 31.2594 84.3662 30.9873C83.9795 30.7152 83.4853 30.5791 82.8838 30.5791C82.0172 30.5791 81.319 30.9193 80.7891 31.5996C80.2591 32.2728 79.9941 33.1966 79.9941 34.3711C79.9941 34.9225 80.0622 35.431 80.1982 35.8965C80.3343 36.3548 80.5312 36.7487 80.7891 37.0781C81.0469 37.4004 81.3584 37.6475 81.7236 37.8193C82.0889 37.984 82.4899 38.0664 82.9268 38.0664C83.514 38.0664 84.0153 37.9303 84.4307 37.6582C84.8532 37.3861 85.2256 36.9707 85.5478 36.4121C85.7269 36.0827 85.9202 35.8249 86.1279 35.6387C86.3356 35.4525 86.5898 35.3594 86.8906 35.3594C87.2487 35.3594 87.5459 35.4954 87.7822 35.7676C88.0185 36.0397 88.1367 36.3298 88.1367 36.6377ZM90.8652 28.6025H91.1875V26.8408C91.1875 26.3682 91.1982 25.9994 91.2197 25.7344C91.2484 25.4622 91.32 25.2295 91.4346 25.0361C91.5491 24.8356 91.7139 24.6745 91.9287 24.5527C92.1436 24.4238 92.3835 24.3594 92.6484 24.3594C93.0208 24.3594 93.3574 24.499 93.6582 24.7783C93.8587 24.9645 93.984 25.1937 94.0342 25.4658C94.0915 25.7308 94.1201 26.1104 94.1201 26.6045V28.6025H95.1943C95.6097 28.6025 95.9248 28.7028 96.1396 28.9033C96.3616 29.0967 96.4727 29.3473 96.4727 29.6553C96.4727 30.0492 96.3151 30.3249 96 30.4824C95.6921 30.64 95.248 30.7188 94.668 30.7188H94.1201V36.1113C94.1201 36.5697 94.1344 36.9242 94.1631 37.1748C94.1989 37.4183 94.2848 37.6188 94.4209 37.7764C94.5641 37.9268 94.7933 38.002 95.1084 38.002C95.2803 38.002 95.513 37.9733 95.8066 37.916C96.1003 37.8516 96.3294 37.8193 96.4941 37.8193C96.7305 37.8193 96.9417 37.916 97.1279 38.1094C97.3213 38.2956 97.418 38.5283 97.418 38.8076C97.418 39.2803 97.1602 39.6419 96.6445 39.8926C96.1289 40.1432 95.3877 40.2686 94.4209 40.2686C93.5042 40.2686 92.8096 40.1146 92.3369 39.8066C91.8643 39.4987 91.5527 39.0726 91.4023 38.5283C91.2591 37.984 91.1875 37.2572 91.1875 36.3477V30.7188H90.8008C90.3783 30.7188 90.056 30.6185 89.834 30.418C89.612 30.2174 89.501 29.9632 89.501 29.6553C89.501 29.3473 89.6156 29.0967 89.8447 28.9033C90.0811 28.7028 90.4212 28.6025 90.8652 28.6025ZM101.436 30.0098V38.4854C101.436 39.0726 101.296 39.5166 101.017 39.8174C100.737 40.1182 100.383 40.2686 99.9531 40.2686C99.5234 40.2686 99.1725 40.1146 98.9004 39.8066C98.6354 39.4987 98.5029 39.0583 98.5029 38.4854V30.0957C98.5029 29.5156 98.6354 29.0788 98.9004 28.7852C99.1725 28.4915 99.5234 28.3447 99.9531 28.3447C100.383 28.3447 100.737 28.4915 101.017 28.7852C101.296 29.0788 101.436 29.487 101.436 30.0098ZM99.9853 26.9805C99.5771 26.9805 99.2262 26.8551 98.9326 26.6045C98.6462 26.3538 98.5029 25.9994 98.5029 25.541C98.5029 25.1257 98.6497 24.7855 98.9434 24.5205C99.2441 24.2484 99.5915 24.1123 99.9853 24.1123C100.365 24.1123 100.701 24.2341 100.995 24.4775C101.289 24.721 101.436 25.0755 101.436 25.541C101.436 25.9922 101.292 26.3467 101.006 26.6045C100.719 26.8551 100.379 26.9805 99.9853 26.9805ZM106.549 30.1709L108.923 36.8311L111.479 29.8809C111.68 29.3223 111.877 28.9284 112.07 28.6992C112.264 28.4629 112.557 28.3447 112.951 28.3447C113.324 28.3447 113.639 28.4701 113.896 28.7207C114.161 28.9714 114.294 29.2614 114.294 29.5908C114.294 29.7197 114.269 29.8701 114.219 30.042C114.176 30.2139 114.122 30.375 114.058 30.5254C114 30.6758 113.932 30.8477 113.854 31.041L111.039 38.0234C110.96 38.224 110.856 38.4782 110.728 38.7861C110.606 39.0941 110.466 39.359 110.309 39.5811C110.158 39.7959 109.968 39.9642 109.739 40.0859C109.517 40.2077 109.245 40.2686 108.923 40.2686C108.507 40.2686 108.174 40.1755 107.924 39.9893C107.68 39.7959 107.498 39.5882 107.376 39.3662C107.261 39.137 107.064 38.6895 106.785 38.0234L103.992 31.1162C103.928 30.9443 103.86 30.7725 103.788 30.6006C103.724 30.4287 103.666 30.2533 103.616 30.0742C103.573 29.8952 103.552 29.7412 103.552 29.6123C103.552 29.4118 103.613 29.2148 103.734 29.0215C103.856 28.821 104.024 28.6598 104.239 28.5381C104.454 28.4092 104.687 28.3447 104.937 28.3447C105.424 28.3447 105.757 28.4844 105.937 28.7637C106.123 29.043 106.327 29.512 106.549 30.1709ZM124.284 35.0264H118.548C118.555 35.6924 118.687 36.2796 118.945 36.7881C119.21 37.2965 119.558 37.6797 119.987 37.9375C120.424 38.1953 120.904 38.3242 121.427 38.3242C121.778 38.3242 122.096 38.2848 122.383 38.2061C122.676 38.1201 122.959 37.9912 123.231 37.8193C123.504 37.6403 123.754 37.4505 123.983 37.25C124.213 37.0495 124.51 36.7773 124.875 36.4336C125.025 36.3047 125.24 36.2402 125.52 36.2402C125.82 36.2402 126.064 36.3226 126.25 36.4873C126.436 36.652 126.529 36.8848 126.529 37.1855C126.529 37.4505 126.425 37.762 126.218 38.1201C126.01 38.471 125.695 38.8112 125.272 39.1406C124.857 39.4629 124.331 39.7314 123.693 39.9463C123.063 40.1611 122.336 40.2686 121.513 40.2686C119.629 40.2686 118.165 39.7314 117.119 38.6572C116.074 37.583 115.551 36.1257 115.551 34.2852C115.551 33.4186 115.68 32.6165 115.937 31.8789C116.195 31.1341 116.571 30.4967 117.065 29.9668C117.56 29.4368 118.168 29.0322 118.892 28.7529C119.615 28.4665 120.417 28.3232 121.298 28.3232C122.444 28.3232 123.425 28.5667 124.241 29.0537C125.065 29.5335 125.681 30.1566 126.089 30.9229C126.497 31.6891 126.701 32.4697 126.701 33.2646C126.701 34.0023 126.49 34.4821 126.067 34.7041C125.645 34.9189 125.05 35.0264 124.284 35.0264ZM118.548 33.3613H123.865C123.794 32.3587 123.521 31.6104 123.049 31.1162C122.583 30.6149 121.967 30.3643 121.201 30.3643C120.471 30.3643 119.869 30.6185 119.396 31.127C118.931 31.6283 118.648 32.373 118.548 33.3613ZM138.625 36.4336C138.625 37.2428 138.428 37.9375 138.034 38.5176C137.64 39.0905 137.057 39.5273 136.283 39.8281C135.517 40.1217 134.582 40.2686 133.479 40.2686C132.427 40.2686 131.524 40.1074 130.772 39.7852C130.02 39.4629 129.465 39.0618 129.107 38.582C128.749 38.0951 128.57 37.6081 128.57 37.1211C128.57 36.7988 128.685 36.5231 128.914 36.2939C129.143 36.0648 129.433 35.9502 129.784 35.9502C130.092 35.9502 130.328 36.0254 130.493 36.1758C130.658 36.3262 130.815 36.5374 130.966 36.8096C131.267 37.3324 131.625 37.7227 132.04 37.9805C132.463 38.2383 133.035 38.3672 133.759 38.3672C134.346 38.3672 134.826 38.2383 135.198 37.9805C135.578 37.7155 135.768 37.4147 135.768 37.0781C135.768 36.5625 135.571 36.1865 135.177 35.9502C134.79 35.7139 134.149 35.4883 133.254 35.2734C132.244 35.0228 131.421 34.7614 130.783 34.4893C130.153 34.21 129.648 33.8447 129.269 33.3936C128.889 32.9424 128.699 32.3874 128.699 31.7285C128.699 31.1413 128.875 30.5863 129.226 30.0635C129.576 29.5407 130.092 29.1253 130.772 28.8174C131.46 28.5023 132.287 28.3447 133.254 28.3447C134.013 28.3447 134.693 28.4235 135.295 28.5811C135.904 28.7386 136.409 28.9499 136.81 29.2148C137.218 29.4798 137.526 29.7734 137.733 30.0957C137.948 30.418 138.056 30.7331 138.056 31.041C138.056 31.3776 137.941 31.6533 137.712 31.8682C137.49 32.083 137.171 32.1904 136.756 32.1904C136.455 32.1904 136.197 32.1045 135.982 31.9326C135.775 31.7607 135.535 31.5029 135.263 31.1592C135.041 30.8727 134.779 30.6436 134.479 30.4717C134.178 30.2998 133.77 30.2139 133.254 30.2139C132.724 30.2139 132.284 30.3285 131.933 30.5576C131.582 30.7796 131.406 31.0589 131.406 31.3955C131.406 31.7035 131.535 31.9577 131.793 32.1582C132.051 32.3516 132.398 32.5127 132.835 32.6416C133.272 32.7705 133.873 32.9281 134.64 33.1143C135.549 33.3363 136.29 33.6012 136.863 33.9092C137.443 34.2171 137.88 34.5824 138.174 35.0049C138.475 35.4202 138.625 35.8965 138.625 36.4336ZM143.051 40.2686C142.607 40.2686 142.224 40.1253 141.901 39.8389C141.579 39.5524 141.418 39.1514 141.418 38.6357C141.418 38.1989 141.572 37.8229 141.88 37.5078C142.188 37.1927 142.567 37.0352 143.019 37.0352C143.47 37.0352 143.853 37.1927 144.168 37.5078C144.49 37.8158 144.651 38.1917 144.651 38.6357C144.651 39.1442 144.49 39.5452 144.168 39.8389C143.853 40.1253 143.48 40.2686 143.051 40.2686ZM141.418 29.9453C141.418 29.4368 141.576 29.043 141.891 28.7637C142.213 28.4844 142.6 28.3447 143.051 28.3447C143.488 28.3447 143.864 28.488 144.179 28.7744C144.494 29.0537 144.651 29.444 144.651 29.9453C144.651 30.3464 144.479 30.7152 144.136 31.0518C143.792 31.3883 143.42 31.5566 143.019 31.5566C142.582 31.5566 142.206 31.3955 141.891 31.0732C141.576 30.751 141.418 30.375 141.418 29.9453Z" fill="#9575DE"/>
<path d="M32.0317 63.0181V56.059C32.0317 55.4667 32.1633 55.0225 32.4266 54.7264C32.6964 54.4303 33.0485 54.2822 33.4828 54.2822C33.9369 54.2822 34.2955 54.4303 34.5587 54.7264C34.8285 55.0225 34.9634 55.4667 34.9634 56.059V63.1761C34.9634 63.9855 35.0523 64.6633 35.23 65.2095C35.4142 65.7491 35.7367 66.1703 36.1973 66.473C36.658 66.7691 37.3029 66.9172 38.1321 66.9172C39.2771 66.9172 40.0865 66.6145 40.5603 66.0091C41.0342 65.3971 41.2711 64.4725 41.2711 63.2353V56.059C41.2711 55.4602 41.4027 55.016 41.6659 54.7264C41.9291 54.4303 42.2812 54.2822 42.7221 54.2822C43.163 54.2822 43.5184 54.4303 43.7882 54.7264C44.0646 55.016 44.2028 55.4602 44.2028 56.059V63.0181C44.2028 64.15 44.0909 65.0943 43.8672 65.8511C43.65 66.6079 43.2354 67.2726 42.6234 67.8451C42.0969 68.3321 41.4849 68.6874 40.7874 68.9112C40.0898 69.1349 39.2738 69.2468 38.3394 69.2468C37.2272 69.2468 36.2697 69.1283 35.4669 68.8914C34.664 68.6479 34.0092 68.2761 33.5025 67.776C32.9958 67.2693 32.624 66.6244 32.3871 65.8413C32.1502 65.0516 32.0317 64.1105 32.0317 63.0181ZM53.8962 68.0129L51.5173 64.1039L50.0563 65.4859V67.6279C50.0563 68.1478 49.9181 68.5492 49.6417 68.8322C49.3719 69.1086 49.0594 69.2468 48.704 69.2468C48.2894 69.2468 47.9637 69.1086 47.7268 68.8322C47.4898 68.5558 47.3714 68.1478 47.3714 67.6082V56.1182C47.3714 55.5194 47.4866 55.0653 47.7169 54.756C47.9472 54.4402 48.2762 54.2822 48.704 54.2822C49.1186 54.2822 49.4476 54.4237 49.6911 54.7067C49.9346 54.9896 50.0563 55.4075 50.0563 55.9603V62.495L53.0868 59.3165C53.4619 58.9216 53.7481 58.6518 53.9455 58.507C54.143 58.3623 54.3832 58.2899 54.6661 58.2899C55.0017 58.2899 55.2814 58.3985 55.5052 58.6156C55.7289 58.8262 55.8408 59.0927 55.8408 59.4152C55.8408 59.81 55.4756 60.3365 54.7451 60.9946L53.3138 62.3074L56.0777 66.6507C56.2817 66.9731 56.4265 67.2199 56.512 67.391C56.6041 67.5555 56.6502 67.7135 56.6502 67.8648C56.6502 68.2926 56.5318 68.6315 56.2949 68.8815C56.0645 69.125 55.7585 69.2468 55.3768 69.2468C55.0478 69.2468 54.7945 69.1579 54.6168 68.9803C54.4391 68.8026 54.1989 68.4801 53.8962 68.0129ZM65.2578 67.7266V67.3811C64.9353 67.7891 64.5964 68.1313 64.2411 68.4077C63.8857 68.6841 63.4975 68.8881 63.0763 69.0197C62.6551 69.1579 62.1747 69.227 61.6351 69.227C60.9836 69.227 60.3979 69.0921 59.8781 68.8223C59.3648 68.5525 58.9666 68.1807 58.6837 67.7069C58.348 67.1344 58.1802 66.3118 58.1802 65.2391V59.8989C58.1802 59.3592 58.302 58.9578 58.5455 58.6946C58.7889 58.4248 59.1114 58.2899 59.5128 58.2899C59.9208 58.2899 60.2499 58.4248 60.4999 58.6946C60.75 58.9644 60.875 59.3658 60.875 59.8989V64.2125C60.875 64.8377 60.9277 65.3642 61.033 65.7919C61.1383 66.2131 61.3258 66.5454 61.5956 66.7889C61.872 67.0258 62.2438 67.1442 62.7111 67.1442C63.1651 67.1442 63.5929 67.0093 63.9943 66.7395C64.3957 66.4697 64.6886 66.1176 64.8728 65.6833C65.0242 65.3016 65.0999 64.4659 65.0999 63.1761V59.8989C65.0999 59.3658 65.2249 58.9644 65.475 58.6946C65.725 58.4248 66.0508 58.2899 66.4522 58.2899C66.8536 58.2899 67.1761 58.4248 67.4196 58.6946C67.6631 58.9578 67.7848 59.3592 67.7848 59.8989V67.7069C67.7848 68.2202 67.6663 68.6052 67.4294 68.8618C67.1991 69.1185 66.8997 69.2468 66.5312 69.2468C66.1626 69.2468 65.8566 69.1152 65.6132 68.8519C65.3763 68.5821 65.2578 68.207 65.2578 67.7266ZM73.1547 65.3576V67.6082C73.1547 68.1544 73.0263 68.5657 72.7697 68.8421C72.513 69.1119 72.1873 69.2468 71.7925 69.2468C71.4042 69.2468 71.085 69.1086 70.835 68.8322C70.5849 68.5558 70.4599 68.1478 70.4599 67.6082V60.1062C70.4599 58.8953 70.8975 58.2899 71.7727 58.2899C72.2202 58.2899 72.5427 58.4314 72.7401 58.7143C72.9375 58.9973 73.0461 59.4152 73.0658 59.968C73.3883 59.4152 73.7173 58.9973 74.0529 58.7143C74.3951 58.4314 74.8492 58.2899 75.4151 58.2899C75.9811 58.2899 76.5306 58.4314 77.0636 58.7143C77.5967 58.9973 77.8632 59.3724 77.8632 59.8396C77.8632 60.1687 77.748 60.4418 77.5177 60.6589C77.2939 60.8695 77.0505 60.9748 76.7872 60.9748C76.6885 60.9748 76.4483 60.9156 76.0666 60.7971C75.6915 60.6721 75.3592 60.6096 75.0697 60.6096C74.6748 60.6096 74.3524 60.7149 74.1023 60.9255C73.8522 61.1295 73.6581 61.4355 73.5199 61.8435C73.3817 62.2515 73.2863 62.7384 73.2336 63.3044C73.181 63.8637 73.1547 64.5481 73.1547 65.3576ZM91.2089 67.7266C90.5574 68.2333 89.9256 68.615 89.3136 68.8717C88.7082 69.1217 88.0271 69.2468 87.2703 69.2468C86.5793 69.2468 85.9706 69.1119 85.4442 68.8421C84.9243 68.5657 84.5229 68.1939 84.2399 67.7266C83.9569 67.2594 83.8154 66.7527 83.8154 66.2065C83.8154 65.4694 84.0491 64.841 84.5163 64.3211C84.9835 63.8012 85.6251 63.4525 86.4411 63.2748C86.6122 63.2353 87.0367 63.1464 87.7145 63.0083C88.3923 62.8701 88.9714 62.745 89.4518 62.6332C89.9388 62.5147 90.4653 62.3732 91.0312 62.2087C90.9983 61.498 90.8535 60.9781 90.5969 60.6491C90.3468 60.3134 89.8236 60.1456 89.0274 60.1456C88.343 60.1456 87.8264 60.2411 87.4776 60.4319C87.1354 60.6227 86.8393 60.909 86.5892 61.2907C86.3457 61.6724 86.1713 61.9257 86.066 62.0508C85.9673 62.1692 85.7502 62.2284 85.4146 62.2284C85.1118 62.2284 84.8486 62.133 84.6249 61.9422C84.4077 61.7448 84.2991 61.4947 84.2991 61.192C84.2991 60.7182 84.4669 60.2575 84.8025 59.81C85.1382 59.3625 85.6613 58.994 86.372 58.7045C87.0828 58.4149 87.9679 58.2701 89.0274 58.2701C90.2119 58.2701 91.1431 58.4116 91.8209 58.6946C92.4987 58.971 92.9758 59.4119 93.2522 60.0173C93.5352 60.6227 93.6766 61.4256 93.6766 62.4259C93.6766 63.0576 93.6734 63.5939 93.6668 64.0348C93.6668 64.4758 93.6635 64.966 93.6569 65.5056C93.6569 66.0124 93.7392 66.5421 93.9037 67.0949C94.0748 67.6411 94.1603 67.9931 94.1603 68.1511C94.1603 68.4275 94.0287 68.6808 93.7655 68.9112C93.5088 69.1349 93.216 69.2468 92.887 69.2468C92.6106 69.2468 92.3375 69.1185 92.0677 68.8618C91.7979 68.5986 91.5116 68.2202 91.2089 67.7266ZM91.0312 63.8276C90.6364 63.9723 90.0605 64.127 89.3038 64.2915C88.5536 64.4494 88.0337 64.5679 87.7441 64.6469C87.4546 64.7192 87.1782 64.8673 86.915 65.0911C86.6517 65.3082 86.5201 65.6142 86.5201 66.0091C86.5201 66.4171 86.6748 66.7658 86.9841 67.0554C87.2933 67.3384 87.6981 67.4799 88.1982 67.4799C88.7312 67.4799 89.2215 67.3647 89.669 67.1344C90.1231 66.8975 90.4554 66.5947 90.666 66.2262C90.9095 65.8182 91.0312 65.147 91.0312 64.2125V63.8276ZM99.0959 65.3576V67.6082C99.0959 68.1544 98.9675 68.5657 98.7109 68.8421C98.4542 69.1119 98.1285 69.2468 97.7337 69.2468C97.3454 69.2468 97.0262 69.1086 96.7762 68.8322C96.5261 68.5558 96.4011 68.1478 96.4011 67.6082V60.1062C96.4011 58.8953 96.8387 58.2899 97.7139 58.2899C98.1614 58.2899 98.4839 58.4314 98.6813 58.7143C98.8787 58.9973 98.9873 59.4152 99.007 59.968C99.3295 59.4152 99.6585 58.9973 99.9941 58.7143C100.336 58.4314 100.79 58.2899 101.356 58.2899C101.922 58.2899 102.472 58.4314 103.005 58.7143C103.538 58.9973 103.804 59.3724 103.804 59.8396C103.804 60.1687 103.689 60.4418 103.459 60.6589C103.235 60.8695 102.992 60.9748 102.728 60.9748C102.63 60.9748 102.39 60.9156 102.008 60.7971C101.633 60.6721 101.3 60.6096 101.011 60.6096C100.616 60.6096 100.294 60.7149 100.043 60.9255C99.7934 61.1295 99.5993 61.4355 99.4611 61.8435C99.3229 62.2515 99.2275 62.7384 99.1748 63.3044C99.1222 63.8637 99.0959 64.5481 99.0959 65.3576ZM111.77 67.7266V67.3811C111.448 67.7891 111.109 68.1313 110.754 68.4077C110.398 68.6841 110.01 68.8881 109.589 69.0197C109.168 69.1579 108.687 69.227 108.148 69.227C107.496 69.227 106.91 69.0921 106.391 68.8223C105.877 68.5525 105.479 68.1807 105.196 67.7069C104.861 67.1344 104.693 66.3118 104.693 65.2391V59.8989C104.693 59.3592 104.815 58.9578 105.058 58.6946C105.301 58.4248 105.624 58.2899 106.025 58.2899C106.433 58.2899 106.762 58.4248 107.012 58.6946C107.263 58.9644 107.388 59.3658 107.388 59.8989V64.2125C107.388 64.8377 107.44 65.3642 107.546 65.7919C107.651 66.2131 107.838 66.5454 108.108 66.7889C108.385 67.0258 108.756 67.1442 109.224 67.1442C109.678 67.1442 110.105 67.0093 110.507 66.7395C110.908 66.4697 111.201 66.1176 111.385 65.6833C111.537 65.3016 111.612 64.4659 111.612 63.1761V59.8989C111.612 59.3658 111.737 58.9644 111.988 58.6946C112.238 58.4248 112.563 58.2899 112.965 58.2899C113.366 58.2899 113.689 58.4248 113.932 58.6946C114.176 58.9578 114.297 59.3592 114.297 59.8989V67.7069C114.297 68.2202 114.179 68.6052 113.942 68.8618C113.712 69.1185 113.412 69.2468 113.044 69.2468C112.675 69.2468 112.369 69.1152 112.126 68.8519C111.889 68.5821 111.77 68.207 111.77 67.7266ZM125.669 65.7228C125.669 66.4664 125.488 67.1048 125.126 67.6378C124.764 68.1642 124.228 68.5657 123.517 68.8421C122.813 69.1119 121.954 69.2468 120.941 69.2468C119.973 69.2468 119.144 69.0987 118.453 68.8026C117.762 68.5064 117.252 68.1379 116.923 67.697C116.594 67.2495 116.429 66.802 116.429 66.3545C116.429 66.0584 116.535 65.8051 116.745 65.5945C116.956 65.3839 117.222 65.2786 117.545 65.2786C117.828 65.2786 118.045 65.3477 118.196 65.4859C118.348 65.6241 118.493 65.8182 118.631 66.0683C118.907 66.5487 119.236 66.9073 119.618 67.1442C120.006 67.3811 120.533 67.4996 121.197 67.4996C121.737 67.4996 122.178 67.3811 122.52 67.1442C122.869 66.9007 123.043 66.6244 123.043 66.3151C123.043 65.8413 122.862 65.4958 122.5 65.2786C122.145 65.0614 121.556 64.8541 120.733 64.6567C119.805 64.4264 119.049 64.1862 118.463 63.9361C117.884 63.6795 117.42 63.3439 117.071 62.9293C116.722 62.5147 116.548 62.0047 116.548 61.3993C116.548 60.8596 116.709 60.3496 117.032 59.8692C117.354 59.3889 117.828 59.0072 118.453 58.7242C119.085 58.4347 119.845 58.2899 120.733 58.2899C121.431 58.2899 122.056 58.3623 122.609 58.507C123.168 58.6518 123.632 58.8459 124.001 59.0894C124.376 59.3329 124.659 59.6027 124.85 59.8989C125.047 60.195 125.146 60.4845 125.146 60.7675C125.146 61.0768 125.04 61.3302 124.83 61.5276C124.626 61.725 124.333 61.8237 123.951 61.8237C123.675 61.8237 123.438 61.7448 123.241 61.5868C123.05 61.4289 122.829 61.192 122.579 60.8761C122.375 60.6129 122.135 60.4023 121.859 60.2443C121.582 60.0864 121.207 60.0074 120.733 60.0074C120.246 60.0074 119.842 60.1127 119.519 60.3233C119.197 60.5273 119.035 60.784 119.035 61.0933C119.035 61.3762 119.154 61.6098 119.391 61.7941C119.628 61.9718 119.947 62.1199 120.348 62.2383C120.75 62.3568 121.303 62.5015 122.007 62.6726C122.842 62.8766 123.524 63.1201 124.05 63.4031C124.583 63.6861 124.984 64.0217 125.254 64.4099C125.531 64.7916 125.669 65.2292 125.669 65.7228ZM133.003 67.6082V55.9208C133.003 55.3812 133.121 54.9732 133.358 54.6968C133.602 54.4204 133.928 54.2822 134.336 54.2822C134.744 54.2822 135.073 54.4204 135.323 54.6968C135.573 54.9666 135.698 55.3746 135.698 55.9208V67.6082C135.698 68.1544 135.57 68.5657 135.313 68.8421C135.063 69.1119 134.737 69.2468 134.336 69.2468C133.941 69.2468 133.618 69.1053 133.368 68.8223C133.125 68.5393 133.003 68.1346 133.003 67.6082ZM141.186 59.8199V67.6082C141.186 68.1478 141.058 68.5558 140.801 68.8322C140.545 69.1086 140.219 69.2468 139.824 69.2468C139.429 69.2468 139.107 69.1053 138.857 68.8223C138.613 68.5393 138.491 68.1346 138.491 67.6082V59.8989C138.491 59.3658 138.613 58.9644 138.857 58.6946C139.107 58.4248 139.429 58.2899 139.824 58.2899C140.219 58.2899 140.545 58.4248 140.801 58.6946C141.058 58.9644 141.186 59.3395 141.186 59.8199ZM139.854 57.0362C139.478 57.0362 139.156 56.9211 138.886 56.6908C138.623 56.4604 138.491 56.1347 138.491 55.7135C138.491 55.3318 138.626 55.0193 138.896 54.7758C139.172 54.5257 139.492 54.4007 139.854 54.4007C140.202 54.4007 140.512 54.5125 140.781 54.7363C141.051 54.96 141.186 55.2858 141.186 55.7135C141.186 56.1281 141.055 56.4539 140.791 56.6908C140.528 56.9211 140.216 57.0362 139.854 57.0362ZM152.656 65.7228C152.656 66.4664 152.475 67.1048 152.113 67.6378C151.752 68.1642 151.215 68.5657 150.504 68.8421C149.8 69.1119 148.942 69.2468 147.928 69.2468C146.961 69.2468 146.132 69.0987 145.441 68.8026C144.75 68.5064 144.24 68.1379 143.911 67.697C143.582 67.2495 143.417 66.802 143.417 66.3545C143.417 66.0584 143.522 65.8051 143.733 65.5945C143.943 65.3839 144.21 65.2786 144.532 65.2786C144.815 65.2786 145.033 65.3477 145.184 65.4859C145.335 65.6241 145.48 65.8182 145.618 66.0683C145.895 66.5487 146.224 66.9073 146.605 67.1442C146.994 67.3811 147.52 67.4996 148.185 67.4996C148.724 67.4996 149.165 67.3811 149.507 67.1442C149.856 66.9007 150.031 66.6244 150.031 66.3151C150.031 65.8413 149.85 65.4958 149.488 65.2786C149.132 65.0614 148.543 64.8541 147.721 64.6567C146.793 64.4264 146.036 64.1862 145.45 63.9361C144.871 63.6795 144.407 63.3439 144.059 62.9293C143.71 62.5147 143.535 62.0047 143.535 61.3993C143.535 60.8596 143.697 60.3496 144.019 59.8692C144.342 59.3889 144.815 59.0072 145.441 58.7242C146.072 58.4347 146.832 58.2899 147.721 58.2899C148.418 58.2899 149.044 58.3623 149.596 58.507C150.156 58.6518 150.62 58.8459 150.988 59.0894C151.363 59.3329 151.646 59.6027 151.837 59.8989C152.034 60.195 152.133 60.4845 152.133 60.7675C152.133 61.0768 152.028 61.3302 151.817 61.5276C151.613 61.725 151.32 61.8237 150.939 61.8237C150.662 61.8237 150.426 61.7448 150.228 61.5868C150.037 61.4289 149.817 61.192 149.567 60.8761C149.363 60.6129 149.123 60.4023 148.846 60.2443C148.57 60.0864 148.195 60.0074 147.721 60.0074C147.234 60.0074 146.829 60.1127 146.507 60.3233C146.184 60.5273 146.023 60.784 146.023 61.0933C146.023 61.3762 146.141 61.6098 146.378 61.7941C146.615 61.9718 146.934 62.1199 147.336 62.2383C147.737 62.3568 148.29 62.5015 148.994 62.6726C149.83 62.8766 150.511 63.1201 151.038 63.4031C151.571 63.6861 151.972 64.0217 152.242 64.4099C152.518 64.7916 152.656 65.2292 152.656 65.7228ZM155.085 58.5268H155.381V56.9079C155.381 56.4736 155.391 56.1347 155.41 55.8912C155.437 55.6411 155.503 55.4273 155.608 55.2496C155.713 55.0653 155.864 54.9173 156.062 54.8054C156.259 54.6869 156.48 54.6277 156.723 54.6277C157.065 54.6277 157.375 54.756 157.651 55.0127C157.835 55.1838 157.951 55.3944 157.997 55.6444C158.049 55.8879 158.076 56.2367 158.076 56.6908V58.5268H159.063C159.444 58.5268 159.734 58.6189 159.931 58.8032C160.135 58.9809 160.237 59.2112 160.237 59.4941C160.237 59.8561 160.093 60.1094 159.803 60.2542C159.52 60.399 159.112 60.4714 158.579 60.4714H158.076V65.4267C158.076 65.8478 158.089 66.1736 158.115 66.4039C158.148 66.6276 158.227 66.8119 158.352 66.9567C158.484 67.0949 158.694 67.164 158.984 67.164C159.142 67.164 159.356 67.1377 159.625 67.085C159.895 67.0258 160.106 66.9962 160.257 66.9962C160.474 66.9962 160.668 67.085 160.839 67.2627C161.017 67.4338 161.106 67.6477 161.106 67.9043C161.106 68.3386 160.869 68.671 160.395 68.9013C159.921 69.1316 159.24 69.2468 158.352 69.2468C157.51 69.2468 156.871 69.1053 156.437 68.8223C156.003 68.5393 155.716 68.1478 155.578 67.6477C155.447 67.1475 155.381 66.4796 155.381 65.6438V60.4714H155.025C154.637 60.4714 154.341 60.3793 154.137 60.195C153.933 60.0107 153.831 59.7771 153.831 59.4941C153.831 59.2112 153.936 58.9809 154.147 58.8032C154.364 58.6189 154.677 58.5268 155.085 58.5268ZM164.778 65.3576V67.6082C164.778 68.1544 164.65 68.5657 164.393 68.8421C164.136 69.1119 163.811 69.2468 163.416 69.2468C163.028 69.2468 162.708 69.1086 162.458 68.8322C162.208 68.5558 162.083 68.1478 162.083 67.6082V60.1062C162.083 58.8953 162.521 58.2899 163.396 58.2899C163.844 58.2899 164.166 58.4314 164.363 58.7143C164.561 58.9973 164.669 59.4152 164.689 59.968C165.012 59.4152 165.341 58.9973 165.676 58.7143C166.019 58.4314 166.473 58.2899 167.039 58.2899C167.604 58.2899 168.154 58.4314 168.687 58.7143C169.22 58.9973 169.487 59.3724 169.487 59.8396C169.487 60.1687 169.371 60.4418 169.141 60.6589C168.917 60.8695 168.674 60.9748 168.411 60.9748C168.312 60.9748 168.072 60.9156 167.69 60.7971C167.315 60.6721 166.983 60.6096 166.693 60.6096C166.298 60.6096 165.976 60.7149 165.726 60.9255C165.476 61.1295 165.281 61.4355 165.143 61.8435C165.005 62.2515 164.91 62.7384 164.857 63.3044C164.804 63.8637 164.778 64.5481 164.778 65.3576ZM173.662 59.8199V67.6082C173.662 68.1478 173.534 68.5558 173.277 68.8322C173.02 69.1086 172.695 69.2468 172.3 69.2468C171.905 69.2468 171.583 69.1053 171.332 68.8223C171.089 68.5393 170.967 68.1346 170.967 67.6082V59.8989C170.967 59.3658 171.089 58.9644 171.332 58.6946C171.583 58.4248 171.905 58.2899 172.3 58.2899C172.695 58.2899 173.02 58.4248 173.277 58.6946C173.534 58.9644 173.662 59.3395 173.662 59.8199ZM172.329 57.0362C171.954 57.0362 171.632 56.9211 171.362 56.6908C171.099 56.4604 170.967 56.1347 170.967 55.7135C170.967 55.3318 171.102 55.0193 171.372 54.7758C171.648 54.5257 171.968 54.4007 172.329 54.4007C172.678 54.4007 172.988 54.5125 173.257 54.7363C173.527 54.96 173.662 55.2858 173.662 55.7135C173.662 56.1281 173.53 56.4539 173.267 56.6908C173.004 56.9211 172.691 57.0362 172.329 57.0362ZM183.168 68.0129L180.789 64.1039L179.328 65.4859V67.6279C179.328 68.1478 179.19 68.5492 178.913 68.8322C178.644 69.1086 178.331 69.2468 177.976 69.2468C177.561 69.2468 177.235 69.1086 176.998 68.8322C176.762 68.5558 176.643 68.1478 176.643 67.6082V56.1182C176.643 55.5194 176.758 55.0653 176.989 54.756C177.219 54.4402 177.548 54.2822 177.976 54.2822C178.39 54.2822 178.719 54.4237 178.963 54.7067C179.206 54.9896 179.328 55.4075 179.328 55.9603V62.495L182.358 59.3165C182.734 58.9216 183.02 58.6518 183.217 58.507C183.415 58.3623 183.655 58.2899 183.938 58.2899C184.273 58.2899 184.553 58.3985 184.777 58.6156C185.001 58.8262 185.112 59.0927 185.112 59.4152C185.112 59.81 184.747 60.3365 184.017 60.9946L182.586 62.3074L185.349 66.6507C185.553 66.9731 185.698 67.2199 185.784 67.391C185.876 67.5555 185.922 67.7135 185.922 67.8648C185.922 68.2926 185.803 68.6315 185.567 68.8815C185.336 69.125 185.03 69.2468 184.649 69.2468C184.32 69.2468 184.066 69.1579 183.888 68.9803C183.711 68.8026 183.471 68.4801 183.168 68.0129ZM195.773 65.3576V67.6082C195.773 68.1544 195.645 68.5657 195.388 68.8421C195.132 69.1119 194.806 69.2468 194.411 69.2468C194.023 69.2468 193.704 69.1086 193.454 68.8322C193.203 68.5558 193.078 68.1478 193.078 67.6082V60.1062C193.078 58.8953 193.516 58.2899 194.391 58.2899C194.839 58.2899 195.161 58.4314 195.359 58.7143C195.556 58.9973 195.665 59.4152 195.684 59.968C196.007 59.4152 196.336 58.9973 196.672 58.7143C197.014 58.4314 197.468 58.2899 198.034 58.2899C198.6 58.2899 199.149 58.4314 199.682 58.7143C200.215 58.9973 200.482 59.3724 200.482 59.8396C200.482 60.1687 200.367 60.4418 200.136 60.6589C199.913 60.8695 199.669 60.9748 199.406 60.9748C199.307 60.9748 199.067 60.9156 198.685 60.7971C198.31 60.6721 197.978 60.6096 197.688 60.6096C197.293 60.6096 196.971 60.7149 196.721 60.9255C196.471 61.1295 196.277 61.4355 196.138 61.8435C196 62.2515 195.905 62.7384 195.852 63.3044C195.8 63.8637 195.773 64.5481 195.773 65.3576ZM208.26 67.7266C207.609 68.2333 206.977 68.615 206.365 68.8717C205.76 69.1217 205.078 69.2468 204.322 69.2468C203.631 69.2468 203.022 69.1119 202.495 68.8421C201.976 68.5657 201.574 68.1939 201.291 67.7266C201.008 67.2594 200.867 66.7527 200.867 66.2065C200.867 65.4694 201.1 64.841 201.568 64.3211C202.035 63.8012 202.676 63.4525 203.492 63.2748C203.664 63.2353 204.088 63.1464 204.766 63.0083C205.444 62.8701 206.023 62.745 206.503 62.6332C206.99 62.5147 207.517 62.3732 208.083 62.2087C208.05 61.498 207.905 60.9781 207.648 60.6491C207.398 60.3134 206.875 60.1456 206.079 60.1456C205.394 60.1456 204.878 60.2411 204.529 60.4319C204.187 60.6227 203.891 60.909 203.641 61.2907C203.397 61.6724 203.223 61.9257 203.117 62.0508C203.019 62.1692 202.801 62.2284 202.466 62.2284C202.163 62.2284 201.9 62.133 201.676 61.9422C201.459 61.7448 201.35 61.4947 201.35 61.192C201.35 60.7182 201.518 60.2575 201.854 59.81C202.189 59.3625 202.713 58.994 203.423 58.7045C204.134 58.4149 205.019 58.2701 206.079 58.2701C207.263 58.2701 208.194 58.4116 208.872 58.6946C209.55 58.971 210.027 59.4119 210.303 60.0173C210.586 60.6227 210.728 61.4256 210.728 62.4259C210.728 63.0576 210.725 63.5939 210.718 64.0348C210.718 64.4758 210.715 64.966 210.708 65.5056C210.708 66.0124 210.79 66.5421 210.955 67.0949C211.126 67.6411 211.212 67.9931 211.212 68.1511C211.212 68.4275 211.08 68.6808 210.817 68.9112C210.56 69.1349 210.267 69.2468 209.938 69.2468C209.662 69.2468 209.389 69.1185 209.119 68.8618C208.849 68.5986 208.563 68.2202 208.26 67.7266ZM208.083 63.8276C207.688 63.9723 207.112 64.127 206.355 64.2915C205.605 64.4494 205.085 64.5679 204.795 64.6469C204.506 64.7192 204.229 64.8673 203.966 65.0911C203.703 65.3082 203.571 65.6142 203.571 66.0091C203.571 66.4171 203.726 66.7658 204.035 67.0554C204.345 67.3384 204.749 67.4799 205.25 67.4799C205.783 67.4799 206.273 67.3647 206.72 67.1344C207.174 66.8975 207.507 66.5947 207.717 66.2262C207.961 65.8182 208.083 65.147 208.083 64.2125V63.8276ZM215.92 59.7804V60.1062C216.394 59.481 216.911 59.0236 217.47 58.7341C218.036 58.4379 218.684 58.2899 219.415 58.2899C220.125 58.2899 220.76 58.4445 221.32 58.7538C221.879 59.0631 222.297 59.5007 222.573 60.0667C222.751 60.3957 222.866 60.7511 222.919 61.1327C222.971 61.5144 222.998 62.0014 222.998 62.5937V67.6082C222.998 68.1478 222.873 68.5558 222.623 68.8322C222.379 69.1086 222.06 69.2468 221.665 69.2468C221.264 69.2468 220.938 69.1053 220.688 68.8223C220.438 68.5393 220.313 68.1346 220.313 67.6082V63.1168C220.313 62.2284 220.188 61.5506 219.938 61.0834C219.694 60.6096 219.204 60.3727 218.467 60.3727C217.986 60.3727 217.549 60.5174 217.154 60.807C216.759 61.09 216.47 61.4815 216.285 61.9817C216.154 62.3831 216.088 63.1333 216.088 64.2323V67.6082C216.088 68.1544 215.96 68.5657 215.703 68.8421C215.453 69.1119 215.127 69.2468 214.726 69.2468C214.337 69.2468 214.018 69.1053 213.768 68.8223C213.518 68.5393 213.393 68.1346 213.393 67.6082V59.8199C213.393 59.3066 213.505 58.9249 213.729 58.6748C213.953 58.4182 214.259 58.2899 214.647 58.2899C214.884 58.2899 215.098 58.3458 215.288 58.4577C215.479 58.5696 215.631 58.7374 215.742 58.9611C215.861 59.1849 215.92 59.458 215.92 59.7804ZM235.603 60.2641V68.0919C235.603 68.9868 235.508 69.7568 235.317 70.4017C235.126 71.0466 234.82 71.5796 234.399 72.0008C233.978 72.422 233.425 72.7346 232.74 72.9386C232.063 73.1426 231.217 73.2446 230.204 73.2446C229.276 73.2446 228.447 73.113 227.716 72.8497C226.986 72.5931 226.423 72.2575 226.028 71.8429C225.633 71.4349 225.436 71.0137 225.436 70.5794C225.436 70.2503 225.548 69.9805 225.771 69.7699C225.995 69.5659 226.265 69.4639 226.581 69.4639C226.976 69.4639 227.321 69.6383 227.617 69.9871C227.762 70.1648 227.91 70.3425 228.062 70.5201C228.22 70.7044 228.391 70.8591 228.575 70.9841C228.766 71.1157 228.993 71.2111 229.256 71.2703C229.519 71.3362 229.822 71.3691 230.164 71.3691C230.862 71.3691 231.401 71.2703 231.783 71.0729C232.171 70.8821 232.441 70.6123 232.592 70.2635C232.75 69.9147 232.842 69.5396 232.869 69.1382C232.895 68.7434 232.915 68.105 232.928 67.2232C232.513 67.8023 232.033 68.2432 231.487 68.5459C230.947 68.8486 230.302 69 229.552 69C228.651 69 227.861 68.7697 227.183 68.309C226.512 67.8484 225.995 67.2035 225.633 66.3743C225.271 65.5451 225.09 64.5876 225.09 63.5018C225.09 62.6924 225.199 61.9619 225.416 61.3104C225.64 60.6589 225.956 60.1094 226.364 59.662C226.772 59.2145 227.242 58.8788 227.775 58.6551C228.308 58.4248 228.894 58.3096 229.532 58.3096C230.296 58.3096 230.957 58.4577 231.516 58.7538C232.076 59.0434 232.596 59.5007 233.076 60.1259V59.7607C233.076 59.2934 233.191 58.9315 233.422 58.6748C233.652 58.4182 233.948 58.2899 234.31 58.2899C234.83 58.2899 235.175 58.461 235.346 58.8032C235.518 59.1388 235.603 59.6258 235.603 60.2641ZM227.795 63.6795C227.795 64.7719 228.032 65.5978 228.506 66.1571C228.986 66.7165 229.605 66.9962 230.362 66.9962C230.809 66.9962 231.23 66.8777 231.625 66.6408C232.026 66.3973 232.352 66.0354 232.602 65.555C232.852 65.068 232.977 64.479 232.977 63.7881C232.977 62.6891 232.734 61.8336 232.247 61.2216C231.767 60.6096 231.131 60.3036 230.342 60.3036C229.572 60.3036 228.953 60.5964 228.486 61.1821C228.025 61.7678 227.795 62.6002 227.795 63.6795ZM245.04 68.0129L242.661 64.1039L241.2 65.4859V67.6279C241.2 68.1478 241.062 68.5492 240.785 68.8322C240.516 69.1086 240.203 69.2468 239.848 69.2468C239.433 69.2468 239.107 69.1086 238.87 68.8322C238.634 68.5558 238.515 68.1478 238.515 67.6082V56.1182C238.515 55.5194 238.63 55.0653 238.861 54.756C239.091 54.4402 239.42 54.2822 239.848 54.2822C240.262 54.2822 240.591 54.4237 240.835 54.7067C241.078 54.9896 241.2 55.4075 241.2 55.9603V62.495L244.23 59.3165C244.606 58.9216 244.892 58.6518 245.089 58.507C245.287 58.3623 245.527 58.2899 245.81 58.2899C246.145 58.2899 246.425 58.3985 246.649 58.6156C246.873 58.8262 246.984 59.0927 246.984 59.4152C246.984 59.81 246.619 60.3365 245.889 60.9946L244.457 62.3074L247.221 66.6507C247.425 66.9731 247.57 67.2199 247.656 67.391C247.748 67.5555 247.794 67.7135 247.794 67.8648C247.794 68.2926 247.675 68.6315 247.439 68.8815C247.208 69.125 246.902 69.2468 246.521 69.2468C246.191 69.2468 245.938 69.1579 245.76 68.9803C245.583 68.8026 245.343 68.4801 245.04 68.0129ZM255.957 67.7266C255.306 68.2333 254.674 68.615 254.062 68.8717C253.457 69.1217 252.775 69.2468 252.019 69.2468C251.328 69.2468 250.719 69.1119 250.193 68.8421C249.673 68.5657 249.271 68.1939 248.988 67.7266C248.705 67.2594 248.564 66.7527 248.564 66.2065C248.564 65.4694 248.797 64.841 249.265 64.3211C249.732 63.8012 250.374 63.4525 251.19 63.2748C251.361 63.2353 251.785 63.1464 252.463 63.0083C253.141 62.8701 253.72 62.745 254.2 62.6332C254.687 62.5147 255.214 62.3732 255.78 62.2087C255.747 61.498 255.602 60.9781 255.345 60.6491C255.095 60.3134 254.572 60.1456 253.776 60.1456C253.091 60.1456 252.575 60.2411 252.226 60.4319C251.884 60.6227 251.588 60.909 251.338 61.2907C251.094 61.6724 250.92 61.9257 250.814 62.0508C250.716 62.1692 250.499 62.2284 250.163 62.2284C249.86 62.2284 249.597 62.133 249.373 61.9422C249.156 61.7448 249.048 61.4947 249.048 61.192C249.048 60.7182 249.215 60.2575 249.551 59.81C249.887 59.3625 250.41 58.994 251.12 58.7045C251.831 58.4149 252.716 58.2701 253.776 58.2701C254.96 58.2701 255.891 58.4116 256.569 58.6946C257.247 58.971 257.724 59.4119 258.001 60.0173C258.284 60.6227 258.425 61.4256 258.425 62.4259C258.425 63.0576 258.422 63.5939 258.415 64.0348C258.415 64.4758 258.412 64.966 258.405 65.5056C258.405 66.0124 258.488 66.5421 258.652 67.0949C258.823 67.6411 258.909 67.9931 258.909 68.1511C258.909 68.4275 258.777 68.6808 258.514 68.9112C258.257 69.1349 257.964 69.2468 257.635 69.2468C257.359 69.2468 257.086 69.1185 256.816 68.8618C256.546 68.5986 256.26 68.2202 255.957 67.7266ZM255.78 63.8276C255.385 63.9723 254.809 64.127 254.052 64.2915C253.302 64.4494 252.782 64.5679 252.493 64.6469C252.203 64.7192 251.927 64.8673 251.663 65.0911C251.4 65.3082 251.269 65.6142 251.269 66.0091C251.269 66.4171 251.423 66.7658 251.732 67.0554C252.042 67.3384 252.446 67.4799 252.947 67.4799C253.48 67.4799 253.97 67.3647 254.417 67.1344C254.871 66.8975 255.204 66.5947 255.414 66.2262C255.658 65.8182 255.78 65.147 255.78 64.2125V63.8276ZM263.864 59.8199V67.6082C263.864 68.1478 263.736 68.5558 263.479 68.8322C263.222 69.1086 262.897 69.2468 262.502 69.2468C262.107 69.2468 261.784 69.1053 261.534 68.8223C261.291 68.5393 261.169 68.1346 261.169 67.6082V59.8989C261.169 59.3658 261.291 58.9644 261.534 58.6946C261.784 58.4248 262.107 58.2899 262.502 58.2899C262.897 58.2899 263.222 58.4248 263.479 58.6946C263.736 58.9644 263.864 59.3395 263.864 59.8199ZM262.531 57.0362C262.156 57.0362 261.834 56.9211 261.564 56.6908C261.301 56.4604 261.169 56.1347 261.169 55.7135C261.169 55.3318 261.304 55.0193 261.574 54.7758C261.85 54.5257 262.169 54.4007 262.531 54.4007C262.88 54.4007 263.189 54.5125 263.459 54.7363C263.729 54.96 263.864 55.2858 263.864 55.7135C263.864 56.1281 263.732 56.4539 263.469 56.6908C263.206 56.9211 262.893 57.0362 262.531 57.0362ZM273.469 67.7266C272.817 68.2333 272.185 68.615 271.573 68.8717C270.968 69.1217 270.287 69.2468 269.53 69.2468C268.839 69.2468 268.23 69.1119 267.704 68.8421C267.184 68.5657 266.783 68.1939 266.5 67.7266C266.217 67.2594 266.075 66.7527 266.075 66.2065C266.075 65.4694 266.309 64.841 266.776 64.3211C267.243 63.8012 267.885 63.4525 268.701 63.2748C268.872 63.2353 269.296 63.1464 269.974 63.0083C270.652 62.8701 271.231 62.745 271.712 62.6332C272.198 62.5147 272.725 62.3732 273.291 62.2087C273.258 61.498 273.113 60.9781 272.857 60.6491C272.606 60.3134 272.083 60.1456 271.287 60.1456C270.603 60.1456 270.086 60.2411 269.737 60.4319C269.395 60.6227 269.099 60.909 268.849 61.2907C268.605 61.6724 268.431 61.9257 268.326 62.0508C268.227 62.1692 268.01 62.2284 267.674 62.2284C267.372 62.2284 267.108 62.133 266.885 61.9422C266.667 61.7448 266.559 61.4947 266.559 61.192C266.559 60.7182 266.727 60.2575 267.062 59.81C267.398 59.3625 267.921 58.994 268.632 58.7045C269.342 58.4149 270.228 58.2701 271.287 58.2701C272.472 58.2701 273.403 58.4116 274.081 58.6946C274.758 58.971 275.235 59.4119 275.512 60.0173C275.795 60.6227 275.936 61.4256 275.936 62.4259C275.936 63.0576 275.933 63.5939 275.926 64.0348C275.926 64.4758 275.923 64.966 275.917 65.5056C275.917 66.0124 275.999 66.5421 276.163 67.0949C276.334 67.6411 276.42 67.9931 276.42 68.1511C276.42 68.4275 276.288 68.6808 276.025 68.9112C275.769 69.1349 275.476 69.2468 275.147 69.2468C274.87 69.2468 274.597 69.1185 274.327 68.8618C274.058 68.5986 273.771 68.2202 273.469 67.7266ZM273.291 63.8276C272.896 63.9723 272.32 64.127 271.563 64.2915C270.813 64.4494 270.293 64.5679 270.004 64.6469C269.714 64.7192 269.438 64.8673 269.175 65.0911C268.911 65.3082 268.78 65.6142 268.78 66.0091C268.78 66.4171 268.934 66.7658 269.244 67.0554C269.553 67.3384 269.958 67.4799 270.458 67.4799C270.991 67.4799 271.481 67.3647 271.929 67.1344C272.383 66.8975 272.715 66.5947 272.926 66.2262C273.169 65.8182 273.291 65.147 273.291 64.2125V63.8276ZM281.129 59.7804V60.1062C281.602 59.481 282.119 59.0236 282.678 58.7341C283.244 58.4379 283.892 58.2899 284.623 58.2899C285.334 58.2899 285.969 58.4445 286.528 58.7538C287.087 59.0631 287.505 59.5007 287.782 60.0667C287.959 60.3957 288.074 60.7511 288.127 61.1327C288.18 61.5144 288.206 62.0014 288.206 62.5937V67.6082C288.206 68.1478 288.081 68.5558 287.831 68.8322C287.587 69.1086 287.268 69.2468 286.873 69.2468C286.472 69.2468 286.146 69.1053 285.896 68.8223C285.646 68.5393 285.521 68.1346 285.521 67.6082V63.1168C285.521 62.2284 285.396 61.5506 285.146 61.0834C284.903 60.6096 284.412 60.3727 283.675 60.3727C283.195 60.3727 282.757 60.5174 282.362 60.807C281.968 61.09 281.678 61.4815 281.494 61.9817C281.362 62.3831 281.296 63.1333 281.296 64.2323V67.6082C281.296 68.1544 281.168 68.5657 280.911 68.8421C280.661 69.1119 280.336 69.2468 279.934 69.2468C279.546 69.2468 279.227 69.1053 278.977 68.8223C278.727 68.5393 278.602 68.1346 278.602 67.6082V59.8199C278.602 59.3066 278.713 58.9249 278.937 58.6748C279.161 58.4182 279.467 58.2899 279.855 58.2899C280.092 58.2899 280.306 58.3458 280.497 58.4577C280.688 58.5696 280.839 58.7374 280.951 58.9611C281.069 59.1849 281.129 59.458 281.129 59.7804ZM297.959 54.529H301.779C302.773 54.529 303.625 54.6211 304.335 54.8054C305.046 54.9896 305.691 55.3351 306.27 55.8418C307.777 57.1317 308.531 59.0927 308.531 61.725C308.531 62.5937 308.455 63.3866 308.304 64.1039C308.152 64.8212 307.919 65.4694 307.603 66.0485C307.287 66.6211 306.882 67.1344 306.389 67.5884C306 67.9372 305.576 68.2169 305.115 68.4275C304.655 68.6381 304.158 68.7861 303.625 68.8717C303.098 68.9572 302.503 69 301.838 69H298.018C297.485 69 297.083 68.921 296.814 68.7631C296.544 68.5986 296.366 68.3715 296.281 68.082C296.202 67.7859 296.162 67.4042 296.162 66.9369V56.3255C296.162 55.6938 296.304 55.2364 296.587 54.9534C296.87 54.6705 297.327 54.529 297.959 54.529ZM299.094 56.8487V66.6704H301.315C301.802 66.6704 302.184 66.6573 302.46 66.6309C302.736 66.6046 303.023 66.5388 303.319 66.4335C303.615 66.3282 303.872 66.1802 304.089 65.9893C305.069 65.1601 305.559 63.7321 305.559 61.7053C305.559 60.2773 305.342 59.2079 304.908 58.4972C304.48 57.7864 303.95 57.3357 303.319 57.1448C302.687 56.9474 301.924 56.8487 301.029 56.8487H299.094ZM323.436 64.4297C323.436 64.8903 323.321 65.3905 323.09 65.9301C322.867 66.4631 322.511 66.9896 322.024 67.5095C321.537 68.0228 320.916 68.4406 320.159 68.7631C319.402 69.0855 318.52 69.2468 317.513 69.2468C316.75 69.2468 316.056 69.1744 315.431 69.0296C314.805 68.8848 314.236 68.6611 313.723 68.3584C313.216 68.0491 312.749 67.6444 312.321 67.1442C311.939 66.6902 311.614 66.1835 311.344 65.6241C311.074 65.0581 310.87 64.456 310.732 63.8177C310.6 63.1794 310.534 62.5015 310.534 61.7842C310.534 60.6195 310.702 59.5764 311.038 58.6551C311.38 57.7338 311.867 56.9474 312.499 56.2959C313.131 55.6378 313.871 55.1377 314.72 54.7955C315.569 54.4533 316.474 54.2822 317.434 54.2822C318.606 54.2822 319.649 54.5158 320.563 54.9831C321.478 55.4503 322.179 56.0294 322.666 56.7204C323.153 57.4048 323.396 58.053 323.396 58.665C323.396 59.0006 323.278 59.2967 323.041 59.5534C322.804 59.81 322.518 59.9383 322.182 59.9383C321.807 59.9383 321.524 59.8495 321.333 59.6718C321.149 59.4941 320.942 59.1881 320.712 58.7538C320.33 58.0365 319.879 57.5002 319.359 57.1448C318.846 56.7895 318.211 56.6118 317.454 56.6118C316.25 56.6118 315.289 57.0692 314.572 57.9839C313.861 58.8986 313.506 60.1983 313.506 61.8829C313.506 63.0083 313.664 63.946 313.979 64.6962C314.295 65.4398 314.743 65.9959 315.322 66.3644C315.901 66.7329 316.579 66.9172 317.355 66.9172C318.198 66.9172 318.908 66.7099 319.488 66.2953C320.073 65.8742 320.514 65.2589 320.81 64.4494C320.935 64.0677 321.09 63.7585 321.274 63.5215C321.458 63.2781 321.755 63.1563 322.163 63.1563C322.511 63.1563 322.811 63.2781 323.061 63.5215C323.311 63.765 323.436 64.0677 323.436 64.4297Z" fill="#F5F5F5"/>
</g>
<defs>
<filter id="filter0_d_291_700" x="0" y="0" width="444" height="135" filterUnits="userSpaceOnUse" color-interpolation-filters="sRGB">
<feFlood flood-opacity="0" result="BackgroundImageFix"/>
<feColorMatrix in="SourceAlpha" type="matrix" values="0 0 0 0 0 0 0 0 0 0 0 0 0 0 0 0 0 0 127 0" result="hardAlpha"/>
<feOffset dy="4"/>
<feGaussianBlur stdDeviation="2"/>
<feComposite in2="hardAlpha" operator="out"/>
<feColorMatrix type="matrix" values="0 0 0 0 0 0 0 0 0 0 0 0 0 0 0 0 0 0 0.25 0"/>
<feBlend mode="normal" in2="BackgroundImageFix" result="effect1_dropShadow_291_700"/>
<feBlend mode="normal" in="SourceGraphic" in2="effect1_dropShadow_291_700" result="shape"/>
</filter>
</defs>
</svg>
