<svg width="444" height="135" viewBox="0 0 444 135" fill="none" xmlns="http://www.w3.org/2000/svg">
<g filter="url(#filter0_d_293_1037)">
<rect x="7" y="3" width="430" height="121" rx="33" stroke="#9575DE" stroke-width="6"/>
<rect x="7" y="3" width="430" height="121" rx="33" fill="#151515" stroke="#9575DE" stroke-width="6"/>
<path d="M42.4932 34.3066C42.4932 35.1803 42.3571 35.986 42.085 36.7236C41.8128 37.4613 41.4189 38.0951 40.9033 38.625C40.3877 39.1549 39.7718 39.5632 39.0557 39.8496C38.3395 40.1289 37.5339 40.2686 36.6387 40.2686C35.7507 40.2686 34.9521 40.1253 34.2432 39.8389C33.5342 39.5524 32.9183 39.1442 32.3955 38.6143C31.8799 38.0771 31.486 37.4469 31.2139 36.7236C30.9489 35.9932 30.8164 35.1875 30.8164 34.3066C30.8164 33.4186 30.9525 32.6058 31.2246 31.8682C31.4967 31.1305 31.887 30.5003 32.3955 29.9775C32.904 29.4548 33.5199 29.0537 34.2432 28.7744C34.9665 28.488 35.765 28.3447 36.6387 28.3447C37.5267 28.3447 38.3324 28.488 39.0557 28.7744C39.779 29.0609 40.3984 29.4691 40.9141 29.999C41.4297 30.529 41.82 31.1592 42.085 31.8896C42.3571 32.6201 42.4932 33.4258 42.4932 34.3066ZM39.5498 34.3066C39.5498 33.1107 39.2848 32.1797 38.7549 31.5137C38.2321 30.8477 37.5267 30.5146 36.6387 30.5146C36.0658 30.5146 35.5609 30.665 35.124 30.9658C34.6872 31.2594 34.3506 31.6963 34.1143 32.2764C33.8779 32.8564 33.7598 33.5332 33.7598 34.3066C33.7598 35.0729 33.8743 35.7425 34.1035 36.3154C34.3398 36.8883 34.6729 37.3288 35.1025 37.6367C35.5394 37.9375 36.0514 38.0879 36.6387 38.0879C37.5267 38.0879 38.2321 37.7549 38.7549 37.0889C39.2848 36.4157 39.5498 35.4883 39.5498 34.3066ZM47.5205 25.6592V30.1387C48.0719 29.5658 48.6341 29.1289 49.207 28.8281C49.7799 28.5202 50.4889 28.3662 51.334 28.3662C52.3079 28.3662 53.1602 28.599 53.8906 29.0645C54.6283 29.5228 55.1976 30.1924 55.5986 31.0732C56.0068 31.9469 56.2109 32.9854 56.2109 34.1885C56.2109 35.0765 56.0964 35.8929 55.8672 36.6377C55.6452 37.3753 55.3193 38.0163 54.8896 38.5605C54.46 39.1048 53.9372 39.5273 53.3213 39.8281C52.7126 40.1217 52.0394 40.2686 51.3018 40.2686C50.8506 40.2686 50.4245 40.2148 50.0234 40.1074C49.6296 40 49.293 39.8604 49.0137 39.6885C48.7344 39.5094 48.4945 39.3268 48.2939 39.1406C48.1006 38.9544 47.8428 38.6751 47.5205 38.3027V38.5928C47.5205 39.1442 47.388 39.5632 47.123 39.8496C46.8581 40.1289 46.5215 40.2686 46.1133 40.2686C45.6979 40.2686 45.3649 40.1289 45.1143 39.8496C44.8708 39.5632 44.749 39.1442 44.749 38.5928V25.7881C44.749 25.1937 44.8672 24.7461 45.1035 24.4453C45.347 24.1374 45.6836 23.9834 46.1133 23.9834C46.5645 23.9834 46.9118 24.1302 47.1553 24.4238C47.3988 24.7103 47.5205 25.1221 47.5205 25.6592ZM47.6602 34.3711C47.6602 35.5384 47.9251 36.4372 48.4551 37.0674C48.9922 37.6904 49.694 38.002 50.5605 38.002C51.2982 38.002 51.932 37.6833 52.4619 37.0459C52.999 36.4014 53.2676 35.4811 53.2676 34.2852C53.2676 33.5117 53.1566 32.8457 52.9346 32.2871C52.7126 31.7285 52.3975 31.2988 51.9893 30.998C51.5811 30.6901 51.1048 30.5361 50.5605 30.5361C50.002 30.5361 49.5042 30.6901 49.0674 30.998C48.6305 31.2988 48.2868 31.7393 48.0361 32.3193C47.7855 32.8923 47.6602 33.5762 47.6602 34.3711ZM61.5176 30.0957V40.043C61.5176 40.752 61.4925 41.3285 61.4424 41.7725C61.3994 42.2236 61.335 42.5495 61.249 42.75C60.762 43.9961 59.7272 44.6191 58.1445 44.6191C57.2565 44.6191 56.5833 44.4974 56.125 44.2539C55.6667 44.0104 55.4375 43.6559 55.4375 43.1904C55.4375 42.8467 55.5413 42.5638 55.749 42.3418C55.9567 42.127 56.2288 42.0195 56.5654 42.0195C56.6084 42.0195 56.68 42.0231 56.7803 42.0303C56.8734 42.0446 57.013 42.0589 57.1992 42.0732C57.3926 42.0876 57.5251 42.0947 57.5967 42.0947C57.9906 42.0947 58.252 41.9408 58.3809 41.6328C58.5169 41.3249 58.585 40.7734 58.585 39.9785V30.0957C58.585 29.5156 58.721 29.0788 58.9932 28.7852C59.2653 28.4915 59.6234 28.3447 60.0674 28.3447C60.4971 28.3447 60.8444 28.4915 61.1094 28.7852C61.3815 29.0716 61.5176 29.5085 61.5176 30.0957ZM60.0674 26.9805C59.6592 26.9805 59.3083 26.8551 59.0146 26.6045C58.7282 26.3538 58.585 25.9994 58.585 25.541C58.585 25.1257 58.7318 24.7855 59.0254 24.5205C59.3262 24.2484 59.6735 24.1123 60.0674 24.1123C60.4469 24.1123 60.7835 24.2341 61.0771 24.4775C61.3708 24.721 61.5176 25.0755 61.5176 25.541C61.5176 25.9922 61.3743 26.3467 61.0879 26.6045C60.8014 26.8551 60.4613 26.9805 60.0674 26.9805ZM72.7217 35.0264H66.9853C66.9925 35.6924 67.125 36.2796 67.3828 36.7881C67.6478 37.2965 67.9951 37.6797 68.4248 37.9375C68.8616 38.1953 69.3415 38.3242 69.8643 38.3242C70.2152 38.3242 70.5338 38.2848 70.8203 38.2061C71.1139 38.1201 71.3968 37.9912 71.6689 37.8193C71.9411 37.6403 72.1917 37.4505 72.4209 37.25C72.6501 37.0495 72.9473 36.7773 73.3125 36.4336C73.4629 36.3047 73.6777 36.2402 73.957 36.2402C74.2578 36.2402 74.5013 36.3226 74.6875 36.4873C74.8737 36.652 74.9668 36.8848 74.9668 37.1855C74.9668 37.4505 74.863 37.762 74.6553 38.1201C74.4476 38.471 74.1325 38.8112 73.71 39.1406C73.2946 39.4629 72.7682 39.7314 72.1309 39.9463C71.5006 40.1611 70.7738 40.2686 69.9502 40.2686C68.0667 40.2686 66.6022 39.7314 65.5566 38.6572C64.5111 37.583 63.9883 36.1257 63.9883 34.2852C63.9883 33.4186 64.1172 32.6165 64.375 31.8789C64.6328 31.1341 65.0088 30.4967 65.5029 29.9668C65.9971 29.4368 66.6058 29.0322 67.3291 28.7529C68.0524 28.4665 68.8545 28.3232 69.7353 28.3232C70.8812 28.3232 71.8623 28.5667 72.6787 29.0537C73.5023 29.5335 74.1182 30.1566 74.5264 30.9229C74.9346 31.6891 75.1387 32.4697 75.1387 33.2646C75.1387 34.0023 74.9274 34.4821 74.5049 34.7041C74.0824 34.9189 73.488 35.0264 72.7217 35.0264ZM66.9853 33.3613H72.3027C72.2311 32.3587 71.959 31.6104 71.4863 31.1162C71.0208 30.6149 70.4049 30.3643 69.6387 30.3643C68.9082 30.3643 68.3066 30.6185 67.834 31.127C67.3685 31.6283 67.0856 32.373 66.9853 33.3613ZM88.1367 36.6377C88.1367 37.0029 88.0257 37.3932 87.8037 37.8086C87.5889 38.224 87.2559 38.6214 86.8047 39.001C86.3607 39.3734 85.7985 39.6742 85.1182 39.9033C84.4378 40.1325 83.6715 40.2471 82.8193 40.2471C81.0075 40.2471 79.5931 39.7207 78.5762 38.668C77.5592 37.6081 77.0508 36.1901 77.0508 34.4141C77.0508 33.2109 77.2835 32.1475 77.749 31.2236C78.2145 30.2998 78.8877 29.5872 79.7686 29.0859C80.6494 28.5775 81.7021 28.3232 82.9268 28.3232C83.6859 28.3232 84.3805 28.4342 85.0107 28.6563C85.6481 28.8783 86.1852 29.1647 86.6221 29.5156C87.0661 29.8665 87.4027 30.2425 87.6318 30.6436C87.8682 31.0374 87.9863 31.4063 87.9863 31.75C87.9863 32.1009 87.8538 32.3981 87.5889 32.6416C87.331 32.8851 87.0159 33.0068 86.6435 33.0068C86.4001 33.0068 86.196 32.946 86.0312 32.8242C85.8737 32.6953 85.6947 32.4912 85.4941 32.2119C85.1361 31.6676 84.7601 31.2594 84.3662 30.9873C83.9795 30.7152 83.4853 30.5791 82.8838 30.5791C82.0172 30.5791 81.319 30.9193 80.7891 31.5996C80.2591 32.2728 79.9941 33.1966 79.9941 34.3711C79.9941 34.9225 80.0622 35.431 80.1982 35.8965C80.3343 36.3548 80.5312 36.7487 80.7891 37.0781C81.0469 37.4004 81.3584 37.6475 81.7236 37.8193C82.0889 37.984 82.4899 38.0664 82.9268 38.0664C83.514 38.0664 84.0153 37.9303 84.4307 37.6582C84.8532 37.3861 85.2256 36.9707 85.5478 36.4121C85.7269 36.0827 85.9202 35.8249 86.1279 35.6387C86.3356 35.4525 86.5898 35.3594 86.8906 35.3594C87.2487 35.3594 87.5459 35.4954 87.7822 35.7676C88.0185 36.0397 88.1367 36.3298 88.1367 36.6377ZM90.8652 28.6025H91.1875V26.8408C91.1875 26.3682 91.1982 25.9994 91.2197 25.7344C91.2484 25.4622 91.32 25.2295 91.4346 25.0361C91.5491 24.8356 91.7139 24.6745 91.9287 24.5527C92.1436 24.4238 92.3835 24.3594 92.6484 24.3594C93.0208 24.3594 93.3574 24.499 93.6582 24.7783C93.8587 24.9645 93.984 25.1937 94.0342 25.4658C94.0915 25.7308 94.1201 26.1104 94.1201 26.6045V28.6025H95.1943C95.6097 28.6025 95.9248 28.7028 96.1396 28.9033C96.3616 29.0967 96.4727 29.3473 96.4727 29.6553C96.4727 30.0492 96.3151 30.3249 96 30.4824C95.6921 30.64 95.248 30.7188 94.668 30.7188H94.1201V36.1113C94.1201 36.5697 94.1344 36.9242 94.1631 37.1748C94.1989 37.4183 94.2848 37.6188 94.4209 37.7764C94.5641 37.9268 94.7933 38.002 95.1084 38.002C95.2803 38.002 95.513 37.9733 95.8066 37.916C96.1003 37.8516 96.3294 37.8193 96.4941 37.8193C96.7305 37.8193 96.9417 37.916 97.1279 38.1094C97.3213 38.2956 97.418 38.5283 97.418 38.8076C97.418 39.2803 97.1602 39.6419 96.6445 39.8926C96.1289 40.1432 95.3877 40.2686 94.4209 40.2686C93.5042 40.2686 92.8096 40.1146 92.3369 39.8066C91.8643 39.4987 91.5527 39.0726 91.4023 38.5283C91.2591 37.984 91.1875 37.2572 91.1875 36.3477V30.7188H90.8008C90.3783 30.7188 90.056 30.6185 89.834 30.418C89.612 30.2174 89.501 29.9632 89.501 29.6553C89.501 29.3473 89.6156 29.0967 89.8447 28.9033C90.0811 28.7028 90.4212 28.6025 90.8652 28.6025ZM101.436 30.0098V38.4854C101.436 39.0726 101.296 39.5166 101.017 39.8174C100.737 40.1182 100.383 40.2686 99.9531 40.2686C99.5234 40.2686 99.1725 40.1146 98.9004 39.8066C98.6354 39.4987 98.5029 39.0583 98.5029 38.4854V30.0957C98.5029 29.5156 98.6354 29.0788 98.9004 28.7852C99.1725 28.4915 99.5234 28.3447 99.9531 28.3447C100.383 28.3447 100.737 28.4915 101.017 28.7852C101.296 29.0788 101.436 29.487 101.436 30.0098ZM99.9853 26.9805C99.5771 26.9805 99.2262 26.8551 98.9326 26.6045C98.6462 26.3538 98.5029 25.9994 98.5029 25.541C98.5029 25.1257 98.6497 24.7855 98.9434 24.5205C99.2441 24.2484 99.5915 24.1123 99.9853 24.1123C100.365 24.1123 100.701 24.2341 100.995 24.4775C101.289 24.721 101.436 25.0755 101.436 25.541C101.436 25.9922 101.292 26.3467 101.006 26.6045C100.719 26.8551 100.379 26.9805 99.9853 26.9805ZM106.549 30.1709L108.923 36.8311L111.479 29.8809C111.68 29.3223 111.877 28.9284 112.07 28.6992C112.264 28.4629 112.557 28.3447 112.951 28.3447C113.324 28.3447 113.639 28.4701 113.896 28.7207C114.161 28.9714 114.294 29.2614 114.294 29.5908C114.294 29.7197 114.269 29.8701 114.219 30.042C114.176 30.2139 114.122 30.375 114.058 30.5254C114 30.6758 113.932 30.8477 113.854 31.041L111.039 38.0234C110.96 38.224 110.856 38.4782 110.728 38.7861C110.606 39.0941 110.466 39.359 110.309 39.5811C110.158 39.7959 109.968 39.9642 109.739 40.0859C109.517 40.2077 109.245 40.2686 108.923 40.2686C108.507 40.2686 108.174 40.1755 107.924 39.9893C107.68 39.7959 107.498 39.5882 107.376 39.3662C107.261 39.137 107.064 38.6895 106.785 38.0234L103.992 31.1162C103.928 30.9443 103.86 30.7725 103.788 30.6006C103.724 30.4287 103.666 30.2533 103.616 30.0742C103.573 29.8952 103.552 29.7412 103.552 29.6123C103.552 29.4118 103.613 29.2148 103.734 29.0215C103.856 28.821 104.024 28.6598 104.239 28.5381C104.454 28.4092 104.687 28.3447 104.937 28.3447C105.424 28.3447 105.757 28.4844 105.937 28.7637C106.123 29.043 106.327 29.512 106.549 30.1709ZM124.284 35.0264H118.548C118.555 35.6924 118.687 36.2796 118.945 36.7881C119.21 37.2965 119.558 37.6797 119.987 37.9375C120.424 38.1953 120.904 38.3242 121.427 38.3242C121.778 38.3242 122.096 38.2848 122.383 38.2061C122.676 38.1201 122.959 37.9912 123.231 37.8193C123.504 37.6403 123.754 37.4505 123.983 37.25C124.213 37.0495 124.51 36.7773 124.875 36.4336C125.025 36.3047 125.24 36.2402 125.52 36.2402C125.82 36.2402 126.064 36.3226 126.25 36.4873C126.436 36.652 126.529 36.8848 126.529 37.1855C126.529 37.4505 126.425 37.762 126.218 38.1201C126.01 38.471 125.695 38.8112 125.272 39.1406C124.857 39.4629 124.331 39.7314 123.693 39.9463C123.063 40.1611 122.336 40.2686 121.513 40.2686C119.629 40.2686 118.165 39.7314 117.119 38.6572C116.074 37.583 115.551 36.1257 115.551 34.2852C115.551 33.4186 115.68 32.6165 115.937 31.8789C116.195 31.1341 116.571 30.4967 117.065 29.9668C117.56 29.4368 118.168 29.0322 118.892 28.7529C119.615 28.4665 120.417 28.3232 121.298 28.3232C122.444 28.3232 123.425 28.5667 124.241 29.0537C125.065 29.5335 125.681 30.1566 126.089 30.9229C126.497 31.6891 126.701 32.4697 126.701 33.2646C126.701 34.0023 126.49 34.4821 126.067 34.7041C125.645 34.9189 125.05 35.0264 124.284 35.0264ZM118.548 33.3613H123.865C123.794 32.3587 123.521 31.6104 123.049 31.1162C122.583 30.6149 121.967 30.3643 121.201 30.3643C120.471 30.3643 119.869 30.6185 119.396 31.127C118.931 31.6283 118.648 32.373 118.548 33.3613ZM138.625 36.4336C138.625 37.2428 138.428 37.9375 138.034 38.5176C137.64 39.0905 137.057 39.5273 136.283 39.8281C135.517 40.1217 134.582 40.2686 133.479 40.2686C132.427 40.2686 131.524 40.1074 130.772 39.7852C130.02 39.4629 129.465 39.0618 129.107 38.582C128.749 38.0951 128.57 37.6081 128.57 37.1211C128.57 36.7988 128.685 36.5231 128.914 36.2939C129.143 36.0648 129.433 35.9502 129.784 35.9502C130.092 35.9502 130.328 36.0254 130.493 36.1758C130.658 36.3262 130.815 36.5374 130.966 36.8096C131.267 37.3324 131.625 37.7227 132.04 37.9805C132.463 38.2383 133.035 38.3672 133.759 38.3672C134.346 38.3672 134.826 38.2383 135.198 37.9805C135.578 37.7155 135.768 37.4147 135.768 37.0781C135.768 36.5625 135.571 36.1865 135.177 35.9502C134.79 35.7139 134.149 35.4883 133.254 35.2734C132.244 35.0228 131.421 34.7614 130.783 34.4893C130.153 34.21 129.648 33.8447 129.269 33.3936C128.889 32.9424 128.699 32.3874 128.699 31.7285C128.699 31.1413 128.875 30.5863 129.226 30.0635C129.576 29.5407 130.092 29.1253 130.772 28.8174C131.46 28.5023 132.287 28.3447 133.254 28.3447C134.013 28.3447 134.693 28.4235 135.295 28.5811C135.904 28.7386 136.409 28.9499 136.81 29.2148C137.218 29.4798 137.526 29.7734 137.733 30.0957C137.948 30.418 138.056 30.7331 138.056 31.041C138.056 31.3776 137.941 31.6533 137.712 31.8682C137.49 32.083 137.171 32.1904 136.756 32.1904C136.455 32.1904 136.197 32.1045 135.982 31.9326C135.775 31.7607 135.535 31.5029 135.263 31.1592C135.041 30.8727 134.779 30.6436 134.479 30.4717C134.178 30.2998 133.77 30.2139 133.254 30.2139C132.724 30.2139 132.284 30.3285 131.933 30.5576C131.582 30.7796 131.406 31.0589 131.406 31.3955C131.406 31.7035 131.535 31.9577 131.793 32.1582C132.051 32.3516 132.398 32.5127 132.835 32.6416C133.272 32.7705 133.873 32.9281 134.64 33.1143C135.549 33.3363 136.29 33.6012 136.863 33.9092C137.443 34.2171 137.88 34.5824 138.174 35.0049C138.475 35.4202 138.625 35.8965 138.625 36.4336ZM143.051 40.2686C142.607 40.2686 142.224 40.1253 141.901 39.8389C141.579 39.5524 141.418 39.1514 141.418 38.6357C141.418 38.1989 141.572 37.8229 141.88 37.5078C142.188 37.1927 142.567 37.0352 143.019 37.0352C143.47 37.0352 143.853 37.1927 144.168 37.5078C144.49 37.8158 144.651 38.1917 144.651 38.6357C144.651 39.1442 144.49 39.5452 144.168 39.8389C143.853 40.1253 143.48 40.2686 143.051 40.2686ZM141.418 29.9453C141.418 29.4368 141.576 29.043 141.891 28.7637C142.213 28.4844 142.6 28.3447 143.051 28.3447C143.488 28.3447 143.864 28.488 144.179 28.7744C144.494 29.0537 144.651 29.444 144.651 29.9453C144.651 30.3464 144.479 30.7152 144.136 31.0518C143.792 31.3883 143.42 31.5566 143.019 31.5566C142.582 31.5566 142.206 31.3955 141.891 31.0732C141.576 30.751 141.418 30.375 141.418 29.9453Z" fill="#9575DE"/>
<path d="M32.0317 63.0181V56.059C32.0317 55.4667 32.1633 55.0225 32.4266 54.7264C32.6964 54.4303 33.0485 54.2822 33.4828 54.2822C33.9369 54.2822 34.2955 54.4303 34.5587 54.7264C34.8285 55.0225 34.9634 55.4667 34.9634 56.059V63.1761C34.9634 63.9855 35.0523 64.6633 35.23 65.2095C35.4142 65.7491 35.7367 66.1703 36.1973 66.473C36.658 66.7691 37.3029 66.9172 38.1321 66.9172C39.2771 66.9172 40.0865 66.6145 40.5603 66.0091C41.0342 65.3971 41.2711 64.4725 41.2711 63.2353V56.059C41.2711 55.4602 41.4027 55.016 41.6659 54.7264C41.9291 54.4303 42.2812 54.2822 42.7221 54.2822C43.163 54.2822 43.5184 54.4303 43.7882 54.7264C44.0646 55.016 44.2028 55.4602 44.2028 56.059V63.0181C44.2028 64.15 44.0909 65.0943 43.8672 65.8511C43.65 66.6079 43.2354 67.2726 42.6234 67.8451C42.0969 68.3321 41.4849 68.6874 40.7874 68.9112C40.0898 69.1349 39.2738 69.2468 38.3394 69.2468C37.2272 69.2468 36.2697 69.1283 35.4669 68.8914C34.664 68.6479 34.0092 68.2761 33.5025 67.776C32.9958 67.2693 32.624 66.6244 32.3871 65.8413C32.1502 65.0516 32.0317 64.1105 32.0317 63.0181ZM53.8962 68.0129L51.5173 64.1039L50.0563 65.4859V67.6279C50.0563 68.1478 49.9181 68.5492 49.6417 68.8322C49.3719 69.1086 49.0594 69.2468 48.704 69.2468C48.2894 69.2468 47.9637 69.1086 47.7268 68.8322C47.4898 68.5558 47.3714 68.1478 47.3714 67.6082V56.1182C47.3714 55.5194 47.4866 55.0653 47.7169 54.756C47.9472 54.4402 48.2762 54.2822 48.704 54.2822C49.1186 54.2822 49.4476 54.4237 49.6911 54.7067C49.9346 54.9896 50.0563 55.4075 50.0563 55.9603V62.495L53.0868 59.3165C53.4619 58.9216 53.7481 58.6518 53.9455 58.507C54.143 58.3623 54.3832 58.2899 54.6661 58.2899C55.0017 58.2899 55.2814 58.3985 55.5052 58.6156C55.7289 58.8262 55.8408 59.0927 55.8408 59.4152C55.8408 59.81 55.4756 60.3365 54.7451 60.9946L53.3138 62.3074L56.0777 66.6507C56.2817 66.9731 56.4265 67.2199 56.512 67.391C56.6041 67.5555 56.6502 67.7135 56.6502 67.8648C56.6502 68.2926 56.5318 68.6315 56.2949 68.8815C56.0645 69.125 55.7585 69.2468 55.3768 69.2468C55.0478 69.2468 54.7945 69.1579 54.6168 68.9803C54.4391 68.8026 54.1989 68.4801 53.8962 68.0129ZM65.2578 67.7266V67.3811C64.9353 67.7891 64.5964 68.1313 64.2411 68.4077C63.8857 68.6841 63.4975 68.8881 63.0763 69.0197C62.6551 69.1579 62.1747 69.227 61.6351 69.227C60.9836 69.227 60.3979 69.0921 59.8781 68.8223C59.3648 68.5525 58.9666 68.1807 58.6837 67.7069C58.348 67.1344 58.1802 66.3118 58.1802 65.2391V59.8989C58.1802 59.3592 58.302 58.9578 58.5455 58.6946C58.7889 58.4248 59.1114 58.2899 59.5128 58.2899C59.9208 58.2899 60.2499 58.4248 60.4999 58.6946C60.75 58.9644 60.875 59.3658 60.875 59.8989V64.2125C60.875 64.8377 60.9277 65.3642 61.033 65.7919C61.1383 66.2131 61.3258 66.5454 61.5956 66.7889C61.872 67.0258 62.2438 67.1442 62.7111 67.1442C63.1651 67.1442 63.5929 67.0093 63.9943 66.7395C64.3957 66.4697 64.6886 66.1176 64.8728 65.6833C65.0242 65.3016 65.0999 64.4659 65.0999 63.1761V59.8989C65.0999 59.3658 65.2249 58.9644 65.475 58.6946C65.725 58.4248 66.0508 58.2899 66.4522 58.2899C66.8536 58.2899 67.1761 58.4248 67.4196 58.6946C67.6631 58.9578 67.7848 59.3592 67.7848 59.8989V67.7069C67.7848 68.2202 67.6663 68.6052 67.4294 68.8618C67.1991 69.1185 66.8997 69.2468 66.5312 69.2468C66.1626 69.2468 65.8566 69.1152 65.6132 68.8519C65.3763 68.5821 65.2578 68.207 65.2578 67.7266ZM73.1547 65.3576V67.6082C73.1547 68.1544 73.0263 68.5657 72.7697 68.8421C72.513 69.1119 72.1873 69.2468 71.7925 69.2468C71.4042 69.2468 71.085 69.1086 70.835 68.8322C70.5849 68.5558 70.4599 68.1478 70.4599 67.6082V60.1062C70.4599 58.8953 70.8975 58.2899 71.7727 58.2899C72.2202 58.2899 72.5427 58.4314 72.7401 58.7143C72.9375 58.9973 73.0461 59.4152 73.0658 59.968C73.3883 59.4152 73.7173 58.9973 74.0529 58.7143C74.3951 58.4314 74.8492 58.2899 75.4151 58.2899C75.9811 58.2899 76.5306 58.4314 77.0636 58.7143C77.5967 58.9973 77.8632 59.3724 77.8632 59.8396C77.8632 60.1687 77.748 60.4418 77.5177 60.6589C77.2939 60.8695 77.0505 60.9748 76.7872 60.9748C76.6885 60.9748 76.4483 60.9156 76.0666 60.7971C75.6915 60.6721 75.3592 60.6096 75.0697 60.6096C74.6748 60.6096 74.3524 60.7149 74.1023 60.9255C73.8522 61.1295 73.6581 61.4355 73.5199 61.8435C73.3817 62.2515 73.2863 62.7384 73.2336 63.3044C73.181 63.8637 73.1547 64.5481 73.1547 65.3576ZM84.5459 58.5268H84.842V56.9079C84.842 56.4736 84.8519 56.1347 84.8716 55.8912C84.898 55.6411 84.9638 55.4273 85.0691 55.2496C85.1744 55.0653 85.3257 54.9173 85.5231 54.8054C85.7206 54.6869 85.941 54.6277 86.1845 54.6277C86.5267 54.6277 86.836 54.756 87.1124 55.0127C87.2966 55.1838 87.4118 55.3944 87.4579 55.6444C87.5105 55.8879 87.5368 56.2367 87.5368 56.6908V58.5268H88.5239C88.9056 58.5268 89.1952 58.6189 89.3926 58.8032C89.5966 58.9809 89.6986 59.2112 89.6986 59.4941C89.6986 59.8561 89.5538 60.1094 89.2643 60.2542C88.9813 60.399 88.5733 60.4714 88.0403 60.4714H87.5368V65.4267C87.5368 65.8478 87.55 66.1736 87.5763 66.4039C87.6092 66.6276 87.6882 66.8119 87.8132 66.9567C87.9448 67.0949 88.1554 67.164 88.445 67.164C88.6029 67.164 88.8168 67.1377 89.0866 67.085C89.3564 67.0258 89.567 66.9962 89.7183 66.9962C89.9355 66.9962 90.1296 67.085 90.3007 67.2627C90.4784 67.4338 90.5673 67.6477 90.5673 67.9043C90.5673 68.3386 90.3304 68.671 89.8565 68.9013C89.3827 69.1316 88.7016 69.2468 87.8132 69.2468C86.9709 69.2468 86.3326 69.1053 85.8982 68.8223C85.4639 68.5393 85.1776 68.1478 85.0395 67.6477C84.9078 67.1475 84.842 66.4796 84.842 65.6438V60.4714H84.4867C84.0984 60.4714 83.8023 60.3793 83.5983 60.195C83.3943 60.0107 83.2923 59.7771 83.2923 59.4941C83.2923 59.2112 83.3976 58.9809 83.6081 58.8032C83.8253 58.6189 84.1379 58.5268 84.5459 58.5268ZM99.086 64.4297H93.8148C93.8214 65.0417 93.9432 65.5813 94.1801 66.0485C94.4236 66.5158 94.7427 66.8678 95.1376 67.1048C95.539 67.3417 95.9799 67.4601 96.4603 67.4601C96.7827 67.4601 97.0756 67.4239 97.3388 67.3515C97.6086 67.2726 97.8686 67.1541 98.1186 66.9962C98.3687 66.8317 98.599 66.6573 98.8096 66.473C99.0202 66.2887 99.2933 66.0387 99.6289 65.7228C99.7671 65.6043 99.9645 65.5451 100.221 65.5451C100.498 65.5451 100.721 65.6208 100.892 65.7722C101.064 65.9235 101.149 66.1374 101.149 66.4138C101.149 66.6573 101.054 66.9435 100.863 67.2726C100.672 67.595 100.382 67.9076 99.9941 68.2103C99.6125 68.5064 99.1288 68.7532 98.5431 68.9506C97.964 69.1481 97.296 69.2468 96.5393 69.2468C94.8085 69.2468 93.4628 68.7532 92.502 67.7661C91.5412 66.779 91.0608 65.4398 91.0608 63.7486C91.0608 62.9523 91.1793 62.2153 91.4162 61.5375C91.6531 60.8531 91.9986 60.2674 92.4526 59.7804C92.9067 59.2934 93.4661 58.9216 94.1307 58.665C94.7954 58.4017 95.5324 58.2701 96.3418 58.2701C97.3948 58.2701 98.2963 58.4939 99.0465 58.9414C99.8033 59.3823 100.369 59.9548 100.744 60.6589C101.119 61.3631 101.307 62.0804 101.307 62.8108C101.307 63.4886 101.113 63.9296 100.725 64.1336C100.336 64.331 99.7901 64.4297 99.086 64.4297ZM93.8148 62.8997H98.701C98.6352 61.9784 98.3852 61.2907 97.9508 60.8366C97.5231 60.376 96.9571 60.1456 96.253 60.1456C95.5818 60.1456 95.029 60.3793 94.5947 60.8465C94.1669 61.3071 93.907 61.9915 93.8148 62.8997ZM113.221 60.2641V68.0919C113.221 68.9868 113.126 69.7568 112.935 70.4017C112.744 71.0466 112.438 71.5796 112.017 72.0008C111.596 72.422 111.043 72.7346 110.359 72.9386C109.681 73.1426 108.835 73.2446 107.822 73.2446C106.894 73.2446 106.065 73.113 105.334 72.8497C104.604 72.5931 104.041 72.2575 103.646 71.8429C103.252 71.4349 103.054 71.0137 103.054 70.5794C103.054 70.2503 103.166 69.9805 103.39 69.7699C103.614 69.5659 103.883 69.4639 104.199 69.4639C104.594 69.4639 104.94 69.6383 105.236 69.9871C105.38 70.1648 105.529 70.3425 105.68 70.5201C105.838 70.7044 106.009 70.8591 106.193 70.9841C106.384 71.1157 106.611 71.2111 106.874 71.2703C107.138 71.3362 107.44 71.3691 107.782 71.3691C108.48 71.3691 109.02 71.2703 109.401 71.0729C109.79 70.8821 110.059 70.6123 110.211 70.2635C110.369 69.9147 110.461 69.5396 110.487 69.1382C110.513 68.7434 110.533 68.105 110.546 67.2232C110.132 67.8023 109.651 68.2432 109.105 68.5459C108.566 68.8486 107.921 69 107.17 69C106.269 69 105.479 68.7697 104.801 68.309C104.13 67.8484 103.614 67.2035 103.252 66.3743C102.89 65.5451 102.709 64.5876 102.709 63.5018C102.709 62.6924 102.817 61.9619 103.034 61.3104C103.258 60.6589 103.574 60.1094 103.982 59.662C104.39 59.2145 104.861 58.8788 105.394 58.6551C105.927 58.4248 106.512 58.3096 107.151 58.3096C107.914 58.3096 108.575 58.4577 109.135 58.7538C109.694 59.0434 110.214 59.5007 110.694 60.1259V59.7607C110.694 59.2934 110.81 58.9315 111.04 58.6748C111.27 58.4182 111.566 58.2899 111.928 58.2899C112.448 58.2899 112.794 58.461 112.965 58.8032C113.136 59.1388 113.221 59.6258 113.221 60.2641ZM105.413 63.6795C105.413 64.7719 105.65 65.5978 106.124 66.1571C106.604 66.7165 107.223 66.9962 107.98 66.9962C108.427 66.9962 108.849 66.8777 109.243 66.6408C109.645 66.3973 109.971 66.0354 110.221 65.555C110.471 65.068 110.596 64.479 110.596 63.7881C110.596 62.6891 110.352 61.8336 109.865 61.2216C109.385 60.6096 108.75 60.3036 107.96 60.3036C107.19 60.3036 106.572 60.5964 106.104 61.1821C105.644 61.7678 105.413 62.6002 105.413 63.6795ZM122.244 67.7266C121.592 68.2333 120.96 68.615 120.348 68.8717C119.743 69.1217 119.062 69.2468 118.305 69.2468C117.614 69.2468 117.005 69.1119 116.479 68.8421C115.959 68.5657 115.558 68.1939 115.275 67.7266C114.992 67.2594 114.85 66.7527 114.85 66.2065C114.85 65.4694 115.084 64.841 115.551 64.3211C116.018 63.8012 116.66 63.4525 117.476 63.2748C117.647 63.2353 118.071 63.1464 118.749 63.0083C119.427 62.8701 120.006 62.745 120.487 62.6332C120.973 62.5147 121.5 62.3732 122.066 62.2087C122.033 61.498 121.888 60.9781 121.632 60.6491C121.381 60.3134 120.858 60.1456 120.062 60.1456C119.378 60.1456 118.861 60.2411 118.512 60.4319C118.17 60.6227 117.874 60.909 117.624 61.2907C117.38 61.6724 117.206 61.9257 117.101 62.0508C117.002 62.1692 116.785 62.2284 116.449 62.2284C116.147 62.2284 115.883 62.133 115.66 61.9422C115.442 61.7448 115.334 61.4947 115.334 61.192C115.334 60.7182 115.502 60.2575 115.837 59.81C116.173 59.3625 116.696 58.994 117.407 58.7045C118.117 58.4149 119.003 58.2701 120.062 58.2701C121.247 58.2701 122.178 58.4116 122.856 58.6946C123.533 58.971 124.01 59.4119 124.287 60.0173C124.57 60.6227 124.711 61.4256 124.711 62.4259C124.711 63.0576 124.708 63.5939 124.701 64.0348C124.701 64.4758 124.698 64.966 124.692 65.5056C124.692 66.0124 124.774 66.5421 124.938 67.0949C125.109 67.6411 125.195 67.9931 125.195 68.1511C125.195 68.4275 125.063 68.6808 124.8 68.9112C124.544 69.1349 124.251 69.2468 123.922 69.2468C123.645 69.2468 123.372 69.1185 123.102 68.8618C122.833 68.5986 122.546 68.2202 122.244 67.7266ZM122.066 63.8276C121.671 63.9723 121.095 64.127 120.338 64.2915C119.588 64.4494 119.068 64.5679 118.779 64.6469C118.489 64.7192 118.213 64.8673 117.95 65.0911C117.686 65.3082 117.555 65.6142 117.555 66.0091C117.555 66.4171 117.709 66.7658 118.019 67.0554C118.328 67.3384 118.733 67.4799 119.233 67.4799C119.766 67.4799 120.256 67.3647 120.704 67.1344C121.158 66.8975 121.49 66.5947 121.701 66.2262C121.944 65.8182 122.066 65.147 122.066 64.2125V63.8276ZM129.904 59.7804V60.1062C130.377 59.481 130.894 59.0236 131.453 58.7341C132.019 58.4379 132.667 58.2899 133.398 58.2899C134.109 58.2899 134.744 58.4445 135.303 58.7538C135.862 59.0631 136.28 59.5007 136.557 60.0667C136.734 60.3957 136.849 60.7511 136.902 61.1327C136.955 61.5144 136.981 62.0014 136.981 62.5937V67.6082C136.981 68.1478 136.856 68.5558 136.606 68.8322C136.363 69.1086 136.043 69.2468 135.648 69.2468C135.247 69.2468 134.921 69.1053 134.671 68.8223C134.421 68.5393 134.296 68.1346 134.296 67.6082V63.1168C134.296 62.2284 134.171 61.5506 133.921 61.0834C133.678 60.6096 133.187 60.3727 132.45 60.3727C131.97 60.3727 131.532 60.5174 131.137 60.807C130.743 61.09 130.453 61.4815 130.269 61.9817C130.137 62.3831 130.071 63.1333 130.071 64.2323V67.6082C130.071 68.1544 129.943 68.5657 129.686 68.8421C129.436 69.1119 129.111 69.2468 128.709 69.2468C128.321 69.2468 128.002 69.1053 127.752 68.8223C127.502 68.5393 127.377 68.1346 127.377 67.6082V59.8199C127.377 59.3066 127.488 58.9249 127.712 58.6748C127.936 58.4182 128.242 58.2899 128.63 58.2899C128.867 58.2899 129.081 58.3458 129.272 58.4577C129.463 58.5696 129.614 58.7374 129.726 58.9611C129.844 59.1849 129.904 59.458 129.904 59.7804ZM149.586 60.2641V68.0919C149.586 68.9868 149.491 69.7568 149.3 70.4017C149.109 71.0466 148.803 71.5796 148.382 72.0008C147.961 72.422 147.408 72.7346 146.724 72.9386C146.046 73.1426 145.2 73.2446 144.187 73.2446C143.259 73.2446 142.43 73.113 141.699 72.8497C140.969 72.5931 140.406 72.2575 140.012 71.8429C139.617 71.4349 139.419 71.0137 139.419 70.5794C139.419 70.2503 139.531 69.9805 139.755 69.7699C139.979 69.5659 140.248 69.4639 140.564 69.4639C140.959 69.4639 141.305 69.6383 141.601 69.9871C141.746 70.1648 141.894 70.3425 142.045 70.5201C142.203 70.7044 142.374 70.8591 142.558 70.9841C142.749 71.1157 142.976 71.2111 143.239 71.2703C143.503 71.3362 143.805 71.3691 144.147 71.3691C144.845 71.3691 145.385 71.2703 145.766 71.0729C146.155 70.8821 146.424 70.6123 146.576 70.2635C146.734 69.9147 146.826 69.5396 146.852 69.1382C146.878 68.7434 146.898 68.105 146.911 67.2232C146.497 67.8023 146.016 68.2432 145.47 68.5459C144.931 68.8486 144.286 69 143.535 69C142.634 69 141.844 68.7697 141.166 68.309C140.495 67.8484 139.979 67.2035 139.617 66.3743C139.255 65.5451 139.074 64.5876 139.074 63.5018C139.074 62.6924 139.182 61.9619 139.4 61.3104C139.623 60.6589 139.939 60.1094 140.347 59.662C140.755 59.2145 141.226 58.8788 141.759 58.6551C142.292 58.4248 142.877 58.3096 143.516 58.3096C144.279 58.3096 144.94 58.4577 145.5 58.7538C146.059 59.0434 146.579 59.5007 147.059 60.1259V59.7607C147.059 59.2934 147.175 58.9315 147.405 58.6748C147.635 58.4182 147.931 58.2899 148.293 58.2899C148.813 58.2899 149.159 58.461 149.33 58.8032C149.501 59.1388 149.586 59.6258 149.586 60.2641ZM141.778 63.6795C141.778 64.7719 142.015 65.5978 142.489 66.1571C142.97 66.7165 143.588 66.9962 144.345 66.9962C144.792 66.9962 145.214 66.8777 145.608 66.6408C146.01 66.3973 146.336 66.0354 146.586 65.555C146.836 65.068 146.961 64.479 146.961 63.7881C146.961 62.6891 146.717 61.8336 146.23 61.2216C145.75 60.6096 145.115 60.3036 144.325 60.3036C143.555 60.3036 142.937 60.5964 142.469 61.1821C142.009 61.7678 141.778 62.6002 141.778 63.6795ZM158.609 67.7266C157.957 68.2333 157.325 68.615 156.713 68.8717C156.108 69.1217 155.427 69.2468 154.67 69.2468C153.979 69.2468 153.37 69.1119 152.844 68.8421C152.324 68.5657 151.923 68.1939 151.64 67.7266C151.357 67.2594 151.215 66.7527 151.215 66.2065C151.215 65.4694 151.449 64.841 151.916 64.3211C152.383 63.8012 153.025 63.4525 153.841 63.2748C154.012 63.2353 154.436 63.1464 155.114 63.0083C155.792 62.8701 156.371 62.745 156.852 62.6332C157.339 62.5147 157.865 62.3732 158.431 62.2087C158.398 61.498 158.253 60.9781 157.997 60.6491C157.747 60.3134 157.223 60.1456 156.427 60.1456C155.743 60.1456 155.226 60.2411 154.877 60.4319C154.535 60.6227 154.239 60.909 153.989 61.2907C153.745 61.6724 153.571 61.9257 153.466 62.0508C153.367 62.1692 153.15 62.2284 152.814 62.2284C152.512 62.2284 152.248 62.133 152.025 61.9422C151.807 61.7448 151.699 61.4947 151.699 61.192C151.699 60.7182 151.867 60.2575 152.202 59.81C152.538 59.3625 153.061 58.994 153.772 58.7045C154.483 58.4149 155.368 58.2701 156.427 58.2701C157.612 58.2701 158.543 58.4116 159.221 58.6946C159.898 58.971 160.376 59.4119 160.652 60.0173C160.935 60.6227 161.076 61.4256 161.076 62.4259C161.076 63.0576 161.073 63.5939 161.067 64.0348C161.067 64.4758 161.063 64.966 161.057 65.5056C161.057 66.0124 161.139 66.5421 161.303 67.0949C161.475 67.6411 161.56 67.9931 161.56 68.1511C161.56 68.4275 161.428 68.6808 161.165 68.9112C160.909 69.1349 160.616 69.2468 160.287 69.2468C160.01 69.2468 159.737 69.1185 159.467 68.8618C159.198 68.5986 158.911 68.2202 158.609 67.7266ZM158.431 63.8276C158.036 63.9723 157.46 64.127 156.704 64.2915C155.953 64.4494 155.433 64.5679 155.144 64.6469C154.854 64.7192 154.578 64.8673 154.315 65.0911C154.051 65.3082 153.92 65.6142 153.92 66.0091C153.92 66.4171 154.075 66.7658 154.384 67.0554C154.693 67.3384 155.098 67.4799 155.598 67.4799C156.131 67.4799 156.621 67.3647 157.069 67.1344C157.523 66.8975 157.855 66.5947 158.066 66.2262C158.309 65.8182 158.431 65.147 158.431 64.2125V63.8276ZM166.269 59.7804V60.1062C166.742 59.481 167.259 59.0236 167.818 58.7341C168.384 58.4379 169.032 58.2899 169.763 58.2899C170.474 58.2899 171.109 58.4445 171.668 58.7538C172.227 59.0631 172.645 59.5007 172.922 60.0667C173.099 60.3957 173.215 60.7511 173.267 61.1327C173.32 61.5144 173.346 62.0014 173.346 62.5937V67.6082C173.346 68.1478 173.221 68.5558 172.971 68.8322C172.728 69.1086 172.408 69.2468 172.014 69.2468C171.612 69.2468 171.286 69.1053 171.036 68.8223C170.786 68.5393 170.661 68.1346 170.661 67.6082V63.1168C170.661 62.2284 170.536 61.5506 170.286 61.0834C170.043 60.6096 169.552 60.3727 168.815 60.3727C168.335 60.3727 167.897 60.5174 167.502 60.807C167.108 61.09 166.818 61.4815 166.634 61.9817C166.502 62.3831 166.436 63.1333 166.436 64.2323V67.6082C166.436 68.1544 166.308 68.5657 166.051 68.8421C165.801 69.1119 165.476 69.2468 165.074 69.2468C164.686 69.2468 164.367 69.1053 164.117 68.8223C163.867 68.5393 163.742 68.1346 163.742 67.6082V59.8199C163.742 59.3066 163.853 58.9249 164.077 58.6748C164.301 58.4182 164.607 58.2899 164.995 58.2899C165.232 58.2899 165.446 58.3458 165.637 58.4577C165.828 58.5696 165.979 58.7374 166.091 58.9611C166.209 59.1849 166.269 59.458 166.269 59.7804ZM184.155 56.059V66.5915H190.097C190.571 66.5915 190.933 66.7066 191.183 66.9369C191.44 67.1673 191.568 67.4568 191.568 67.8056C191.568 68.161 191.443 68.4505 191.193 68.6743C190.943 68.8914 190.578 69 190.097 69H183.02C182.381 69 181.921 68.8585 181.638 68.5755C181.361 68.2926 181.223 67.8352 181.223 67.2035V56.059C181.223 55.4667 181.355 55.0225 181.618 54.7264C181.888 54.4303 182.24 54.2822 182.674 54.2822C183.115 54.2822 183.471 54.4303 183.74 54.7264C184.017 55.016 184.155 55.4602 184.155 56.059ZM203.038 56.7895H196.435V60.3431H202.515C202.963 60.3431 203.295 60.4451 203.512 60.6491C203.736 60.8465 203.848 61.1097 203.848 61.4388C203.848 61.7678 203.739 62.0376 203.522 62.2482C203.305 62.4522 202.969 62.5542 202.515 62.5542H196.435V66.6704H203.265C203.726 66.6704 204.072 66.779 204.302 66.9962C204.539 67.2068 204.657 67.4897 204.657 67.8451C204.657 68.1873 204.539 68.467 204.302 68.6841C204.072 68.8947 203.726 69 203.265 69H195.299C194.661 69 194.2 68.8585 193.917 68.5755C193.641 68.2926 193.503 67.8352 193.503 67.2035V56.3255C193.503 55.9044 193.565 55.5622 193.69 55.2989C193.815 55.0291 194.01 54.835 194.273 54.7165C194.543 54.5915 194.885 54.529 195.299 54.529H203.038C203.506 54.529 203.851 54.6343 204.075 54.8449C204.305 55.0489 204.42 55.3187 204.42 55.6543C204.42 55.9965 204.305 56.2729 204.075 56.4835C203.851 56.6875 203.506 56.7895 203.038 56.7895ZM208.803 54.529H212.623C213.617 54.529 214.469 54.6211 215.18 54.8054C215.891 54.9896 216.535 55.3351 217.115 55.8418C218.622 57.1317 219.375 59.0927 219.375 61.725C219.375 62.5937 219.299 63.3866 219.148 64.1039C218.997 64.8212 218.763 65.4694 218.447 66.0485C218.131 66.6211 217.727 67.1344 217.233 67.5884C216.845 67.9372 216.42 68.2169 215.96 68.4275C215.499 68.6381 215.002 68.7861 214.469 68.8717C213.943 68.9572 213.347 69 212.682 69H208.862C208.329 69 207.928 68.921 207.658 68.7631C207.388 68.5986 207.211 68.3715 207.125 68.082C207.046 67.7859 207.007 67.4042 207.007 66.9369V56.3255C207.007 55.6938 207.148 55.2364 207.431 54.9534C207.714 54.6705 208.171 54.529 208.803 54.529ZM209.938 56.8487V66.6704H212.159C212.646 66.6704 213.028 66.6573 213.304 66.6309C213.581 66.6046 213.867 66.5388 214.163 66.4335C214.459 66.3282 214.716 66.1802 214.933 65.9893C215.914 65.1601 216.404 63.7321 216.404 61.7053C216.404 60.2773 216.187 59.2079 215.752 58.4972C215.325 57.7864 214.795 57.3357 214.163 57.1448C213.531 56.9474 212.768 56.8487 211.873 56.8487H209.938Z" fill="#F5F5F5"/>
</g>
<defs>
<filter id="filter0_d_293_1037" x="0" y="0" width="444" height="135" filterUnits="userSpaceOnUse" color-interpolation-filters="sRGB">
<feFlood flood-opacity="0" result="BackgroundImageFix"/>
<feColorMatrix in="SourceAlpha" type="matrix" values="0 0 0 0 0 0 0 0 0 0 0 0 0 0 0 0 0 0 127 0" result="hardAlpha"/>
<feOffset dy="4"/>
<feGaussianBlur stdDeviation="2"/>
<feComposite in2="hardAlpha" operator="out"/>
<feColorMatrix type="matrix" values="0 0 0 0 0 0 0 0 0 0 0 0 0 0 0 0 0 0 0.25 0"/>
<feBlend mode="normal" in2="BackgroundImageFix" result="effect1_dropShadow_293_1037"/>
<feBlend mode="normal" in="SourceGraphic" in2="effect1_dropShadow_293_1037" result="shape"/>
</filter>
</defs>
</svg>
