<svg width="444" height="135" viewBox="0 0 444 135" fill="none" xmlns="http://www.w3.org/2000/svg">
<g filter="url(#filter0_d_293_1037)">
<rect x="7" y="3" width="430" height="121" rx="33" stroke="#9575DE" stroke-width="6"/>
<rect x="7" y="3" width="430" height="121" rx="33" fill="#151515" stroke="#9575DE" stroke-width="6"/>
<path d="M42.4932 34.3066C42.4932 35.1803 42.3571 35.986 42.085 36.7236C41.8128 37.4613 41.4189 38.0951 40.9033 38.625C40.3877 39.1549 39.7718 39.5632 39.0557 39.8496C38.3395 40.1289 37.5339 40.2686 36.6387 40.2686C35.7507 40.2686 34.9521 40.1253 34.2432 39.8389C33.5342 39.5524 32.9183 39.1442 32.3955 38.6143C31.8799 38.0771 31.486 37.4469 31.2139 36.7236C30.9489 35.9932 30.8164 35.1875 30.8164 34.3066C30.8164 33.4186 30.9525 32.6058 31.2246 31.8682C31.4967 31.1305 31.887 30.5003 32.3955 29.9775C32.904 29.4548 33.5199 29.0537 34.2432 28.7744C34.9665 28.488 35.765 28.3447 36.6387 28.3447C37.5267 28.3447 38.3324 28.488 39.0557 28.7744C39.779 29.0609 40.3984 29.4691 40.9141 29.999C41.4297 30.529 41.82 31.1592 42.085 31.8896C42.3571 32.6201 42.4932 33.4258 42.4932 34.3066ZM39.5498 34.3066C39.5498 33.1107 39.2848 32.1797 38.7549 31.5137C38.2321 30.8477 37.5267 30.5146 36.6387 30.5146C36.0658 30.5146 35.5609 30.665 35.124 30.9658C34.6872 31.2594 34.3506 31.6963 34.1143 32.2764C33.8779 32.8564 33.7598 33.5332 33.7598 34.3066C33.7598 35.0729 33.8743 35.7425 34.1035 36.3154C34.3398 36.8883 34.6729 37.3288 35.1025 37.6367C35.5394 37.9375 36.0514 38.0879 36.6387 38.0879C37.5267 38.0879 38.2321 37.7549 38.7549 37.0889C39.2848 36.4157 39.5498 35.4883 39.5498 34.3066ZM47.5205 25.6592V30.1387C48.0719 29.5658 48.6341 29.1289 49.207 28.8281C49.7799 28.5202 50.4889 28.3662 51.334 28.3662C52.3079 28.3662 53.1602 28.599 53.8906 29.0645C54.6283 29.5228 55.1976 30.1924 55.5986 31.0732C56.0068 31.9469 56.2109 32.9854 56.2109 34.1885C56.2109 35.0765 56.0964 35.8929 55.8672 36.6377C55.6452 37.3753 55.3193 38.0163 54.8896 38.5605C54.46 39.1048 53.9372 39.5273 53.3213 39.8281C52.7126 40.1217 52.0394 40.2686 51.3018 40.2686C50.8506 40.2686 50.4245 40.2148 50.0234 40.1074C49.6296 40 49.293 39.8604 49.0137 39.6885C48.7344 39.5094 48.4945 39.3268 48.2939 39.1406C48.1006 38.9544 47.8428 38.6751 47.5205 38.3027V38.5928C47.5205 39.1442 47.388 39.5632 47.123 39.8496C46.8581 40.1289 46.5215 40.2686 46.1133 40.2686C45.6979 40.2686 45.3649 40.1289 45.1143 39.8496C44.8708 39.5632 44.749 39.1442 44.749 38.5928V25.7881C44.749 25.1937 44.8672 24.7461 45.1035 24.4453C45.347 24.1374 45.6836 23.9834 46.1133 23.9834C46.5645 23.9834 46.9118 24.1302 47.1553 24.4238C47.3988 24.7103 47.5205 25.1221 47.5205 25.6592ZM47.6602 34.3711C47.6602 35.5384 47.9251 36.4372 48.4551 37.0674C48.9922 37.6904 49.694 38.002 50.5605 38.002C51.2982 38.002 51.932 37.6833 52.4619 37.0459C52.999 36.4014 53.2676 35.4811 53.2676 34.2852C53.2676 33.5117 53.1566 32.8457 52.9346 32.2871C52.7126 31.7285 52.3975 31.2988 51.9893 30.998C51.5811 30.6901 51.1048 30.5361 50.5605 30.5361C50.002 30.5361 49.5042 30.6901 49.0674 30.998C48.6305 31.2988 48.2868 31.7393 48.0361 32.3193C47.7855 32.8923 47.6602 33.5762 47.6602 34.3711ZM61.5176 30.0957V40.043C61.5176 40.752 61.4925 41.3285 61.4424 41.7725C61.3994 42.2236 61.335 42.5495 61.249 42.75C60.762 43.9961 59.7272 44.6191 58.1445 44.6191C57.2565 44.6191 56.5833 44.4974 56.125 44.2539C55.6667 44.0104 55.4375 43.6559 55.4375 43.1904C55.4375 42.8467 55.5413 42.5638 55.749 42.3418C55.9567 42.127 56.2288 42.0195 56.5654 42.0195C56.6084 42.0195 56.68 42.0231 56.7803 42.0303C56.8734 42.0446 57.013 42.0589 57.1992 42.0732C57.3926 42.0876 57.5251 42.0947 57.5967 42.0947C57.9906 42.0947 58.252 41.9408 58.3809 41.6328C58.5169 41.3249 58.585 40.7734 58.585 39.9785V30.0957C58.585 29.5156 58.721 29.0788 58.9932 28.7852C59.2653 28.4915 59.6234 28.3447 60.0674 28.3447C60.4971 28.3447 60.8444 28.4915 61.1094 28.7852C61.3815 29.0716 61.5176 29.5085 61.5176 30.0957ZM60.0674 26.9805C59.6592 26.9805 59.3083 26.8551 59.0146 26.6045C58.7282 26.3538 58.585 25.9994 58.585 25.541C58.585 25.1257 58.7318 24.7855 59.0254 24.5205C59.3262 24.2484 59.6735 24.1123 60.0674 24.1123C60.4469 24.1123 60.7835 24.2341 61.0771 24.4775C61.3708 24.721 61.5176 25.0755 61.5176 25.541C61.5176 25.9922 61.3743 26.3467 61.0879 26.6045C60.8014 26.8551 60.4613 26.9805 60.0674 26.9805ZM72.7217 35.0264H66.9853C66.9925 35.6924 67.125 36.2796 67.3828 36.7881C67.6478 37.2965 67.9951 37.6797 68.4248 37.9375C68.8616 38.1953 69.3415 38.3242 69.8643 38.3242C70.2152 38.3242 70.5338 38.2848 70.8203 38.2061C71.1139 38.1201 71.3968 37.9912 71.6689 37.8193C71.9411 37.6403 72.1917 37.4505 72.4209 37.25C72.6501 37.0495 72.9473 36.7773 73.3125 36.4336C73.4629 36.3047 73.6777 36.2402 73.957 36.2402C74.2578 36.2402 74.5013 36.3226 74.6875 36.4873C74.8737 36.652 74.9668 36.8848 74.9668 37.1855C74.9668 37.4505 74.863 37.762 74.6553 38.1201C74.4476 38.471 74.1325 38.8112 73.71 39.1406C73.2946 39.4629 72.7682 39.7314 72.1309 39.9463C71.5006 40.1611 70.7738 40.2686 69.9502 40.2686C68.0667 40.2686 66.6022 39.7314 65.5566 38.6572C64.5111 37.583 63.9883 36.1257 63.9883 34.2852C63.9883 33.4186 64.1172 32.6165 64.375 31.8789C64.6328 31.1341 65.0088 30.4967 65.5029 29.9668C65.9971 29.4368 66.6058 29.0322 67.3291 28.7529C68.0524 28.4665 68.8545 28.3232 69.7353 28.3232C70.8812 28.3232 71.8623 28.5667 72.6787 29.0537C73.5023 29.5335 74.1182 30.1566 74.5264 30.9229C74.9346 31.6891 75.1387 32.4697 75.1387 33.2646C75.1387 34.0023 74.9274 34.4821 74.5049 34.7041C74.0824 34.9189 73.488 35.0264 72.7217 35.0264ZM66.9853 33.3613H72.3027C72.2311 32.3587 71.959 31.6104 71.4863 31.1162C71.0208 30.6149 70.4049 30.3643 69.6387 30.3643C68.9082 30.3643 68.3066 30.6185 67.834 31.127C67.3685 31.6283 67.0856 32.373 66.9853 33.3613ZM88.1367 36.6377C88.1367 37.0029 88.0257 37.3932 87.8037 37.8086C87.5889 38.224 87.2559 38.6214 86.8047 39.001C86.3607 39.3734 85.7985 39.6742 85.1182 39.9033C84.4378 40.1325 83.6715 40.2471 82.8193 40.2471C81.0075 40.2471 79.5931 39.7207 78.5762 38.668C77.5592 37.6081 77.0508 36.1901 77.0508 34.4141C77.0508 33.2109 77.2835 32.1475 77.749 31.2236C78.2145 30.2998 78.8877 29.5872 79.7686 29.0859C80.6494 28.5775 81.7021 28.3232 82.9268 28.3232C83.6859 28.3232 84.3805 28.4342 85.0107 28.6563C85.6481 28.8783 86.1852 29.1647 86.6221 29.5156C87.0661 29.8665 87.4027 30.2425 87.6318 30.6436C87.8682 31.0374 87.9863 31.4063 87.9863 31.75C87.9863 32.1009 87.8538 32.3981 87.5889 32.6416C87.331 32.8851 87.0159 33.0068 86.6435 33.0068C86.4001 33.0068 86.196 32.946 86.0312 32.8242C85.8737 32.6953 85.6947 32.4912 85.4941 32.2119C85.1361 31.6676 84.7601 31.2594 84.3662 30.9873C83.9795 30.7152 83.4853 30.5791 82.8838 30.5791C82.0172 30.5791 81.319 30.9193 80.7891 31.5996C80.2591 32.2728 79.9941 33.1966 79.9941 34.3711C79.9941 34.9225 80.0622 35.431 80.1982 35.8965C80.3343 36.3548 80.5312 36.7487 80.7891 37.0781C81.0469 37.4004 81.3584 37.6475 81.7236 37.8193C82.0889 37.984 82.4899 38.0664 82.9268 38.0664C83.514 38.0664 84.0153 37.9303 84.4307 37.6582C84.8532 37.3861 85.2256 36.9707 85.5478 36.4121C85.7269 36.0827 85.9202 35.8249 86.1279 35.6387C86.3356 35.4525 86.5898 35.3594 86.8906 35.3594C87.2487 35.3594 87.5459 35.4954 87.7822 35.7676C88.0185 36.0397 88.1367 36.3298 88.1367 36.6377ZM90.8652 28.6025H91.1875V26.8408C91.1875 26.3682 91.1982 25.9994 91.2197 25.7344C91.2484 25.4622 91.32 25.2295 91.4346 25.0361C91.5491 24.8356 91.7139 24.6745 91.9287 24.5527C92.1436 24.4238 92.3835 24.3594 92.6484 24.3594C93.0208 24.3594 93.3574 24.499 93.6582 24.7783C93.8587 24.9645 93.984 25.1937 94.0342 25.4658C94.0915 25.7308 94.1201 26.1104 94.1201 26.6045V28.6025H95.1943C95.6097 28.6025 95.9248 28.7028 96.1396 28.9033C96.3616 29.0967 96.4727 29.3473 96.4727 29.6553C96.4727 30.0492 96.3151 30.3249 96 30.4824C95.6921 30.64 95.248 30.7188 94.668 30.7188H94.1201V36.1113C94.1201 36.5697 94.1344 36.9242 94.1631 37.1748C94.1989 37.4183 94.2848 37.6188 94.4209 37.7764C94.5641 37.9268 94.7933 38.002 95.1084 38.002C95.2803 38.002 95.513 37.9733 95.8066 37.916C96.1003 37.8516 96.3294 37.8193 96.4941 37.8193C96.7305 37.8193 96.9417 37.916 97.1279 38.1094C97.3213 38.2956 97.418 38.5283 97.418 38.8076C97.418 39.2803 97.1602 39.6419 96.6445 39.8926C96.1289 40.1432 95.3877 40.2686 94.4209 40.2686C93.5042 40.2686 92.8096 40.1146 92.3369 39.8066C91.8643 39.4987 91.5527 39.0726 91.4023 38.5283C91.2591 37.984 91.1875 37.2572 91.1875 36.3477V30.7188H90.8008C90.3783 30.7188 90.056 30.6185 89.834 30.418C89.612 30.2174 89.501 29.9632 89.501 29.6553C89.501 29.3473 89.6156 29.0967 89.8447 28.9033C90.0811 28.7028 90.4212 28.6025 90.8652 28.6025ZM101.436 30.0098V38.4854C101.436 39.0726 101.296 39.5166 101.017 39.8174C100.737 40.1182 100.383 40.2686 99.9531 40.2686C99.5234 40.2686 99.1725 40.1146 98.9004 39.8066C98.6354 39.4987 98.5029 39.0583 98.5029 38.4854V30.0957C98.5029 29.5156 98.6354 29.0788 98.9004 28.7852C99.1725 28.4915 99.5234 28.3447 99.9531 28.3447C100.383 28.3447 100.737 28.4915 101.017 28.7852C101.296 29.0788 101.436 29.487 101.436 30.0098ZM99.9853 26.9805C99.5771 26.9805 99.2262 26.8551 98.9326 26.6045C98.6462 26.3538 98.5029 25.9994 98.5029 25.541C98.5029 25.1257 98.6497 24.7855 98.9434 24.5205C99.2441 24.2484 99.5915 24.1123 99.9853 24.1123C100.365 24.1123 100.701 24.2341 100.995 24.4775C101.289 24.721 101.436 25.0755 101.436 25.541C101.436 25.9922 101.292 26.3467 101.006 26.6045C100.719 26.8551 100.379 26.9805 99.9853 26.9805ZM106.549 30.1709L108.923 36.8311L111.479 29.8809C111.68 29.3223 111.877 28.9284 112.07 28.6992C112.264 28.4629 112.557 28.3447 112.951 28.3447C113.324 28.3447 113.639 28.4701 113.896 28.7207C114.161 28.9714 114.294 29.2614 114.294 29.5908C114.294 29.7197 114.269 29.8701 114.219 30.042C114.176 30.2139 114.122 30.375 114.058 30.5254C114 30.6758 113.932 30.8477 113.854 31.041L111.039 38.0234C110.96 38.224 110.856 38.4782 110.728 38.7861C110.606 39.0941 110.466 39.359 110.309 39.5811C110.158 39.7959 109.968 39.9642 109.739 40.0859C109.517 40.2077 109.245 40.2686 108.923 40.2686C108.507 40.2686 108.174 40.1755 107.924 39.9893C107.68 39.7959 107.498 39.5882 107.376 39.3662C107.261 39.137 107.064 38.6895 106.785 38.0234L103.992 31.1162C103.928 30.9443 103.86 30.7725 103.788 30.6006C103.724 30.4287 103.666 30.2533 103.616 30.0742C103.573 29.8952 103.552 29.7412 103.552 29.6123C103.552 29.4118 103.613 29.2148 103.734 29.0215C103.856 28.821 104.024 28.6598 104.239 28.5381C104.454 28.4092 104.687 28.3447 104.937 28.3447C105.424 28.3447 105.757 28.4844 105.937 28.7637C106.123 29.043 106.327 29.512 106.549 30.1709ZM124.284 35.0264H118.548C118.555 35.6924 118.687 36.2796 118.945 36.7881C119.21 37.2965 119.558 37.6797 119.987 37.9375C120.424 38.1953 120.904 38.3242 121.427 38.3242C121.778 38.3242 122.096 38.2848 122.383 38.2061C122.676 38.1201 122.959 37.9912 123.231 37.8193C123.504 37.6403 123.754 37.4505 123.983 37.25C124.213 37.0495 124.51 36.7773 124.875 36.4336C125.025 36.3047 125.24 36.2402 125.52 36.2402C125.82 36.2402 126.064 36.3226 126.25 36.4873C126.436 36.652 126.529 36.8848 126.529 37.1855C126.529 37.4505 126.425 37.762 126.218 38.1201C126.01 38.471 125.695 38.8112 125.272 39.1406C124.857 39.4629 124.331 39.7314 123.693 39.9463C123.063 40.1611 122.336 40.2686 121.513 40.2686C119.629 40.2686 118.165 39.7314 117.119 38.6572C116.074 37.583 115.551 36.1257 115.551 34.2852C115.551 33.4186 115.68 32.6165 115.937 31.8789C116.195 31.1341 116.571 30.4967 117.065 29.9668C117.56 29.4368 118.168 29.0322 118.892 28.7529C119.615 28.4665 120.417 28.3232 121.298 28.3232C122.444 28.3232 123.425 28.5667 124.241 29.0537C125.065 29.5335 125.681 30.1566 126.089 30.9229C126.497 31.6891 126.701 32.4697 126.701 33.2646C126.701 34.0023 126.49 34.4821 126.067 34.7041C125.645 34.9189 125.05 35.0264 124.284 35.0264ZM118.548 33.3613H123.865C123.794 32.3587 123.521 31.6104 123.049 31.1162C122.583 30.6149 121.967 30.3643 121.201 30.3643C120.471 30.3643 119.869 30.6185 119.396 31.127C118.931 31.6283 118.648 32.373 118.548 33.3613ZM138.625 36.4336C138.625 37.2428 138.428 37.9375 138.034 38.5176C137.64 39.0905 137.057 39.5273 136.283 39.8281C135.517 40.1217 134.582 40.2686 133.479 40.2686C132.427 40.2686 131.524 40.1074 130.772 39.7852C130.02 39.4629 129.465 39.0618 129.107 38.582C128.749 38.0951 128.57 37.6081 128.57 37.1211C128.57 36.7988 128.685 36.5231 128.914 36.2939C129.143 36.0648 129.433 35.9502 129.784 35.9502C130.092 35.9502 130.328 36.0254 130.493 36.1758C130.658 36.3262 130.815 36.5374 130.966 36.8096C131.267 37.3324 131.625 37.7227 132.04 37.9805C132.463 38.2383 133.035 38.3672 133.759 38.3672C134.346 38.3672 134.826 38.2383 135.198 37.9805C135.578 37.7155 135.768 37.4147 135.768 37.0781C135.768 36.5625 135.571 36.1865 135.177 35.9502C134.79 35.7139 134.149 35.4883 133.254 35.2734C132.244 35.0228 131.421 34.7614 130.783 34.4893C130.153 34.21 129.648 33.8447 129.269 33.3936C128.889 32.9424 128.699 32.3874 128.699 31.7285C128.699 31.1413 128.875 30.5863 129.226 30.0635C129.576 29.5407 130.092 29.1253 130.772 28.8174C131.46 28.5023 132.287 28.3447 133.254 28.3447C134.013 28.3447 134.693 28.4235 135.295 28.5811C135.904 28.7386 136.409 28.9499 136.81 29.2148C137.218 29.4798 137.526 29.7734 137.733 30.0957C137.948 30.418 138.056 30.7331 138.056 31.041C138.056 31.3776 137.941 31.6533 137.712 31.8682C137.49 32.083 137.171 32.1904 136.756 32.1904C136.455 32.1904 136.197 32.1045 135.982 31.9326C135.775 31.7607 135.535 31.5029 135.263 31.1592C135.041 30.8727 134.779 30.6436 134.479 30.4717C134.178 30.2998 133.77 30.2139 133.254 30.2139C132.724 30.2139 132.284 30.3285 131.933 30.5576C131.582 30.7796 131.406 31.0589 131.406 31.3955C131.406 31.7035 131.535 31.9577 131.793 32.1582C132.051 32.3516 132.398 32.5127 132.835 32.6416C133.272 32.7705 133.873 32.9281 134.64 33.1143C135.549 33.3363 136.29 33.6012 136.863 33.9092C137.443 34.2171 137.88 34.5824 138.174 35.0049C138.475 35.4202 138.625 35.8965 138.625 36.4336ZM143.051 40.2686C142.607 40.2686 142.224 40.1253 141.901 39.8389C141.579 39.5524 141.418 39.1514 141.418 38.6357C141.418 38.1989 141.572 37.8229 141.88 37.5078C142.188 37.1927 142.567 37.0352 143.019 37.0352C143.47 37.0352 143.853 37.1927 144.168 37.5078C144.49 37.8158 144.651 38.1917 144.651 38.6357C144.651 39.1442 144.49 39.5452 144.168 39.8389C143.853 40.1253 143.48 40.2686 143.051 40.2686ZM141.418 29.9453C141.418 29.4368 141.576 29.043 141.891 28.7637C142.213 28.4844 142.6 28.3447 143.051 28.3447C143.488 28.3447 143.864 28.488 144.179 28.7744C144.494 29.0537 144.651 29.444 144.651 29.9453C144.651 30.3464 144.479 30.7152 144.136 31.0518C143.792 31.3883 143.42 31.5566 143.019 31.5566C142.582 31.5566 142.206 31.3955 141.891 31.0732C141.576 30.751 141.418 30.375 141.418 29.9453Z" fill="#9575DE"/>
<path d="M32.0317 63.0181V56.059C32.0317 55.4667 32.1633 55.0225 32.4266 54.7264C32.6964 54.4303 33.0485 54.2822 33.4828 54.2822C33.9369 54.2822 34.2955 54.4303 34.5587 54.7264C34.8285 55.0225 34.9634 55.4667 34.9634 56.059V63.1761C34.9634 63.9855 35.0523 64.6633 35.23 65.2095C35.4142 65.7491 35.7367 66.1703 36.1973 66.473C36.658 66.7691 37.3029 66.9172 38.1321 66.9172C39.2771 66.9172 40.0865 66.6145 40.5603 66.0091C41.0342 65.3971 41.2711 64.4725 41.2711 63.2353V56.059C41.2711 55.4602 41.4027 55.016 41.6659 54.7264C41.9291 54.4303 42.2812 54.2822 42.7221 54.2822C43.163 54.2822 43.5184 54.4303 43.7882 54.7264C44.0646 55.016 44.2028 55.4602 44.2028 56.059V63.0181C44.2028 64.15 44.0909 65.0943 43.8672 65.8511C43.65 66.6079 43.2354 67.2726 42.6234 67.8451C42.0969 68.3321 41.4849 68.6874 40.7874 68.9112C40.0898 69.1349 39.2738 69.2468 38.3394 69.2468C37.2272 69.2468 36.2697 69.1283 35.4669 68.8914C34.664 68.6479 34.0092 68.2761 33.5025 67.776C32.9958 67.2693 32.624 66.6244 32.3871 65.8413C32.1502 65.0516 32.0317 64.1105 32.0317 63.0181ZM53.8962 68.0129L51.5173 64.1039L50.0563 65.4859V67.6279C50.0563 68.1478 49.9181 68.5492 49.6417 68.8322C49.3719 69.1086 49.0594 69.2468 48.704 69.2468C48.2894 69.2468 47.9637 69.1086 47.7268 68.8322C47.4898 68.5558 47.3714 68.1478 47.3714 67.6082V56.1182C47.3714 55.5194 47.4866 55.0653 47.7169 54.756C47.9472 54.4402 48.2762 54.2822 48.704 54.2822C49.1186 54.2822 49.4476 54.4237 49.6911 54.7067C49.9346 54.9896 50.0563 55.4075 50.0563 55.9603V62.495L53.0868 59.3165C53.4619 58.9216 53.7481 58.6518 53.9455 58.507C54.143 58.3623 54.3832 58.2899 54.6661 58.2899C55.0017 58.2899 55.2814 58.3985 55.5052 58.6156C55.7289 58.8262 55.8408 59.0927 55.8408 59.4152C55.8408 59.81 55.4756 60.3365 54.7451 60.9946L53.3138 62.3074L56.0777 66.6507C56.2817 66.9731 56.4265 67.2199 56.512 67.391C56.6041 67.5555 56.6502 67.7135 56.6502 67.8648C56.6502 68.2926 56.5318 68.6315 56.2949 68.8815C56.0645 69.125 55.7585 69.2468 55.3768 69.2468C55.0478 69.2468 54.7945 69.1579 54.6168 68.9803C54.4391 68.8026 54.1989 68.4801 53.8962 68.0129ZM65.2578 67.7266V67.3811C64.9353 67.7891 64.5964 68.1313 64.2411 68.4077C63.8857 68.6841 63.4975 68.8881 63.0763 69.0197C62.6551 69.1579 62.1747 69.227 61.6351 69.227C60.9836 69.227 60.3979 69.0921 59.8781 68.8223C59.3648 68.5525 58.9666 68.1807 58.6837 67.7069C58.348 67.1344 58.1802 66.3118 58.1802 65.2391V59.8989C58.1802 59.3592 58.302 58.9578 58.5455 58.6946C58.7889 58.4248 59.1114 58.2899 59.5128 58.2899C59.9208 58.2899 60.2499 58.4248 60.4999 58.6946C60.75 58.9644 60.875 59.3658 60.875 59.8989V64.2125C60.875 64.8377 60.9277 65.3642 61.033 65.7919C61.1383 66.2131 61.3258 66.5454 61.5956 66.7889C61.872 67.0258 62.2438 67.1442 62.7111 67.1442C63.1651 67.1442 63.5929 67.0093 63.9943 66.7395C64.3957 66.4697 64.6886 66.1176 64.8728 65.6833C65.0242 65.3016 65.0999 64.4659 65.0999 63.1761V59.8989C65.0999 59.3658 65.2249 58.9644 65.475 58.6946C65.725 58.4248 66.0508 58.2899 66.4522 58.2899C66.8536 58.2899 67.1761 58.4248 67.4196 58.6946C67.6631 58.9578 67.7848 59.3592 67.7848 59.8989V67.7069C67.7848 68.2202 67.6663 68.6052 67.4294 68.8618C67.1991 69.1185 66.8997 69.2468 66.5312 69.2468C66.1626 69.2468 65.8566 69.1152 65.6132 68.8519C65.3763 68.5821 65.2578 68.207 65.2578 67.7266ZM73.1547 65.3576V67.6082C73.1547 68.1544 73.0263 68.5657 72.7697 68.8421C72.513 69.1119 72.1873 69.2468 71.7925 69.2468C71.4042 69.2468 71.085 69.1086 70.835 68.8322C70.5849 68.5558 70.4599 68.1478 70.4599 67.6082V60.1062C70.4599 58.8953 70.8975 58.2899 71.7727 58.2899C72.2202 58.2899 72.5427 58.4314 72.7401 58.7143C72.9375 58.9973 73.0461 59.4152 73.0658 59.968C73.3883 59.4152 73.7173 58.9973 74.0529 58.7143C74.3951 58.4314 74.8492 58.2899 75.4151 58.2899C75.9811 58.2899 76.5306 58.4314 77.0636 58.7143C77.5967 58.9973 77.8632 59.3724 77.8632 59.8396C77.8632 60.1687 77.748 60.4418 77.5177 60.6589C77.2939 60.8695 77.0505 60.9748 76.7872 60.9748C76.6885 60.9748 76.4483 60.9156 76.0666 60.7971C75.6915 60.6721 75.3592 60.6096 75.0697 60.6096C74.6748 60.6096 74.3524 60.7149 74.1023 60.9255C73.8522 61.1295 73.6581 61.4355 73.5199 61.8435C73.3817 62.2515 73.2863 62.7384 73.2336 63.3044C73.181 63.8637 73.1547 64.5481 73.1547 65.3576ZM87.0334 55.9208V59.9186C87.3756 59.5238 87.7079 59.2112 88.0304 58.9809C88.3594 58.7505 88.7214 58.5794 89.1162 58.4676C89.5111 58.3491 89.9355 58.2899 90.3896 58.2899C91.074 58.2899 91.6794 58.4347 92.2059 58.7242C92.7389 59.0138 93.1568 59.4349 93.4595 59.9877C93.6503 60.3102 93.7787 60.6721 93.8445 61.0735C93.9103 61.4684 93.9432 61.9257 93.9432 62.4456V67.6082C93.9432 68.1478 93.8181 68.5558 93.5681 68.8322C93.3246 69.1086 92.9988 69.2468 92.5908 69.2468C91.7024 69.2468 91.2582 68.7006 91.2582 67.6082V63.0576C91.2582 62.1955 91.1299 61.5342 90.8733 61.0735C90.6166 60.6063 90.1296 60.3727 89.4123 60.3727C88.9319 60.3727 88.4976 60.5109 88.1094 60.7873C87.7277 61.0571 87.4414 61.4289 87.2506 61.9027C87.1058 62.3041 87.0334 63.0181 87.0334 64.0447V67.6082C87.0334 68.1412 86.9117 68.5492 86.6682 68.8322C86.4313 69.1086 86.0989 69.2468 85.6712 69.2468C84.7828 69.2468 84.3386 68.7006 84.3386 67.6082V55.9208C84.3386 55.3746 84.4538 54.9666 84.6841 54.6968C84.921 54.4204 85.25 54.2822 85.6712 54.2822C86.0989 54.2822 86.4313 54.4204 86.6682 54.6968C86.9117 54.9732 87.0334 55.3812 87.0334 55.9208ZM103.429 67.7266C102.778 68.2333 102.146 68.615 101.534 68.8717C100.929 69.1217 100.248 69.2468 99.4907 69.2468C98.7997 69.2468 98.191 69.1119 97.6646 68.8421C97.1447 68.5657 96.7433 68.1939 96.4603 67.7266C96.1773 67.2594 96.0358 66.7527 96.0358 66.2065C96.0358 65.4694 96.2695 64.841 96.7367 64.3211C97.2039 63.8012 97.8455 63.4525 98.6615 63.2748C98.8326 63.2353 99.2571 63.1464 99.9349 63.0083C100.613 62.8701 101.192 62.745 101.672 62.6332C102.159 62.5147 102.686 62.3732 103.252 62.2087C103.219 61.498 103.074 60.9781 102.817 60.6491C102.567 60.3134 102.044 60.1456 101.248 60.1456C100.563 60.1456 100.047 60.2411 99.698 60.4319C99.3558 60.6227 99.0597 60.909 98.8096 61.2907C98.5661 61.6724 98.3917 61.9257 98.2864 62.0508C98.1877 62.1692 97.9706 62.2284 97.635 62.2284C97.3322 62.2284 97.069 62.133 96.8453 61.9422C96.6281 61.7448 96.5195 61.4947 96.5195 61.192C96.5195 60.7182 96.6873 60.2575 97.0229 59.81C97.3586 59.3625 97.8817 58.994 98.5924 58.7045C99.3032 58.4149 100.188 58.2701 101.248 58.2701C102.432 58.2701 103.363 58.4116 104.041 58.6946C104.719 58.971 105.196 59.4119 105.473 60.0173C105.756 60.6227 105.897 61.4256 105.897 62.4259C105.897 63.0576 105.894 63.5939 105.887 64.0348C105.887 64.4758 105.884 64.966 105.877 65.5056C105.877 66.0124 105.96 66.5421 106.124 67.0949C106.295 67.6411 106.381 67.9931 106.381 68.1511C106.381 68.4275 106.249 68.6808 105.986 68.9112C105.729 69.1349 105.436 69.2468 105.107 69.2468C104.831 69.2468 104.558 69.1185 104.288 68.8618C104.018 68.5986 103.732 68.2202 103.429 67.7266ZM103.252 63.8276C102.857 63.9723 102.281 64.127 101.524 64.2915C100.774 64.4494 100.254 64.5679 99.9645 64.6469C99.675 64.7192 99.3986 64.8673 99.1354 65.0911C98.8721 65.3082 98.7405 65.6142 98.7405 66.0091C98.7405 66.4171 98.8952 66.7658 99.2045 67.0554C99.5138 67.3384 99.9185 67.4799 100.419 67.4799C100.952 67.4799 101.442 67.3647 101.889 67.1344C102.343 66.8975 102.676 66.5947 102.886 66.2262C103.13 65.8182 103.252 65.147 103.252 64.2125V63.8276ZM117.604 63.9657V67.549C117.604 68.1149 117.476 68.5393 117.219 68.8223C116.963 69.1053 116.624 69.2468 116.202 69.2468C115.794 69.2468 115.462 69.1053 115.205 68.8223C114.955 68.5393 114.83 68.1149 114.83 67.549V63.255C114.83 62.5772 114.807 62.0508 114.761 61.6757C114.715 61.3006 114.59 60.9946 114.386 60.7576C114.182 60.5142 113.86 60.3924 113.419 60.3924C112.537 60.3924 111.955 60.6951 111.672 61.3006C111.395 61.906 111.257 62.7746 111.257 63.9065V67.549C111.257 68.1083 111.129 68.5328 110.872 68.8223C110.622 69.1053 110.29 69.2468 109.875 69.2468C109.467 69.2468 109.131 69.1053 108.868 68.8223C108.612 68.5328 108.483 68.1083 108.483 67.549V59.8396C108.483 59.3329 108.598 58.9479 108.829 58.6847C109.066 58.4215 109.375 58.2899 109.757 58.2899C110.125 58.2899 110.431 58.4149 110.675 58.665C110.925 58.9085 111.05 59.2474 111.05 59.6817V59.9383C111.517 59.379 112.017 58.9677 112.55 58.7045C113.083 58.4412 113.675 58.3096 114.327 58.3096C115.005 58.3096 115.587 58.4445 116.074 58.7143C116.561 58.9841 116.963 59.3921 117.278 59.9383C117.732 59.3856 118.219 58.9776 118.739 58.7143C119.259 58.4445 119.835 58.3096 120.467 58.3096C121.204 58.3096 121.839 58.4544 122.372 58.7439C122.905 59.0335 123.303 59.4481 123.566 59.9877C123.797 60.4747 123.912 61.2413 123.912 62.2877V67.549C123.912 68.1149 123.783 68.5393 123.527 68.8223C123.27 69.1053 122.931 69.2468 122.51 69.2468C122.102 69.2468 121.766 69.1053 121.503 68.8223C121.247 68.5328 121.118 68.1083 121.118 67.549V63.0181C121.118 62.439 121.092 61.9751 121.039 61.6263C120.993 61.2775 120.862 60.9847 120.644 60.7478C120.427 60.5109 120.098 60.3924 119.657 60.3924C119.302 60.3924 118.963 60.4977 118.641 60.7083C118.325 60.9189 118.078 61.2018 117.9 61.5572C117.703 62.0113 117.604 62.8141 117.604 63.9657ZM129.015 55.8221V59.9383C129.522 59.4119 130.038 59.0105 130.565 58.7341C131.091 58.4511 131.743 58.3096 132.519 58.3096C133.414 58.3096 134.197 58.5235 134.869 58.9512C135.546 59.3724 136.07 59.9877 136.438 60.7971C136.813 61.6 137.001 62.5542 137.001 63.6597C137.001 64.4758 136.896 65.226 136.685 65.9104C136.481 66.5882 136.182 67.1771 135.787 67.6773C135.392 68.1774 134.911 68.5657 134.346 68.8421C133.786 69.1119 133.168 69.2468 132.49 69.2468C132.075 69.2468 131.684 69.1974 131.315 69.0987C130.953 69 130.644 68.8717 130.387 68.7137C130.131 68.5492 129.91 68.3814 129.726 68.2103C129.548 68.0392 129.311 67.7826 129.015 67.4404V67.7069C129.015 68.2136 128.893 68.5986 128.65 68.8618C128.406 69.1185 128.097 69.2468 127.722 69.2468C127.34 69.2468 127.034 69.1185 126.804 68.8618C126.58 68.5986 126.468 68.2136 126.468 67.7069V55.9406C126.468 55.3944 126.577 54.9831 126.794 54.7067C127.018 54.4237 127.327 54.2822 127.722 54.2822C128.137 54.2822 128.456 54.4171 128.68 54.6869C128.903 54.9502 129.015 55.3285 129.015 55.8221ZM129.143 63.8276C129.143 64.9002 129.387 65.7261 129.874 66.3052C130.367 66.8777 131.012 67.164 131.809 67.164C132.486 67.164 133.069 66.8711 133.556 66.2855C134.049 65.6932 134.296 64.8476 134.296 63.7486C134.296 63.0379 134.194 62.4259 133.99 61.9126C133.786 61.3993 133.497 61.0044 133.121 60.728C132.746 60.4451 132.309 60.3036 131.809 60.3036C131.295 60.3036 130.838 60.4451 130.437 60.728C130.035 61.0044 129.719 61.4091 129.489 61.9422C129.259 62.4686 129.143 63.0971 129.143 63.8276ZM145.974 67.7266C145.322 68.2333 144.69 68.615 144.078 68.8717C143.473 69.1217 142.792 69.2468 142.035 69.2468C141.344 69.2468 140.735 69.1119 140.209 68.8421C139.689 68.5657 139.288 68.1939 139.005 67.7266C138.722 67.2594 138.58 66.7527 138.58 66.2065C138.58 65.4694 138.814 64.841 139.281 64.3211C139.748 63.8012 140.39 63.4525 141.206 63.2748C141.377 63.2353 141.801 63.1464 142.479 63.0083C143.157 62.8701 143.736 62.745 144.217 62.6332C144.704 62.5147 145.23 62.3732 145.796 62.2087C145.763 61.498 145.618 60.9781 145.362 60.6491C145.112 60.3134 144.588 60.1456 143.792 60.1456C143.108 60.1456 142.591 60.2411 142.242 60.4319C141.9 60.6227 141.604 60.909 141.354 61.2907C141.11 61.6724 140.936 61.9257 140.831 62.0508C140.732 62.1692 140.515 62.2284 140.179 62.2284C139.877 62.2284 139.613 62.133 139.39 61.9422C139.172 61.7448 139.064 61.4947 139.064 61.192C139.064 60.7182 139.232 60.2575 139.567 59.81C139.903 59.3625 140.426 58.994 141.137 58.7045C141.848 58.4149 142.733 58.2701 143.792 58.2701C144.977 58.2701 145.908 58.4116 146.586 58.6946C147.263 58.971 147.741 59.4119 148.017 60.0173C148.3 60.6227 148.441 61.4256 148.441 62.4259C148.441 63.0576 148.438 63.5939 148.432 64.0348C148.432 64.4758 148.428 64.966 148.422 65.5056C148.422 66.0124 148.504 66.5421 148.668 67.0949C148.84 67.6411 148.925 67.9931 148.925 68.1511C148.925 68.4275 148.793 68.6808 148.53 68.9112C148.274 69.1349 147.981 69.2468 147.652 69.2468C147.375 69.2468 147.102 69.1185 146.832 68.8618C146.563 68.5986 146.276 68.2202 145.974 67.7266ZM145.796 63.8276C145.401 63.9723 144.825 64.127 144.069 64.2915C143.318 64.4494 142.798 64.5679 142.509 64.6469C142.219 64.7192 141.943 64.8673 141.68 65.0911C141.416 65.3082 141.285 65.6142 141.285 66.0091C141.285 66.4171 141.44 66.7658 141.749 67.0554C142.058 67.3384 142.463 67.4799 142.963 67.4799C143.496 67.4799 143.986 67.3647 144.434 67.1344C144.888 66.8975 145.22 66.5947 145.431 66.2262C145.674 65.8182 145.796 65.147 145.796 64.2125V63.8276ZM150.82 58.5268H151.116V56.9079C151.116 56.4736 151.126 56.1347 151.146 55.8912C151.172 55.6411 151.238 55.4273 151.344 55.2496C151.449 55.0653 151.6 54.9173 151.798 54.8054C151.995 54.6869 152.215 54.6277 152.459 54.6277C152.801 54.6277 153.11 54.756 153.387 55.0127C153.571 55.1838 153.686 55.3944 153.732 55.6444C153.785 55.8879 153.811 56.2367 153.811 56.6908V58.5268H154.798C155.18 58.5268 155.47 58.6189 155.667 58.8032C155.871 58.9809 155.973 59.2112 155.973 59.4941C155.973 59.8561 155.828 60.1094 155.539 60.2542C155.256 60.399 154.848 60.4714 154.315 60.4714H153.811V65.4267C153.811 65.8478 153.824 66.1736 153.851 66.4039C153.884 66.6276 153.963 66.8119 154.088 66.9567C154.219 67.0949 154.43 67.164 154.719 67.164C154.877 67.164 155.091 67.1377 155.361 67.085C155.631 67.0258 155.841 66.9962 155.993 66.9962C156.21 66.9962 156.404 67.085 156.575 67.2627C156.753 67.4338 156.842 67.6477 156.842 67.9043C156.842 68.3386 156.605 68.671 156.131 68.9013C155.657 69.1316 154.976 69.2468 154.088 69.2468C153.245 69.2468 152.607 69.1053 152.173 68.8223C151.738 68.5393 151.452 68.1478 151.314 67.6477C151.182 67.1475 151.116 66.4796 151.116 65.6438V60.4714H150.761C150.373 60.4714 150.077 60.3793 149.873 60.195C149.669 60.0107 149.567 59.7771 149.567 59.4941C149.567 59.2112 149.672 58.9809 149.883 58.8032C150.1 58.6189 150.412 58.5268 150.82 58.5268ZM164.65 67.7266C163.998 68.2333 163.366 68.615 162.754 68.8717C162.149 69.1217 161.468 69.2468 160.711 69.2468C160.02 69.2468 159.411 69.1119 158.885 68.8421C158.365 68.5657 157.964 68.1939 157.681 67.7266C157.398 67.2594 157.256 66.7527 157.256 66.2065C157.256 65.4694 157.49 64.841 157.957 64.3211C158.424 63.8012 159.066 63.4525 159.882 63.2748C160.053 63.2353 160.478 63.1464 161.155 63.0083C161.833 62.8701 162.412 62.745 162.893 62.6332C163.38 62.5147 163.906 62.3732 164.472 62.2087C164.439 61.498 164.294 60.9781 164.038 60.6491C163.788 60.3134 163.264 60.1456 162.468 60.1456C161.784 60.1456 161.267 60.2411 160.918 60.4319C160.576 60.6227 160.28 60.909 160.03 61.2907C159.787 61.6724 159.612 61.9257 159.507 62.0508C159.408 62.1692 159.191 62.2284 158.855 62.2284C158.553 62.2284 158.289 62.133 158.066 61.9422C157.849 61.7448 157.74 61.4947 157.74 61.192C157.74 60.7182 157.908 60.2575 158.243 59.81C158.579 59.3625 159.102 58.994 159.813 58.7045C160.524 58.4149 161.409 58.2701 162.468 58.2701C163.653 58.2701 164.584 58.4116 165.262 58.6946C165.94 58.971 166.417 59.4119 166.693 60.0173C166.976 60.6227 167.118 61.4256 167.118 62.4259C167.118 63.0576 167.114 63.5939 167.108 64.0348C167.108 64.4758 167.104 64.966 167.098 65.5056C167.098 66.0124 167.18 66.5421 167.345 67.0949C167.516 67.6411 167.601 67.9931 167.601 68.1511C167.601 68.4275 167.47 68.6808 167.206 68.9112C166.95 69.1349 166.657 69.2468 166.328 69.2468C166.051 69.2468 165.778 69.1185 165.509 68.8618C165.239 68.5986 164.952 68.2202 164.65 67.7266ZM164.472 63.8276C164.077 63.9723 163.501 64.127 162.745 64.2915C161.994 64.4494 161.475 64.5679 161.185 64.6469C160.895 64.7192 160.619 64.8673 160.356 65.0911C160.093 65.3082 159.961 65.6142 159.961 66.0091C159.961 66.4171 160.116 66.7658 160.425 67.0554C160.734 67.3384 161.139 67.4799 161.639 67.4799C162.172 67.4799 162.662 67.3647 163.11 67.1344C163.564 66.8975 163.896 66.5947 164.107 66.2262C164.35 65.8182 164.472 65.147 164.472 64.2125V63.8276ZM172.31 59.7804V60.1062C172.784 59.481 173.3 59.0236 173.859 58.7341C174.425 58.4379 175.074 58.2899 175.804 58.2899C176.515 58.2899 177.15 58.4445 177.709 58.7538C178.269 59.0631 178.686 59.5007 178.963 60.0667C179.14 60.3957 179.256 60.7511 179.308 61.1327C179.361 61.5144 179.387 62.0014 179.387 62.5937V67.6082C179.387 68.1478 179.262 68.5558 179.012 68.8322C178.769 69.1086 178.45 69.2468 178.055 69.2468C177.653 69.2468 177.328 69.1053 177.077 68.8223C176.827 68.5393 176.702 68.1346 176.702 67.6082V63.1168C176.702 62.2284 176.577 61.5506 176.327 61.0834C176.084 60.6096 175.593 60.3727 174.856 60.3727C174.376 60.3727 173.938 60.5174 173.544 60.807C173.149 61.09 172.859 61.4815 172.675 61.9817C172.543 62.3831 172.478 63.1333 172.478 64.2323V67.6082C172.478 68.1544 172.349 68.5657 172.093 68.8421C171.842 69.1119 171.517 69.2468 171.115 69.2468C170.727 69.2468 170.408 69.1053 170.158 68.8223C169.908 68.5393 169.783 68.1346 169.783 67.6082V59.8199C169.783 59.3066 169.895 58.9249 170.118 58.6748C170.342 58.4182 170.648 58.2899 171.036 58.2899C171.273 58.2899 171.487 58.3458 171.678 58.4577C171.869 58.5696 172.02 58.7374 172.132 58.9611C172.25 59.1849 172.31 59.458 172.31 59.7804ZM189.811 65.3576V67.6082C189.811 68.1544 189.683 68.5657 189.426 68.8421C189.17 69.1119 188.844 69.2468 188.449 69.2468C188.061 69.2468 187.741 69.1086 187.491 68.8322C187.241 68.5558 187.116 68.1478 187.116 67.6082V60.1062C187.116 58.8953 187.554 58.2899 188.429 58.2899C188.877 58.2899 189.199 58.4314 189.397 58.7143C189.594 58.9973 189.703 59.4152 189.722 59.968C190.045 59.4152 190.374 58.9973 190.709 58.7143C191.052 58.4314 191.506 58.2899 192.072 58.2899C192.638 58.2899 193.187 58.4314 193.72 58.7143C194.253 58.9973 194.52 59.3724 194.52 59.8396C194.52 60.1687 194.404 60.4418 194.174 60.6589C193.95 60.8695 193.707 60.9748 193.444 60.9748C193.345 60.9748 193.105 60.9156 192.723 60.7971C192.348 60.6721 192.016 60.6096 191.726 60.6096C191.331 60.6096 191.009 60.7149 190.759 60.9255C190.509 61.1295 190.315 61.4355 190.176 61.8435C190.038 62.2515 189.943 62.7384 189.89 63.3044C189.837 63.8637 189.811 64.5481 189.811 65.3576ZM202.298 67.7266C201.647 68.2333 201.015 68.615 200.403 68.8717C199.797 69.1217 199.116 69.2468 198.359 69.2468C197.669 69.2468 197.06 69.1119 196.533 68.8421C196.013 68.5657 195.612 68.1939 195.329 67.7266C195.046 67.2594 194.905 66.7527 194.905 66.2065C194.905 65.4694 195.138 64.841 195.605 64.3211C196.073 63.8012 196.714 63.4525 197.53 63.2748C197.701 63.2353 198.126 63.1464 198.804 63.0083C199.482 62.8701 200.061 62.745 200.541 62.6332C201.028 62.5147 201.554 62.3732 202.12 62.2087C202.087 61.498 201.943 60.9781 201.686 60.6491C201.436 60.3134 200.913 60.1456 200.117 60.1456C199.432 60.1456 198.916 60.2411 198.567 60.4319C198.225 60.6227 197.928 60.909 197.678 61.2907C197.435 61.6724 197.261 61.9257 197.155 62.0508C197.057 62.1692 196.839 62.2284 196.504 62.2284C196.201 62.2284 195.938 62.133 195.714 61.9422C195.497 61.7448 195.388 61.4947 195.388 61.192C195.388 60.7182 195.556 60.2575 195.892 59.81C196.227 59.3625 196.751 58.994 197.461 58.7045C198.172 58.4149 199.057 58.2701 200.117 58.2701C201.301 58.2701 202.232 58.4116 202.91 58.6946C203.588 58.971 204.065 59.4119 204.341 60.0173C204.624 60.6227 204.766 61.4256 204.766 62.4259C204.766 63.0576 204.763 63.5939 204.756 64.0348C204.756 64.4758 204.753 64.966 204.746 65.5056C204.746 66.0124 204.828 66.5421 204.993 67.0949C205.164 67.6411 205.25 67.9931 205.25 68.1511C205.25 68.4275 205.118 68.6808 204.855 68.9112C204.598 69.1349 204.305 69.2468 203.976 69.2468C203.7 69.2468 203.427 69.1185 203.157 68.8618C202.887 68.5986 202.601 68.2202 202.298 67.7266ZM202.12 63.8276C201.726 63.9723 201.15 64.127 200.393 64.2915C199.643 64.4494 199.123 64.5679 198.833 64.6469C198.544 64.7192 198.267 64.8673 198.004 65.0911C197.741 65.3082 197.609 65.6142 197.609 66.0091C197.609 66.4171 197.764 66.7658 198.073 67.0554C198.383 67.3384 198.787 67.4799 199.287 67.4799C199.82 67.4799 200.311 67.3647 200.758 67.1344C201.212 66.8975 201.545 66.5947 201.755 66.2262C201.999 65.8182 202.12 65.147 202.12 64.2125V63.8276ZM209.958 59.7804V60.1062C210.432 59.481 210.948 59.0236 211.508 58.7341C212.074 58.4379 212.722 58.2899 213.452 58.2899C214.163 58.2899 214.798 58.4445 215.357 58.7538C215.917 59.0631 216.335 59.5007 216.611 60.0667C216.789 60.3957 216.904 60.7511 216.957 61.1327C217.009 61.5144 217.036 62.0014 217.036 62.5937V67.6082C217.036 68.1478 216.911 68.5558 216.66 68.8322C216.417 69.1086 216.098 69.2468 215.703 69.2468C215.302 69.2468 214.976 69.1053 214.726 68.8223C214.476 68.5393 214.351 68.1346 214.351 67.6082V63.1168C214.351 62.2284 214.226 61.5506 213.976 61.0834C213.732 60.6096 213.242 60.3727 212.505 60.3727C212.024 60.3727 211.587 60.5174 211.192 60.807C210.797 61.09 210.508 61.4815 210.323 61.9817C210.192 62.3831 210.126 63.1333 210.126 64.2323V67.6082C210.126 68.1544 209.997 68.5657 209.741 68.8421C209.491 69.1119 209.165 69.2468 208.764 69.2468C208.375 69.2468 208.056 69.1053 207.806 68.8223C207.556 68.5393 207.431 68.1346 207.431 67.6082V59.8199C207.431 59.3066 207.543 58.9249 207.767 58.6748C207.99 58.4182 208.296 58.2899 208.685 58.2899C208.922 58.2899 209.135 58.3458 209.326 58.4577C209.517 58.5696 209.668 58.7374 209.78 58.9611C209.899 59.1849 209.958 59.458 209.958 59.7804ZM229.641 60.2641V68.0919C229.641 68.9868 229.546 69.7568 229.355 70.4017C229.164 71.0466 228.858 71.5796 228.437 72.0008C228.016 72.422 227.463 72.7346 226.778 72.9386C226.101 73.1426 225.255 73.2446 224.241 73.2446C223.314 73.2446 222.484 73.113 221.754 72.8497C221.023 72.5931 220.461 72.2575 220.066 71.8429C219.671 71.4349 219.474 71.0137 219.474 70.5794C219.474 70.2503 219.586 69.9805 219.809 69.7699C220.033 69.5659 220.303 69.4639 220.619 69.4639C221.014 69.4639 221.359 69.6383 221.655 69.9871C221.8 70.1648 221.948 70.3425 222.099 70.5201C222.257 70.7044 222.428 70.8591 222.613 70.9841C222.804 71.1157 223.031 71.2111 223.294 71.2703C223.557 71.3362 223.86 71.3691 224.202 71.3691C224.9 71.3691 225.439 71.2703 225.821 71.0729C226.209 70.8821 226.479 70.6123 226.63 70.2635C226.788 69.9147 226.88 69.5396 226.907 69.1382C226.933 68.7434 226.953 68.105 226.966 67.2232C226.551 67.8023 226.071 68.2432 225.525 68.5459C224.985 68.8486 224.34 69 223.59 69C222.688 69 221.899 68.7697 221.221 68.309C220.55 67.8484 220.033 67.2035 219.671 66.3743C219.309 65.5451 219.128 64.5876 219.128 63.5018C219.128 62.6924 219.237 61.9619 219.454 61.3104C219.678 60.6589 219.994 60.1094 220.402 59.662C220.81 59.2145 221.28 58.8788 221.813 58.6551C222.346 58.4248 222.932 58.3096 223.57 58.3096C224.334 58.3096 224.995 58.4577 225.554 58.7538C226.114 59.0434 226.634 59.5007 227.114 60.1259V59.7607C227.114 59.2934 227.229 58.9315 227.459 58.6748C227.69 58.4182 227.986 58.2899 228.348 58.2899C228.868 58.2899 229.213 58.461 229.384 58.8032C229.555 59.1388 229.641 59.6258 229.641 60.2641ZM221.833 63.6795C221.833 64.7719 222.07 65.5978 222.544 66.1571C223.024 66.7165 223.643 66.9962 224.399 66.9962C224.847 66.9962 225.268 66.8777 225.663 66.6408C226.064 66.3973 226.39 66.0354 226.64 65.555C226.89 65.068 227.015 64.479 227.015 63.7881C227.015 62.6891 226.772 61.8336 226.285 61.2216C225.804 60.6096 225.169 60.3036 224.38 60.3036C223.61 60.3036 222.991 60.5964 222.524 61.1821C222.063 61.7678 221.833 62.6002 221.833 63.6795ZM239.078 68.0129L236.699 64.1039L235.238 65.4859V67.6279C235.238 68.1478 235.1 68.5492 234.823 68.8322C234.553 69.1086 234.241 69.2468 233.886 69.2468C233.471 69.2468 233.145 69.1086 232.908 68.8322C232.671 68.5558 232.553 68.1478 232.553 67.6082V56.1182C232.553 55.5194 232.668 55.0653 232.898 54.756C233.129 54.4402 233.458 54.2822 233.886 54.2822C234.3 54.2822 234.629 54.4237 234.873 54.7067C235.116 54.9896 235.238 55.4075 235.238 55.9603V62.495L238.268 59.3165C238.643 58.9216 238.93 58.6518 239.127 58.507C239.324 58.3623 239.565 58.2899 239.848 58.2899C240.183 58.2899 240.463 58.3985 240.687 58.6156C240.91 58.8262 241.022 59.0927 241.022 59.4152C241.022 59.81 240.657 60.3365 239.927 60.9946L238.495 62.3074L241.259 66.6507C241.463 66.9731 241.608 67.2199 241.694 67.391C241.786 67.5555 241.832 67.7135 241.832 67.8648C241.832 68.2926 241.713 68.6315 241.476 68.8815C241.246 69.125 240.94 69.2468 240.558 69.2468C240.229 69.2468 239.976 69.1579 239.798 68.9803C239.621 68.8026 239.38 68.4801 239.078 68.0129ZM249.995 67.7266C249.344 68.2333 248.712 68.615 248.1 68.8717C247.494 69.1217 246.813 69.2468 246.057 69.2468C245.366 69.2468 244.757 69.1119 244.23 68.8421C243.711 68.5657 243.309 68.1939 243.026 67.7266C242.743 67.2594 242.602 66.7527 242.602 66.2065C242.602 65.4694 242.835 64.841 243.303 64.3211C243.77 63.8012 244.411 63.4525 245.227 63.2748C245.398 63.2353 245.823 63.1464 246.501 63.0083C247.179 62.8701 247.758 62.745 248.238 62.6332C248.725 62.5147 249.252 62.3732 249.817 62.2087C249.785 61.498 249.64 60.9781 249.383 60.6491C249.133 60.3134 248.61 60.1456 247.814 60.1456C247.129 60.1456 246.613 60.2411 246.264 60.4319C245.922 60.6227 245.626 60.909 245.375 61.2907C245.132 61.6724 244.958 61.9257 244.852 62.0508C244.754 62.1692 244.536 62.2284 244.201 62.2284C243.898 62.2284 243.635 62.133 243.411 61.9422C243.194 61.7448 243.085 61.4947 243.085 61.192C243.085 60.7182 243.253 60.2575 243.589 59.81C243.924 59.3625 244.448 58.994 245.158 58.7045C245.869 58.4149 246.754 58.2701 247.814 58.2701C248.998 58.2701 249.929 58.4116 250.607 58.6946C251.285 58.971 251.762 59.4119 252.038 60.0173C252.321 60.6227 252.463 61.4256 252.463 62.4259C252.463 63.0576 252.46 63.5939 252.453 64.0348C252.453 64.4758 252.45 64.966 252.443 65.5056C252.443 66.0124 252.525 66.5421 252.69 67.0949C252.861 67.6411 252.947 67.9931 252.947 68.1511C252.947 68.4275 252.815 68.6808 252.552 68.9112C252.295 69.1349 252.002 69.2468 251.673 69.2468C251.397 69.2468 251.124 69.1185 250.854 68.8618C250.584 68.5986 250.298 68.2202 249.995 67.7266ZM249.817 63.8276C249.423 63.9723 248.847 64.127 248.09 64.2915C247.34 64.4494 246.82 64.5679 246.53 64.6469C246.241 64.7192 245.964 64.8673 245.701 65.0911C245.438 65.3082 245.306 65.6142 245.306 66.0091C245.306 66.4171 245.461 66.7658 245.77 67.0554C246.08 67.3384 246.484 67.4799 246.984 67.4799C247.517 67.4799 248.008 67.3647 248.455 67.1344C248.909 66.8975 249.242 66.5947 249.452 66.2262C249.696 65.8182 249.817 65.147 249.817 64.2125V63.8276ZM257.902 59.8199V67.6082C257.902 68.1478 257.774 68.5558 257.517 68.8322C257.26 69.1086 256.934 69.2468 256.54 69.2468C256.145 69.2468 255.822 69.1053 255.572 68.8223C255.329 68.5393 255.207 68.1346 255.207 67.6082V59.8989C255.207 59.3658 255.329 58.9644 255.572 58.6946C255.822 58.4248 256.145 58.2899 256.54 58.2899C256.934 58.2899 257.26 58.4248 257.517 58.6946C257.774 58.9644 257.902 59.3395 257.902 59.8199ZM256.569 57.0362C256.194 57.0362 255.872 56.9211 255.602 56.6908C255.339 56.4604 255.207 56.1347 255.207 55.7135C255.207 55.3318 255.342 55.0193 255.612 54.7758C255.888 54.5257 256.207 54.4007 256.569 54.4007C256.918 54.4007 257.227 54.5125 257.497 54.7363C257.767 54.96 257.902 55.2858 257.902 55.7135C257.902 56.1281 257.77 56.4539 257.507 56.6908C257.244 56.9211 256.931 57.0362 256.569 57.0362ZM267.506 67.7266C266.855 68.2333 266.223 68.615 265.611 68.8717C265.006 69.1217 264.325 69.2468 263.568 69.2468C262.877 69.2468 262.268 69.1119 261.742 68.8421C261.222 68.5657 260.82 68.1939 260.537 67.7266C260.254 67.2594 260.113 66.7527 260.113 66.2065C260.113 65.4694 260.347 64.841 260.814 64.3211C261.281 63.8012 261.923 63.4525 262.739 63.2748C262.91 63.2353 263.334 63.1464 264.012 63.0083C264.69 62.8701 265.269 62.745 265.749 62.6332C266.236 62.5147 266.763 62.3732 267.329 62.2087C267.296 61.498 267.151 60.9781 266.894 60.6491C266.644 60.3134 266.121 60.1456 265.325 60.1456C264.641 60.1456 264.124 60.2411 263.775 60.4319C263.433 60.6227 263.137 60.909 262.887 61.2907C262.643 61.6724 262.469 61.9257 262.364 62.0508C262.265 62.1692 262.048 62.2284 261.712 62.2284C261.409 62.2284 261.146 62.133 260.922 61.9422C260.705 61.7448 260.597 61.4947 260.597 61.192C260.597 60.7182 260.764 60.2575 261.1 59.81C261.436 59.3625 261.959 58.994 262.67 58.7045C263.38 58.4149 264.265 58.2701 265.325 58.2701C266.509 58.2701 267.441 58.4116 268.118 58.6946C268.796 58.971 269.273 59.4119 269.55 60.0173C269.833 60.6227 269.974 61.4256 269.974 62.4259C269.974 63.0576 269.971 63.5939 269.964 64.0348C269.964 64.4758 269.961 64.966 269.954 65.5056C269.954 66.0124 270.037 66.5421 270.201 67.0949C270.372 67.6411 270.458 67.9931 270.458 68.1511C270.458 68.4275 270.326 68.6808 270.063 68.9112C269.806 69.1349 269.514 69.2468 269.185 69.2468C268.908 69.2468 268.635 69.1185 268.365 68.8618C268.095 68.5986 267.809 68.2202 267.506 67.7266ZM267.329 63.8276C266.934 63.9723 266.358 64.127 265.601 64.2915C264.851 64.4494 264.331 64.5679 264.042 64.6469C263.752 64.7192 263.476 64.8673 263.213 65.0911C262.949 65.3082 262.818 65.6142 262.818 66.0091C262.818 66.4171 262.972 66.7658 263.282 67.0554C263.591 67.3384 263.996 67.4799 264.496 67.4799C265.029 67.4799 265.519 67.3647 265.967 67.1344C266.421 66.8975 266.753 66.5947 266.964 66.2262C267.207 65.8182 267.329 65.147 267.329 64.2125V63.8276ZM275.166 59.7804V60.1062C275.64 59.481 276.157 59.0236 276.716 58.7341C277.282 58.4379 277.93 58.2899 278.661 58.2899C279.371 58.2899 280.007 58.4445 280.566 58.7538C281.125 59.0631 281.543 59.5007 281.819 60.0667C281.997 60.3957 282.112 60.7511 282.165 61.1327C282.218 61.5144 282.244 62.0014 282.244 62.5937V67.6082C282.244 68.1478 282.119 68.5558 281.869 68.8322C281.625 69.1086 281.306 69.2468 280.911 69.2468C280.51 69.2468 280.184 69.1053 279.934 68.8223C279.684 68.5393 279.559 68.1346 279.559 67.6082V63.1168C279.559 62.2284 279.434 61.5506 279.184 61.0834C278.94 60.6096 278.45 60.3727 277.713 60.3727C277.233 60.3727 276.795 60.5174 276.4 60.807C276.005 61.09 275.716 61.4815 275.532 61.9817C275.4 62.3831 275.334 63.1333 275.334 64.2323V67.6082C275.334 68.1544 275.206 68.5657 274.949 68.8421C274.699 69.1119 274.373 69.2468 273.972 69.2468C273.584 69.2468 273.265 69.1053 273.014 68.8223C272.764 68.5393 272.639 68.1346 272.639 67.6082V59.8199C272.639 59.3066 272.751 58.9249 272.975 58.6748C273.199 58.4182 273.505 58.2899 273.893 58.2899C274.13 58.2899 274.344 58.3458 274.535 58.4577C274.725 58.5696 274.877 58.7374 274.989 58.9611C275.107 59.1849 275.166 59.458 275.166 59.7804Z" fill="#F5F5F5"/>
</g>
<defs>
<filter id="filter0_d_293_1037" x="0" y="0" width="444" height="135" filterUnits="userSpaceOnUse" color-interpolation-filters="sRGB">
<feFlood flood-opacity="0" result="BackgroundImageFix"/>
<feColorMatrix in="SourceAlpha" type="matrix" values="0 0 0 0 0 0 0 0 0 0 0 0 0 0 0 0 0 0 127 0" result="hardAlpha"/>
<feOffset dy="4"/>
<feGaussianBlur stdDeviation="2"/>
<feComposite in2="hardAlpha" operator="out"/>
<feColorMatrix type="matrix" values="0 0 0 0 0 0 0 0 0 0 0 0 0 0 0 0 0 0 0.25 0"/>
<feBlend mode="normal" in2="BackgroundImageFix" result="effect1_dropShadow_293_1037"/>
<feBlend mode="normal" in="SourceGraphic" in2="effect1_dropShadow_293_1037" result="shape"/>
</filter>
</defs>
</svg>
