<svg width="94" height="45" viewBox="0 0 94 45" fill="none" xmlns="http://www.w3.org/2000/svg">
<g filter="url(#filter0_d_341_56)">
<rect x="3.9635" y="0.963504" width="86.073" height="37.0382" rx="18.5191" fill="#151515" stroke="#9575DE" stroke-width="1.92701"/>
<path d="M35.195 23.6855C34.7432 23.6855 34.5172 23.4566 34.5172 22.9988V18.2277C34.5172 17.7758 34.7372 17.5499 35.1772 17.5499C35.6231 17.5499 35.846 17.7758 35.846 18.2277V18.2544C35.9709 18.0345 36.1552 17.8591 36.3989 17.7283C36.6427 17.5975 36.9162 17.5321 37.2194 17.5321C37.5999 17.5321 37.9328 17.6242 38.2182 17.8085C38.5095 17.9928 38.7355 18.2544 38.896 18.5933C39.0565 18.9322 39.1368 19.3365 39.1368 19.8062C39.1368 20.2759 39.0565 20.6831 38.896 21.0279C38.7355 21.3668 38.5095 21.6314 38.2182 21.8216C37.9328 22.0059 37.5999 22.0981 37.2194 22.0981C36.9281 22.0981 36.6605 22.0357 36.4168 21.9108C36.179 21.786 35.9947 21.6195 35.8639 21.4114V22.9988C35.8639 23.4566 35.6409 23.6855 35.195 23.6855ZM36.8181 21.0904C37.1035 21.0904 37.3353 20.9863 37.5137 20.7782C37.692 20.5701 37.7812 20.2461 37.7812 19.8062C37.7812 19.3722 37.692 19.0541 37.5137 18.8519C37.3353 18.6439 37.1035 18.5398 36.8181 18.5398C36.5268 18.5398 36.2919 18.6439 36.1136 18.8519C35.9352 19.0541 35.846 19.3722 35.846 19.8062C35.846 20.2461 35.9352 20.5701 36.1136 20.7782C36.2919 20.9863 36.5268 21.0904 36.8181 21.0904ZM41.5745 22.0981C41.0157 22.0981 40.6025 21.9435 40.3349 21.6344C40.0733 21.3252 39.9425 20.8615 39.9425 20.2432V18.2277C39.9425 17.7758 40.1655 17.5499 40.6114 17.5499C41.0632 17.5499 41.2891 17.7758 41.2891 18.2277V20.2788C41.2891 20.7961 41.5121 21.0547 41.958 21.0547C42.2136 21.0547 42.4217 20.9655 42.5822 20.7872C42.7487 20.6028 42.8319 20.3621 42.8319 20.0648V18.2277C42.8319 17.7758 43.0549 17.5499 43.5008 17.5499C43.9526 17.5499 44.1786 17.7758 44.1786 18.2277V21.3936C44.1786 21.8514 43.9616 22.0803 43.5276 22.0803C43.3135 22.0803 43.15 22.0208 43.0371 21.9019C42.9241 21.783 42.8676 21.6165 42.8676 21.4025C42.5763 21.8662 42.1453 22.0981 41.5745 22.0981ZM47.3698 22.0981C46.1391 22.0981 45.5238 21.5006 45.5238 20.3056V18.629H45.1492C44.7985 18.629 44.6231 18.4625 44.6231 18.1296C44.6231 17.7907 44.7985 17.6213 45.1492 17.6213H45.5238V16.9435C45.5238 16.4857 45.7497 16.2568 46.2016 16.2568C46.6475 16.2568 46.8704 16.4857 46.8704 16.9435V17.6213H47.7176C48.0624 17.6213 48.2349 17.7907 48.2349 18.1296C48.2349 18.4625 48.0624 18.629 47.7176 18.629H46.8704V20.2521C46.8704 20.5018 46.9269 20.6891 47.0398 20.8139C47.1588 20.9388 47.346 21.0012 47.6017 21.0012C47.6909 21.0012 47.7741 20.9923 47.8514 20.9744C47.9287 20.9566 48 20.9447 48.0654 20.9388C48.1487 20.9328 48.217 20.9596 48.2705 21.019C48.324 21.0785 48.3508 21.2004 48.3508 21.3847C48.3508 21.5333 48.327 21.6611 48.2795 21.7681C48.2319 21.8692 48.1487 21.9435 48.0297 21.9911C47.9525 22.0208 47.8454 22.0446 47.7087 22.0624C47.5779 22.0862 47.4649 22.0981 47.3698 22.0981ZM50.4403 22.0981C49.8814 22.0981 49.4682 21.9435 49.2007 21.6344C48.9391 21.3252 48.8083 20.8615 48.8083 20.2432V18.2277C48.8083 17.7758 49.0312 17.5499 49.4771 17.5499C49.929 17.5499 50.1549 17.7758 50.1549 18.2277V20.2788C50.1549 20.7961 50.3778 21.0547 50.8237 21.0547C51.0794 21.0547 51.2875 20.9655 51.448 20.7872C51.6145 20.6028 51.6977 20.3621 51.6977 20.0648V18.2277C51.6977 17.7758 51.9206 17.5499 52.3665 17.5499C52.8184 17.5499 53.0443 17.7758 53.0443 18.2277V21.3936C53.0443 21.8514 52.8273 22.0803 52.3933 22.0803C52.1793 22.0803 52.0158 22.0208 51.9028 21.9019C51.7898 21.783 51.7334 21.6165 51.7334 21.4025C51.442 21.8662 51.011 22.0981 50.4403 22.0981ZM55.7629 22.0981C55.5013 22.0981 55.2308 22.0743 54.9514 22.0268C54.6779 21.9792 54.4282 21.8989 54.2023 21.786C54.0536 21.7087 53.9555 21.6106 53.908 21.4917C53.8663 21.3728 53.8663 21.2568 53.908 21.1439C53.9496 21.0309 54.0239 20.9477 54.1309 20.8942C54.2379 20.8347 54.3628 20.8347 54.5055 20.8942C54.7492 20.9952 54.9722 21.0666 55.1743 21.1082C55.3824 21.1498 55.5816 21.1706 55.7718 21.1706C56.0215 21.1706 56.2058 21.132 56.3247 21.0547C56.4436 20.9715 56.5031 20.8644 56.5031 20.7336C56.5031 20.5256 56.3515 20.3948 56.0483 20.3413L55.1119 20.1718C54.7373 20.1064 54.452 19.9726 54.2558 19.7705C54.0596 19.5684 53.9615 19.3038 53.9615 18.9768C53.9615 18.6795 54.0447 18.4239 54.2112 18.2099C54.3776 17.9958 54.6065 17.8294 54.8979 17.7104C55.1892 17.5915 55.5251 17.5321 55.9056 17.5321C56.4288 17.5321 56.8925 17.6332 57.2968 17.8353C57.4335 17.9007 57.5168 17.9928 57.5465 18.1118C57.5822 18.2307 57.5762 18.3466 57.5287 18.4596C57.4811 18.5725 57.4038 18.6587 57.2968 18.7182C57.1898 18.7717 57.062 18.7657 56.9133 18.7003C56.7171 18.6112 56.5388 18.5487 56.3782 18.5131C56.2177 18.4714 56.0661 18.4506 55.9234 18.4506C55.6559 18.4506 55.4627 18.4952 55.3438 18.5844C55.2248 18.6676 55.1654 18.7747 55.1654 18.9055C55.1654 19.1135 55.3051 19.2443 55.5845 19.2978L56.5209 19.4673C56.9074 19.5327 57.2017 19.6635 57.4038 19.8597C57.606 20.0499 57.707 20.3115 57.707 20.6445C57.707 21.1023 57.5287 21.459 57.1719 21.7146C56.8152 21.9703 56.3455 22.0981 55.7629 22.0981Z" fill="#F5F5F5"/>
</g>
<defs>
<filter id="filter0_d_341_56" x="0.430657" y="0" width="93.1387" height="44.1039" filterUnits="userSpaceOnUse" color-interpolation-filters="sRGB">
<feFlood flood-opacity="0" result="BackgroundImageFix"/>
<feColorMatrix in="SourceAlpha" type="matrix" values="0 0 0 0 0 0 0 0 0 0 0 0 0 0 0 0 0 0 127 0" result="hardAlpha"/>
<feOffset dy="2.56934"/>
<feGaussianBlur stdDeviation="1.28467"/>
<feComposite in2="hardAlpha" operator="out"/>
<feColorMatrix type="matrix" values="0 0 0 0 0 0 0 0 0 0 0 0 0 0 0 0 0 0 0.25 0"/>
<feBlend mode="normal" in2="BackgroundImageFix" result="effect1_dropShadow_341_56"/>
<feBlend mode="normal" in="SourceGraphic" in2="effect1_dropShadow_341_56" result="shape"/>
</filter>
</defs>
</svg>
