<svg width="444" height="135" viewBox="0 0 444 135" fill="none" xmlns="http://www.w3.org/2000/svg">
<g filter="url(#filter0_d_304_176)">
<rect x="7" y="3" width="430" height="121" rx="33" stroke="#9575DE" stroke-width="6"/>
<rect x="7" y="3" width="430" height="121" rx="33" fill="#151515" stroke="#9575DE" stroke-width="6"/>
<path d="M42.4932 34.3066C42.4932 35.1803 42.3571 35.986 42.085 36.7236C41.8128 37.4613 41.4189 38.0951 40.9033 38.625C40.3877 39.1549 39.7718 39.5632 39.0557 39.8496C38.3395 40.1289 37.5339 40.2686 36.6387 40.2686C35.7507 40.2686 34.9521 40.1253 34.2432 39.8389C33.5342 39.5524 32.9183 39.1442 32.3955 38.6143C31.8799 38.0771 31.486 37.4469 31.2139 36.7236C30.9489 35.9932 30.8164 35.1875 30.8164 34.3066C30.8164 33.4186 30.9525 32.6058 31.2246 31.8682C31.4967 31.1305 31.887 30.5003 32.3955 29.9775C32.904 29.4548 33.5199 29.0537 34.2432 28.7744C34.9665 28.488 35.765 28.3447 36.6387 28.3447C37.5267 28.3447 38.3324 28.488 39.0557 28.7744C39.779 29.0609 40.3984 29.4691 40.9141 29.999C41.4297 30.529 41.82 31.1592 42.085 31.8896C42.3571 32.6201 42.4932 33.4258 42.4932 34.3066ZM39.5498 34.3066C39.5498 33.1107 39.2848 32.1797 38.7549 31.5137C38.2321 30.8477 37.5267 30.5146 36.6387 30.5146C36.0658 30.5146 35.5609 30.665 35.124 30.9658C34.6872 31.2594 34.3506 31.6963 34.1143 32.2764C33.8779 32.8564 33.7598 33.5332 33.7598 34.3066C33.7598 35.0729 33.8743 35.7425 34.1035 36.3154C34.3398 36.8883 34.6729 37.3288 35.1025 37.6367C35.5394 37.9375 36.0514 38.0879 36.6387 38.0879C37.5267 38.0879 38.2321 37.7549 38.7549 37.0889C39.2848 36.4157 39.5498 35.4883 39.5498 34.3066ZM47.5205 25.6592V30.1387C48.0719 29.5658 48.6341 29.1289 49.207 28.8281C49.7799 28.5202 50.4889 28.3662 51.334 28.3662C52.3079 28.3662 53.1602 28.599 53.8906 29.0645C54.6283 29.5228 55.1976 30.1924 55.5986 31.0732C56.0068 31.9469 56.2109 32.9854 56.2109 34.1885C56.2109 35.0765 56.0964 35.8929 55.8672 36.6377C55.6452 37.3753 55.3193 38.0163 54.8896 38.5605C54.46 39.1048 53.9372 39.5273 53.3213 39.8281C52.7126 40.1217 52.0394 40.2686 51.3018 40.2686C50.8506 40.2686 50.4245 40.2148 50.0234 40.1074C49.6296 40 49.293 39.8604 49.0137 39.6885C48.7344 39.5094 48.4945 39.3268 48.2939 39.1406C48.1006 38.9544 47.8428 38.6751 47.5205 38.3027V38.5928C47.5205 39.1442 47.388 39.5632 47.123 39.8496C46.8581 40.1289 46.5215 40.2686 46.1133 40.2686C45.6979 40.2686 45.3649 40.1289 45.1143 39.8496C44.8708 39.5632 44.749 39.1442 44.749 38.5928V25.7881C44.749 25.1937 44.8672 24.7461 45.1035 24.4453C45.347 24.1374 45.6836 23.9834 46.1133 23.9834C46.5645 23.9834 46.9118 24.1302 47.1553 24.4238C47.3988 24.7103 47.5205 25.1221 47.5205 25.6592ZM47.6602 34.3711C47.6602 35.5384 47.9251 36.4372 48.4551 37.0674C48.9922 37.6904 49.694 38.002 50.5605 38.002C51.2982 38.002 51.932 37.6833 52.4619 37.0459C52.999 36.4014 53.2676 35.4811 53.2676 34.2852C53.2676 33.5117 53.1566 32.8457 52.9346 32.2871C52.7126 31.7285 52.3975 31.2988 51.9893 30.998C51.5811 30.6901 51.1048 30.5361 50.5605 30.5361C50.002 30.5361 49.5042 30.6901 49.0674 30.998C48.6305 31.2988 48.2868 31.7393 48.0361 32.3193C47.7855 32.8923 47.6602 33.5762 47.6602 34.3711ZM61.5176 30.0957V40.043C61.5176 40.752 61.4925 41.3285 61.4424 41.7725C61.3994 42.2236 61.335 42.5495 61.249 42.75C60.762 43.9961 59.7272 44.6191 58.1445 44.6191C57.2565 44.6191 56.5833 44.4974 56.125 44.2539C55.6667 44.0104 55.4375 43.6559 55.4375 43.1904C55.4375 42.8467 55.5413 42.5638 55.749 42.3418C55.9567 42.127 56.2288 42.0195 56.5654 42.0195C56.6084 42.0195 56.68 42.0231 56.7803 42.0303C56.8734 42.0446 57.013 42.0589 57.1992 42.0732C57.3926 42.0876 57.5251 42.0947 57.5967 42.0947C57.9906 42.0947 58.252 41.9408 58.3809 41.6328C58.5169 41.3249 58.585 40.7734 58.585 39.9785V30.0957C58.585 29.5156 58.721 29.0788 58.9932 28.7852C59.2653 28.4915 59.6234 28.3447 60.0674 28.3447C60.4971 28.3447 60.8444 28.4915 61.1094 28.7852C61.3815 29.0716 61.5176 29.5085 61.5176 30.0957ZM60.0674 26.9805C59.6592 26.9805 59.3083 26.8551 59.0146 26.6045C58.7282 26.3538 58.585 25.9994 58.585 25.541C58.585 25.1257 58.7318 24.7855 59.0254 24.5205C59.3262 24.2484 59.6735 24.1123 60.0674 24.1123C60.4469 24.1123 60.7835 24.2341 61.0771 24.4775C61.3708 24.721 61.5176 25.0755 61.5176 25.541C61.5176 25.9922 61.3743 26.3467 61.0879 26.6045C60.8014 26.8551 60.4613 26.9805 60.0674 26.9805ZM72.7217 35.0264H66.9853C66.9925 35.6924 67.125 36.2796 67.3828 36.7881C67.6478 37.2965 67.9951 37.6797 68.4248 37.9375C68.8616 38.1953 69.3415 38.3242 69.8643 38.3242C70.2152 38.3242 70.5338 38.2848 70.8203 38.2061C71.1139 38.1201 71.3968 37.9912 71.6689 37.8193C71.9411 37.6403 72.1917 37.4505 72.4209 37.25C72.6501 37.0495 72.9473 36.7773 73.3125 36.4336C73.4629 36.3047 73.6777 36.2402 73.957 36.2402C74.2578 36.2402 74.5013 36.3226 74.6875 36.4873C74.8737 36.652 74.9668 36.8848 74.9668 37.1855C74.9668 37.4505 74.863 37.762 74.6553 38.1201C74.4476 38.471 74.1325 38.8112 73.71 39.1406C73.2946 39.4629 72.7682 39.7314 72.1309 39.9463C71.5006 40.1611 70.7738 40.2686 69.9502 40.2686C68.0667 40.2686 66.6022 39.7314 65.5566 38.6572C64.5111 37.583 63.9883 36.1257 63.9883 34.2852C63.9883 33.4186 64.1172 32.6165 64.375 31.8789C64.6328 31.1341 65.0088 30.4967 65.5029 29.9668C65.9971 29.4368 66.6058 29.0322 67.3291 28.7529C68.0524 28.4665 68.8545 28.3232 69.7353 28.3232C70.8812 28.3232 71.8623 28.5667 72.6787 29.0537C73.5023 29.5335 74.1182 30.1566 74.5264 30.9229C74.9346 31.6891 75.1387 32.4697 75.1387 33.2646C75.1387 34.0023 74.9274 34.4821 74.5049 34.7041C74.0824 34.9189 73.488 35.0264 72.7217 35.0264ZM66.9853 33.3613H72.3027C72.2311 32.3587 71.959 31.6104 71.4863 31.1162C71.0208 30.6149 70.4049 30.3643 69.6387 30.3643C68.9082 30.3643 68.3066 30.6185 67.834 31.127C67.3685 31.6283 67.0856 32.373 66.9853 33.3613ZM88.1367 36.6377C88.1367 37.0029 88.0257 37.3932 87.8037 37.8086C87.5889 38.224 87.2559 38.6214 86.8047 39.001C86.3607 39.3734 85.7985 39.6742 85.1182 39.9033C84.4378 40.1325 83.6715 40.2471 82.8193 40.2471C81.0075 40.2471 79.5931 39.7207 78.5762 38.668C77.5592 37.6081 77.0508 36.1901 77.0508 34.4141C77.0508 33.2109 77.2835 32.1475 77.749 31.2236C78.2145 30.2998 78.8877 29.5872 79.7686 29.0859C80.6494 28.5775 81.7021 28.3232 82.9268 28.3232C83.6859 28.3232 84.3805 28.4342 85.0107 28.6563C85.6481 28.8783 86.1852 29.1647 86.6221 29.5156C87.0661 29.8665 87.4027 30.2425 87.6318 30.6436C87.8682 31.0374 87.9863 31.4063 87.9863 31.75C87.9863 32.1009 87.8538 32.3981 87.5889 32.6416C87.331 32.8851 87.0159 33.0068 86.6435 33.0068C86.4001 33.0068 86.196 32.946 86.0312 32.8242C85.8737 32.6953 85.6947 32.4912 85.4941 32.2119C85.1361 31.6676 84.7601 31.2594 84.3662 30.9873C83.9795 30.7152 83.4853 30.5791 82.8838 30.5791C82.0172 30.5791 81.319 30.9193 80.7891 31.5996C80.2591 32.2728 79.9941 33.1966 79.9941 34.3711C79.9941 34.9225 80.0622 35.431 80.1982 35.8965C80.3343 36.3548 80.5312 36.7487 80.7891 37.0781C81.0469 37.4004 81.3584 37.6475 81.7236 37.8193C82.0889 37.984 82.4899 38.0664 82.9268 38.0664C83.514 38.0664 84.0153 37.9303 84.4307 37.6582C84.8532 37.3861 85.2256 36.9707 85.5478 36.4121C85.7269 36.0827 85.9202 35.8249 86.1279 35.6387C86.3356 35.4525 86.5898 35.3594 86.8906 35.3594C87.2487 35.3594 87.5459 35.4954 87.7822 35.7676C88.0185 36.0397 88.1367 36.3298 88.1367 36.6377ZM90.8652 28.6025H91.1875V26.8408C91.1875 26.3682 91.1982 25.9994 91.2197 25.7344C91.2484 25.4622 91.32 25.2295 91.4346 25.0361C91.5491 24.8356 91.7139 24.6745 91.9287 24.5527C92.1436 24.4238 92.3835 24.3594 92.6484 24.3594C93.0208 24.3594 93.3574 24.499 93.6582 24.7783C93.8587 24.9645 93.984 25.1937 94.0342 25.4658C94.0915 25.7308 94.1201 26.1104 94.1201 26.6045V28.6025H95.1943C95.6097 28.6025 95.9248 28.7028 96.1396 28.9033C96.3616 29.0967 96.4727 29.3473 96.4727 29.6553C96.4727 30.0492 96.3151 30.3249 96 30.4824C95.6921 30.64 95.248 30.7188 94.668 30.7188H94.1201V36.1113C94.1201 36.5697 94.1344 36.9242 94.1631 37.1748C94.1989 37.4183 94.2848 37.6188 94.4209 37.7764C94.5641 37.9268 94.7933 38.002 95.1084 38.002C95.2803 38.002 95.513 37.9733 95.8066 37.916C96.1003 37.8516 96.3294 37.8193 96.4941 37.8193C96.7305 37.8193 96.9417 37.916 97.1279 38.1094C97.3213 38.2956 97.418 38.5283 97.418 38.8076C97.418 39.2803 97.1602 39.6419 96.6445 39.8926C96.1289 40.1432 95.3877 40.2686 94.4209 40.2686C93.5042 40.2686 92.8096 40.1146 92.3369 39.8066C91.8643 39.4987 91.5527 39.0726 91.4023 38.5283C91.2591 37.984 91.1875 37.2572 91.1875 36.3477V30.7188H90.8008C90.3783 30.7188 90.056 30.6185 89.834 30.418C89.612 30.2174 89.501 29.9632 89.501 29.6553C89.501 29.3473 89.6156 29.0967 89.8447 28.9033C90.0811 28.7028 90.4212 28.6025 90.8652 28.6025ZM101.436 30.0098V38.4854C101.436 39.0726 101.296 39.5166 101.017 39.8174C100.737 40.1182 100.383 40.2686 99.9531 40.2686C99.5234 40.2686 99.1725 40.1146 98.9004 39.8066C98.6354 39.4987 98.5029 39.0583 98.5029 38.4854V30.0957C98.5029 29.5156 98.6354 29.0788 98.9004 28.7852C99.1725 28.4915 99.5234 28.3447 99.9531 28.3447C100.383 28.3447 100.737 28.4915 101.017 28.7852C101.296 29.0788 101.436 29.487 101.436 30.0098ZM99.9853 26.9805C99.5771 26.9805 99.2262 26.8551 98.9326 26.6045C98.6462 26.3538 98.5029 25.9994 98.5029 25.541C98.5029 25.1257 98.6497 24.7855 98.9434 24.5205C99.2441 24.2484 99.5915 24.1123 99.9853 24.1123C100.365 24.1123 100.701 24.2341 100.995 24.4775C101.289 24.721 101.436 25.0755 101.436 25.541C101.436 25.9922 101.292 26.3467 101.006 26.6045C100.719 26.8551 100.379 26.9805 99.9853 26.9805ZM106.549 30.1709L108.923 36.8311L111.479 29.8809C111.68 29.3223 111.877 28.9284 112.07 28.6992C112.264 28.4629 112.557 28.3447 112.951 28.3447C113.324 28.3447 113.639 28.4701 113.896 28.7207C114.161 28.9714 114.294 29.2614 114.294 29.5908C114.294 29.7197 114.269 29.8701 114.219 30.042C114.176 30.2139 114.122 30.375 114.058 30.5254C114 30.6758 113.932 30.8477 113.854 31.041L111.039 38.0234C110.96 38.224 110.856 38.4782 110.728 38.7861C110.606 39.0941 110.466 39.359 110.309 39.5811C110.158 39.7959 109.968 39.9642 109.739 40.0859C109.517 40.2077 109.245 40.2686 108.923 40.2686C108.507 40.2686 108.174 40.1755 107.924 39.9893C107.68 39.7959 107.498 39.5882 107.376 39.3662C107.261 39.137 107.064 38.6895 106.785 38.0234L103.992 31.1162C103.928 30.9443 103.86 30.7725 103.788 30.6006C103.724 30.4287 103.666 30.2533 103.616 30.0742C103.573 29.8952 103.552 29.7412 103.552 29.6123C103.552 29.4118 103.613 29.2148 103.734 29.0215C103.856 28.821 104.024 28.6598 104.239 28.5381C104.454 28.4092 104.687 28.3447 104.937 28.3447C105.424 28.3447 105.757 28.4844 105.937 28.7637C106.123 29.043 106.327 29.512 106.549 30.1709ZM124.284 35.0264H118.548C118.555 35.6924 118.687 36.2796 118.945 36.7881C119.21 37.2965 119.558 37.6797 119.987 37.9375C120.424 38.1953 120.904 38.3242 121.427 38.3242C121.778 38.3242 122.096 38.2848 122.383 38.2061C122.676 38.1201 122.959 37.9912 123.231 37.8193C123.504 37.6403 123.754 37.4505 123.983 37.25C124.213 37.0495 124.51 36.7773 124.875 36.4336C125.025 36.3047 125.24 36.2402 125.52 36.2402C125.82 36.2402 126.064 36.3226 126.25 36.4873C126.436 36.652 126.529 36.8848 126.529 37.1855C126.529 37.4505 126.425 37.762 126.218 38.1201C126.01 38.471 125.695 38.8112 125.272 39.1406C124.857 39.4629 124.331 39.7314 123.693 39.9463C123.063 40.1611 122.336 40.2686 121.513 40.2686C119.629 40.2686 118.165 39.7314 117.119 38.6572C116.074 37.583 115.551 36.1257 115.551 34.2852C115.551 33.4186 115.68 32.6165 115.937 31.8789C116.195 31.1341 116.571 30.4967 117.065 29.9668C117.56 29.4368 118.168 29.0322 118.892 28.7529C119.615 28.4665 120.417 28.3232 121.298 28.3232C122.444 28.3232 123.425 28.5667 124.241 29.0537C125.065 29.5335 125.681 30.1566 126.089 30.9229C126.497 31.6891 126.701 32.4697 126.701 33.2646C126.701 34.0023 126.49 34.4821 126.067 34.7041C125.645 34.9189 125.05 35.0264 124.284 35.0264ZM118.548 33.3613H123.865C123.794 32.3587 123.521 31.6104 123.049 31.1162C122.583 30.6149 121.967 30.3643 121.201 30.3643C120.471 30.3643 119.869 30.6185 119.396 31.127C118.931 31.6283 118.648 32.373 118.548 33.3613ZM138.625 36.4336C138.625 37.2428 138.428 37.9375 138.034 38.5176C137.64 39.0905 137.057 39.5273 136.283 39.8281C135.517 40.1217 134.582 40.2686 133.479 40.2686C132.427 40.2686 131.524 40.1074 130.772 39.7852C130.02 39.4629 129.465 39.0618 129.107 38.582C128.749 38.0951 128.57 37.6081 128.57 37.1211C128.57 36.7988 128.685 36.5231 128.914 36.2939C129.143 36.0648 129.433 35.9502 129.784 35.9502C130.092 35.9502 130.328 36.0254 130.493 36.1758C130.658 36.3262 130.815 36.5374 130.966 36.8096C131.267 37.3324 131.625 37.7227 132.04 37.9805C132.463 38.2383 133.035 38.3672 133.759 38.3672C134.346 38.3672 134.826 38.2383 135.198 37.9805C135.578 37.7155 135.768 37.4147 135.768 37.0781C135.768 36.5625 135.571 36.1865 135.177 35.9502C134.79 35.7139 134.149 35.4883 133.254 35.2734C132.244 35.0228 131.421 34.7614 130.783 34.4893C130.153 34.21 129.648 33.8447 129.269 33.3936C128.889 32.9424 128.699 32.3874 128.699 31.7285C128.699 31.1413 128.875 30.5863 129.226 30.0635C129.576 29.5407 130.092 29.1253 130.772 28.8174C131.46 28.5023 132.287 28.3447 133.254 28.3447C134.013 28.3447 134.693 28.4235 135.295 28.5811C135.904 28.7386 136.409 28.9499 136.81 29.2148C137.218 29.4798 137.526 29.7734 137.733 30.0957C137.948 30.418 138.056 30.7331 138.056 31.041C138.056 31.3776 137.941 31.6533 137.712 31.8682C137.49 32.083 137.171 32.1904 136.756 32.1904C136.455 32.1904 136.197 32.1045 135.982 31.9326C135.775 31.7607 135.535 31.5029 135.263 31.1592C135.041 30.8727 134.779 30.6436 134.479 30.4717C134.178 30.2998 133.77 30.2139 133.254 30.2139C132.724 30.2139 132.284 30.3285 131.933 30.5576C131.582 30.7796 131.406 31.0589 131.406 31.3955C131.406 31.7035 131.535 31.9577 131.793 32.1582C132.051 32.3516 132.398 32.5127 132.835 32.6416C133.272 32.7705 133.873 32.9281 134.64 33.1143C135.549 33.3363 136.29 33.6012 136.863 33.9092C137.443 34.2171 137.88 34.5824 138.174 35.0049C138.475 35.4202 138.625 35.8965 138.625 36.4336ZM143.051 40.2686C142.607 40.2686 142.224 40.1253 141.901 39.8389C141.579 39.5524 141.418 39.1514 141.418 38.6357C141.418 38.1989 141.572 37.8229 141.88 37.5078C142.188 37.1927 142.567 37.0352 143.019 37.0352C143.47 37.0352 143.853 37.1927 144.168 37.5078C144.49 37.8158 144.651 38.1917 144.651 38.6357C144.651 39.1442 144.49 39.5452 144.168 39.8389C143.853 40.1253 143.48 40.2686 143.051 40.2686ZM141.418 29.9453C141.418 29.4368 141.576 29.043 141.891 28.7637C142.213 28.4844 142.6 28.3447 143.051 28.3447C143.488 28.3447 143.864 28.488 144.179 28.7744C144.494 29.0537 144.651 29.444 144.651 29.9453C144.651 30.3464 144.479 30.7152 144.136 31.0518C143.792 31.3883 143.42 31.5566 143.019 31.5566C142.582 31.5566 142.206 31.3955 141.891 31.0732C141.576 30.751 141.418 30.375 141.418 29.9453Z" fill="#9575DE"/>
<path d="M38.1913 69H33.769C33.1307 69 32.6734 68.8585 32.397 68.5755C32.1272 68.286 31.9922 67.8286 31.9922 67.2035V56.3255C31.9922 55.6872 32.1304 55.2298 32.4068 54.9534C32.6898 54.6705 33.1439 54.529 33.769 54.529H38.4578C39.1488 54.529 39.7476 54.5718 40.2543 54.6573C40.7611 54.7429 41.2151 54.9074 41.6166 55.1509C41.9588 55.3549 42.2615 55.6148 42.5247 55.9307C42.7879 56.24 42.9886 56.5855 43.1268 56.9671C43.265 57.3423 43.3341 57.7404 43.3341 58.1616C43.3341 59.6093 42.6102 60.6688 41.1625 61.34C43.0643 61.9455 44.0152 63.1234 44.0152 64.8739C44.0152 65.6833 43.8079 66.4138 43.3933 67.0653C42.9788 67.7102 42.4194 68.1873 41.7153 68.4966C41.2744 68.6808 40.7676 68.8124 40.1951 68.8914C39.6226 68.9638 38.9547 69 38.1913 69ZM37.9741 62.5739H34.924V66.7987H38.0728C40.0536 66.7987 41.044 66.0847 41.044 64.6567C41.044 63.9263 40.7874 63.3965 40.2741 63.0675C39.7608 62.7384 38.9941 62.5739 37.9741 62.5739ZM34.924 56.7302V60.4714H37.6089C38.3394 60.4714 38.902 60.4023 39.2969 60.2641C39.6983 60.1259 40.0043 59.8627 40.2149 59.4744C40.3794 59.198 40.4616 58.8887 40.4616 58.5465C40.4616 57.8161 40.2017 57.3324 39.6818 57.0955C39.1619 56.852 38.369 56.7302 37.3029 56.7302H34.924ZM53.373 67.7266V67.3811C53.0506 67.7891 52.7117 68.1313 52.3563 68.4077C52.0009 68.6841 51.6127 68.8881 51.1915 69.0197C50.7703 69.1579 50.2899 69.227 49.7503 69.227C49.0988 69.227 48.5132 69.0921 47.9933 68.8223C47.48 68.5525 47.0818 68.1807 46.7989 67.7069C46.4633 67.1344 46.2954 66.3118 46.2954 65.2391V59.8989C46.2954 59.3592 46.4172 58.9578 46.6607 58.6946C46.9042 58.4248 47.2266 58.2899 47.628 58.2899C48.036 58.2899 48.3651 58.4248 48.6152 58.6946C48.8652 58.9644 48.9903 59.3658 48.9903 59.8989V64.2125C48.9903 64.8377 49.0429 65.3642 49.1482 65.7919C49.2535 66.2131 49.441 66.5454 49.7108 66.7889C49.9872 67.0258 50.359 67.1442 50.8263 67.1442C51.2803 67.1442 51.7081 67.0093 52.1095 66.7395C52.5109 66.4697 52.8038 66.1176 52.988 65.6833C53.1394 65.3016 53.2151 64.4659 53.2151 63.1761V59.8989C53.2151 59.3658 53.3401 58.9644 53.5902 58.6946C53.8402 58.4248 54.166 58.2899 54.5674 58.2899C54.9688 58.2899 55.2913 58.4248 55.5348 58.6946C55.7783 58.9578 55.9 59.3592 55.9 59.8989V67.7069C55.9 68.2202 55.7816 68.6052 55.5447 68.8618C55.3143 69.1185 55.0149 69.2468 54.6464 69.2468C54.2779 69.2468 53.9719 69.1152 53.7284 68.8519C53.4915 68.5821 53.373 68.207 53.373 67.7266ZM65.4059 67.7266C64.7544 68.2333 64.1226 68.615 63.5106 68.8717C62.9052 69.1217 62.2241 69.2468 61.4673 69.2468C60.7763 69.2468 60.1676 69.1119 59.6412 68.8421C59.1213 68.5657 58.7199 68.1939 58.4369 67.7266C58.1539 67.2594 58.0124 66.7527 58.0124 66.2065C58.0124 65.4694 58.246 64.841 58.7133 64.3211C59.1805 63.8012 59.8221 63.4525 60.6381 63.2748C60.8092 63.2353 61.2337 63.1464 61.9115 63.0083C62.5893 62.8701 63.1684 62.745 63.6488 62.6332C64.1358 62.5147 64.6622 62.3732 65.2282 62.2087C65.1953 61.498 65.0505 60.9781 64.7939 60.6491C64.5438 60.3134 64.0206 60.1456 63.2244 60.1456C62.54 60.1456 62.0234 60.2411 61.6746 60.4319C61.3324 60.6227 61.0363 60.909 60.7862 61.2907C60.5427 61.6724 60.3683 61.9257 60.263 62.0508C60.1643 62.1692 59.9472 62.2284 59.6115 62.2284C59.3088 62.2284 59.0456 62.133 58.8219 61.9422C58.6047 61.7448 58.4961 61.4947 58.4961 61.192C58.4961 60.7182 58.6639 60.2575 58.9995 59.81C59.3351 59.3625 59.8583 58.994 60.569 58.7045C61.2798 58.4149 62.1649 58.2701 63.2244 58.2701C64.4089 58.2701 65.3401 58.4116 66.0179 58.6946C66.6957 58.971 67.1728 59.4119 67.4492 60.0173C67.7322 60.6227 67.8736 61.4256 67.8736 62.4259C67.8736 63.0576 67.8703 63.5939 67.8638 64.0348C67.8638 64.4758 67.8605 64.966 67.8539 65.5056C67.8539 66.0124 67.9362 66.5421 68.1007 67.0949C68.2718 67.6411 68.3573 67.9931 68.3573 68.1511C68.3573 68.4275 68.2257 68.6808 67.9625 68.9112C67.7058 69.1349 67.413 69.2468 67.0839 69.2468C66.8076 69.2468 66.5345 69.1185 66.2646 68.8618C65.9948 68.5986 65.7086 68.2202 65.4059 67.7266ZM65.2282 63.8276C64.8333 63.9723 64.2575 64.127 63.5007 64.2915C62.7505 64.4494 62.2307 64.5679 61.9411 64.6469C61.6516 64.7192 61.3752 64.8673 61.1119 65.0911C60.8487 65.3082 60.7171 65.6142 60.7171 66.0091C60.7171 66.4171 60.8717 66.7658 61.181 67.0554C61.4903 67.3384 61.8951 67.4799 62.3952 67.4799C62.9282 67.4799 63.4185 67.3647 63.866 67.1344C64.32 66.8975 64.6524 66.5947 64.863 66.2262C65.1064 65.8182 65.2282 65.147 65.2282 64.2125V63.8276ZM70.2526 58.5268H70.5487V56.9079C70.5487 56.4736 70.5586 56.1347 70.5783 55.8912C70.6046 55.6411 70.6704 55.4273 70.7757 55.2496C70.881 55.0653 71.0324 54.9173 71.2298 54.8054C71.4272 54.6869 71.6477 54.6277 71.8912 54.6277C72.2334 54.6277 72.5427 54.756 72.819 55.0127C73.0033 55.1838 73.1185 55.3944 73.1645 55.6444C73.2172 55.8879 73.2435 56.2367 73.2435 56.6908V58.5268H74.2306C74.6123 58.5268 74.9018 58.6189 75.0993 58.8032C75.3033 58.9809 75.4053 59.2112 75.4053 59.4941C75.4053 59.8561 75.2605 60.1094 74.9709 60.2542C74.688 60.399 74.28 60.4714 73.7469 60.4714H73.2435V65.4267C73.2435 65.8478 73.2567 66.1736 73.283 66.4039C73.3159 66.6276 73.3949 66.8119 73.5199 66.9567C73.6515 67.0949 73.8621 67.164 74.1516 67.164C74.3096 67.164 74.5235 67.1377 74.7933 67.085C75.0631 67.0258 75.2737 66.9962 75.425 66.9962C75.6422 66.9962 75.8363 67.085 76.0074 67.2627C76.1851 67.4338 76.2739 67.6477 76.2739 67.9043C76.2739 68.3386 76.037 68.671 75.5632 68.9013C75.0894 69.1316 74.4083 69.2468 73.5199 69.2468C72.6776 69.2468 72.0392 69.1053 71.6049 68.8223C71.1706 68.5393 70.8843 68.1478 70.7461 67.6477C70.6145 67.1475 70.5487 66.4796 70.5487 65.6438V60.4714H70.1933C69.8051 60.4714 69.5089 60.3793 69.3049 60.195C69.1009 60.0107 68.9989 59.7771 68.9989 59.4941C68.9989 59.2112 69.1042 58.9809 69.3148 58.8032C69.532 58.6189 69.8446 58.5268 70.2526 58.5268ZM85 65.3576V67.6082C85 68.1544 84.8716 68.5657 84.615 68.8421C84.3583 69.1119 84.0326 69.2468 83.6378 69.2468C83.2495 69.2468 82.9303 69.1086 82.6803 68.8322C82.4302 68.5558 82.3052 68.1478 82.3052 67.6082V60.1062C82.3052 58.8953 82.7428 58.2899 83.618 58.2899C84.0655 58.2899 84.388 58.4314 84.5854 58.7143C84.7828 58.9973 84.8914 59.4152 84.9111 59.968C85.2336 59.4152 85.5626 58.9973 85.8982 58.7143C86.2404 58.4314 86.6945 58.2899 87.2604 58.2899C87.8264 58.2899 88.3759 58.4314 88.9089 58.7143C89.442 58.9973 89.7085 59.3724 89.7085 59.8396C89.7085 60.1687 89.5933 60.4418 89.363 60.6589C89.1392 60.8695 88.8958 60.9748 88.6325 60.9748C88.5338 60.9748 88.2936 60.9156 87.9119 60.7971C87.5368 60.6721 87.2045 60.6096 86.915 60.6096C86.5201 60.6096 86.1977 60.7149 85.9476 60.9255C85.6975 61.1295 85.5034 61.4355 85.3652 61.8435C85.227 62.2515 85.1316 62.7384 85.0789 63.3044C85.0263 63.8637 85 64.5481 85 65.3576ZM97.4869 67.7266C96.8354 68.2333 96.2036 68.615 95.5916 68.8717C94.9862 69.1217 94.3051 69.2468 93.5483 69.2468C92.8573 69.2468 92.2486 69.1119 91.7222 68.8421C91.2023 68.5657 90.8009 68.1939 90.5179 67.7266C90.2349 67.2594 90.0934 66.7527 90.0934 66.2065C90.0934 65.4694 90.3271 64.841 90.7943 64.3211C91.2615 63.8012 91.9031 63.4525 92.7192 63.2748C92.8903 63.2353 93.3147 63.1464 93.9925 63.0083C94.6703 62.8701 95.2494 62.745 95.7298 62.6332C96.2168 62.5147 96.7433 62.3732 97.3092 62.2087C97.2763 61.498 97.1315 60.9781 96.8749 60.6491C96.6248 60.3134 96.1016 60.1456 95.3054 60.1456C94.621 60.1456 94.1044 60.2411 93.7556 60.4319C93.4134 60.6227 93.1173 60.909 92.8672 61.2907C92.6237 61.6724 92.4493 61.9257 92.3441 62.0508C92.2453 62.1692 92.0282 62.2284 91.6926 62.2284C91.3898 62.2284 91.1266 62.133 90.9029 61.9422C90.6857 61.7448 90.5771 61.4947 90.5771 61.192C90.5771 60.7182 90.7449 60.2575 91.0806 59.81C91.4162 59.3625 91.9393 58.994 92.6501 58.7045C93.3608 58.4149 94.2459 58.2701 95.3054 58.2701C96.4899 58.2701 97.4211 58.4116 98.0989 58.6946C98.7767 58.971 99.2538 59.4119 99.5302 60.0173C99.8132 60.6227 99.9547 61.4256 99.9547 62.4259C99.9547 63.0576 99.9514 63.5939 99.9448 64.0348C99.9448 64.4758 99.9415 64.966 99.9349 65.5056C99.9349 66.0124 100.017 66.5421 100.182 67.0949C100.353 67.6411 100.438 67.9931 100.438 68.1511C100.438 68.4275 100.307 68.6808 100.043 68.9112C99.7868 69.1349 99.494 69.2468 99.165 69.2468C98.8886 69.2468 98.6155 69.1185 98.3457 68.8618C98.0759 68.5986 97.7896 68.2202 97.4869 67.7266ZM97.3092 63.8276C96.9144 63.9723 96.3385 64.127 95.5818 64.2915C94.8316 64.4494 94.3117 64.5679 94.0221 64.6469C93.7326 64.7192 93.4562 64.8673 93.193 65.0911C92.9297 65.3082 92.7981 65.6142 92.7981 66.0091C92.7981 66.4171 92.9528 66.7658 93.2621 67.0554C93.5714 67.3384 93.9761 67.4799 94.4762 67.4799C95.0092 67.4799 95.4995 67.3647 95.947 67.1344C96.4011 66.8975 96.7334 66.5947 96.944 66.2262C97.1875 65.8182 97.3092 65.147 97.3092 64.2125V63.8276ZM105.147 59.7804V60.1062C105.621 59.481 106.137 59.0236 106.697 58.7341C107.263 58.4379 107.911 58.2899 108.641 58.2899C109.352 58.2899 109.987 58.4445 110.546 58.7538C111.106 59.0631 111.524 59.5007 111.8 60.0667C111.978 60.3957 112.093 60.7511 112.145 61.1327C112.198 61.5144 112.224 62.0014 112.224 62.5937V67.6082C112.224 68.1478 112.099 68.5558 111.849 68.8322C111.606 69.1086 111.287 69.2468 110.892 69.2468C110.49 69.2468 110.165 69.1053 109.915 68.8223C109.665 68.5393 109.539 68.1346 109.539 67.6082V63.1168C109.539 62.2284 109.414 61.5506 109.164 61.0834C108.921 60.6096 108.431 60.3727 107.694 60.3727C107.213 60.3727 106.776 60.5174 106.381 60.807C105.986 61.09 105.696 61.4815 105.512 61.9817C105.38 62.3831 105.315 63.1333 105.315 64.2323V67.6082C105.315 68.1544 105.186 68.5657 104.93 68.8421C104.68 69.1119 104.354 69.2468 103.952 69.2468C103.564 69.2468 103.245 69.1053 102.995 68.8223C102.745 68.5393 102.62 68.1346 102.62 67.6082V59.8199C102.62 59.3066 102.732 58.9249 102.955 58.6748C103.179 58.4182 103.485 58.2899 103.873 58.2899C104.11 58.2899 104.324 58.3458 104.515 58.4577C104.706 58.5696 104.857 58.7374 104.969 58.9611C105.088 59.1849 105.147 59.458 105.147 59.7804ZM124.83 60.2641V68.0919C124.83 68.9868 124.734 69.7568 124.544 70.4017C124.353 71.0466 124.047 71.5796 123.626 72.0008C123.204 72.422 122.652 72.7346 121.967 72.9386C121.289 73.1426 120.444 73.2446 119.43 73.2446C118.502 73.2446 117.673 73.113 116.943 72.8497C116.212 72.5931 115.65 72.2575 115.255 71.8429C114.86 71.4349 114.663 71.0137 114.663 70.5794C114.663 70.2503 114.774 69.9805 114.998 69.7699C115.222 69.5659 115.492 69.4639 115.808 69.4639C116.202 69.4639 116.548 69.6383 116.844 69.9871C116.989 70.1648 117.137 70.3425 117.288 70.5201C117.446 70.7044 117.617 70.8591 117.802 70.9841C117.992 71.1157 118.219 71.2111 118.483 71.2703C118.746 71.3362 119.049 71.3691 119.391 71.3691C120.088 71.3691 120.628 71.2703 121.01 71.0729C121.398 70.8821 121.668 70.6123 121.819 70.2635C121.977 69.9147 122.069 69.5396 122.095 69.1382C122.122 68.7434 122.142 68.105 122.155 67.2232C121.74 67.8023 121.26 68.2432 120.714 68.5459C120.174 68.8486 119.529 69 118.779 69C117.877 69 117.088 68.7697 116.41 68.309C115.739 67.8484 115.222 67.2035 114.86 66.3743C114.498 65.5451 114.317 64.5876 114.317 63.5018C114.317 62.6924 114.426 61.9619 114.643 61.3104C114.867 60.6589 115.182 60.1094 115.59 59.662C115.998 59.2145 116.469 58.8788 117.002 58.6551C117.535 58.4248 118.121 58.3096 118.759 58.3096C119.522 58.3096 120.184 58.4577 120.743 58.7538C121.303 59.0434 121.822 59.5007 122.303 60.1259V59.7607C122.303 59.2934 122.418 58.9315 122.648 58.6748C122.879 58.4182 123.175 58.2899 123.537 58.2899C124.057 58.2899 124.402 58.461 124.573 58.8032C124.744 59.1388 124.83 59.6258 124.83 60.2641ZM117.022 63.6795C117.022 64.7719 117.259 65.5978 117.732 66.1571C118.213 66.7165 118.831 66.9962 119.588 66.9962C120.036 66.9962 120.457 66.8777 120.852 66.6408C121.253 66.3973 121.579 66.0354 121.829 65.555C122.079 65.068 122.204 64.479 122.204 63.7881C122.204 62.6891 121.961 61.8336 121.474 61.2216C120.993 60.6096 120.358 60.3036 119.569 60.3036C118.799 60.3036 118.18 60.5964 117.713 61.1821C117.252 61.7678 117.022 62.6002 117.022 63.6795ZM134.267 68.0129L131.888 64.1039L130.427 65.4859V67.6279C130.427 68.1478 130.288 68.5492 130.012 68.8322C129.742 69.1086 129.43 69.2468 129.074 69.2468C128.66 69.2468 128.334 69.1086 128.097 68.8322C127.86 68.5558 127.742 68.1478 127.742 67.6082V56.1182C127.742 55.5194 127.857 55.0653 128.087 54.756C128.318 54.4402 128.647 54.2822 129.074 54.2822C129.489 54.2822 129.818 54.4237 130.061 54.7067C130.305 54.9896 130.427 55.4075 130.427 55.9603V62.495L133.457 59.3165C133.832 58.9216 134.118 58.6518 134.316 58.507C134.513 58.3623 134.754 58.2899 135.036 58.2899C135.372 58.2899 135.652 58.3985 135.876 58.6156C136.099 58.8262 136.211 59.0927 136.211 59.4152C136.211 59.81 135.846 60.3365 135.115 60.9946L133.684 62.3074L136.448 66.6507C136.652 66.9731 136.797 67.2199 136.882 67.391C136.975 67.5555 137.021 67.7135 137.021 67.8648C137.021 68.2926 136.902 68.6315 136.665 68.8815C136.435 69.125 136.129 69.2468 135.747 69.2468C135.418 69.2468 135.165 69.1579 134.987 68.9803C134.809 68.8026 134.569 68.4801 134.267 68.0129ZM145.184 67.7266C144.532 68.2333 143.901 68.615 143.289 68.8717C142.683 69.1217 142.002 69.2468 141.245 69.2468C140.554 69.2468 139.946 69.1119 139.419 68.8421C138.899 68.5657 138.498 68.1939 138.215 67.7266C137.932 67.2594 137.791 66.7527 137.791 66.2065C137.791 65.4694 138.024 64.841 138.491 64.3211C138.959 63.8012 139.6 63.4525 140.416 63.2748C140.587 63.2353 141.012 63.1464 141.69 63.0083C142.367 62.8701 142.947 62.745 143.427 62.6332C143.914 62.5147 144.44 62.3732 145.006 62.2087C144.973 61.498 144.829 60.9781 144.572 60.6491C144.322 60.3134 143.799 60.1456 143.002 60.1456C142.318 60.1456 141.801 60.2411 141.453 60.4319C141.11 60.6227 140.814 60.909 140.564 61.2907C140.321 61.6724 140.146 61.9257 140.041 62.0508C139.942 62.1692 139.725 62.2284 139.39 62.2284C139.087 62.2284 138.824 62.133 138.6 61.9422C138.383 61.7448 138.274 61.4947 138.274 61.192C138.274 60.7182 138.442 60.2575 138.778 59.81C139.113 59.3625 139.636 58.994 140.347 58.7045C141.058 58.4149 141.943 58.2701 143.002 58.2701C144.187 58.2701 145.118 58.4116 145.796 58.6946C146.474 58.971 146.951 59.4119 147.227 60.0173C147.51 60.6227 147.652 61.4256 147.652 62.4259C147.652 63.0576 147.648 63.5939 147.642 64.0348C147.642 64.4758 147.639 64.966 147.632 65.5056C147.632 66.0124 147.714 66.5421 147.879 67.0949C148.05 67.6411 148.135 67.9931 148.135 68.1511C148.135 68.4275 148.004 68.6808 147.741 68.9112C147.484 69.1349 147.191 69.2468 146.862 69.2468C146.586 69.2468 146.313 69.1185 146.043 68.8618C145.773 68.5986 145.487 68.2202 145.184 67.7266ZM145.006 63.8276C144.611 63.9723 144.036 64.127 143.279 64.2915C142.529 64.4494 142.009 64.5679 141.719 64.6469C141.43 64.7192 141.153 64.8673 140.89 65.0911C140.627 65.3082 140.495 65.6142 140.495 66.0091C140.495 66.4171 140.65 66.7658 140.959 67.0554C141.268 67.3384 141.673 67.4799 142.173 67.4799C142.706 67.4799 143.197 67.3647 143.644 67.1344C144.098 66.8975 144.43 66.5947 144.641 66.2262C144.885 65.8182 145.006 65.147 145.006 64.2125V63.8276ZM153.091 59.8199V67.6082C153.091 68.1478 152.962 68.5558 152.706 68.8322C152.449 69.1086 152.123 69.2468 151.728 69.2468C151.334 69.2468 151.011 69.1053 150.761 68.8223C150.518 68.5393 150.396 68.1346 150.396 67.6082V59.8989C150.396 59.3658 150.518 58.9644 150.761 58.6946C151.011 58.4248 151.334 58.2899 151.728 58.2899C152.123 58.2899 152.449 58.4248 152.706 58.6946C152.962 58.9644 153.091 59.3395 153.091 59.8199ZM151.758 57.0362C151.383 57.0362 151.061 56.9211 150.791 56.6908C150.528 56.4604 150.396 56.1347 150.396 55.7135C150.396 55.3318 150.531 55.0193 150.801 54.7758C151.077 54.5257 151.396 54.4007 151.758 54.4007C152.107 54.4007 152.416 54.5125 152.686 54.7363C152.956 54.96 153.091 55.2858 153.091 55.7135C153.091 56.1281 152.959 56.4539 152.696 56.6908C152.433 56.9211 152.12 57.0362 151.758 57.0362ZM162.695 67.7266C162.044 68.2333 161.412 68.615 160.8 68.8717C160.195 69.1217 159.513 69.2468 158.757 69.2468C158.066 69.2468 157.457 69.1119 156.931 68.8421C156.411 68.5657 156.009 68.1939 155.726 67.7266C155.443 67.2594 155.302 66.7527 155.302 66.2065C155.302 65.4694 155.535 64.841 156.003 64.3211C156.47 63.8012 157.112 63.4525 157.928 63.2748C158.099 63.2353 158.523 63.1464 159.201 63.0083C159.879 62.8701 160.458 62.745 160.938 62.6332C161.425 62.5147 161.952 62.3732 162.518 62.2087C162.485 61.498 162.34 60.9781 162.083 60.6491C161.833 60.3134 161.31 60.1456 160.514 60.1456C159.829 60.1456 159.313 60.2411 158.964 60.4319C158.622 60.6227 158.326 60.909 158.076 61.2907C157.832 61.6724 157.658 61.9257 157.552 62.0508C157.454 62.1692 157.237 62.2284 156.901 62.2284C156.598 62.2284 156.335 62.133 156.111 61.9422C155.894 61.7448 155.786 61.4947 155.786 61.192C155.786 60.7182 155.953 60.2575 156.289 59.81C156.625 59.3625 157.148 58.994 157.858 58.7045C158.569 58.4149 159.454 58.2701 160.514 58.2701C161.698 58.2701 162.629 58.4116 163.307 58.6946C163.985 58.971 164.462 59.4119 164.739 60.0173C165.022 60.6227 165.163 61.4256 165.163 62.4259C165.163 63.0576 165.16 63.5939 165.153 64.0348C165.153 64.4758 165.15 64.966 165.143 65.5056C165.143 66.0124 165.226 66.5421 165.39 67.0949C165.561 67.6411 165.647 67.9931 165.647 68.1511C165.647 68.4275 165.515 68.6808 165.252 68.9112C164.995 69.1349 164.702 69.2468 164.373 69.2468C164.097 69.2468 163.824 69.1185 163.554 68.8618C163.284 68.5986 162.998 68.2202 162.695 67.7266ZM162.518 63.8276C162.123 63.9723 161.547 64.127 160.79 64.2915C160.04 64.4494 159.52 64.5679 159.231 64.6469C158.941 64.7192 158.665 64.8673 158.401 65.0911C158.138 65.3082 158.006 65.6142 158.006 66.0091C158.006 66.4171 158.161 66.7658 158.47 67.0554C158.78 67.3384 159.184 67.4799 159.685 67.4799C160.218 67.4799 160.708 67.3647 161.155 67.1344C161.609 66.8975 161.942 66.5947 162.152 66.2262C162.396 65.8182 162.518 65.147 162.518 64.2125V63.8276ZM170.355 59.7804V60.1062C170.829 59.481 171.346 59.0236 171.905 58.7341C172.471 58.4379 173.119 58.2899 173.85 58.2899C174.56 58.2899 175.195 58.4445 175.755 58.7538C176.314 59.0631 176.732 59.5007 177.008 60.0667C177.186 60.3957 177.301 60.7511 177.354 61.1327C177.406 61.5144 177.433 62.0014 177.433 62.5937V67.6082C177.433 68.1478 177.308 68.5558 177.058 68.8322C176.814 69.1086 176.495 69.2468 176.1 69.2468C175.699 69.2468 175.373 69.1053 175.123 68.8223C174.873 68.5393 174.748 68.1346 174.748 67.6082V63.1168C174.748 62.2284 174.623 61.5506 174.373 61.0834C174.129 60.6096 173.639 60.3727 172.902 60.3727C172.422 60.3727 171.984 60.5174 171.589 60.807C171.194 61.09 170.905 61.4815 170.72 61.9817C170.589 62.3831 170.523 63.1333 170.523 64.2323V67.6082C170.523 68.1544 170.395 68.5657 170.138 68.8421C169.888 69.1119 169.562 69.2468 169.161 69.2468C168.773 69.2468 168.453 69.1053 168.203 68.8223C167.953 68.5393 167.828 68.1346 167.828 67.6082V59.8199C167.828 59.3066 167.94 58.9249 168.164 58.6748C168.388 58.4182 168.694 58.2899 169.082 58.2899C169.319 58.2899 169.533 58.3458 169.723 58.4577C169.914 58.5696 170.066 58.7374 170.178 58.9611C170.296 59.1849 170.355 59.458 170.355 59.7804ZM194.145 63.9657V67.549C194.145 68.1149 194.016 68.5393 193.76 68.8223C193.503 69.1053 193.164 69.2468 192.743 69.2468C192.335 69.2468 192.003 69.1053 191.746 68.8223C191.496 68.5393 191.371 68.1149 191.371 67.549V63.255C191.371 62.5772 191.348 62.0508 191.302 61.6757C191.256 61.3006 191.131 60.9946 190.927 60.7576C190.723 60.5142 190.4 60.3924 189.959 60.3924C189.077 60.3924 188.495 60.6951 188.212 61.3006C187.936 61.906 187.797 62.7746 187.797 63.9065V67.549C187.797 68.1083 187.669 68.5328 187.412 68.8223C187.162 69.1053 186.83 69.2468 186.415 69.2468C186.007 69.2468 185.672 69.1053 185.409 68.8223C185.152 68.5328 185.024 68.1083 185.024 67.549V59.8396C185.024 59.3329 185.139 58.9479 185.369 58.6847C185.606 58.4215 185.915 58.2899 186.297 58.2899C186.666 58.2899 186.972 58.4149 187.215 58.665C187.465 58.9085 187.59 59.2474 187.59 59.6817V59.9383C188.057 59.379 188.557 58.9677 189.091 58.7045C189.624 58.4412 190.216 58.3096 190.867 58.3096C191.545 58.3096 192.128 58.4445 192.615 58.7143C193.101 58.9841 193.503 59.3921 193.819 59.9383C194.273 59.3856 194.76 58.9776 195.28 58.7143C195.8 58.4445 196.375 58.3096 197.007 58.3096C197.744 58.3096 198.379 58.4544 198.912 58.7439C199.445 59.0335 199.843 59.4481 200.107 59.9877C200.337 60.4747 200.452 61.2413 200.452 62.2877V67.549C200.452 68.1149 200.324 68.5393 200.067 68.8223C199.811 69.1053 199.472 69.2468 199.05 69.2468C198.642 69.2468 198.307 69.1053 198.044 68.8223C197.787 68.5328 197.659 68.1083 197.659 67.549V63.0181C197.659 62.439 197.632 61.9751 197.58 61.6263C197.534 61.2775 197.402 60.9847 197.185 60.7478C196.968 60.5109 196.639 60.3924 196.198 60.3924C195.842 60.3924 195.503 60.4977 195.181 60.7083C194.865 60.9189 194.618 61.2018 194.441 61.5572C194.243 62.0113 194.145 62.8141 194.145 63.9657ZM210.59 64.4297H205.319C205.325 65.0417 205.447 65.5813 205.684 66.0485C205.927 66.5158 206.246 66.8678 206.641 67.1048C207.043 67.3417 207.484 67.4601 207.964 67.4601C208.286 67.4601 208.579 67.4239 208.843 67.3515C209.112 67.2726 209.372 67.1541 209.622 66.9962C209.872 66.8317 210.103 66.6573 210.313 66.473C210.524 66.2887 210.797 66.0387 211.133 65.7228C211.271 65.6043 211.468 65.5451 211.725 65.5451C212.001 65.5451 212.225 65.6208 212.396 65.7722C212.567 65.9235 212.653 66.1374 212.653 66.4138C212.653 66.6573 212.557 66.9435 212.367 67.2726C212.176 67.595 211.886 67.9076 211.498 68.2103C211.116 68.5064 210.633 68.7532 210.047 68.9506C209.468 69.1481 208.8 69.2468 208.043 69.2468C206.312 69.2468 204.967 68.7532 204.006 67.7661C203.045 66.779 202.565 65.4398 202.565 63.7486C202.565 62.9523 202.683 62.2153 202.92 61.5375C203.157 60.8531 203.502 60.2674 203.956 59.7804C204.41 59.2934 204.97 58.9216 205.634 58.665C206.299 58.4017 207.036 58.2701 207.846 58.2701C208.899 58.2701 209.8 58.4939 210.55 58.9414C211.307 59.3823 211.873 59.9548 212.248 60.6589C212.623 61.3631 212.811 62.0804 212.811 62.8108C212.811 63.4886 212.617 63.9296 212.228 64.1336C211.84 64.331 211.294 64.4297 210.59 64.4297ZM205.319 62.8997H210.205C210.139 61.9784 209.889 61.2907 209.455 60.8366C209.027 60.376 208.461 60.1456 207.757 60.1456C207.086 60.1456 206.533 60.3793 206.098 60.8465C205.671 61.3071 205.411 61.9915 205.319 62.8997ZM217.539 59.7804V60.1062C218.013 59.481 218.529 59.0236 219.089 58.7341C219.655 58.4379 220.303 58.2899 221.033 58.2899C221.744 58.2899 222.379 58.4445 222.938 58.7538C223.498 59.0631 223.916 59.5007 224.192 60.0667C224.37 60.3957 224.485 60.7511 224.538 61.1327C224.59 61.5144 224.617 62.0014 224.617 62.5937V67.6082C224.617 68.1478 224.492 68.5558 224.241 68.8322C223.998 69.1086 223.679 69.2468 223.284 69.2468C222.883 69.2468 222.557 69.1053 222.307 68.8223C222.057 68.5393 221.932 68.1346 221.932 67.6082V63.1168C221.932 62.2284 221.807 61.5506 221.557 61.0834C221.313 60.6096 220.823 60.3727 220.086 60.3727C219.605 60.3727 219.168 60.5174 218.773 60.807C218.378 61.09 218.088 61.4815 217.904 61.9817C217.773 62.3831 217.707 63.1333 217.707 64.2323V67.6082C217.707 68.1544 217.578 68.5657 217.322 68.8421C217.072 69.1119 216.746 69.2468 216.345 69.2468C215.956 69.2468 215.637 69.1053 215.387 68.8223C215.137 68.5393 215.012 68.1346 215.012 67.6082V59.8199C215.012 59.3066 215.124 58.9249 215.348 58.6748C215.571 58.4182 215.877 58.2899 216.266 58.2899C216.503 58.2899 216.716 58.3458 216.907 58.4577C217.098 58.5696 217.249 58.7374 217.361 58.9611C217.48 59.1849 217.539 59.458 217.539 59.7804ZM229.799 69.5824L230.046 68.9803L226.729 60.6293C226.525 60.1489 226.423 59.8002 226.423 59.583C226.423 59.3527 226.482 59.1388 226.601 58.9414C226.719 58.7439 226.88 58.586 227.084 58.4676C227.295 58.3491 227.512 58.2899 227.736 58.2899C228.124 58.2899 228.417 58.4149 228.614 58.665C228.812 58.9085 228.986 59.2605 229.138 59.7212L231.418 66.3545L233.58 60.1851C233.751 59.685 233.905 59.2934 234.043 59.0105C234.182 58.7275 234.326 58.5367 234.478 58.4379C234.636 58.3392 234.856 58.2899 235.139 58.2899C235.343 58.2899 235.537 58.3458 235.722 58.4577C235.912 58.563 236.057 58.7078 236.156 58.892C236.261 59.0763 236.314 59.2704 236.314 59.4744C236.287 59.5994 236.245 59.7771 236.185 60.0074C236.126 60.2378 236.054 60.4714 235.968 60.7083L232.454 69.9081C232.151 70.7176 231.855 71.3526 231.566 71.8133C231.276 72.2739 230.891 72.626 230.411 72.8695C229.937 73.1195 229.295 73.2446 228.486 73.2446C227.696 73.2446 227.104 73.159 226.709 72.9879C226.314 72.8168 226.117 72.5042 226.117 72.0502C226.117 71.7409 226.209 71.5007 226.393 71.3296C226.584 71.1651 226.864 71.0828 227.232 71.0828C227.377 71.0828 227.519 71.1025 227.657 71.142C227.828 71.1815 227.976 71.2013 228.101 71.2013C228.41 71.2013 228.654 71.1552 228.832 71.0631C229.009 70.9709 229.167 70.8097 229.305 70.5794C229.45 70.3556 229.615 70.0233 229.799 69.5824ZM240.963 59.8199V67.6082C240.963 68.1478 240.835 68.5558 240.578 68.8322C240.321 69.1086 239.996 69.2468 239.601 69.2468C239.206 69.2468 238.884 69.1053 238.634 68.8223C238.39 68.5393 238.268 68.1346 238.268 67.6082V59.8989C238.268 59.3658 238.39 58.9644 238.634 58.6946C238.884 58.4248 239.206 58.2899 239.601 58.2899C239.996 58.2899 240.321 58.4248 240.578 58.6946C240.835 58.9644 240.963 59.3395 240.963 59.8199ZM239.63 57.0362C239.255 57.0362 238.933 56.9211 238.663 56.6908C238.4 56.4604 238.268 56.1347 238.268 55.7135C238.268 55.3318 238.403 55.0193 238.673 54.7758C238.949 54.5257 239.269 54.4007 239.63 54.4007C239.979 54.4007 240.289 54.5125 240.558 54.7363C240.828 54.96 240.963 55.2858 240.963 55.7135C240.963 56.1281 240.831 56.4539 240.568 56.6908C240.305 56.9211 239.992 57.0362 239.63 57.0362ZM252.72 63.9657V67.549C252.72 68.1149 252.591 68.5393 252.335 68.8223C252.078 69.1053 251.739 69.2468 251.318 69.2468C250.91 69.2468 250.578 69.1053 250.321 68.8223C250.071 68.5393 249.946 68.1149 249.946 67.549V63.255C249.946 62.5772 249.923 62.0508 249.877 61.6757C249.831 61.3006 249.706 60.9946 249.502 60.7576C249.298 60.5142 248.975 60.3924 248.534 60.3924C247.652 60.3924 247.07 60.6951 246.787 61.3006C246.511 61.906 246.372 62.7746 246.372 63.9065V67.549C246.372 68.1083 246.244 68.5328 245.987 68.8223C245.737 69.1053 245.405 69.2468 244.99 69.2468C244.582 69.2468 244.247 69.1053 243.984 68.8223C243.727 68.5328 243.599 68.1083 243.599 67.549V59.8396C243.599 59.3329 243.714 58.9479 243.944 58.6847C244.181 58.4215 244.49 58.2899 244.872 58.2899C245.241 58.2899 245.547 58.4149 245.79 58.665C246.04 58.9085 246.165 59.2474 246.165 59.6817V59.9383C246.632 59.379 247.133 58.9677 247.666 58.7045C248.199 58.4412 248.791 58.3096 249.442 58.3096C250.12 58.3096 250.703 58.4445 251.19 58.7143C251.676 58.9841 252.078 59.3921 252.394 59.9383C252.848 59.3856 253.335 58.9776 253.855 58.7143C254.375 58.4445 254.95 58.3096 255.582 58.3096C256.319 58.3096 256.954 58.4544 257.487 58.7439C258.02 59.0335 258.418 59.4481 258.682 59.9877C258.912 60.4747 259.027 61.2413 259.027 62.2877V67.549C259.027 68.1149 258.899 68.5393 258.642 68.8223C258.386 69.1053 258.047 69.2468 257.625 69.2468C257.217 69.2468 256.882 69.1053 256.619 68.8223C256.362 68.5328 256.234 68.1083 256.234 67.549V63.0181C256.234 62.439 256.207 61.9751 256.155 61.6263C256.109 61.2775 255.977 60.9847 255.76 60.7478C255.543 60.5109 255.214 60.3924 254.773 60.3924C254.417 60.3924 254.078 60.4977 253.756 60.7083C253.44 60.9189 253.193 61.2018 253.016 61.5572C252.818 62.0113 252.72 62.8141 252.72 63.9657ZM264.131 59.8002V60.1259C264.637 59.5007 265.164 59.0434 265.71 58.7538C266.256 58.4577 266.875 58.3096 267.566 58.3096C268.395 58.3096 269.158 58.5235 269.856 58.9512C270.553 59.379 271.103 60.0042 271.504 60.8267C271.912 61.6493 272.116 62.6233 272.116 63.7486C272.116 64.5778 271.998 65.3411 271.761 66.0387C271.531 66.7297 271.211 67.312 270.803 67.7859C270.395 68.2531 269.912 68.615 269.352 68.8717C268.8 69.1217 268.204 69.2468 267.566 69.2468C266.796 69.2468 266.148 69.0921 265.621 68.7828C265.101 68.4735 264.604 68.0195 264.131 67.4206V71.4678C264.131 72.6523 263.699 73.2446 262.837 73.2446C262.331 73.2446 261.995 73.0899 261.831 72.7806C261.666 72.4779 261.584 72.0337 261.584 71.448V59.8199C261.584 59.3066 261.696 58.9249 261.919 58.6748C262.143 58.4182 262.449 58.2899 262.837 58.2899C263.219 58.2899 263.528 58.4215 263.765 58.6847C264.009 58.9414 264.131 59.3132 264.131 59.8002ZM269.412 63.719C269.412 63.0083 269.303 62.3995 269.086 61.8928C268.869 61.3795 268.566 60.988 268.178 60.7182C267.796 60.4418 267.372 60.3036 266.904 60.3036C266.161 60.3036 265.532 60.5964 265.019 61.1821C264.512 61.7678 264.259 62.6299 264.259 63.7683C264.259 64.841 264.512 65.6767 265.019 66.2756C265.526 66.8678 266.154 67.164 266.904 67.164C267.352 67.164 267.766 67.0357 268.148 66.779C268.53 66.5158 268.836 66.1242 269.066 65.6043C269.296 65.0845 269.412 64.456 269.412 63.719ZM281.089 67.7266C280.438 68.2333 279.806 68.615 279.194 68.8717C278.588 69.1217 277.907 69.2468 277.15 69.2468C276.46 69.2468 275.851 69.1119 275.324 68.8421C274.804 68.5657 274.403 68.1939 274.12 67.7266C273.837 67.2594 273.696 66.7527 273.696 66.2065C273.696 65.4694 273.929 64.841 274.396 64.3211C274.864 63.8012 275.505 63.4525 276.321 63.2748C276.492 63.2353 276.917 63.1464 277.595 63.0083C278.272 62.8701 278.852 62.745 279.332 62.6332C279.819 62.5147 280.345 62.3732 280.911 62.2087C280.878 61.498 280.734 60.9781 280.477 60.6491C280.227 60.3134 279.704 60.1456 278.908 60.1456C278.223 60.1456 277.707 60.2411 277.358 60.4319C277.016 60.6227 276.719 60.909 276.469 61.2907C276.226 61.6724 276.051 61.9257 275.946 62.0508C275.847 62.1692 275.63 62.2284 275.295 62.2284C274.992 62.2284 274.729 62.133 274.505 61.9422C274.288 61.7448 274.179 61.4947 274.179 61.192C274.179 60.7182 274.347 60.2575 274.683 59.81C275.018 59.3625 275.541 58.994 276.252 58.7045C276.963 58.4149 277.848 58.2701 278.908 58.2701C280.092 58.2701 281.023 58.4116 281.701 58.6946C282.379 58.971 282.856 59.4119 283.132 60.0173C283.415 60.6227 283.557 61.4256 283.557 62.4259C283.557 63.0576 283.554 63.5939 283.547 64.0348C283.547 64.4758 283.544 64.966 283.537 65.5056C283.537 66.0124 283.619 66.5421 283.784 67.0949C283.955 67.6411 284.04 67.9931 284.04 68.1511C284.04 68.4275 283.909 68.6808 283.646 68.9112C283.389 69.1349 283.096 69.2468 282.767 69.2468C282.491 69.2468 282.218 69.1185 281.948 68.8618C281.678 68.5986 281.392 68.2202 281.089 67.7266ZM280.911 63.8276C280.517 63.9723 279.941 64.127 279.184 64.2915C278.434 64.4494 277.914 64.5679 277.624 64.6469C277.335 64.7192 277.058 64.8673 276.795 65.0911C276.532 65.3082 276.4 65.6142 276.4 66.0091C276.4 66.4171 276.555 66.7658 276.864 67.0554C277.174 67.3384 277.578 67.4799 278.078 67.4799C278.611 67.4799 279.102 67.3647 279.549 67.1344C280.003 66.8975 280.336 66.5947 280.546 66.2262C280.79 65.8182 280.911 65.147 280.911 64.2125V63.8276ZM288.749 59.7804V60.1062C289.223 59.481 289.739 59.0236 290.299 58.7341C290.865 58.4379 291.513 58.2899 292.243 58.2899C292.954 58.2899 293.589 58.4445 294.148 58.7538C294.708 59.0631 295.126 59.5007 295.402 60.0667C295.58 60.3957 295.695 60.7511 295.748 61.1327C295.8 61.5144 295.827 62.0014 295.827 62.5937V67.6082C295.827 68.1478 295.702 68.5558 295.451 68.8322C295.208 69.1086 294.889 69.2468 294.494 69.2468C294.093 69.2468 293.767 69.1053 293.517 68.8223C293.267 68.5393 293.142 68.1346 293.142 67.6082V63.1168C293.142 62.2284 293.017 61.5506 292.767 61.0834C292.523 60.6096 292.033 60.3727 291.296 60.3727C290.815 60.3727 290.378 60.5174 289.983 60.807C289.588 61.09 289.298 61.4815 289.114 61.9817C288.983 62.3831 288.917 63.1333 288.917 64.2323V67.6082C288.917 68.1544 288.788 68.5657 288.532 68.8421C288.282 69.1119 287.956 69.2468 287.555 69.2468C287.166 69.2468 286.847 69.1053 286.597 68.8223C286.347 68.5393 286.222 68.1346 286.222 67.6082V59.8199C286.222 59.3066 286.334 58.9249 286.558 58.6748C286.781 58.4182 287.087 58.2899 287.476 58.2899C287.713 58.2899 287.926 58.3458 288.117 58.4577C288.308 58.5696 288.459 58.7374 288.571 58.9611C288.69 59.1849 288.749 59.458 288.749 59.7804ZM31.9725 81.5268H32.2686V79.9079C32.2686 79.4736 32.2785 79.1347 32.2983 78.8912C32.3246 78.6411 32.3904 78.4273 32.4957 78.2496C32.601 78.0653 32.7523 77.9173 32.9497 77.8054C33.1472 77.6869 33.3676 77.6277 33.6111 77.6277C33.9533 77.6277 34.2626 77.756 34.539 78.0127C34.7232 78.1838 34.8384 78.3944 34.8845 78.6444C34.9371 78.8879 34.9634 79.2367 34.9634 79.6908V81.5268H35.9506C36.3322 81.5268 36.6218 81.6189 36.8192 81.8032C37.0232 81.9809 37.1252 82.2112 37.1252 82.4941C37.1252 82.8561 36.9804 83.1094 36.6909 83.2542C36.4079 83.399 35.9999 83.4714 35.4669 83.4714H34.9634V88.4267C34.9634 88.8478 34.9766 89.1736 35.0029 89.4039C35.0358 89.6276 35.1148 89.8119 35.2398 89.9567C35.3714 90.0949 35.582 90.164 35.8716 90.164C36.0295 90.164 36.2434 90.1377 36.5132 90.085C36.783 90.0258 36.9936 89.9962 37.145 89.9962C37.3621 89.9962 37.5562 90.085 37.7273 90.2627C37.905 90.4338 37.9939 90.6477 37.9939 90.9043C37.9939 91.3386 37.757 91.671 37.2831 91.9013C36.8093 92.1316 36.1282 92.2468 35.2398 92.2468C34.3975 92.2468 33.7592 92.1053 33.3248 91.8223C32.8905 91.5393 32.6043 91.1478 32.4661 90.6477C32.3344 90.1475 32.2686 89.4796 32.2686 88.6438V83.4714H31.9133C31.525 83.4714 31.2289 83.3793 31.0249 83.195C30.8209 83.0107 30.7189 82.7771 30.7189 82.4941C30.7189 82.2112 30.8242 81.9809 31.0348 81.8032C31.2519 81.6189 31.5645 81.5268 31.9725 81.5268ZM46.5126 87.4297H41.2415C41.248 88.0417 41.3698 88.5813 41.6067 89.0485C41.8502 89.5158 42.1693 89.8678 42.5642 90.1048C42.9656 90.3417 43.4065 90.4601 43.8869 90.4601C44.2094 90.4601 44.5022 90.4239 44.7654 90.3515C45.0352 90.2726 45.2952 90.1541 45.5452 89.9962C45.7953 89.8317 46.0256 89.6573 46.2362 89.473C46.4468 89.2887 46.7199 89.0387 47.0555 88.7228C47.1937 88.6043 47.3911 88.5451 47.6478 88.5451C47.9242 88.5451 48.1479 88.6208 48.319 88.7722C48.4901 88.9235 48.5757 89.1374 48.5757 89.4138C48.5757 89.6573 48.4802 89.9435 48.2894 90.2726C48.0986 90.595 47.809 90.9076 47.4208 91.2103C47.0391 91.5064 46.5554 91.7532 45.9697 91.9506C45.3906 92.1481 44.7227 92.2468 43.9659 92.2468C42.2351 92.2468 40.8894 91.7532 39.9286 90.7661C38.9678 89.779 38.4874 88.4398 38.4874 86.7486C38.4874 85.9523 38.6059 85.2153 38.8428 84.5375C39.0797 83.8531 39.4252 83.2674 39.8792 82.7804C40.3333 82.2934 40.8927 81.9216 41.5573 81.665C42.222 81.4017 42.959 81.2701 43.7685 81.2701C44.8214 81.2701 45.7229 81.4939 46.4731 81.9414C47.2299 82.3823 47.7959 82.9548 48.171 83.6589C48.5461 84.3631 48.7336 85.0804 48.7336 85.8108C48.7336 86.4886 48.5395 86.9296 48.1512 87.1336C47.7629 87.331 47.2167 87.4297 46.5126 87.4297ZM41.2415 85.8997H46.1276C46.0618 84.9784 45.8118 84.2907 45.3774 83.8366C44.9497 83.376 44.3837 83.1456 43.6796 83.1456C43.0084 83.1456 42.4556 83.3793 42.0213 83.8465C41.5935 84.3071 41.3336 84.9915 41.2415 85.8997ZM60.648 83.2641V91.0919C60.648 91.9868 60.5526 92.7568 60.3617 93.4017C60.1709 94.0466 59.8649 94.5796 59.4437 95.0008C59.0226 95.422 58.4698 95.7346 57.7854 95.9386C57.1076 96.1426 56.262 96.2446 55.2485 96.2446C54.3206 96.2446 53.4915 96.113 52.761 95.8497C52.0305 95.5931 51.4679 95.2575 51.0731 94.8429C50.6782 94.4349 50.4808 94.0137 50.4808 93.5794C50.4808 93.2503 50.5927 92.9805 50.8164 92.7699C51.0401 92.5659 51.31 92.4639 51.6258 92.4639C52.0207 92.4639 52.3662 92.6383 52.6623 92.9871C52.8071 93.1648 52.9551 93.3425 53.1065 93.5201C53.2644 93.7044 53.4355 93.8591 53.6198 93.9841C53.8106 94.1157 54.0377 94.2111 54.3009 94.2703C54.5641 94.3362 54.8668 94.3691 55.209 94.3691C55.9066 94.3691 56.4462 94.2703 56.8279 94.0729C57.2162 93.8821 57.486 93.6123 57.6373 93.2635C57.7953 92.9147 57.8874 92.5396 57.9137 92.1382C57.94 91.7434 57.9598 91.105 57.9729 90.2232C57.5584 90.8023 57.078 91.2432 56.5318 91.5459C55.9921 91.8486 55.3472 92 54.597 92C53.6955 92 52.9058 91.7697 52.228 91.309C51.5567 90.8484 51.0401 90.2035 50.6782 89.3743C50.3163 88.5451 50.1353 87.5876 50.1353 86.5018C50.1353 85.6924 50.2439 84.9619 50.461 84.3104C50.6848 83.6589 51.0007 83.1094 51.4087 82.662C51.8167 82.2145 52.2872 81.8788 52.8202 81.6551C53.3533 81.4248 53.939 81.3096 54.5773 81.3096C55.3407 81.3096 56.002 81.4577 56.5614 81.7538C57.1207 82.0434 57.6406 82.5007 58.121 83.1259V82.7607C58.121 82.2934 58.2362 81.9315 58.4665 81.6748C58.6968 81.4182 58.993 81.2899 59.3549 81.2899C59.8748 81.2899 60.2203 81.461 60.3914 81.8032C60.5625 82.1388 60.648 82.6258 60.648 83.2641ZM52.84 86.6795C52.84 87.7719 53.0769 88.5978 53.5507 89.1571C54.0311 89.7165 54.6497 89.9962 55.4065 89.9962C55.8539 89.9962 56.2751 89.8777 56.67 89.6408C57.0714 89.3973 57.3971 89.0354 57.6472 88.555C57.8973 88.068 58.0223 87.479 58.0223 86.7881C58.0223 85.6891 57.7788 84.8336 57.2918 84.2216C56.8114 83.6096 56.1764 83.3036 55.3867 83.3036C54.6168 83.3036 53.9982 83.5964 53.531 84.1821C53.0703 84.7678 52.84 85.6002 52.84 86.6795ZM69.6702 90.7266C69.0187 91.2333 68.3869 91.615 67.7749 91.8717C67.1695 92.1217 66.4884 92.2468 65.7316 92.2468C65.0406 92.2468 64.4319 92.1119 63.9055 91.8421C63.3856 91.5657 62.9842 91.1939 62.7012 90.7266C62.4182 90.2594 62.2767 89.7527 62.2767 89.2065C62.2767 88.4694 62.5103 87.841 62.9776 87.3211C63.4448 86.8012 64.0864 86.4525 64.9024 86.2748C65.0735 86.2353 65.498 86.1464 66.1758 86.0083C66.8536 85.8701 67.4327 85.745 67.9131 85.6332C68.4001 85.5147 68.9266 85.3732 69.4925 85.2087C69.4596 84.498 69.3148 83.9781 69.0582 83.6491C68.8081 83.3134 68.2849 83.1456 67.4887 83.1456C66.8043 83.1456 66.2877 83.2411 65.9389 83.4319C65.5967 83.6227 65.3006 83.909 65.0505 84.2907C64.807 84.6724 64.6326 84.9257 64.5273 85.0508C64.4286 85.1692 64.2115 85.2284 63.8758 85.2284C63.5731 85.2284 63.3099 85.133 63.0862 84.9422C62.869 84.7448 62.7604 84.4947 62.7604 84.192C62.7604 83.7182 62.9282 83.2575 63.2638 82.81C63.5995 82.3625 64.1226 81.994 64.8333 81.7045C65.5441 81.4149 66.4292 81.2701 67.4887 81.2701C68.6732 81.2701 69.6044 81.4116 70.2822 81.6946C70.96 81.971 71.4371 82.4119 71.7135 83.0173C71.9965 83.6227 72.1379 84.4256 72.1379 85.4259C72.1379 86.0576 72.1347 86.5939 72.1281 87.0348C72.1281 87.4758 72.1248 87.966 72.1182 88.5056C72.1182 89.0124 72.2005 89.5421 72.365 90.0949C72.5361 90.6411 72.6216 90.9931 72.6216 91.1511C72.6216 91.4275 72.49 91.6808 72.2268 91.9112C71.9701 92.1349 71.6773 92.2468 71.3483 92.2468C71.0719 92.2468 70.7988 92.1185 70.529 91.8618C70.2591 91.5986 69.9729 91.2202 69.6702 90.7266ZM69.4925 86.8276C69.0977 86.9723 68.5218 87.127 67.7651 87.2915C67.0149 87.4494 66.495 87.5679 66.2054 87.6469C65.9159 87.7192 65.6395 87.8673 65.3763 88.0911C65.113 88.3082 64.9814 88.6142 64.9814 89.0091C64.9814 89.4171 65.1361 89.7658 65.4454 90.0554C65.7546 90.3384 66.1594 90.4799 66.6595 90.4799C67.1925 90.4799 67.6828 90.3647 68.1303 90.1344C68.5844 89.8975 68.9167 89.5947 69.1273 89.2262C69.3708 88.8182 69.4925 88.147 69.4925 87.2125V86.8276ZM77.3301 82.7804V83.1062C77.8039 82.481 78.3205 82.0236 78.8799 81.7341C79.4458 81.4379 80.094 81.2899 80.8245 81.2899C81.5352 81.2899 82.1703 81.4445 82.7296 81.7538C83.289 82.0631 83.7069 82.5007 83.9832 83.0667C84.1609 83.3957 84.2761 83.7511 84.3287 84.1327C84.3814 84.5144 84.4077 85.0014 84.4077 85.5937V90.6082C84.4077 91.1478 84.2827 91.5558 84.0326 91.8322C83.7891 92.1086 83.4699 92.2468 83.0751 92.2468C82.6737 92.2468 82.3479 92.1053 82.0979 91.8223C81.8478 91.5393 81.7228 91.1346 81.7228 90.6082V86.1168C81.7228 85.2284 81.5977 84.5506 81.3477 84.0834C81.1042 83.6096 80.6139 83.3727 79.8769 83.3727C79.3965 83.3727 78.9589 83.5174 78.564 83.807C78.1692 84.09 77.8796 84.4815 77.6954 84.9817C77.5638 85.3831 77.4979 86.1333 77.4979 87.2323V90.6082C77.4979 91.1544 77.3696 91.5657 77.113 91.8421C76.8629 92.1119 76.5372 92.2468 76.1357 92.2468C75.7475 92.2468 75.4283 92.1053 75.1782 91.8223C74.9282 91.5393 74.8031 91.1346 74.8031 90.6082V82.8199C74.8031 82.3066 74.915 81.9249 75.1388 81.6748C75.3625 81.4182 75.6685 81.2899 76.0568 81.2899C76.2937 81.2899 76.5075 81.3458 76.6984 81.4577C76.8892 81.5696 77.0406 81.7374 77.1525 81.9611C77.2709 82.1849 77.3301 82.458 77.3301 82.7804ZM97.0131 83.2641V91.0919C97.0131 91.9868 96.9177 92.7568 96.7268 93.4017C96.536 94.0466 96.23 94.5796 95.8088 95.0008C95.3876 95.422 94.8349 95.7346 94.1505 95.9386C93.4726 96.1426 92.627 96.2446 91.6136 96.2446C90.6857 96.2446 89.8565 96.113 89.1261 95.8497C88.3956 95.5931 87.833 95.2575 87.4381 94.8429C87.0433 94.4349 86.8459 94.0137 86.8459 93.5794C86.8459 93.2503 86.9577 92.9805 87.1815 92.7699C87.4052 92.5659 87.675 92.4639 87.9909 92.4639C88.3857 92.4639 88.7312 92.6383 89.0274 92.9871C89.1721 93.1648 89.3202 93.3425 89.4716 93.5201C89.6295 93.7044 89.8006 93.8591 89.9849 93.9841C90.1757 94.1157 90.4027 94.2111 90.666 94.2703C90.9292 94.3362 91.2319 94.3691 91.5741 94.3691C92.2717 94.3691 92.8113 94.2703 93.193 94.0729C93.5812 93.8821 93.851 93.6123 94.0024 93.2635C94.1603 92.9147 94.2525 92.5396 94.2788 92.1382C94.3051 91.7434 94.3249 91.105 94.338 90.2232C93.9234 90.8023 93.443 91.2432 92.8968 91.5459C92.3572 91.8486 91.7123 92 90.9621 92C90.0605 92 89.2709 91.7697 88.593 91.309C87.9218 90.8484 87.4052 90.2035 87.0433 89.3743C86.6813 88.5451 86.5004 87.5876 86.5004 86.5018C86.5004 85.6924 86.609 84.9619 86.8261 84.3104C87.0499 83.6589 87.3657 83.1094 87.7737 82.662C88.1817 82.2145 88.6523 81.8788 89.1853 81.6551C89.7183 81.4248 90.304 81.3096 90.9424 81.3096C91.7057 81.3096 92.3671 81.4577 92.9264 81.7538C93.4858 82.0434 94.0057 82.5007 94.4861 83.1259V82.7607C94.4861 82.2934 94.6012 81.9315 94.8316 81.6748C95.0619 81.4182 95.358 81.2899 95.72 81.2899C96.2398 81.2899 96.5853 81.461 96.7564 81.8032C96.9275 82.1388 97.0131 82.6258 97.0131 83.2641ZM89.205 86.6795C89.205 87.7719 89.442 88.5978 89.9158 89.1571C90.3962 89.7165 91.0147 89.9962 91.7715 89.9962C92.219 89.9962 92.6402 89.8777 93.035 89.6408C93.4365 89.3973 93.7622 89.0354 94.0123 88.555C94.2623 88.068 94.3874 87.479 94.3874 86.7881C94.3874 85.6891 94.1439 84.8336 93.6569 84.2216C93.1765 83.6096 92.5415 83.3036 91.7518 83.3036C90.9818 83.3036 90.3633 83.5964 89.896 84.1821C89.4354 84.7678 89.205 85.6002 89.205 86.6795ZM106.035 90.7266C105.384 91.2333 104.752 91.615 104.14 91.8717C103.535 92.1217 102.853 92.2468 102.097 92.2468C101.406 92.2468 100.797 92.1119 100.271 91.8421C99.7507 91.5657 99.3492 91.1939 99.0663 90.7266C98.7833 90.2594 98.6418 89.7527 98.6418 89.2065C98.6418 88.4694 98.8754 87.841 99.3427 87.3211C99.8099 86.8012 100.452 86.4525 101.268 86.2748C101.439 86.2353 101.863 86.1464 102.541 86.0083C103.219 85.8701 103.798 85.745 104.278 85.6332C104.765 85.5147 105.292 85.3732 105.858 85.2087C105.825 84.498 105.68 83.9781 105.423 83.6491C105.173 83.3134 104.65 83.1456 103.854 83.1456C103.169 83.1456 102.653 83.2411 102.304 83.4319C101.962 83.6227 101.666 83.909 101.416 84.2907C101.172 84.6724 100.998 84.9257 100.892 85.0508C100.794 85.1692 100.577 85.2284 100.241 85.2284C99.9382 85.2284 99.675 85.133 99.4512 84.9422C99.2341 84.7448 99.1255 84.4947 99.1255 84.192C99.1255 83.7182 99.2933 83.2575 99.6289 82.81C99.9645 82.3625 100.488 81.994 101.198 81.7045C101.909 81.4149 102.794 81.2701 103.854 81.2701C105.038 81.2701 105.969 81.4116 106.647 81.6946C107.325 81.971 107.802 82.4119 108.079 83.0173C108.362 83.6227 108.503 84.4256 108.503 85.4259C108.503 86.0576 108.5 86.5939 108.493 87.0348C108.493 87.4758 108.49 87.966 108.483 88.5056C108.483 89.0124 108.566 89.5421 108.73 90.0949C108.901 90.6411 108.987 90.9931 108.987 91.1511C108.987 91.4275 108.855 91.6808 108.592 91.9112C108.335 92.1349 108.042 92.2468 107.713 92.2468C107.437 92.2468 107.164 92.1185 106.894 91.8618C106.624 91.5986 106.338 91.2202 106.035 90.7266ZM105.858 86.8276C105.463 86.9723 104.887 87.127 104.13 87.2915C103.38 87.4494 102.86 87.5679 102.57 87.6469C102.281 87.7192 102.005 87.8673 101.741 88.0911C101.478 88.3082 101.346 88.6142 101.346 89.0091C101.346 89.4171 101.501 89.7658 101.81 90.0554C102.12 90.3384 102.524 90.4799 103.025 90.4799C103.558 90.4799 104.048 90.3647 104.495 90.1344C104.949 89.8975 105.282 89.5947 105.492 89.2262C105.736 88.8182 105.858 88.147 105.858 87.2125V86.8276ZM113.695 82.7804V83.1062C114.169 82.481 114.686 82.0236 115.245 81.7341C115.811 81.4379 116.459 81.2899 117.19 81.2899C117.9 81.2899 118.535 81.4445 119.095 81.7538C119.654 82.0631 120.072 82.5007 120.348 83.0667C120.526 83.3957 120.641 83.7511 120.694 84.1327C120.746 84.5144 120.773 85.0014 120.773 85.5937V90.6082C120.773 91.1478 120.648 91.5558 120.398 91.8322C120.154 92.1086 119.835 92.2468 119.44 92.2468C119.039 92.2468 118.713 92.1053 118.463 91.8223C118.213 91.5393 118.088 91.1346 118.088 90.6082V86.1168C118.088 85.2284 117.963 84.5506 117.713 84.0834C117.469 83.6096 116.979 83.3727 116.242 83.3727C115.762 83.3727 115.324 83.5174 114.929 83.807C114.534 84.09 114.245 84.4815 114.06 84.9817C113.929 85.3831 113.863 86.1333 113.863 87.2323V90.6082C113.863 91.1544 113.735 91.5657 113.478 91.8421C113.228 92.1119 112.902 92.2468 112.501 92.2468C112.113 92.2468 111.793 92.1053 111.543 91.8223C111.293 91.5393 111.168 91.1346 111.168 90.6082V82.8199C111.168 82.3066 111.28 81.9249 111.504 81.6748C111.728 81.4182 112.034 81.2899 112.422 81.2899C112.659 81.2899 112.873 81.3458 113.063 81.4577C113.254 81.5696 113.406 81.7374 113.518 81.9611C113.636 82.1849 113.695 82.458 113.695 82.7804ZM124.356 85.7319L124.04 81.0036C123.981 80.0823 123.951 79.4209 123.951 79.0195C123.951 78.4733 124.093 78.0489 124.376 77.7462C124.665 77.4369 125.044 77.2822 125.511 77.2822C126.077 77.2822 126.455 77.4796 126.646 77.8745C126.837 78.2627 126.932 78.8254 126.932 79.5624C126.932 79.9968 126.909 80.4377 126.863 80.8852L126.439 85.7516C126.393 86.3307 126.294 86.7749 126.143 87.0842C125.991 87.3935 125.741 87.5481 125.392 87.5481C125.037 87.5481 124.79 87.4001 124.652 87.1039C124.514 86.8012 124.415 86.3439 124.356 85.7319ZM125.452 92.227C125.05 92.227 124.698 92.0987 124.395 91.8421C124.099 91.5788 123.951 91.2136 123.951 90.7464C123.951 90.3384 124.093 89.9929 124.376 89.7099C124.665 89.4204 125.017 89.2756 125.432 89.2756C125.847 89.2756 126.199 89.4204 126.488 89.7099C126.784 89.9929 126.932 90.3384 126.932 90.7464C126.932 91.207 126.784 91.569 126.488 91.8322C126.192 92.0954 125.847 92.227 125.452 92.227Z" fill="#F5F5F5"/>
</g>
<defs>
<filter id="filter0_d_304_176" x="0" y="0" width="444" height="135" filterUnits="userSpaceOnUse" color-interpolation-filters="sRGB">
<feFlood flood-opacity="0" result="BackgroundImageFix"/>
<feColorMatrix in="SourceAlpha" type="matrix" values="0 0 0 0 0 0 0 0 0 0 0 0 0 0 0 0 0 0 127 0" result="hardAlpha"/>
<feOffset dy="4"/>
<feGaussianBlur stdDeviation="2"/>
<feComposite in2="hardAlpha" operator="out"/>
<feColorMatrix type="matrix" values="0 0 0 0 0 0 0 0 0 0 0 0 0 0 0 0 0 0 0.25 0"/>
<feBlend mode="normal" in2="BackgroundImageFix" result="effect1_dropShadow_304_176"/>
<feBlend mode="normal" in="SourceGraphic" in2="effect1_dropShadow_304_176" result="shape"/>
</filter>
</defs>
</svg>
