<svg width="444" height="135" viewBox="0 0 444 135" fill="none" xmlns="http://www.w3.org/2000/svg">
<g filter="url(#filter0_d_308_273)">
<rect x="7" y="3" width="430" height="121" rx="33" stroke="#9575DE" stroke-width="6"/>
<rect x="7" y="3" width="430" height="121" rx="33" fill="#151515" stroke="#9575DE" stroke-width="6"/>
<path d="M42.4932 34.3066C42.4932 35.1803 42.3571 35.986 42.085 36.7236C41.8128 37.4613 41.4189 38.0951 40.9033 38.625C40.3877 39.1549 39.7718 39.5632 39.0557 39.8496C38.3395 40.1289 37.5339 40.2686 36.6387 40.2686C35.7507 40.2686 34.9521 40.1253 34.2432 39.8389C33.5342 39.5524 32.9183 39.1442 32.3955 38.6143C31.8799 38.0771 31.486 37.4469 31.2139 36.7236C30.9489 35.9932 30.8164 35.1875 30.8164 34.3066C30.8164 33.4186 30.9525 32.6058 31.2246 31.8682C31.4967 31.1305 31.887 30.5003 32.3955 29.9775C32.904 29.4548 33.5199 29.0537 34.2432 28.7744C34.9665 28.488 35.765 28.3447 36.6387 28.3447C37.5267 28.3447 38.3324 28.488 39.0557 28.7744C39.779 29.0609 40.3984 29.4691 40.9141 29.999C41.4297 30.529 41.82 31.1592 42.085 31.8896C42.3571 32.6201 42.4932 33.4258 42.4932 34.3066ZM39.5498 34.3066C39.5498 33.1107 39.2848 32.1797 38.7549 31.5137C38.2321 30.8477 37.5267 30.5146 36.6387 30.5146C36.0658 30.5146 35.5609 30.665 35.124 30.9658C34.6872 31.2594 34.3506 31.6963 34.1143 32.2764C33.8779 32.8564 33.7598 33.5332 33.7598 34.3066C33.7598 35.0729 33.8743 35.7425 34.1035 36.3154C34.3398 36.8883 34.6729 37.3288 35.1025 37.6367C35.5394 37.9375 36.0514 38.0879 36.6387 38.0879C37.5267 38.0879 38.2321 37.7549 38.7549 37.0889C39.2848 36.4157 39.5498 35.4883 39.5498 34.3066ZM47.5205 25.6592V30.1387C48.0719 29.5658 48.6341 29.1289 49.207 28.8281C49.7799 28.5202 50.4889 28.3662 51.334 28.3662C52.3079 28.3662 53.1602 28.599 53.8906 29.0645C54.6283 29.5228 55.1976 30.1924 55.5986 31.0732C56.0068 31.9469 56.2109 32.9854 56.2109 34.1885C56.2109 35.0765 56.0964 35.8929 55.8672 36.6377C55.6452 37.3753 55.3193 38.0163 54.8896 38.5605C54.46 39.1048 53.9372 39.5273 53.3213 39.8281C52.7126 40.1217 52.0394 40.2686 51.3018 40.2686C50.8506 40.2686 50.4245 40.2148 50.0234 40.1074C49.6296 40 49.293 39.8604 49.0137 39.6885C48.7344 39.5094 48.4945 39.3268 48.2939 39.1406C48.1006 38.9544 47.8428 38.6751 47.5205 38.3027V38.5928C47.5205 39.1442 47.388 39.5632 47.123 39.8496C46.8581 40.1289 46.5215 40.2686 46.1133 40.2686C45.6979 40.2686 45.3649 40.1289 45.1143 39.8496C44.8708 39.5632 44.749 39.1442 44.749 38.5928V25.7881C44.749 25.1937 44.8672 24.7461 45.1035 24.4453C45.347 24.1374 45.6836 23.9834 46.1133 23.9834C46.5645 23.9834 46.9118 24.1302 47.1553 24.4238C47.3988 24.7103 47.5205 25.1221 47.5205 25.6592ZM47.6602 34.3711C47.6602 35.5384 47.9251 36.4372 48.4551 37.0674C48.9922 37.6904 49.694 38.002 50.5605 38.002C51.2982 38.002 51.932 37.6833 52.4619 37.0459C52.999 36.4014 53.2676 35.4811 53.2676 34.2852C53.2676 33.5117 53.1566 32.8457 52.9346 32.2871C52.7126 31.7285 52.3975 31.2988 51.9893 30.998C51.5811 30.6901 51.1048 30.5361 50.5605 30.5361C50.002 30.5361 49.5042 30.6901 49.0674 30.998C48.6305 31.2988 48.2868 31.7393 48.0361 32.3193C47.7855 32.8923 47.6602 33.5762 47.6602 34.3711ZM61.5176 30.0957V40.043C61.5176 40.752 61.4925 41.3285 61.4424 41.7725C61.3994 42.2236 61.335 42.5495 61.249 42.75C60.762 43.9961 59.7272 44.6191 58.1445 44.6191C57.2565 44.6191 56.5833 44.4974 56.125 44.2539C55.6667 44.0104 55.4375 43.6559 55.4375 43.1904C55.4375 42.8467 55.5413 42.5638 55.749 42.3418C55.9567 42.127 56.2288 42.0195 56.5654 42.0195C56.6084 42.0195 56.68 42.0231 56.7803 42.0303C56.8734 42.0446 57.013 42.0589 57.1992 42.0732C57.3926 42.0876 57.5251 42.0947 57.5967 42.0947C57.9906 42.0947 58.252 41.9408 58.3809 41.6328C58.5169 41.3249 58.585 40.7734 58.585 39.9785V30.0957C58.585 29.5156 58.721 29.0788 58.9932 28.7852C59.2653 28.4915 59.6234 28.3447 60.0674 28.3447C60.4971 28.3447 60.8444 28.4915 61.1094 28.7852C61.3815 29.0716 61.5176 29.5085 61.5176 30.0957ZM60.0674 26.9805C59.6592 26.9805 59.3083 26.8551 59.0146 26.6045C58.7282 26.3538 58.585 25.9994 58.585 25.541C58.585 25.1257 58.7318 24.7855 59.0254 24.5205C59.3262 24.2484 59.6735 24.1123 60.0674 24.1123C60.4469 24.1123 60.7835 24.2341 61.0771 24.4775C61.3708 24.721 61.5176 25.0755 61.5176 25.541C61.5176 25.9922 61.3743 26.3467 61.0879 26.6045C60.8014 26.8551 60.4613 26.9805 60.0674 26.9805ZM72.7217 35.0264H66.9853C66.9925 35.6924 67.125 36.2796 67.3828 36.7881C67.6478 37.2965 67.9951 37.6797 68.4248 37.9375C68.8616 38.1953 69.3415 38.3242 69.8643 38.3242C70.2152 38.3242 70.5338 38.2848 70.8203 38.2061C71.1139 38.1201 71.3968 37.9912 71.6689 37.8193C71.9411 37.6403 72.1917 37.4505 72.4209 37.25C72.6501 37.0495 72.9473 36.7773 73.3125 36.4336C73.4629 36.3047 73.6777 36.2402 73.957 36.2402C74.2578 36.2402 74.5013 36.3226 74.6875 36.4873C74.8737 36.652 74.9668 36.8848 74.9668 37.1855C74.9668 37.4505 74.863 37.762 74.6553 38.1201C74.4476 38.471 74.1325 38.8112 73.71 39.1406C73.2946 39.4629 72.7682 39.7314 72.1309 39.9463C71.5006 40.1611 70.7738 40.2686 69.9502 40.2686C68.0667 40.2686 66.6022 39.7314 65.5566 38.6572C64.5111 37.583 63.9883 36.1257 63.9883 34.2852C63.9883 33.4186 64.1172 32.6165 64.375 31.8789C64.6328 31.1341 65.0088 30.4967 65.5029 29.9668C65.9971 29.4368 66.6058 29.0322 67.3291 28.7529C68.0524 28.4665 68.8545 28.3232 69.7353 28.3232C70.8812 28.3232 71.8623 28.5667 72.6787 29.0537C73.5023 29.5335 74.1182 30.1566 74.5264 30.9229C74.9346 31.6891 75.1387 32.4697 75.1387 33.2646C75.1387 34.0023 74.9274 34.4821 74.5049 34.7041C74.0824 34.9189 73.488 35.0264 72.7217 35.0264ZM66.9853 33.3613H72.3027C72.2311 32.3587 71.959 31.6104 71.4863 31.1162C71.0208 30.6149 70.4049 30.3643 69.6387 30.3643C68.9082 30.3643 68.3066 30.6185 67.834 31.127C67.3685 31.6283 67.0856 32.373 66.9853 33.3613ZM88.1367 36.6377C88.1367 37.0029 88.0257 37.3932 87.8037 37.8086C87.5889 38.224 87.2559 38.6214 86.8047 39.001C86.3607 39.3734 85.7985 39.6742 85.1182 39.9033C84.4378 40.1325 83.6715 40.2471 82.8193 40.2471C81.0075 40.2471 79.5931 39.7207 78.5762 38.668C77.5592 37.6081 77.0508 36.1901 77.0508 34.4141C77.0508 33.2109 77.2835 32.1475 77.749 31.2236C78.2145 30.2998 78.8877 29.5872 79.7686 29.0859C80.6494 28.5775 81.7021 28.3232 82.9268 28.3232C83.6859 28.3232 84.3805 28.4342 85.0107 28.6563C85.6481 28.8783 86.1852 29.1647 86.6221 29.5156C87.0661 29.8665 87.4027 30.2425 87.6318 30.6436C87.8682 31.0374 87.9863 31.4063 87.9863 31.75C87.9863 32.1009 87.8538 32.3981 87.5889 32.6416C87.331 32.8851 87.0159 33.0068 86.6435 33.0068C86.4001 33.0068 86.196 32.946 86.0312 32.8242C85.8737 32.6953 85.6947 32.4912 85.4941 32.2119C85.1361 31.6676 84.7601 31.2594 84.3662 30.9873C83.9795 30.7152 83.4853 30.5791 82.8838 30.5791C82.0172 30.5791 81.319 30.9193 80.7891 31.5996C80.2591 32.2728 79.9941 33.1966 79.9941 34.3711C79.9941 34.9225 80.0622 35.431 80.1982 35.8965C80.3343 36.3548 80.5312 36.7487 80.7891 37.0781C81.0469 37.4004 81.3584 37.6475 81.7236 37.8193C82.0889 37.984 82.4899 38.0664 82.9268 38.0664C83.514 38.0664 84.0153 37.9303 84.4307 37.6582C84.8532 37.3861 85.2256 36.9707 85.5478 36.4121C85.7269 36.0827 85.9202 35.8249 86.1279 35.6387C86.3356 35.4525 86.5898 35.3594 86.8906 35.3594C87.2487 35.3594 87.5459 35.4954 87.7822 35.7676C88.0185 36.0397 88.1367 36.3298 88.1367 36.6377ZM90.8652 28.6025H91.1875V26.8408C91.1875 26.3682 91.1982 25.9994 91.2197 25.7344C91.2484 25.4622 91.32 25.2295 91.4346 25.0361C91.5491 24.8356 91.7139 24.6745 91.9287 24.5527C92.1436 24.4238 92.3835 24.3594 92.6484 24.3594C93.0208 24.3594 93.3574 24.499 93.6582 24.7783C93.8587 24.9645 93.984 25.1937 94.0342 25.4658C94.0915 25.7308 94.1201 26.1104 94.1201 26.6045V28.6025H95.1943C95.6097 28.6025 95.9248 28.7028 96.1396 28.9033C96.3616 29.0967 96.4727 29.3473 96.4727 29.6553C96.4727 30.0492 96.3151 30.3249 96 30.4824C95.6921 30.64 95.248 30.7188 94.668 30.7188H94.1201V36.1113C94.1201 36.5697 94.1344 36.9242 94.1631 37.1748C94.1989 37.4183 94.2848 37.6188 94.4209 37.7764C94.5641 37.9268 94.7933 38.002 95.1084 38.002C95.2803 38.002 95.513 37.9733 95.8066 37.916C96.1003 37.8516 96.3294 37.8193 96.4941 37.8193C96.7305 37.8193 96.9417 37.916 97.1279 38.1094C97.3213 38.2956 97.418 38.5283 97.418 38.8076C97.418 39.2803 97.1602 39.6419 96.6445 39.8926C96.1289 40.1432 95.3877 40.2686 94.4209 40.2686C93.5042 40.2686 92.8096 40.1146 92.3369 39.8066C91.8643 39.4987 91.5527 39.0726 91.4023 38.5283C91.2591 37.984 91.1875 37.2572 91.1875 36.3477V30.7188H90.8008C90.3783 30.7188 90.056 30.6185 89.834 30.418C89.612 30.2174 89.501 29.9632 89.501 29.6553C89.501 29.3473 89.6156 29.0967 89.8447 28.9033C90.0811 28.7028 90.4212 28.6025 90.8652 28.6025ZM101.436 30.0098V38.4854C101.436 39.0726 101.296 39.5166 101.017 39.8174C100.737 40.1182 100.383 40.2686 99.9531 40.2686C99.5234 40.2686 99.1725 40.1146 98.9004 39.8066C98.6354 39.4987 98.5029 39.0583 98.5029 38.4854V30.0957C98.5029 29.5156 98.6354 29.0788 98.9004 28.7852C99.1725 28.4915 99.5234 28.3447 99.9531 28.3447C100.383 28.3447 100.737 28.4915 101.017 28.7852C101.296 29.0788 101.436 29.487 101.436 30.0098ZM99.9853 26.9805C99.5771 26.9805 99.2262 26.8551 98.9326 26.6045C98.6462 26.3538 98.5029 25.9994 98.5029 25.541C98.5029 25.1257 98.6497 24.7855 98.9434 24.5205C99.2441 24.2484 99.5915 24.1123 99.9853 24.1123C100.365 24.1123 100.701 24.2341 100.995 24.4775C101.289 24.721 101.436 25.0755 101.436 25.541C101.436 25.9922 101.292 26.3467 101.006 26.6045C100.719 26.8551 100.379 26.9805 99.9853 26.9805ZM106.549 30.1709L108.923 36.8311L111.479 29.8809C111.68 29.3223 111.877 28.9284 112.07 28.6992C112.264 28.4629 112.557 28.3447 112.951 28.3447C113.324 28.3447 113.639 28.4701 113.896 28.7207C114.161 28.9714 114.294 29.2614 114.294 29.5908C114.294 29.7197 114.269 29.8701 114.219 30.042C114.176 30.2139 114.122 30.375 114.058 30.5254C114 30.6758 113.932 30.8477 113.854 31.041L111.039 38.0234C110.96 38.224 110.856 38.4782 110.728 38.7861C110.606 39.0941 110.466 39.359 110.309 39.5811C110.158 39.7959 109.968 39.9642 109.739 40.0859C109.517 40.2077 109.245 40.2686 108.923 40.2686C108.507 40.2686 108.174 40.1755 107.924 39.9893C107.68 39.7959 107.498 39.5882 107.376 39.3662C107.261 39.137 107.064 38.6895 106.785 38.0234L103.992 31.1162C103.928 30.9443 103.86 30.7725 103.788 30.6006C103.724 30.4287 103.666 30.2533 103.616 30.0742C103.573 29.8952 103.552 29.7412 103.552 29.6123C103.552 29.4118 103.613 29.2148 103.734 29.0215C103.856 28.821 104.024 28.6598 104.239 28.5381C104.454 28.4092 104.687 28.3447 104.937 28.3447C105.424 28.3447 105.757 28.4844 105.937 28.7637C106.123 29.043 106.327 29.512 106.549 30.1709ZM124.284 35.0264H118.548C118.555 35.6924 118.687 36.2796 118.945 36.7881C119.21 37.2965 119.558 37.6797 119.987 37.9375C120.424 38.1953 120.904 38.3242 121.427 38.3242C121.778 38.3242 122.096 38.2848 122.383 38.2061C122.676 38.1201 122.959 37.9912 123.231 37.8193C123.504 37.6403 123.754 37.4505 123.983 37.25C124.213 37.0495 124.51 36.7773 124.875 36.4336C125.025 36.3047 125.24 36.2402 125.52 36.2402C125.82 36.2402 126.064 36.3226 126.25 36.4873C126.436 36.652 126.529 36.8848 126.529 37.1855C126.529 37.4505 126.425 37.762 126.218 38.1201C126.01 38.471 125.695 38.8112 125.272 39.1406C124.857 39.4629 124.331 39.7314 123.693 39.9463C123.063 40.1611 122.336 40.2686 121.513 40.2686C119.629 40.2686 118.165 39.7314 117.119 38.6572C116.074 37.583 115.551 36.1257 115.551 34.2852C115.551 33.4186 115.68 32.6165 115.937 31.8789C116.195 31.1341 116.571 30.4967 117.065 29.9668C117.56 29.4368 118.168 29.0322 118.892 28.7529C119.615 28.4665 120.417 28.3232 121.298 28.3232C122.444 28.3232 123.425 28.5667 124.241 29.0537C125.065 29.5335 125.681 30.1566 126.089 30.9229C126.497 31.6891 126.701 32.4697 126.701 33.2646C126.701 34.0023 126.49 34.4821 126.067 34.7041C125.645 34.9189 125.05 35.0264 124.284 35.0264ZM118.548 33.3613H123.865C123.794 32.3587 123.521 31.6104 123.049 31.1162C122.583 30.6149 121.967 30.3643 121.201 30.3643C120.471 30.3643 119.869 30.6185 119.396 31.127C118.931 31.6283 118.648 32.373 118.548 33.3613ZM138.625 36.4336C138.625 37.2428 138.428 37.9375 138.034 38.5176C137.64 39.0905 137.057 39.5273 136.283 39.8281C135.517 40.1217 134.582 40.2686 133.479 40.2686C132.427 40.2686 131.524 40.1074 130.772 39.7852C130.02 39.4629 129.465 39.0618 129.107 38.582C128.749 38.0951 128.57 37.6081 128.57 37.1211C128.57 36.7988 128.685 36.5231 128.914 36.2939C129.143 36.0648 129.433 35.9502 129.784 35.9502C130.092 35.9502 130.328 36.0254 130.493 36.1758C130.658 36.3262 130.815 36.5374 130.966 36.8096C131.267 37.3324 131.625 37.7227 132.04 37.9805C132.463 38.2383 133.035 38.3672 133.759 38.3672C134.346 38.3672 134.826 38.2383 135.198 37.9805C135.578 37.7155 135.768 37.4147 135.768 37.0781C135.768 36.5625 135.571 36.1865 135.177 35.9502C134.79 35.7139 134.149 35.4883 133.254 35.2734C132.244 35.0228 131.421 34.7614 130.783 34.4893C130.153 34.21 129.648 33.8447 129.269 33.3936C128.889 32.9424 128.699 32.3874 128.699 31.7285C128.699 31.1413 128.875 30.5863 129.226 30.0635C129.576 29.5407 130.092 29.1253 130.772 28.8174C131.46 28.5023 132.287 28.3447 133.254 28.3447C134.013 28.3447 134.693 28.4235 135.295 28.5811C135.904 28.7386 136.409 28.9499 136.81 29.2148C137.218 29.4798 137.526 29.7734 137.733 30.0957C137.948 30.418 138.056 30.7331 138.056 31.041C138.056 31.3776 137.941 31.6533 137.712 31.8682C137.49 32.083 137.171 32.1904 136.756 32.1904C136.455 32.1904 136.197 32.1045 135.982 31.9326C135.775 31.7607 135.535 31.5029 135.263 31.1592C135.041 30.8727 134.779 30.6436 134.479 30.4717C134.178 30.2998 133.77 30.2139 133.254 30.2139C132.724 30.2139 132.284 30.3285 131.933 30.5576C131.582 30.7796 131.406 31.0589 131.406 31.3955C131.406 31.7035 131.535 31.9577 131.793 32.1582C132.051 32.3516 132.398 32.5127 132.835 32.6416C133.272 32.7705 133.873 32.9281 134.64 33.1143C135.549 33.3363 136.29 33.6012 136.863 33.9092C137.443 34.2171 137.88 34.5824 138.174 35.0049C138.475 35.4202 138.625 35.8965 138.625 36.4336ZM143.051 40.2686C142.607 40.2686 142.224 40.1253 141.901 39.8389C141.579 39.5524 141.418 39.1514 141.418 38.6357C141.418 38.1989 141.572 37.8229 141.88 37.5078C142.188 37.1927 142.567 37.0352 143.019 37.0352C143.47 37.0352 143.853 37.1927 144.168 37.5078C144.49 37.8158 144.651 38.1917 144.651 38.6357C144.651 39.1442 144.49 39.5452 144.168 39.8389C143.853 40.1253 143.48 40.2686 143.051 40.2686ZM141.418 29.9453C141.418 29.4368 141.576 29.043 141.891 28.7637C142.213 28.4844 142.6 28.3447 143.051 28.3447C143.488 28.3447 143.864 28.488 144.179 28.7744C144.494 29.0537 144.651 29.444 144.651 29.9453C144.651 30.3464 144.479 30.7152 144.136 31.0518C143.792 31.3883 143.42 31.5566 143.019 31.5566C142.582 31.5566 142.206 31.3955 141.891 31.0732C141.576 30.751 141.418 30.375 141.418 29.9453Z" fill="#9575DE"/>
<path d="M37.6286 63.3636H34.9437V67.4601C34.9437 68.0458 34.8055 68.49 34.5291 68.7927C34.2527 69.0954 33.9039 69.2468 33.4828 69.2468C33.0419 69.2468 32.6865 69.0987 32.4167 68.8026C32.1469 68.4999 32.012 68.059 32.012 67.4799V56.3255C32.012 55.6806 32.1601 55.22 32.4562 54.9436C32.7523 54.6672 33.2228 54.529 33.8678 54.529H37.6286C38.7408 54.529 39.5963 54.6145 40.1951 54.7856C40.7874 54.9502 41.2974 55.2233 41.7251 55.6049C42.1595 55.9866 42.4885 56.4539 42.7122 57.0066C42.936 57.5594 43.0479 58.1813 43.0479 58.8723C43.0479 60.3464 42.5938 61.4651 41.6857 62.2284C40.7775 62.9852 39.4252 63.3636 37.6286 63.3636ZM36.9179 56.7302H34.9437V61.1525H36.9179C37.6089 61.1525 38.1847 61.0801 38.6454 60.9353C39.1126 60.7905 39.4679 60.5536 39.7114 60.2246C39.9549 59.8956 40.0767 59.4645 40.0767 58.9315C40.0767 58.2932 39.8891 57.7733 39.514 57.3719C39.0928 56.9441 38.2275 56.7302 36.9179 56.7302ZM51.3494 67.7266C50.698 68.2333 50.0662 68.615 49.4542 68.8717C48.8488 69.1217 48.1677 69.2468 47.4109 69.2468C46.7199 69.2468 46.1112 69.1119 45.5847 68.8421C45.0649 68.5657 44.6634 68.1939 44.3805 67.7266C44.0975 67.2594 43.956 66.7527 43.956 66.2065C43.956 65.4694 44.1896 64.841 44.6568 64.3211C45.1241 63.8012 45.7657 63.4525 46.5817 63.2748C46.7528 63.2353 47.1773 63.1464 47.8551 63.0083C48.5329 62.8701 49.112 62.745 49.5924 62.6332C50.0794 62.5147 50.6058 62.3732 51.1718 62.2087C51.1389 61.498 50.9941 60.9781 50.7374 60.6491C50.4874 60.3134 49.9642 60.1456 49.1679 60.1456C48.4835 60.1456 47.967 60.2411 47.6182 60.4319C47.276 60.6227 46.9798 60.909 46.7298 61.2907C46.4863 61.6724 46.3119 61.9257 46.2066 62.0508C46.1079 62.1692 45.8907 62.2284 45.5551 62.2284C45.2524 62.2284 44.9892 62.133 44.7654 61.9422C44.5483 61.7448 44.4397 61.4947 44.4397 61.192C44.4397 60.7182 44.6075 60.2575 44.9431 59.81C45.2787 59.3625 45.8019 58.994 46.5126 58.7045C47.2233 58.4149 48.1084 58.2701 49.1679 58.2701C50.3525 58.2701 51.2836 58.4116 51.9614 58.6946C52.6393 58.971 53.1164 59.4119 53.3928 60.0173C53.6757 60.6227 53.8172 61.4256 53.8172 62.4259C53.8172 63.0576 53.8139 63.5939 53.8073 64.0348C53.8073 64.4758 53.8041 64.966 53.7975 65.5056C53.7975 66.0124 53.8797 66.5421 54.0442 67.0949C54.2153 67.6411 54.3009 67.9931 54.3009 68.1511C54.3009 68.4275 54.1693 68.6808 53.9061 68.9112C53.6494 69.1349 53.3566 69.2468 53.0275 69.2468C52.7511 69.2468 52.478 69.1185 52.2082 68.8618C51.9384 68.5986 51.6522 68.2202 51.3494 67.7266ZM51.1718 63.8276C50.7769 63.9723 50.2011 64.127 49.4443 64.2915C48.6941 64.4494 48.1742 64.5679 47.8847 64.6469C47.5951 64.7192 47.3187 64.8673 47.0555 65.0911C46.7923 65.3082 46.6607 65.6142 46.6607 66.0091C46.6607 66.4171 46.8153 66.7658 47.1246 67.0554C47.4339 67.3384 47.8386 67.4799 48.3388 67.4799C48.8718 67.4799 49.3621 67.3647 49.8096 67.1344C50.2636 66.8975 50.5959 66.5947 50.8065 66.2262C51.05 65.8182 51.1718 65.147 51.1718 64.2125V63.8276ZM65.2381 65.7228C65.2381 66.4664 65.0571 67.1048 64.6951 67.6378C64.3332 68.1642 63.7969 68.5657 63.0862 68.8421C62.382 69.1119 61.5232 69.2468 60.5098 69.2468C59.5424 69.2468 58.7133 69.0987 58.0223 68.8026C57.3313 68.5064 56.8213 68.1379 56.4923 67.697C56.1632 67.2495 55.9987 66.802 55.9987 66.3545C55.9987 66.0584 56.104 65.8051 56.3146 65.5945C56.5252 65.3839 56.7917 65.2786 57.1142 65.2786C57.3971 65.2786 57.6143 65.3477 57.7656 65.4859C57.917 65.6241 58.0618 65.8182 58.2 66.0683C58.4764 66.5487 58.8054 66.9073 59.1871 67.1442C59.5753 67.3811 60.1018 67.4996 60.7665 67.4996C61.3061 67.4996 61.747 67.3811 62.0892 67.1442C62.438 66.9007 62.6123 66.6244 62.6123 66.3151C62.6123 65.8413 62.4314 65.4958 62.0694 65.2786C61.7141 65.0614 61.1251 64.8541 60.3025 64.6567C59.3746 64.4264 58.6179 64.1862 58.0322 63.9361C57.4531 63.6795 56.9891 63.3439 56.6403 62.9293C56.2916 62.5147 56.1172 62.0047 56.1172 61.3993C56.1172 60.8596 56.2784 60.3496 56.6009 59.8692C56.9233 59.3889 57.3971 59.0072 58.0223 58.7242C58.654 58.4347 59.4141 58.2899 60.3025 58.2899C61.0001 58.2899 61.6252 58.3623 62.178 58.507C62.7374 58.6518 63.2013 58.8459 63.5698 59.0894C63.9449 59.3329 64.2279 59.6027 64.4188 59.8989C64.6162 60.195 64.7149 60.4845 64.7149 60.7675C64.7149 61.0768 64.6096 61.3302 64.399 61.5276C64.195 61.725 63.9022 61.8237 63.5205 61.8237C63.2441 61.8237 63.0072 61.7448 62.8098 61.5868C62.6189 61.4289 62.3985 61.192 62.1484 60.8761C61.9444 60.6129 61.7042 60.4023 61.4278 60.2443C61.1514 60.0864 60.7763 60.0074 60.3025 60.0074C59.8155 60.0074 59.4108 60.1127 59.0884 60.3233C58.7659 60.5273 58.6047 60.784 58.6047 61.0933C58.6047 61.3762 58.7231 61.6098 58.96 61.7941C59.197 61.9718 59.5161 62.1199 59.9175 62.2383C60.319 62.3568 60.8717 62.5015 61.5759 62.6726C62.4116 62.8766 63.0927 63.1201 63.6192 63.4031C64.1522 63.6861 64.5537 64.0217 64.8235 64.4099C65.0999 64.7916 65.2381 65.2292 65.2381 65.7228ZM74.3293 67.7266C73.6778 68.2333 73.0461 68.615 72.4341 68.8717C71.8286 69.1217 71.1475 69.2468 70.3908 69.2468C69.6998 69.2468 69.0911 69.1119 68.5646 68.8421C68.0447 68.5657 67.6433 68.1939 67.3603 67.7266C67.0774 67.2594 66.9359 66.7527 66.9359 66.2065C66.9359 65.4694 67.1695 64.841 67.6367 64.3211C68.104 63.8012 68.7456 63.4525 69.5616 63.2748C69.7327 63.2353 70.1571 63.1464 70.835 63.0083C71.5128 62.8701 72.0919 62.745 72.5723 62.6332C73.0592 62.5147 73.5857 62.3732 74.1516 62.2087C74.1187 61.498 73.974 60.9781 73.7173 60.6491C73.4672 60.3134 72.9441 60.1456 72.1478 60.1456C71.4634 60.1456 70.9468 60.2411 70.5981 60.4319C70.2559 60.6227 69.9597 60.909 69.7097 61.2907C69.4662 61.6724 69.2918 61.9257 69.1865 62.0508C69.0878 62.1692 68.8706 62.2284 68.535 62.2284C68.2323 62.2284 67.9691 62.133 67.7453 61.9422C67.5281 61.7448 67.4196 61.4947 67.4196 61.192C67.4196 60.7182 67.5874 60.2575 67.923 59.81C68.2586 59.3625 68.7818 58.994 69.4925 58.7045C70.2032 58.4149 71.0883 58.2701 72.1478 58.2701C73.3323 58.2701 74.2635 58.4116 74.9413 58.6946C75.6191 58.971 76.0962 59.4119 76.3726 60.0173C76.6556 60.6227 76.7971 61.4256 76.7971 62.4259C76.7971 63.0576 76.7938 63.5939 76.7872 64.0348C76.7872 64.4758 76.7839 64.966 76.7774 65.5056C76.7774 66.0124 76.8596 66.5421 77.0241 67.0949C77.1952 67.6411 77.2808 67.9931 77.2808 68.1511C77.2808 68.4275 77.1492 68.6808 76.8859 68.9112C76.6293 69.1349 76.3364 69.2468 76.0074 69.2468C75.731 69.2468 75.4579 69.1185 75.1881 68.8618C74.9183 68.5986 74.632 68.2202 74.3293 67.7266ZM74.1516 63.8276C73.7568 63.9723 73.181 64.127 72.4242 64.2915C71.674 64.4494 71.1541 64.5679 70.8646 64.6469C70.575 64.7192 70.2986 64.8673 70.0354 65.0911C69.7722 65.3082 69.6406 65.6142 69.6406 66.0091C69.6406 66.4171 69.7952 66.7658 70.1045 67.0554C70.4138 67.3384 70.8185 67.4799 71.3186 67.4799C71.8517 67.4799 72.3419 67.3647 72.7894 67.1344C73.2435 66.8975 73.5758 66.5947 73.7864 66.2262C74.0299 65.8182 74.1516 65.147 74.1516 64.2125V63.8276ZM81.9893 59.7804V60.1062C82.4631 59.481 82.9797 59.0236 83.539 58.7341C84.105 58.4379 84.7532 58.2899 85.4836 58.2899C86.1944 58.2899 86.8294 58.4445 87.3888 58.7538C87.9481 59.0631 88.366 59.5007 88.6424 60.0667C88.8201 60.3957 88.9352 60.7511 88.9879 61.1327C89.0405 61.5144 89.0669 62.0014 89.0669 62.5937V67.6082C89.0669 68.1478 88.9418 68.5558 88.6918 68.8322C88.4483 69.1086 88.1291 69.2468 87.7343 69.2468C87.3328 69.2468 87.0071 69.1053 86.757 68.8223C86.507 68.5393 86.3819 68.1346 86.3819 67.6082V63.1168C86.3819 62.2284 86.2569 61.5506 86.0068 61.0834C85.7633 60.6096 85.2731 60.3727 84.536 60.3727C84.0556 60.3727 83.618 60.5174 83.2232 60.807C82.8283 61.09 82.5388 61.4815 82.3545 61.9817C82.2229 62.3831 82.1571 63.1333 82.1571 64.2323V67.6082C82.1571 68.1544 82.0288 68.5657 81.7721 68.8421C81.5221 69.1119 81.1963 69.2468 80.7949 69.2468C80.4066 69.2468 80.0875 69.1053 79.8374 68.8223C79.5873 68.5393 79.4623 68.1346 79.4623 67.6082V59.8199C79.4623 59.3066 79.5742 58.9249 79.7979 58.6748C80.0216 58.4182 80.3277 58.2899 80.7159 58.2899C80.9528 58.2899 81.1667 58.3458 81.3575 58.4577C81.5484 58.5696 81.6997 58.7374 81.8116 58.9611C81.9301 59.1849 81.9893 59.458 81.9893 59.7804ZM101.672 60.2641V68.0919C101.672 68.9868 101.577 69.7568 101.386 70.4017C101.195 71.0466 100.889 71.5796 100.468 72.0008C100.047 72.422 99.494 72.7346 98.8096 72.9386C98.1318 73.1426 97.2862 73.2446 96.2727 73.2446C95.3449 73.2446 94.5157 73.113 93.7852 72.8497C93.0548 72.5931 92.4921 72.2575 92.0973 71.8429C91.7024 71.4349 91.505 71.0137 91.505 70.5794C91.505 70.2503 91.6169 69.9805 91.8406 69.7699C92.0644 69.5659 92.3342 69.4639 92.6501 69.4639C93.0449 69.4639 93.3904 69.6383 93.6865 69.9871C93.8313 70.1648 93.9794 70.3425 94.1307 70.5201C94.2887 70.7044 94.4598 70.8591 94.644 70.9841C94.8349 71.1157 95.0619 71.2111 95.3251 71.2703C95.5883 71.3362 95.8911 71.3691 96.2333 71.3691C96.9308 71.3691 97.4704 71.2703 97.8521 71.0729C98.2404 70.8821 98.5102 70.6123 98.6615 70.2635C98.8195 69.9147 98.9116 69.5396 98.9379 69.1382C98.9643 68.7434 98.984 68.105 98.9972 67.2232C98.5826 67.8023 98.1022 68.2432 97.556 68.5459C97.0164 68.8486 96.3715 69 95.6213 69C94.7197 69 93.93 68.7697 93.2522 68.309C92.581 67.8484 92.0644 67.2035 91.7024 66.3743C91.3405 65.5451 91.1595 64.5876 91.1595 63.5018C91.1595 62.6924 91.2681 61.9619 91.4853 61.3104C91.709 60.6589 92.0249 60.1094 92.4329 59.662C92.8409 59.2145 93.3114 58.8788 93.8445 58.6551C94.3775 58.4248 94.9632 58.3096 95.6015 58.3096C96.3649 58.3096 97.0262 58.4577 97.5856 58.7538C98.145 59.0434 98.6648 59.5007 99.1452 60.1259V59.7607C99.1452 59.2934 99.2604 58.9315 99.4907 58.6748C99.721 58.4182 100.017 58.2899 100.379 58.2899C100.899 58.2899 101.244 58.461 101.416 58.8032C101.587 59.1388 101.672 59.6258 101.672 60.2641ZM93.8642 63.6795C93.8642 64.7719 94.1011 65.5978 94.5749 66.1571C95.0553 66.7165 95.6739 66.9962 96.4307 66.9962C96.8782 66.9962 97.2993 66.8777 97.6942 66.6408C98.0956 66.3973 98.4213 66.0354 98.6714 65.555C98.9215 65.068 99.0465 64.479 99.0465 63.7881C99.0465 62.6891 98.803 61.8336 98.3161 61.2216C97.8357 60.6096 97.2006 60.3036 96.4109 60.3036C95.641 60.3036 95.0224 60.5964 94.5552 61.1821C94.0945 61.7678 93.8642 62.6002 93.8642 63.6795ZM112.145 59.8199V67.6082C112.145 68.1478 112.017 68.5558 111.76 68.8322C111.504 69.1086 111.178 69.2468 110.783 69.2468C110.388 69.2468 110.066 69.1053 109.816 68.8223C109.572 68.5393 109.451 68.1346 109.451 67.6082V59.8989C109.451 59.3658 109.572 58.9644 109.816 58.6946C110.066 58.4248 110.388 58.2899 110.783 58.2899C111.178 58.2899 111.504 58.4248 111.76 58.6946C112.017 58.9644 112.145 59.3395 112.145 59.8199ZM110.813 57.0362C110.438 57.0362 110.115 56.9211 109.845 56.6908C109.582 56.4604 109.451 56.1347 109.451 55.7135C109.451 55.3318 109.586 55.0193 109.855 54.7758C110.132 54.5257 110.451 54.4007 110.813 54.4007C111.162 54.4007 111.471 54.5125 111.741 54.7363C112.011 54.96 112.145 55.2858 112.145 55.7135C112.145 56.1281 112.014 56.4539 111.751 56.6908C111.487 56.9211 111.175 57.0362 110.813 57.0362ZM117.387 59.7804V60.1062C117.861 59.481 118.377 59.0236 118.937 58.7341C119.503 58.4379 120.151 58.2899 120.881 58.2899C121.592 58.2899 122.227 58.4445 122.786 58.7538C123.346 59.0631 123.764 59.5007 124.04 60.0667C124.218 60.3957 124.333 60.7511 124.386 61.1327C124.438 61.5144 124.465 62.0014 124.465 62.5937V67.6082C124.465 68.1478 124.34 68.5558 124.089 68.8322C123.846 69.1086 123.527 69.2468 123.132 69.2468C122.731 69.2468 122.405 69.1053 122.155 68.8223C121.905 68.5393 121.78 68.1346 121.78 67.6082V63.1168C121.78 62.2284 121.655 61.5506 121.405 61.0834C121.161 60.6096 120.671 60.3727 119.934 60.3727C119.453 60.3727 119.016 60.5174 118.621 60.807C118.226 61.09 117.936 61.4815 117.752 61.9817C117.621 62.3831 117.555 63.1333 117.555 64.2323V67.6082C117.555 68.1544 117.426 68.5657 117.17 68.8421C116.92 69.1119 116.594 69.2468 116.193 69.2468C115.804 69.2468 115.485 69.1053 115.235 68.8223C114.985 68.5393 114.86 68.1346 114.86 67.6082V59.8199C114.86 59.3066 114.972 58.9249 115.196 58.6748C115.419 58.4182 115.725 58.2899 116.114 58.2899C116.351 58.2899 116.564 58.3458 116.755 58.4577C116.946 58.5696 117.097 58.7374 117.209 58.9611C117.328 59.1849 117.387 59.458 117.387 59.7804ZM134.543 67.7069V67.4404C134.181 67.855 133.822 68.1939 133.467 68.4571C133.118 68.7137 132.737 68.9079 132.322 69.0395C131.914 69.1777 131.466 69.2468 130.979 69.2468C130.335 69.2468 129.736 69.1119 129.183 68.8421C128.637 68.5657 128.163 68.1741 127.761 67.6674C127.36 67.1607 127.054 66.5651 126.843 65.8807C126.639 65.1963 126.537 64.456 126.537 63.6597C126.537 61.9751 126.949 60.6622 127.771 59.7212C128.594 58.7801 129.676 58.3096 131.019 58.3096C131.795 58.3096 132.45 58.4445 132.983 58.7143C133.516 58.9776 134.036 59.3856 134.543 59.9383V55.9603C134.543 55.4075 134.652 54.9896 134.869 54.7067C135.092 54.4237 135.408 54.2822 135.816 54.2822C136.224 54.2822 136.537 54.4138 136.754 54.6771C136.978 54.9337 137.09 55.3154 137.09 55.8221V67.7069C137.09 68.2202 136.971 68.6052 136.734 68.8618C136.497 69.1185 136.191 69.2468 135.816 69.2468C135.448 69.2468 135.142 69.1152 134.898 68.8519C134.661 68.5821 134.543 68.2004 134.543 67.7069ZM129.242 63.7486C129.242 64.479 129.354 65.1009 129.578 65.6142C129.808 66.1275 130.121 66.5158 130.516 66.779C130.91 67.0357 131.341 67.164 131.809 67.164C132.282 67.164 132.713 67.0422 133.102 66.7987C133.497 66.5487 133.809 66.1703 134.04 65.6636C134.276 65.1503 134.395 64.5119 134.395 63.7486C134.395 63.0313 134.276 62.416 134.04 61.9027C133.809 61.3828 133.493 60.988 133.092 60.7182C132.697 60.4418 132.263 60.3036 131.789 60.3036C131.295 60.3036 130.854 60.4451 130.466 60.728C130.078 61.0044 129.775 61.4058 129.558 61.9323C129.347 62.4522 129.242 63.0576 129.242 63.7486ZM146.793 67.7266V67.3811C146.47 67.7891 146.132 68.1313 145.776 68.4077C145.421 68.6841 145.033 68.8881 144.611 69.0197C144.19 69.1579 143.71 69.227 143.17 69.227C142.519 69.227 141.933 69.0921 141.413 68.8223C140.9 68.5525 140.502 68.1807 140.219 67.7069C139.883 67.1344 139.715 66.3118 139.715 65.2391V59.8989C139.715 59.3592 139.837 58.9578 140.081 58.6946C140.324 58.4248 140.647 58.2899 141.048 58.2899C141.456 58.2899 141.785 58.4248 142.035 58.6946C142.285 58.9644 142.41 59.3658 142.41 59.8989V64.2125C142.41 64.8377 142.463 65.3642 142.568 65.7919C142.673 66.2131 142.861 66.5454 143.131 66.7889C143.407 67.0258 143.779 67.1442 144.246 67.1442C144.7 67.1442 145.128 67.0093 145.529 66.7395C145.931 66.4697 146.224 66.1176 146.408 65.6833C146.559 65.3016 146.635 64.4659 146.635 63.1761V59.8989C146.635 59.3658 146.76 58.9644 147.01 58.6946C147.26 58.4248 147.586 58.2899 147.987 58.2899C148.389 58.2899 148.711 58.4248 148.955 58.6946C149.198 58.9578 149.32 59.3592 149.32 59.8989V67.7069C149.32 68.2202 149.201 68.6052 148.965 68.8618C148.734 69.1185 148.435 69.2468 148.066 69.2468C147.698 69.2468 147.392 69.1152 147.148 68.8519C146.911 68.5821 146.793 68.207 146.793 67.7266ZM158.727 68.0129L156.348 64.1039L154.887 65.4859V67.6279C154.887 68.1478 154.749 68.5492 154.473 68.8322C154.203 69.1086 153.89 69.2468 153.535 69.2468C153.12 69.2468 152.795 69.1086 152.558 68.8322C152.321 68.5558 152.202 68.1478 152.202 67.6082V56.1182C152.202 55.5194 152.317 55.0653 152.548 54.756C152.778 54.4402 153.107 54.2822 153.535 54.2822C153.949 54.2822 154.279 54.4237 154.522 54.7067C154.765 54.9896 154.887 55.4075 154.887 55.9603V62.495L157.918 59.3165C158.293 58.9216 158.579 58.6518 158.776 58.507C158.974 58.3623 159.214 58.2899 159.497 58.2899C159.833 58.2899 160.112 58.3985 160.336 58.6156C160.56 58.8262 160.672 59.0927 160.672 59.4152C160.672 59.81 160.306 60.3365 159.576 60.9946L158.145 62.3074L160.909 66.6507C161.113 66.9731 161.257 67.2199 161.343 67.391C161.435 67.5555 161.481 67.7135 161.481 67.8648C161.481 68.2926 161.363 68.6315 161.126 68.8815C160.895 69.125 160.589 69.2468 160.208 69.2468C159.879 69.2468 159.625 69.1579 159.448 68.9803C159.27 68.8026 159.03 68.4801 158.727 68.0129ZM163.751 58.5268H164.048V56.9079C164.048 56.4736 164.057 56.1347 164.077 55.8912C164.104 55.6411 164.169 55.4273 164.275 55.2496C164.38 55.0653 164.531 54.9173 164.729 54.8054C164.926 54.6869 165.147 54.6277 165.39 54.6277C165.732 54.6277 166.042 54.756 166.318 55.0127C166.502 55.1838 166.617 55.3944 166.663 55.6444C166.716 55.8879 166.742 56.2367 166.742 56.6908V58.5268H167.73C168.111 58.5268 168.401 58.6189 168.598 58.8032C168.802 58.9809 168.904 59.2112 168.904 59.4941C168.904 59.8561 168.759 60.1094 168.47 60.2542C168.187 60.399 167.779 60.4714 167.246 60.4714H166.742V65.4267C166.742 65.8478 166.756 66.1736 166.782 66.4039C166.815 66.6276 166.894 66.8119 167.019 66.9567C167.15 67.0949 167.361 67.164 167.651 67.164C167.808 67.164 168.022 67.1377 168.292 67.085C168.562 67.0258 168.773 66.9962 168.924 66.9962C169.141 66.9962 169.335 67.085 169.506 67.2627C169.684 67.4338 169.773 67.6477 169.773 67.9043C169.773 68.3386 169.536 68.671 169.062 68.9013C168.588 69.1316 167.907 69.2468 167.019 69.2468C166.176 69.2468 165.538 69.1053 165.104 68.8223C164.669 68.5393 164.383 68.1478 164.245 67.6477C164.113 67.1475 164.048 66.4796 164.048 65.6438V60.4714H163.692C163.304 60.4714 163.008 60.3793 162.804 60.195C162.6 60.0107 162.498 59.7771 162.498 59.4941C162.498 59.2112 162.603 58.9809 162.814 58.8032C163.031 58.6189 163.343 58.5268 163.751 58.5268ZM180.858 63.7683C180.858 64.5712 180.733 65.3115 180.483 65.9893C180.233 66.6671 179.871 67.2495 179.397 67.7365C178.923 68.2235 178.357 68.5986 177.699 68.8618C177.041 69.1185 176.301 69.2468 175.478 69.2468C174.662 69.2468 173.929 69.1152 173.277 68.8519C172.626 68.5887 172.06 68.2136 171.579 67.7266C171.105 67.2331 170.743 66.654 170.493 65.9893C170.25 65.3181 170.128 64.5778 170.128 63.7683C170.128 62.9523 170.253 62.2054 170.503 61.5276C170.753 60.8498 171.112 60.2707 171.579 59.7903C172.046 59.3099 172.612 58.9414 173.277 58.6847C173.942 58.4215 174.675 58.2899 175.478 58.2899C176.294 58.2899 177.035 58.4215 177.699 58.6847C178.364 58.9479 178.933 59.323 179.407 59.81C179.881 60.297 180.239 60.8761 180.483 61.5473C180.733 62.2186 180.858 62.9589 180.858 63.7683ZM178.153 63.7683C178.153 62.6693 177.91 61.8139 177.423 61.2018C176.943 60.5898 176.294 60.2838 175.478 60.2838C174.952 60.2838 174.488 60.422 174.086 60.6984C173.685 60.9682 173.376 61.3697 173.159 61.9027C172.941 62.4357 172.833 63.0576 172.833 63.7683C172.833 64.4725 172.938 65.0878 173.149 65.6142C173.366 66.1407 173.672 66.5454 174.067 66.8284C174.468 67.1048 174.939 67.2429 175.478 67.2429C176.294 67.2429 176.943 66.9369 177.423 66.3249C177.91 65.7063 178.153 64.8541 178.153 63.7683ZM185.665 65.3576V67.6082C185.665 68.1544 185.537 68.5657 185.28 68.8421C185.024 69.1119 184.698 69.2468 184.303 69.2468C183.915 69.2468 183.596 69.1086 183.346 68.8322C183.096 68.5558 182.97 68.1478 182.97 67.6082V60.1062C182.97 58.8953 183.408 58.2899 184.283 58.2899C184.731 58.2899 185.053 58.4314 185.251 58.7143C185.448 58.9973 185.557 59.4152 185.576 59.968C185.899 59.4152 186.228 58.9973 186.564 58.7143C186.906 58.4314 187.36 58.2899 187.926 58.2899C188.492 58.2899 189.041 58.4314 189.574 58.7143C190.107 58.9973 190.374 59.3724 190.374 59.8396C190.374 60.1687 190.259 60.4418 190.028 60.6589C189.805 60.8695 189.561 60.9748 189.298 60.9748C189.199 60.9748 188.959 60.9156 188.577 60.7971C188.202 60.6721 187.87 60.6096 187.58 60.6096C187.185 60.6096 186.863 60.7149 186.613 60.9255C186.363 61.1295 186.169 61.4355 186.031 61.8435C185.892 62.2515 185.797 62.7384 185.744 63.3044C185.692 63.8637 185.665 64.5481 185.665 65.3576ZM204.292 67.7069V67.4404C203.93 67.855 203.571 68.1939 203.216 68.4571C202.867 68.7137 202.486 68.9079 202.071 69.0395C201.663 69.1777 201.216 69.2468 200.729 69.2468C200.084 69.2468 199.485 69.1119 198.932 68.8421C198.386 68.5657 197.912 68.1741 197.511 67.6674C197.109 67.1607 196.803 66.5651 196.593 65.8807C196.389 65.1963 196.287 64.456 196.287 63.6597C196.287 61.9751 196.698 60.6622 197.52 59.7212C198.343 58.7801 199.426 58.3096 200.768 58.3096C201.545 58.3096 202.199 58.4445 202.732 58.7143C203.265 58.9776 203.785 59.3856 204.292 59.9383V55.9603C204.292 55.4075 204.401 54.9896 204.618 54.7067C204.842 54.4237 205.157 54.2822 205.565 54.2822C205.973 54.2822 206.286 54.4138 206.503 54.6771C206.727 54.9337 206.839 55.3154 206.839 55.8221V67.7069C206.839 68.2202 206.72 68.6052 206.483 68.8618C206.246 69.1185 205.94 69.2468 205.565 69.2468C205.197 69.2468 204.891 69.1152 204.647 68.8519C204.41 68.5821 204.292 68.2004 204.292 67.7069ZM198.991 63.7486C198.991 64.479 199.103 65.1009 199.327 65.6142C199.557 66.1275 199.87 66.5158 200.265 66.779C200.659 67.0357 201.09 67.164 201.558 67.164C202.032 67.164 202.463 67.0422 202.851 66.7987C203.246 66.5487 203.558 66.1703 203.789 65.6636C204.025 65.1503 204.144 64.5119 204.144 63.7486C204.144 63.0313 204.025 62.416 203.789 61.9027C203.558 61.3828 203.242 60.988 202.841 60.7182C202.446 60.4418 202.012 60.3036 201.538 60.3036C201.044 60.3036 200.604 60.4451 200.215 60.728C199.827 61.0044 199.524 61.4058 199.307 61.9323C199.097 62.4522 198.991 63.0576 198.991 63.7486ZM216.354 67.7266C215.703 68.2333 215.071 68.615 214.459 68.8717C213.854 69.1217 213.173 69.2468 212.416 69.2468C211.725 69.2468 211.116 69.1119 210.59 68.8421C210.07 68.5657 209.668 68.1939 209.385 67.7266C209.103 67.2594 208.961 66.7527 208.961 66.2065C208.961 65.4694 209.195 64.841 209.662 64.3211C210.129 63.8012 210.771 63.4525 211.587 63.2748C211.758 63.2353 212.182 63.1464 212.86 63.0083C213.538 62.8701 214.117 62.745 214.597 62.6332C215.084 62.5147 215.611 62.3732 216.177 62.2087C216.144 61.498 215.999 60.9781 215.742 60.6491C215.492 60.3134 214.969 60.1456 214.173 60.1456C213.489 60.1456 212.972 60.2411 212.623 60.4319C212.281 60.6227 211.985 60.909 211.735 61.2907C211.491 61.6724 211.317 61.9257 211.212 62.0508C211.113 62.1692 210.896 62.2284 210.56 62.2284C210.257 62.2284 209.994 62.133 209.77 61.9422C209.553 61.7448 209.445 61.4947 209.445 61.192C209.445 60.7182 209.613 60.2575 209.948 59.81C210.284 59.3625 210.807 58.994 211.518 58.7045C212.228 58.4149 213.113 58.2701 214.173 58.2701C215.357 58.2701 216.289 58.4116 216.966 58.6946C217.644 58.971 218.121 59.4119 218.398 60.0173C218.681 60.6227 218.822 61.4256 218.822 62.4259C218.822 63.0576 218.819 63.5939 218.812 64.0348C218.812 64.4758 218.809 64.966 218.802 65.5056C218.802 66.0124 218.885 66.5421 219.049 67.0949C219.22 67.6411 219.306 67.9931 219.306 68.1511C219.306 68.4275 219.174 68.6808 218.911 68.9112C218.654 69.1349 218.362 69.2468 218.033 69.2468C217.756 69.2468 217.483 69.1185 217.213 68.8618C216.943 68.5986 216.657 68.2202 216.354 67.7266ZM216.177 63.8276C215.782 63.9723 215.206 64.127 214.449 64.2915C213.699 64.4494 213.179 64.5679 212.89 64.6469C212.6 64.7192 212.324 64.8673 212.061 65.0911C211.797 65.3082 211.666 65.6142 211.666 66.0091C211.666 66.4171 211.82 66.7658 212.13 67.0554C212.439 67.3384 212.844 67.4799 213.344 67.4799C213.877 67.4799 214.367 67.3647 214.815 67.1344C215.269 66.8975 215.601 66.5947 215.812 66.2262C216.055 65.8182 216.177 65.147 216.177 64.2125V63.8276ZM221.566 67.6082V55.9208C221.566 55.3812 221.685 54.9732 221.922 54.6968C222.165 54.4204 222.491 54.2822 222.899 54.2822C223.307 54.2822 223.636 54.4204 223.886 54.6968C224.136 54.9666 224.261 55.3746 224.261 55.9208V67.6082C224.261 68.1544 224.133 68.5657 223.876 68.8421C223.626 69.1119 223.3 69.2468 222.899 69.2468C222.504 69.2468 222.182 69.1053 221.932 68.8223C221.688 68.5393 221.566 68.1346 221.566 67.6082ZM233.866 67.7266C233.214 68.2333 232.583 68.615 231.971 68.8717C231.365 69.1217 230.684 69.2468 229.927 69.2468C229.236 69.2468 228.628 69.1119 228.101 68.8421C227.581 68.5657 227.18 68.1939 226.897 67.7266C226.614 67.2594 226.472 66.7527 226.472 66.2065C226.472 65.4694 226.706 64.841 227.173 64.3211C227.64 63.8012 228.282 63.4525 229.098 63.2748C229.269 63.2353 229.694 63.1464 230.371 63.0083C231.049 62.8701 231.628 62.745 232.109 62.6332C232.596 62.5147 233.122 62.3732 233.688 62.2087C233.655 61.498 233.51 60.9781 233.254 60.6491C233.004 60.3134 232.481 60.1456 231.684 60.1456C231 60.1456 230.483 60.2411 230.135 60.4319C229.792 60.6227 229.496 60.909 229.246 61.2907C229.003 61.6724 228.828 61.9257 228.723 62.0508C228.624 62.1692 228.407 62.2284 228.071 62.2284C227.769 62.2284 227.506 62.133 227.282 61.9422C227.065 61.7448 226.956 61.4947 226.956 61.192C226.956 60.7182 227.124 60.2575 227.459 59.81C227.795 59.3625 228.318 58.994 229.029 58.7045C229.74 58.4149 230.625 58.2701 231.684 58.2701C232.869 58.2701 233.8 58.4116 234.478 58.6946C235.156 58.971 235.633 59.4119 235.909 60.0173C236.192 60.6227 236.334 61.4256 236.334 62.4259C236.334 63.0576 236.33 63.5939 236.324 64.0348C236.324 64.4758 236.32 64.966 236.314 65.5056C236.314 66.0124 236.396 66.5421 236.561 67.0949C236.732 67.6411 236.817 67.9931 236.817 68.1511C236.817 68.4275 236.686 68.6808 236.422 68.9112C236.166 69.1349 235.873 69.2468 235.544 69.2468C235.267 69.2468 234.994 69.1185 234.725 68.8618C234.455 68.5986 234.168 68.2202 233.866 67.7266ZM233.688 63.8276C233.293 63.9723 232.717 64.127 231.961 64.2915C231.21 64.4494 230.691 64.5679 230.401 64.6469C230.111 64.7192 229.835 64.8673 229.572 65.0911C229.309 65.3082 229.177 65.6142 229.177 66.0091C229.177 66.4171 229.332 66.7658 229.641 67.0554C229.95 67.3384 230.355 67.4799 230.855 67.4799C231.388 67.4799 231.878 67.3647 232.326 67.1344C232.78 66.8975 233.112 66.5947 233.323 66.2262C233.566 65.8182 233.688 65.147 233.688 64.2125V63.8276ZM248.041 63.9657V67.549C248.041 68.1149 247.912 68.5393 247.656 68.8223C247.399 69.1053 247.06 69.2468 246.639 69.2468C246.231 69.2468 245.899 69.1053 245.642 68.8223C245.392 68.5393 245.267 68.1149 245.267 67.549V63.255C245.267 62.5772 245.244 62.0508 245.198 61.6757C245.152 61.3006 245.027 60.9946 244.823 60.7576C244.619 60.5142 244.296 60.3924 243.855 60.3924C242.973 60.3924 242.391 60.6951 242.108 61.3006C241.832 61.906 241.694 62.7746 241.694 63.9065V67.549C241.694 68.1083 241.565 68.5328 241.309 68.8223C241.059 69.1053 240.726 69.2468 240.312 69.2468C239.904 69.2468 239.568 69.1053 239.305 68.8223C239.048 68.5328 238.92 68.1083 238.92 67.549V59.8396C238.92 59.3329 239.035 58.9479 239.265 58.6847C239.502 58.4215 239.811 58.2899 240.193 58.2899C240.562 58.2899 240.868 58.4149 241.111 58.665C241.361 58.9085 241.486 59.2474 241.486 59.6817V59.9383C241.953 59.379 242.454 58.9677 242.987 58.7045C243.52 58.4412 244.112 58.3096 244.763 58.3096C245.441 58.3096 246.024 58.4445 246.511 58.7143C246.998 58.9841 247.399 59.3921 247.715 59.9383C248.169 59.3856 248.656 58.9776 249.176 58.7143C249.696 58.4445 250.272 58.3096 250.903 58.3096C251.64 58.3096 252.275 58.4544 252.808 58.7439C253.341 59.0335 253.74 59.4481 254.003 59.9877C254.233 60.4747 254.348 61.2413 254.348 62.2877V67.549C254.348 68.1149 254.22 68.5393 253.963 68.8223C253.707 69.1053 253.368 69.2468 252.947 69.2468C252.539 69.2468 252.203 69.1053 251.94 68.8223C251.683 68.5328 251.555 68.1083 251.555 67.549V63.0181C251.555 62.439 251.528 61.9751 251.476 61.6263C251.43 61.2775 251.298 60.9847 251.081 60.7478C250.864 60.5109 250.535 60.3924 250.094 60.3924C249.738 60.3924 249.4 60.4977 249.077 60.7083C248.761 60.9189 248.514 61.2018 248.337 61.5572C248.139 62.0113 248.041 62.8141 248.041 63.9657ZM264.693 65.3576V67.6082C264.693 68.1544 264.565 68.5657 264.308 68.8421C264.052 69.1119 263.726 69.2468 263.331 69.2468C262.943 69.2468 262.624 69.1086 262.373 68.8322C262.123 68.5558 261.998 68.1478 261.998 67.6082V60.1062C261.998 58.8953 262.436 58.2899 263.311 58.2899C263.759 58.2899 264.081 58.4314 264.279 58.7143C264.476 58.9973 264.585 59.4152 264.604 59.968C264.927 59.4152 265.256 58.9973 265.591 58.7143C265.934 58.4314 266.388 58.2899 266.954 58.2899C267.52 58.2899 268.069 58.4314 268.602 58.7143C269.135 58.9973 269.402 59.3724 269.402 59.8396C269.402 60.1687 269.287 60.4418 269.056 60.6589C268.832 60.8695 268.589 60.9748 268.326 60.9748C268.227 60.9748 267.987 60.9156 267.605 60.7971C267.23 60.6721 266.898 60.6096 266.608 60.6096C266.213 60.6096 265.891 60.7149 265.641 60.9255C265.391 61.1295 265.197 61.4355 265.058 61.8435C264.92 62.2515 264.825 62.7384 264.772 63.3044C264.719 63.8637 264.693 64.5481 264.693 65.3576ZM277.18 67.7266C276.529 68.2333 275.897 68.615 275.285 68.8717C274.679 69.1217 273.998 69.2468 273.242 69.2468C272.551 69.2468 271.942 69.1119 271.415 68.8421C270.895 68.5657 270.494 68.1939 270.211 67.7266C269.928 67.2594 269.787 66.7527 269.787 66.2065C269.787 65.4694 270.02 64.841 270.487 64.3211C270.955 63.8012 271.596 63.4525 272.412 63.2748C272.583 63.2353 273.008 63.1464 273.686 63.0083C274.364 62.8701 274.943 62.745 275.423 62.6332C275.91 62.5147 276.436 62.3732 277.002 62.2087C276.97 61.498 276.825 60.9781 276.568 60.6491C276.318 60.3134 275.795 60.1456 274.999 60.1456C274.314 60.1456 273.798 60.2411 273.449 60.4319C273.107 60.6227 272.81 60.909 272.56 61.2907C272.317 61.6724 272.143 61.9257 272.037 62.0508C271.939 62.1692 271.721 62.2284 271.386 62.2284C271.083 62.2284 270.82 62.133 270.596 61.9422C270.379 61.7448 270.27 61.4947 270.27 61.192C270.27 60.7182 270.438 60.2575 270.774 59.81C271.109 59.3625 271.633 58.994 272.343 58.7045C273.054 58.4149 273.939 58.2701 274.999 58.2701C276.183 58.2701 277.114 58.4116 277.792 58.6946C278.47 58.971 278.947 59.4119 279.223 60.0173C279.506 60.6227 279.648 61.4256 279.648 62.4259C279.648 63.0576 279.645 63.5939 279.638 64.0348C279.638 64.4758 279.635 64.966 279.628 65.5056C279.628 66.0124 279.71 66.5421 279.875 67.0949C280.046 67.6411 280.132 67.9931 280.132 68.1511C280.132 68.4275 280 68.6808 279.737 68.9112C279.48 69.1349 279.187 69.2468 278.858 69.2468C278.582 69.2468 278.309 69.1185 278.039 68.8618C277.769 68.5986 277.483 68.2202 277.18 67.7266ZM277.002 63.8276C276.608 63.9723 276.032 64.127 275.275 64.2915C274.525 64.4494 274.005 64.5679 273.715 64.6469C273.426 64.7192 273.149 64.8673 272.886 65.0911C272.623 65.3082 272.491 65.6142 272.491 66.0091C272.491 66.4171 272.646 66.7658 272.955 67.0554C273.265 67.3384 273.669 67.4799 274.169 67.4799C274.702 67.4799 275.193 67.3647 275.64 67.1344C276.094 66.8975 276.427 66.5947 276.637 66.2262C276.881 65.8182 277.002 65.147 277.002 64.2125V63.8276ZM284.84 59.7804V60.1062C285.314 59.481 285.83 59.0236 286.39 58.7341C286.956 58.4379 287.604 58.2899 288.334 58.2899C289.045 58.2899 289.68 58.4445 290.24 58.7538C290.799 59.0631 291.217 59.5007 291.493 60.0667C291.671 60.3957 291.786 60.7511 291.839 61.1327C291.891 61.5144 291.918 62.0014 291.918 62.5937V67.6082C291.918 68.1478 291.793 68.5558 291.543 68.8322C291.299 69.1086 290.98 69.2468 290.585 69.2468C290.184 69.2468 289.858 69.1053 289.608 68.8223C289.358 68.5393 289.233 68.1346 289.233 67.6082V63.1168C289.233 62.2284 289.108 61.5506 288.858 61.0834C288.614 60.6096 288.124 60.3727 287.387 60.3727C286.906 60.3727 286.469 60.5174 286.074 60.807C285.679 61.09 285.39 61.4815 285.205 61.9817C285.074 62.3831 285.008 63.1333 285.008 64.2323V67.6082C285.008 68.1544 284.88 68.5657 284.623 68.8421C284.373 69.1119 284.047 69.2468 283.646 69.2468C283.257 69.2468 282.938 69.1053 282.688 68.8223C282.438 68.5393 282.313 68.1346 282.313 67.6082V59.8199C282.313 59.3066 282.425 58.9249 282.649 58.6748C282.872 58.4182 283.178 58.2899 283.567 58.2899C283.804 58.2899 284.017 58.3458 284.208 58.4577C284.399 58.5696 284.55 58.7374 284.662 58.9611C284.781 59.1849 284.84 59.458 284.84 59.7804ZM304.523 60.2641V68.0919C304.523 68.9868 304.428 69.7568 304.237 70.4017C304.046 71.0466 303.74 71.5796 303.319 72.0008C302.898 72.422 302.345 72.7346 301.66 72.9386C300.983 73.1426 300.137 73.2446 299.124 73.2446C298.196 73.2446 297.366 73.113 296.636 72.8497C295.906 72.5931 295.343 72.2575 294.948 71.8429C294.553 71.4349 294.356 71.0137 294.356 70.5794C294.356 70.2503 294.468 69.9805 294.691 69.7699C294.915 69.5659 295.185 69.4639 295.501 69.4639C295.896 69.4639 296.241 69.6383 296.537 69.9871C296.682 70.1648 296.83 70.3425 296.981 70.5201C297.139 70.7044 297.311 70.8591 297.495 70.9841C297.686 71.1157 297.913 71.2111 298.176 71.2703C298.439 71.3362 298.742 71.3691 299.084 71.3691C299.782 71.3691 300.321 71.2703 300.703 71.0729C301.091 70.8821 301.361 70.6123 301.512 70.2635C301.67 69.9147 301.762 69.5396 301.789 69.1382C301.815 68.7434 301.835 68.105 301.848 67.2232C301.433 67.8023 300.953 68.2432 300.407 68.5459C299.867 68.8486 299.222 69 298.472 69C297.57 69 296.781 68.7697 296.103 68.309C295.432 67.8484 294.915 67.2035 294.553 66.3743C294.191 65.5451 294.01 64.5876 294.01 63.5018C294.01 62.6924 294.119 61.9619 294.336 61.3104C294.56 60.6589 294.876 60.1094 295.284 59.662C295.692 59.2145 296.162 58.8788 296.695 58.6551C297.228 58.4248 297.814 58.3096 298.452 58.3096C299.216 58.3096 299.877 58.4577 300.436 58.7538C300.996 59.0434 301.516 59.5007 301.996 60.1259V59.7607C301.996 59.2934 302.111 58.9315 302.341 58.6748C302.572 58.4182 302.868 58.2899 303.23 58.2899C303.75 58.2899 304.095 58.461 304.266 58.8032C304.437 59.1388 304.523 59.6258 304.523 60.2641ZM296.715 63.6795C296.715 64.7719 296.952 65.5978 297.426 66.1571C297.906 66.7165 298.525 66.9962 299.281 66.9962C299.729 66.9962 300.15 66.8777 300.545 66.6408C300.946 66.3973 301.272 66.0354 301.522 65.555C301.772 65.068 301.897 64.479 301.897 63.7881C301.897 62.6891 301.654 61.8336 301.167 61.2216C300.686 60.6096 300.051 60.3036 299.262 60.3036C298.492 60.3036 297.873 60.5964 297.406 61.1821C296.945 61.7678 296.715 62.6002 296.715 63.6795ZM313.96 68.0129L311.581 64.1039L310.12 65.4859V67.6279C310.12 68.1478 309.982 68.5492 309.705 68.8322C309.436 69.1086 309.123 69.2468 308.768 69.2468C308.353 69.2468 308.027 69.1086 307.79 68.8322C307.553 68.5558 307.435 68.1478 307.435 67.6082V56.1182C307.435 55.5194 307.55 55.0653 307.78 54.756C308.011 54.4402 308.34 54.2822 308.768 54.2822C309.182 54.2822 309.511 54.4237 309.755 54.7067C309.998 54.9896 310.12 55.4075 310.12 55.9603V62.495L313.15 59.3165C313.525 58.9216 313.812 58.6518 314.009 58.507C314.207 58.3623 314.447 58.2899 314.73 58.2899C315.065 58.2899 315.345 58.3985 315.569 58.6156C315.792 58.8262 315.904 59.0927 315.904 59.4152C315.904 59.81 315.539 60.3365 314.809 60.9946L313.377 62.3074L316.141 66.6507C316.345 66.9731 316.49 67.2199 316.576 67.391C316.668 67.5555 316.714 67.7135 316.714 67.8648C316.714 68.2926 316.595 68.6315 316.358 68.8815C316.128 69.125 315.822 69.2468 315.44 69.2468C315.111 69.2468 314.858 69.1579 314.68 68.9803C314.503 68.8026 314.262 68.4801 313.96 68.0129ZM324.877 67.7266C324.226 68.2333 323.594 68.615 322.982 68.8717C322.376 69.1217 321.695 69.2468 320.939 69.2468C320.248 69.2468 319.639 69.1119 319.112 68.8421C318.593 68.5657 318.191 68.1939 317.908 67.7266C317.625 67.2594 317.484 66.7527 317.484 66.2065C317.484 65.4694 317.717 64.841 318.185 64.3211C318.652 63.8012 319.293 63.4525 320.109 63.2748C320.281 63.2353 320.705 63.1464 321.383 63.0083C322.061 62.8701 322.64 62.745 323.12 62.6332C323.607 62.5147 324.134 62.3732 324.699 62.2087C324.667 61.498 324.522 60.9781 324.265 60.6491C324.015 60.3134 323.492 60.1456 322.696 60.1456C322.011 60.1456 321.495 60.2411 321.146 60.4319C320.804 60.6227 320.508 60.909 320.257 61.2907C320.014 61.6724 319.84 61.9257 319.734 62.0508C319.636 62.1692 319.418 62.2284 319.083 62.2284C318.78 62.2284 318.517 62.133 318.293 61.9422C318.076 61.7448 317.967 61.4947 317.967 61.192C317.967 60.7182 318.135 60.2575 318.471 59.81C318.806 59.3625 319.33 58.994 320.04 58.7045C320.751 58.4149 321.636 58.2701 322.696 58.2701C323.88 58.2701 324.811 58.4116 325.489 58.6946C326.167 58.971 326.644 59.4119 326.92 60.0173C327.203 60.6227 327.345 61.4256 327.345 62.4259C327.345 63.0576 327.342 63.5939 327.335 64.0348C327.335 64.4758 327.332 64.966 327.325 65.5056C327.325 66.0124 327.407 66.5421 327.572 67.0949C327.743 67.6411 327.829 67.9931 327.829 68.1511C327.829 68.4275 327.697 68.6808 327.434 68.9112C327.177 69.1349 326.884 69.2468 326.555 69.2468C326.279 69.2468 326.006 69.1185 325.736 68.8618C325.466 68.5986 325.18 68.2202 324.877 67.7266ZM324.699 63.8276C324.305 63.9723 323.729 64.127 322.972 64.2915C322.222 64.4494 321.702 64.5679 321.412 64.6469C321.123 64.7192 320.846 64.8673 320.583 65.0911C320.32 65.3082 320.188 65.6142 320.188 66.0091C320.188 66.4171 320.343 66.7658 320.652 67.0554C320.962 67.3384 321.366 67.4799 321.866 67.4799C322.4 67.4799 322.89 67.3647 323.337 67.1344C323.791 66.8975 324.124 66.5947 324.334 66.2262C324.578 65.8182 324.699 65.147 324.699 64.2125V63.8276ZM332.784 59.8199V67.6082C332.784 68.1478 332.656 68.5558 332.399 68.8322C332.142 69.1086 331.817 69.2468 331.422 69.2468C331.027 69.2468 330.704 69.1053 330.454 68.8223C330.211 68.5393 330.089 68.1346 330.089 67.6082V59.8989C330.089 59.3658 330.211 58.9644 330.454 58.6946C330.704 58.4248 331.027 58.2899 331.422 58.2899C331.817 58.2899 332.142 58.4248 332.399 58.6946C332.656 58.9644 332.784 59.3395 332.784 59.8199ZM331.451 57.0362C331.076 57.0362 330.754 56.9211 330.484 56.6908C330.221 56.4604 330.089 56.1347 330.089 55.7135C330.089 55.3318 330.224 55.0193 330.494 54.7758C330.77 54.5257 331.089 54.4007 331.451 54.4007C331.8 54.4007 332.109 54.5125 332.379 54.7363C332.649 54.96 332.784 55.2858 332.784 55.7135C332.784 56.1281 332.652 56.4539 332.389 56.6908C332.126 56.9211 331.813 57.0362 331.451 57.0362ZM342.388 67.7266C341.737 68.2333 341.105 68.615 340.493 68.8717C339.888 69.1217 339.207 69.2468 338.45 69.2468C337.759 69.2468 337.15 69.1119 336.624 68.8421C336.104 68.5657 335.702 68.1939 335.419 67.7266C335.137 67.2594 334.995 66.7527 334.995 66.2065C334.995 65.4694 335.229 64.841 335.696 64.3211C336.163 63.8012 336.805 63.4525 337.621 63.2748C337.792 63.2353 338.216 63.1464 338.894 63.0083C339.572 62.8701 340.151 62.745 340.631 62.6332C341.118 62.5147 341.645 62.3732 342.211 62.2087C342.178 61.498 342.033 60.9781 341.776 60.6491C341.526 60.3134 341.003 60.1456 340.207 60.1456C339.523 60.1456 339.006 60.2411 338.657 60.4319C338.315 60.6227 338.019 60.909 337.769 61.2907C337.525 61.6724 337.351 61.9257 337.246 62.0508C337.147 62.1692 336.93 62.2284 336.594 62.2284C336.291 62.2284 336.028 62.133 335.804 61.9422C335.587 61.7448 335.479 61.4947 335.479 61.192C335.479 60.7182 335.647 60.2575 335.982 59.81C336.318 59.3625 336.841 58.994 337.552 58.7045C338.262 58.4149 339.147 58.2701 340.207 58.2701C341.391 58.2701 342.323 58.4116 343 58.6946C343.678 58.971 344.155 59.4119 344.432 60.0173C344.715 60.6227 344.856 61.4256 344.856 62.4259C344.856 63.0576 344.853 63.5939 344.846 64.0348C344.846 64.4758 344.843 64.966 344.837 65.5056C344.837 66.0124 344.919 66.5421 345.083 67.0949C345.254 67.6411 345.34 67.9931 345.34 68.1511C345.34 68.4275 345.208 68.6808 344.945 68.9112C344.688 69.1349 344.396 69.2468 344.067 69.2468C343.79 69.2468 343.517 69.1185 343.247 68.8618C342.977 68.5986 342.691 68.2202 342.388 67.7266ZM342.211 63.8276C341.816 63.9723 341.24 64.127 340.483 64.2915C339.733 64.4494 339.213 64.5679 338.924 64.6469C338.634 64.7192 338.358 64.8673 338.095 65.0911C337.831 65.3082 337.7 65.6142 337.7 66.0091C337.7 66.4171 337.854 66.7658 338.164 67.0554C338.473 67.3384 338.878 67.4799 339.378 67.4799C339.911 67.4799 340.401 67.3647 340.849 67.1344C341.303 66.8975 341.635 66.5947 341.846 66.2262C342.089 65.8182 342.211 65.147 342.211 64.2125V63.8276ZM350.048 59.7804V60.1062C350.522 59.481 351.039 59.0236 351.598 58.7341C352.164 58.4379 352.812 58.2899 353.543 58.2899C354.254 58.2899 354.889 58.4445 355.448 58.7538C356.007 59.0631 356.425 59.5007 356.702 60.0667C356.879 60.3957 356.994 60.7511 357.047 61.1327C357.1 61.5144 357.126 62.0014 357.126 62.5937V67.6082C357.126 68.1478 357.001 68.5558 356.751 68.8322C356.507 69.1086 356.188 69.2468 355.793 69.2468C355.392 69.2468 355.066 69.1053 354.816 68.8223C354.566 68.5393 354.441 68.1346 354.441 67.6082V63.1168C354.441 62.2284 354.316 61.5506 354.066 61.0834C353.822 60.6096 353.332 60.3727 352.595 60.3727C352.115 60.3727 351.677 60.5174 351.282 60.807C350.887 61.09 350.598 61.4815 350.414 61.9817C350.282 62.3831 350.216 63.1333 350.216 64.2323V67.6082C350.216 68.1544 350.088 68.5657 349.831 68.8421C349.581 69.1119 349.255 69.2468 348.854 69.2468C348.466 69.2468 348.147 69.1053 347.897 68.8223C347.646 68.5393 347.521 68.1346 347.521 67.6082V59.8199C347.521 59.3066 347.633 58.9249 347.857 58.6748C348.081 58.4182 348.387 58.2899 348.775 58.2899C349.012 58.2899 349.226 58.3458 349.417 58.4577C349.608 58.5696 349.759 58.7374 349.871 58.9611C349.989 59.1849 350.048 59.458 350.048 59.7804Z" fill="#F5F5F5"/>
</g>
<defs>
<filter id="filter0_d_308_273" x="0" y="0" width="444" height="135" filterUnits="userSpaceOnUse" color-interpolation-filters="sRGB">
<feFlood flood-opacity="0" result="BackgroundImageFix"/>
<feColorMatrix in="SourceAlpha" type="matrix" values="0 0 0 0 0 0 0 0 0 0 0 0 0 0 0 0 0 0 127 0" result="hardAlpha"/>
<feOffset dy="4"/>
<feGaussianBlur stdDeviation="2"/>
<feComposite in2="hardAlpha" operator="out"/>
<feColorMatrix type="matrix" values="0 0 0 0 0 0 0 0 0 0 0 0 0 0 0 0 0 0 0.25 0"/>
<feBlend mode="normal" in2="BackgroundImageFix" result="effect1_dropShadow_308_273"/>
<feBlend mode="normal" in="SourceGraphic" in2="effect1_dropShadow_308_273" result="shape"/>
</filter>
</defs>
</svg>
