<svg width="444" height="135" viewBox="0 0 444 135" fill="none" xmlns="http://www.w3.org/2000/svg">
<g filter="url(#filter0_d_308_206)">
<rect x="7" y="3" width="430" height="121" rx="33" stroke="#9575DE" stroke-width="6"/>
<rect x="7" y="3" width="430" height="121" rx="33" fill="#151515" stroke="#9575DE" stroke-width="6"/>
<path d="M42.4932 34.3066C42.4932 35.1803 42.3571 35.986 42.085 36.7236C41.8128 37.4613 41.4189 38.0951 40.9033 38.625C40.3877 39.1549 39.7718 39.5632 39.0557 39.8496C38.3395 40.1289 37.5339 40.2686 36.6387 40.2686C35.7507 40.2686 34.9521 40.1253 34.2432 39.8389C33.5342 39.5524 32.9183 39.1442 32.3955 38.6143C31.8799 38.0771 31.486 37.4469 31.2139 36.7236C30.9489 35.9932 30.8164 35.1875 30.8164 34.3066C30.8164 33.4186 30.9525 32.6058 31.2246 31.8682C31.4967 31.1305 31.887 30.5003 32.3955 29.9775C32.904 29.4548 33.5199 29.0537 34.2432 28.7744C34.9665 28.488 35.765 28.3447 36.6387 28.3447C37.5267 28.3447 38.3324 28.488 39.0557 28.7744C39.779 29.0609 40.3984 29.4691 40.9141 29.999C41.4297 30.529 41.82 31.1592 42.085 31.8896C42.3571 32.6201 42.4932 33.4258 42.4932 34.3066ZM39.5498 34.3066C39.5498 33.1107 39.2848 32.1797 38.7549 31.5137C38.2321 30.8477 37.5267 30.5146 36.6387 30.5146C36.0658 30.5146 35.5609 30.665 35.124 30.9658C34.6872 31.2594 34.3506 31.6963 34.1143 32.2764C33.8779 32.8564 33.7598 33.5332 33.7598 34.3066C33.7598 35.0729 33.8743 35.7425 34.1035 36.3154C34.3398 36.8883 34.6729 37.3288 35.1025 37.6367C35.5394 37.9375 36.0514 38.0879 36.6387 38.0879C37.5267 38.0879 38.2321 37.7549 38.7549 37.0889C39.2848 36.4157 39.5498 35.4883 39.5498 34.3066ZM47.5205 25.6592V30.1387C48.0719 29.5658 48.6341 29.1289 49.207 28.8281C49.7799 28.5202 50.4889 28.3662 51.334 28.3662C52.3079 28.3662 53.1602 28.599 53.8906 29.0645C54.6283 29.5228 55.1976 30.1924 55.5986 31.0732C56.0068 31.9469 56.2109 32.9854 56.2109 34.1885C56.2109 35.0765 56.0964 35.8929 55.8672 36.6377C55.6452 37.3753 55.3193 38.0163 54.8896 38.5605C54.46 39.1048 53.9372 39.5273 53.3213 39.8281C52.7126 40.1217 52.0394 40.2686 51.3018 40.2686C50.8506 40.2686 50.4245 40.2148 50.0234 40.1074C49.6296 40 49.293 39.8604 49.0137 39.6885C48.7344 39.5094 48.4945 39.3268 48.2939 39.1406C48.1006 38.9544 47.8428 38.6751 47.5205 38.3027V38.5928C47.5205 39.1442 47.388 39.5632 47.123 39.8496C46.8581 40.1289 46.5215 40.2686 46.1133 40.2686C45.6979 40.2686 45.3649 40.1289 45.1143 39.8496C44.8708 39.5632 44.749 39.1442 44.749 38.5928V25.7881C44.749 25.1937 44.8672 24.7461 45.1035 24.4453C45.347 24.1374 45.6836 23.9834 46.1133 23.9834C46.5645 23.9834 46.9118 24.1302 47.1553 24.4238C47.3988 24.7103 47.5205 25.1221 47.5205 25.6592ZM47.6602 34.3711C47.6602 35.5384 47.9251 36.4372 48.4551 37.0674C48.9922 37.6904 49.694 38.002 50.5605 38.002C51.2982 38.002 51.932 37.6833 52.4619 37.0459C52.999 36.4014 53.2676 35.4811 53.2676 34.2852C53.2676 33.5117 53.1566 32.8457 52.9346 32.2871C52.7126 31.7285 52.3975 31.2988 51.9893 30.998C51.5811 30.6901 51.1048 30.5361 50.5605 30.5361C50.002 30.5361 49.5042 30.6901 49.0674 30.998C48.6305 31.2988 48.2868 31.7393 48.0361 32.3193C47.7855 32.8923 47.6602 33.5762 47.6602 34.3711ZM61.5176 30.0957V40.043C61.5176 40.752 61.4925 41.3285 61.4424 41.7725C61.3994 42.2236 61.335 42.5495 61.249 42.75C60.762 43.9961 59.7272 44.6191 58.1445 44.6191C57.2565 44.6191 56.5833 44.4974 56.125 44.2539C55.6667 44.0104 55.4375 43.6559 55.4375 43.1904C55.4375 42.8467 55.5413 42.5638 55.749 42.3418C55.9567 42.127 56.2288 42.0195 56.5654 42.0195C56.6084 42.0195 56.68 42.0231 56.7803 42.0303C56.8734 42.0446 57.013 42.0589 57.1992 42.0732C57.3926 42.0876 57.5251 42.0947 57.5967 42.0947C57.9906 42.0947 58.252 41.9408 58.3809 41.6328C58.5169 41.3249 58.585 40.7734 58.585 39.9785V30.0957C58.585 29.5156 58.721 29.0788 58.9932 28.7852C59.2653 28.4915 59.6234 28.3447 60.0674 28.3447C60.4971 28.3447 60.8444 28.4915 61.1094 28.7852C61.3815 29.0716 61.5176 29.5085 61.5176 30.0957ZM60.0674 26.9805C59.6592 26.9805 59.3083 26.8551 59.0146 26.6045C58.7282 26.3538 58.585 25.9994 58.585 25.541C58.585 25.1257 58.7318 24.7855 59.0254 24.5205C59.3262 24.2484 59.6735 24.1123 60.0674 24.1123C60.4469 24.1123 60.7835 24.2341 61.0771 24.4775C61.3708 24.721 61.5176 25.0755 61.5176 25.541C61.5176 25.9922 61.3743 26.3467 61.0879 26.6045C60.8014 26.8551 60.4613 26.9805 60.0674 26.9805ZM72.7217 35.0264H66.9853C66.9925 35.6924 67.125 36.2796 67.3828 36.7881C67.6478 37.2965 67.9951 37.6797 68.4248 37.9375C68.8616 38.1953 69.3415 38.3242 69.8643 38.3242C70.2152 38.3242 70.5338 38.2848 70.8203 38.2061C71.1139 38.1201 71.3968 37.9912 71.6689 37.8193C71.9411 37.6403 72.1917 37.4505 72.4209 37.25C72.6501 37.0495 72.9473 36.7773 73.3125 36.4336C73.4629 36.3047 73.6777 36.2402 73.957 36.2402C74.2578 36.2402 74.5013 36.3226 74.6875 36.4873C74.8737 36.652 74.9668 36.8848 74.9668 37.1855C74.9668 37.4505 74.863 37.762 74.6553 38.1201C74.4476 38.471 74.1325 38.8112 73.71 39.1406C73.2946 39.4629 72.7682 39.7314 72.1309 39.9463C71.5006 40.1611 70.7738 40.2686 69.9502 40.2686C68.0667 40.2686 66.6022 39.7314 65.5566 38.6572C64.5111 37.583 63.9883 36.1257 63.9883 34.2852C63.9883 33.4186 64.1172 32.6165 64.375 31.8789C64.6328 31.1341 65.0088 30.4967 65.5029 29.9668C65.9971 29.4368 66.6058 29.0322 67.3291 28.7529C68.0524 28.4665 68.8545 28.3232 69.7353 28.3232C70.8812 28.3232 71.8623 28.5667 72.6787 29.0537C73.5023 29.5335 74.1182 30.1566 74.5264 30.9229C74.9346 31.6891 75.1387 32.4697 75.1387 33.2646C75.1387 34.0023 74.9274 34.4821 74.5049 34.7041C74.0824 34.9189 73.488 35.0264 72.7217 35.0264ZM66.9853 33.3613H72.3027C72.2311 32.3587 71.959 31.6104 71.4863 31.1162C71.0208 30.6149 70.4049 30.3643 69.6387 30.3643C68.9082 30.3643 68.3066 30.6185 67.834 31.127C67.3685 31.6283 67.0856 32.373 66.9853 33.3613ZM88.1367 36.6377C88.1367 37.0029 88.0257 37.3932 87.8037 37.8086C87.5889 38.224 87.2559 38.6214 86.8047 39.001C86.3607 39.3734 85.7985 39.6742 85.1182 39.9033C84.4378 40.1325 83.6715 40.2471 82.8193 40.2471C81.0075 40.2471 79.5931 39.7207 78.5762 38.668C77.5592 37.6081 77.0508 36.1901 77.0508 34.4141C77.0508 33.2109 77.2835 32.1475 77.749 31.2236C78.2145 30.2998 78.8877 29.5872 79.7686 29.0859C80.6494 28.5775 81.7021 28.3232 82.9268 28.3232C83.6859 28.3232 84.3805 28.4342 85.0107 28.6563C85.6481 28.8783 86.1852 29.1647 86.6221 29.5156C87.0661 29.8665 87.4027 30.2425 87.6318 30.6436C87.8682 31.0374 87.9863 31.4063 87.9863 31.75C87.9863 32.1009 87.8538 32.3981 87.5889 32.6416C87.331 32.8851 87.0159 33.0068 86.6435 33.0068C86.4001 33.0068 86.196 32.946 86.0312 32.8242C85.8737 32.6953 85.6947 32.4912 85.4941 32.2119C85.1361 31.6676 84.7601 31.2594 84.3662 30.9873C83.9795 30.7152 83.4853 30.5791 82.8838 30.5791C82.0172 30.5791 81.319 30.9193 80.7891 31.5996C80.2591 32.2728 79.9941 33.1966 79.9941 34.3711C79.9941 34.9225 80.0622 35.431 80.1982 35.8965C80.3343 36.3548 80.5312 36.7487 80.7891 37.0781C81.0469 37.4004 81.3584 37.6475 81.7236 37.8193C82.0889 37.984 82.4899 38.0664 82.9268 38.0664C83.514 38.0664 84.0153 37.9303 84.4307 37.6582C84.8532 37.3861 85.2256 36.9707 85.5478 36.4121C85.7269 36.0827 85.9202 35.8249 86.1279 35.6387C86.3356 35.4525 86.5898 35.3594 86.8906 35.3594C87.2487 35.3594 87.5459 35.4954 87.7822 35.7676C88.0185 36.0397 88.1367 36.3298 88.1367 36.6377ZM90.8652 28.6025H91.1875V26.8408C91.1875 26.3682 91.1982 25.9994 91.2197 25.7344C91.2484 25.4622 91.32 25.2295 91.4346 25.0361C91.5491 24.8356 91.7139 24.6745 91.9287 24.5527C92.1436 24.4238 92.3835 24.3594 92.6484 24.3594C93.0208 24.3594 93.3574 24.499 93.6582 24.7783C93.8587 24.9645 93.984 25.1937 94.0342 25.4658C94.0915 25.7308 94.1201 26.1104 94.1201 26.6045V28.6025H95.1943C95.6097 28.6025 95.9248 28.7028 96.1396 28.9033C96.3616 29.0967 96.4727 29.3473 96.4727 29.6553C96.4727 30.0492 96.3151 30.3249 96 30.4824C95.6921 30.64 95.248 30.7188 94.668 30.7188H94.1201V36.1113C94.1201 36.5697 94.1344 36.9242 94.1631 37.1748C94.1989 37.4183 94.2848 37.6188 94.4209 37.7764C94.5641 37.9268 94.7933 38.002 95.1084 38.002C95.2803 38.002 95.513 37.9733 95.8066 37.916C96.1003 37.8516 96.3294 37.8193 96.4941 37.8193C96.7305 37.8193 96.9417 37.916 97.1279 38.1094C97.3213 38.2956 97.418 38.5283 97.418 38.8076C97.418 39.2803 97.1602 39.6419 96.6445 39.8926C96.1289 40.1432 95.3877 40.2686 94.4209 40.2686C93.5042 40.2686 92.8096 40.1146 92.3369 39.8066C91.8643 39.4987 91.5527 39.0726 91.4023 38.5283C91.2591 37.984 91.1875 37.2572 91.1875 36.3477V30.7188H90.8008C90.3783 30.7188 90.056 30.6185 89.834 30.418C89.612 30.2174 89.501 29.9632 89.501 29.6553C89.501 29.3473 89.6156 29.0967 89.8447 28.9033C90.0811 28.7028 90.4212 28.6025 90.8652 28.6025ZM101.436 30.0098V38.4854C101.436 39.0726 101.296 39.5166 101.017 39.8174C100.737 40.1182 100.383 40.2686 99.9531 40.2686C99.5234 40.2686 99.1725 40.1146 98.9004 39.8066C98.6354 39.4987 98.5029 39.0583 98.5029 38.4854V30.0957C98.5029 29.5156 98.6354 29.0788 98.9004 28.7852C99.1725 28.4915 99.5234 28.3447 99.9531 28.3447C100.383 28.3447 100.737 28.4915 101.017 28.7852C101.296 29.0788 101.436 29.487 101.436 30.0098ZM99.9853 26.9805C99.5771 26.9805 99.2262 26.8551 98.9326 26.6045C98.6462 26.3538 98.5029 25.9994 98.5029 25.541C98.5029 25.1257 98.6497 24.7855 98.9434 24.5205C99.2441 24.2484 99.5915 24.1123 99.9853 24.1123C100.365 24.1123 100.701 24.2341 100.995 24.4775C101.289 24.721 101.436 25.0755 101.436 25.541C101.436 25.9922 101.292 26.3467 101.006 26.6045C100.719 26.8551 100.379 26.9805 99.9853 26.9805ZM106.549 30.1709L108.923 36.8311L111.479 29.8809C111.68 29.3223 111.877 28.9284 112.07 28.6992C112.264 28.4629 112.557 28.3447 112.951 28.3447C113.324 28.3447 113.639 28.4701 113.896 28.7207C114.161 28.9714 114.294 29.2614 114.294 29.5908C114.294 29.7197 114.269 29.8701 114.219 30.042C114.176 30.2139 114.122 30.375 114.058 30.5254C114 30.6758 113.932 30.8477 113.854 31.041L111.039 38.0234C110.96 38.224 110.856 38.4782 110.728 38.7861C110.606 39.0941 110.466 39.359 110.309 39.5811C110.158 39.7959 109.968 39.9642 109.739 40.0859C109.517 40.2077 109.245 40.2686 108.923 40.2686C108.507 40.2686 108.174 40.1755 107.924 39.9893C107.68 39.7959 107.498 39.5882 107.376 39.3662C107.261 39.137 107.064 38.6895 106.785 38.0234L103.992 31.1162C103.928 30.9443 103.86 30.7725 103.788 30.6006C103.724 30.4287 103.666 30.2533 103.616 30.0742C103.573 29.8952 103.552 29.7412 103.552 29.6123C103.552 29.4118 103.613 29.2148 103.734 29.0215C103.856 28.821 104.024 28.6598 104.239 28.5381C104.454 28.4092 104.687 28.3447 104.937 28.3447C105.424 28.3447 105.757 28.4844 105.937 28.7637C106.123 29.043 106.327 29.512 106.549 30.1709ZM124.284 35.0264H118.548C118.555 35.6924 118.687 36.2796 118.945 36.7881C119.21 37.2965 119.558 37.6797 119.987 37.9375C120.424 38.1953 120.904 38.3242 121.427 38.3242C121.778 38.3242 122.096 38.2848 122.383 38.2061C122.676 38.1201 122.959 37.9912 123.231 37.8193C123.504 37.6403 123.754 37.4505 123.983 37.25C124.213 37.0495 124.51 36.7773 124.875 36.4336C125.025 36.3047 125.24 36.2402 125.52 36.2402C125.82 36.2402 126.064 36.3226 126.25 36.4873C126.436 36.652 126.529 36.8848 126.529 37.1855C126.529 37.4505 126.425 37.762 126.218 38.1201C126.01 38.471 125.695 38.8112 125.272 39.1406C124.857 39.4629 124.331 39.7314 123.693 39.9463C123.063 40.1611 122.336 40.2686 121.513 40.2686C119.629 40.2686 118.165 39.7314 117.119 38.6572C116.074 37.583 115.551 36.1257 115.551 34.2852C115.551 33.4186 115.68 32.6165 115.937 31.8789C116.195 31.1341 116.571 30.4967 117.065 29.9668C117.56 29.4368 118.168 29.0322 118.892 28.7529C119.615 28.4665 120.417 28.3232 121.298 28.3232C122.444 28.3232 123.425 28.5667 124.241 29.0537C125.065 29.5335 125.681 30.1566 126.089 30.9229C126.497 31.6891 126.701 32.4697 126.701 33.2646C126.701 34.0023 126.49 34.4821 126.067 34.7041C125.645 34.9189 125.05 35.0264 124.284 35.0264ZM118.548 33.3613H123.865C123.794 32.3587 123.521 31.6104 123.049 31.1162C122.583 30.6149 121.967 30.3643 121.201 30.3643C120.471 30.3643 119.869 30.6185 119.396 31.127C118.931 31.6283 118.648 32.373 118.548 33.3613ZM138.625 36.4336C138.625 37.2428 138.428 37.9375 138.034 38.5176C137.64 39.0905 137.057 39.5273 136.283 39.8281C135.517 40.1217 134.582 40.2686 133.479 40.2686C132.427 40.2686 131.524 40.1074 130.772 39.7852C130.02 39.4629 129.465 39.0618 129.107 38.582C128.749 38.0951 128.57 37.6081 128.57 37.1211C128.57 36.7988 128.685 36.5231 128.914 36.2939C129.143 36.0648 129.433 35.9502 129.784 35.9502C130.092 35.9502 130.328 36.0254 130.493 36.1758C130.658 36.3262 130.815 36.5374 130.966 36.8096C131.267 37.3324 131.625 37.7227 132.04 37.9805C132.463 38.2383 133.035 38.3672 133.759 38.3672C134.346 38.3672 134.826 38.2383 135.198 37.9805C135.578 37.7155 135.768 37.4147 135.768 37.0781C135.768 36.5625 135.571 36.1865 135.177 35.9502C134.79 35.7139 134.149 35.4883 133.254 35.2734C132.244 35.0228 131.421 34.7614 130.783 34.4893C130.153 34.21 129.648 33.8447 129.269 33.3936C128.889 32.9424 128.699 32.3874 128.699 31.7285C128.699 31.1413 128.875 30.5863 129.226 30.0635C129.576 29.5407 130.092 29.1253 130.772 28.8174C131.46 28.5023 132.287 28.3447 133.254 28.3447C134.013 28.3447 134.693 28.4235 135.295 28.5811C135.904 28.7386 136.409 28.9499 136.81 29.2148C137.218 29.4798 137.526 29.7734 137.733 30.0957C137.948 30.418 138.056 30.7331 138.056 31.041C138.056 31.3776 137.941 31.6533 137.712 31.8682C137.49 32.083 137.171 32.1904 136.756 32.1904C136.455 32.1904 136.197 32.1045 135.982 31.9326C135.775 31.7607 135.535 31.5029 135.263 31.1592C135.041 30.8727 134.779 30.6436 134.479 30.4717C134.178 30.2998 133.77 30.2139 133.254 30.2139C132.724 30.2139 132.284 30.3285 131.933 30.5576C131.582 30.7796 131.406 31.0589 131.406 31.3955C131.406 31.7035 131.535 31.9577 131.793 32.1582C132.051 32.3516 132.398 32.5127 132.835 32.6416C133.272 32.7705 133.873 32.9281 134.64 33.1143C135.549 33.3363 136.29 33.6012 136.863 33.9092C137.443 34.2171 137.88 34.5824 138.174 35.0049C138.475 35.4202 138.625 35.8965 138.625 36.4336ZM143.051 40.2686C142.607 40.2686 142.224 40.1253 141.901 39.8389C141.579 39.5524 141.418 39.1514 141.418 38.6357C141.418 38.1989 141.572 37.8229 141.88 37.5078C142.188 37.1927 142.567 37.0352 143.019 37.0352C143.47 37.0352 143.853 37.1927 144.168 37.5078C144.49 37.8158 144.651 38.1917 144.651 38.6357C144.651 39.1442 144.49 39.5452 144.168 39.8389C143.853 40.1253 143.48 40.2686 143.051 40.2686ZM141.418 29.9453C141.418 29.4368 141.576 29.043 141.891 28.7637C142.213 28.4844 142.6 28.3447 143.051 28.3447C143.488 28.3447 143.864 28.488 144.179 28.7744C144.494 29.0537 144.651 29.444 144.651 29.9453C144.651 30.3464 144.479 30.7152 144.136 31.0518C143.792 31.3883 143.42 31.5566 143.019 31.5566C142.582 31.5566 142.206 31.3955 141.891 31.0732C141.576 30.751 141.418 30.375 141.418 29.9453Z" fill="#9575DE"/>
<path d="M38.1913 69H33.769C33.1307 69 32.6734 68.8585 32.397 68.5755C32.1272 68.286 31.9922 67.8286 31.9922 67.2035V56.3255C31.9922 55.6872 32.1304 55.2298 32.4068 54.9534C32.6898 54.6705 33.1439 54.529 33.769 54.529H38.4578C39.1488 54.529 39.7476 54.5718 40.2543 54.6573C40.7611 54.7429 41.2151 54.9074 41.6166 55.1509C41.9588 55.3549 42.2615 55.6148 42.5247 55.9307C42.7879 56.24 42.9886 56.5855 43.1268 56.9671C43.265 57.3423 43.3341 57.7404 43.3341 58.1616C43.3341 59.6093 42.6102 60.6688 41.1625 61.34C43.0643 61.9455 44.0152 63.1234 44.0152 64.8739C44.0152 65.6833 43.8079 66.4138 43.3933 67.0653C42.9788 67.7102 42.4194 68.1873 41.7153 68.4966C41.2744 68.6808 40.7676 68.8124 40.1951 68.8914C39.6226 68.9638 38.9547 69 38.1913 69ZM37.9741 62.5739H34.924V66.7987H38.0728C40.0536 66.7987 41.044 66.0847 41.044 64.6567C41.044 63.9263 40.7874 63.3965 40.2741 63.0675C39.7608 62.7384 38.9941 62.5739 37.9741 62.5739ZM34.924 56.7302V60.4714H37.6089C38.3394 60.4714 38.902 60.4023 39.2969 60.2641C39.6983 60.1259 40.0043 59.8627 40.2149 59.4744C40.3794 59.198 40.4616 58.8887 40.4616 58.5465C40.4616 57.8161 40.2017 57.3324 39.6818 57.0955C39.1619 56.852 38.369 56.7302 37.3029 56.7302H34.924ZM53.8962 64.4297H48.625C48.6316 65.0417 48.7533 65.5813 48.9903 66.0485C49.2337 66.5158 49.5529 66.8678 49.9477 67.1048C50.3492 67.3417 50.7901 67.4601 51.2705 67.4601C51.5929 67.4601 51.8858 67.4239 52.149 67.3515C52.4188 67.2726 52.6787 67.1541 52.9288 66.9962C53.1789 66.8317 53.4092 66.6573 53.6198 66.473C53.8304 66.2887 54.1035 66.0387 54.4391 65.7228C54.5773 65.6043 54.7747 65.5451 55.0314 65.5451C55.3077 65.5451 55.5315 65.6208 55.7026 65.7722C55.8737 65.9235 55.9592 66.1374 55.9592 66.4138C55.9592 66.6573 55.8638 66.9435 55.673 67.2726C55.4821 67.595 55.1926 67.9076 54.8043 68.2103C54.4226 68.5064 53.939 68.7532 53.3533 68.9506C52.7742 69.1481 52.1062 69.2468 51.3494 69.2468C49.6187 69.2468 48.273 68.7532 47.3122 67.7661C46.3514 66.779 45.871 65.4398 45.871 63.7486C45.871 62.9523 45.9894 62.2153 46.2264 61.5375C46.4633 60.8531 46.8087 60.2674 47.2628 59.7804C47.7169 59.2934 48.2762 58.9216 48.9409 58.665C49.6056 58.4017 50.3426 58.2701 51.152 58.2701C52.2049 58.2701 53.1065 58.4939 53.8567 58.9414C54.6135 59.3823 55.1794 59.9548 55.5545 60.6589C55.9296 61.3631 56.1172 62.0804 56.1172 62.8108C56.1172 63.4886 55.923 63.9296 55.5348 64.1336C55.1465 64.331 54.6003 64.4297 53.8962 64.4297ZM48.625 62.8997H53.5112C53.4454 61.9784 53.1953 61.2907 52.761 60.8366C52.3333 60.376 51.7673 60.1456 51.0632 60.1456C50.3919 60.1456 49.8392 60.3793 49.4048 60.8465C48.9771 61.3071 48.7172 61.9915 48.625 62.8997ZM61.0725 65.3576V67.6082C61.0725 68.1544 60.9441 68.5657 60.6875 68.8421C60.4308 69.1119 60.1051 69.2468 59.7103 69.2468C59.322 69.2468 59.0028 69.1086 58.7528 68.8322C58.5027 68.5558 58.3777 68.1478 58.3777 67.6082V60.1062C58.3777 58.8953 58.8153 58.2899 59.6905 58.2899C60.138 58.2899 60.4605 58.4314 60.6579 58.7143C60.8553 58.9973 60.9639 59.4152 60.9836 59.968C61.3061 59.4152 61.6351 58.9973 61.9707 58.7143C62.3129 58.4314 62.767 58.2899 63.3329 58.2899C63.8989 58.2899 64.4484 58.4314 64.9814 58.7143C65.5144 58.9973 65.781 59.3724 65.781 59.8396C65.781 60.1687 65.6658 60.4418 65.4355 60.6589C65.2117 60.8695 64.9682 60.9748 64.705 60.9748C64.6063 60.9748 64.3661 60.9156 63.9844 60.7971C63.6093 60.6721 63.277 60.6096 62.9874 60.6096C62.5926 60.6096 62.2702 60.7149 62.0201 60.9255C61.77 61.1295 61.5759 61.4355 61.4377 61.8435C61.2995 62.2515 61.2041 62.7384 61.1514 63.3044C61.0988 63.8637 61.0725 64.5481 61.0725 65.3576ZM69.9564 59.8199V67.6082C69.9564 68.1478 69.8281 68.5558 69.5715 68.8322C69.3148 69.1086 68.9891 69.2468 68.5942 69.2468C68.1994 69.2468 67.8769 69.1053 67.6269 68.8223C67.3834 68.5393 67.2616 68.1346 67.2616 67.6082V59.8989C67.2616 59.3658 67.3834 58.9644 67.6269 58.6946C67.8769 58.4248 68.1994 58.2899 68.5942 58.2899C68.9891 58.2899 69.3148 58.4248 69.5715 58.6946C69.8281 58.9644 69.9564 59.3395 69.9564 59.8199ZM68.6238 57.0362C68.2487 57.0362 67.9263 56.9211 67.6565 56.6908C67.3932 56.4604 67.2616 56.1347 67.2616 55.7135C67.2616 55.3318 67.3965 55.0193 67.6663 54.7758C67.9427 54.5257 68.2619 54.4007 68.6238 54.4007C68.9726 54.4007 69.2819 54.5125 69.5517 54.7363C69.8215 54.96 69.9564 55.2858 69.9564 55.7135C69.9564 56.1281 69.8248 56.4539 69.5616 56.6908C69.2984 56.9211 68.9858 57.0362 68.6238 57.0362ZM80.4395 55.9208V59.9186C80.7817 59.5238 81.1141 59.2112 81.4365 58.9809C81.7655 58.7505 82.1275 58.5794 82.5223 58.4676C82.9172 58.3491 83.3416 58.2899 83.7957 58.2899C84.4801 58.2899 85.0855 58.4347 85.612 58.7242C86.145 59.0138 86.5629 59.4349 86.8656 59.9877C87.0564 60.3102 87.1848 60.6721 87.2506 61.0735C87.3164 61.4684 87.3493 61.9257 87.3493 62.4456V67.6082C87.3493 68.1478 87.2243 68.5558 86.9742 68.8322C86.7307 69.1086 86.405 69.2468 85.9969 69.2468C85.1085 69.2468 84.6644 68.7006 84.6644 67.6082V63.0576C84.6644 62.1955 84.536 61.5342 84.2794 61.0735C84.0227 60.6063 83.5358 60.3727 82.8185 60.3727C82.3381 60.3727 81.9037 60.5109 81.5155 60.7873C81.1338 61.0571 80.8475 61.4289 80.6567 61.9027C80.5119 62.3041 80.4395 63.0181 80.4395 64.0447V67.6082C80.4395 68.1412 80.3178 68.5492 80.0743 68.8322C79.8374 69.1086 79.5051 69.2468 79.0773 69.2468C78.1889 69.2468 77.7447 68.7006 77.7447 67.6082V55.9208C77.7447 55.3746 77.8599 54.9666 78.0902 54.6968C78.3271 54.4204 78.6562 54.2822 79.0773 54.2822C79.5051 54.2822 79.8374 54.4204 80.0743 54.6968C80.3178 54.9732 80.4395 55.3812 80.4395 55.9208ZM96.8354 67.7266C96.1839 68.2333 95.5522 68.615 94.9401 68.8717C94.3347 69.1217 93.6536 69.2468 92.8968 69.2468C92.2059 69.2468 91.5971 69.1119 91.0707 68.8421C90.5508 68.5657 90.1494 68.1939 89.8664 67.7266C89.5834 67.2594 89.442 66.7527 89.442 66.2065C89.442 65.4694 89.6756 64.841 90.1428 64.3211C90.61 63.8012 91.2517 63.4525 92.0677 63.2748C92.2388 63.2353 92.6632 63.1464 93.341 63.0083C94.0188 62.8701 94.5979 62.745 95.0783 62.6332C95.5653 62.5147 96.0918 62.3732 96.6577 62.2087C96.6248 61.498 96.48 60.9781 96.2234 60.6491C95.9733 60.3134 95.4502 60.1456 94.6539 60.1456C93.9695 60.1456 93.4529 60.2411 93.1041 60.4319C92.7619 60.6227 92.4658 60.909 92.2157 61.2907C91.9722 61.6724 91.7978 61.9257 91.6926 62.0508C91.5938 62.1692 91.3767 62.2284 91.0411 62.2284C90.7384 62.2284 90.4751 62.133 90.2514 61.9422C90.0342 61.7448 89.9256 61.4947 89.9256 61.192C89.9256 60.7182 90.0934 60.2575 90.4291 59.81C90.7647 59.3625 91.2878 58.994 91.9986 58.7045C92.7093 58.4149 93.5944 58.2701 94.6539 58.2701C95.8384 58.2701 96.7696 58.4116 97.4474 58.6946C98.1252 58.971 98.6023 59.4119 98.8787 60.0173C99.1617 60.6227 99.3032 61.4256 99.3032 62.4259C99.3032 63.0576 99.2999 63.5939 99.2933 64.0348C99.2933 64.4758 99.29 64.966 99.2834 65.5056C99.2834 66.0124 99.3657 66.5421 99.5302 67.0949C99.7013 67.6411 99.7868 67.9931 99.7868 68.1511C99.7868 68.4275 99.6552 68.6808 99.392 68.9112C99.1354 69.1349 98.8425 69.2468 98.5135 69.2468C98.2371 69.2468 97.964 69.1185 97.6942 68.8618C97.4244 68.5986 97.1381 68.2202 96.8354 67.7266ZM96.6577 63.8276C96.2629 63.9723 95.6871 64.127 94.9303 64.2915C94.1801 64.4494 93.6602 64.5679 93.3706 64.6469C93.0811 64.7192 92.8047 64.8673 92.5415 65.0911C92.2782 65.3082 92.1466 65.6142 92.1466 66.0091C92.1466 66.4171 92.3013 66.7658 92.6106 67.0554C92.9199 67.3384 93.3246 67.4799 93.8247 67.4799C94.3578 67.4799 94.848 67.3647 95.2955 67.1344C95.7496 66.8975 96.0819 66.5947 96.2925 66.2262C96.536 65.8182 96.6577 65.147 96.6577 64.2125V63.8276ZM111.01 63.9657V67.549C111.01 68.1149 110.882 68.5393 110.625 68.8223C110.369 69.1053 110.03 69.2468 109.609 69.2468C109.201 69.2468 108.868 69.1053 108.612 68.8223C108.362 68.5393 108.236 68.1149 108.236 67.549V63.255C108.236 62.5772 108.213 62.0508 108.167 61.6757C108.121 61.3006 107.996 60.9946 107.792 60.7576C107.588 60.5142 107.266 60.3924 106.825 60.3924C105.943 60.3924 105.361 60.6951 105.078 61.3006C104.801 61.906 104.663 62.7746 104.663 63.9065V67.549C104.663 68.1083 104.535 68.5328 104.278 68.8223C104.028 69.1053 103.696 69.2468 103.281 69.2468C102.873 69.2468 102.538 69.1053 102.274 68.8223C102.018 68.5328 101.889 68.1083 101.889 67.549V59.8396C101.889 59.3329 102.005 58.9479 102.235 58.6847C102.472 58.4215 102.781 58.2899 103.163 58.2899C103.531 58.2899 103.837 58.4149 104.081 58.665C104.331 58.9085 104.456 59.2474 104.456 59.6817V59.9383C104.923 59.379 105.423 58.9677 105.956 58.7045C106.489 58.4412 107.082 58.3096 107.733 58.3096C108.411 58.3096 108.993 58.4445 109.48 58.7143C109.967 58.9841 110.369 59.3921 110.685 59.9383C111.139 59.3856 111.626 58.9776 112.145 58.7143C112.665 58.4445 113.241 58.3096 113.873 58.3096C114.61 58.3096 115.245 58.4544 115.778 58.7439C116.311 59.0335 116.709 59.4481 116.972 59.9877C117.203 60.4747 117.318 61.2413 117.318 62.2877V67.549C117.318 68.1149 117.19 68.5393 116.933 68.8223C116.676 69.1053 116.337 69.2468 115.916 69.2468C115.508 69.2468 115.173 69.1053 114.909 68.8223C114.653 68.5328 114.524 68.1083 114.524 67.549V63.0181C114.524 62.439 114.498 61.9751 114.445 61.6263C114.399 61.2775 114.268 60.9847 114.051 60.7478C113.833 60.5109 113.504 60.3924 113.063 60.3924C112.708 60.3924 112.369 60.4977 112.047 60.7083C111.731 60.9189 111.484 61.2018 111.306 61.5572C111.109 62.0113 111.01 62.8141 111.01 63.9657ZM122.421 55.8221V59.9383C122.928 59.4119 123.445 59.0105 123.971 58.7341C124.497 58.4511 125.149 58.3096 125.925 58.3096C126.82 58.3096 127.604 58.5235 128.275 58.9512C128.953 59.3724 129.476 59.9877 129.844 60.7971C130.219 61.6 130.407 62.5542 130.407 63.6597C130.407 64.4758 130.302 65.226 130.091 65.9104C129.887 66.5882 129.588 67.1771 129.193 67.6773C128.798 68.1774 128.318 68.5657 127.752 68.8421C127.192 69.1119 126.574 69.2468 125.896 69.2468C125.481 69.2468 125.09 69.1974 124.721 69.0987C124.359 69 124.05 68.8717 123.793 68.7137C123.537 68.5492 123.316 68.3814 123.132 68.2103C122.954 68.0392 122.717 67.7826 122.421 67.4404V67.7069C122.421 68.2136 122.3 68.5986 122.056 68.8618C121.813 69.1185 121.503 69.2468 121.128 69.2468C120.746 69.2468 120.44 69.1185 120.21 68.8618C119.986 68.5986 119.875 68.2136 119.875 67.7069V55.9406C119.875 55.3944 119.983 54.9831 120.2 54.7067C120.424 54.4237 120.733 54.2822 121.128 54.2822C121.543 54.2822 121.862 54.4171 122.086 54.6869C122.309 54.9502 122.421 55.3285 122.421 55.8221ZM122.55 63.8276C122.55 64.9002 122.793 65.7261 123.28 66.3052C123.774 66.8777 124.418 67.164 125.215 67.164C125.893 67.164 126.475 66.8711 126.962 66.2855C127.455 65.6932 127.702 64.8476 127.702 63.7486C127.702 63.0379 127.6 62.4259 127.396 61.9126C127.192 61.3993 126.903 61.0044 126.528 60.728C126.153 60.4451 125.715 60.3036 125.215 60.3036C124.701 60.3036 124.244 60.4451 123.843 60.728C123.441 61.0044 123.125 61.4091 122.895 61.9422C122.665 62.4686 122.55 63.0971 122.55 63.8276ZM139.38 67.7266C138.728 68.2333 138.097 68.615 137.485 68.8717C136.879 69.1217 136.198 69.2468 135.441 69.2468C134.75 69.2468 134.142 69.1119 133.615 68.8421C133.095 68.5657 132.694 68.1939 132.411 67.7266C132.128 67.2594 131.986 66.7527 131.986 66.2065C131.986 65.4694 132.22 64.841 132.687 64.3211C133.154 63.8012 133.796 63.4525 134.612 63.2748C134.783 63.2353 135.208 63.1464 135.885 63.0083C136.563 62.8701 137.142 62.745 137.623 62.6332C138.11 62.5147 138.636 62.3732 139.202 62.2087C139.169 61.498 139.024 60.9781 138.768 60.6491C138.518 60.3134 137.995 60.1456 137.198 60.1456C136.514 60.1456 135.997 60.2411 135.648 60.4319C135.306 60.6227 135.01 60.909 134.76 61.2907C134.517 61.6724 134.342 61.9257 134.237 62.0508C134.138 62.1692 133.921 62.2284 133.585 62.2284C133.283 62.2284 133.019 62.133 132.796 61.9422C132.579 61.7448 132.47 61.4947 132.47 61.192C132.47 60.7182 132.638 60.2575 132.973 59.81C133.309 59.3625 133.832 58.994 134.543 58.7045C135.254 58.4149 136.139 58.2701 137.198 58.2701C138.383 58.2701 139.314 58.4116 139.992 58.6946C140.67 58.971 141.147 59.4119 141.423 60.0173C141.706 60.6227 141.848 61.4256 141.848 62.4259C141.848 63.0576 141.844 63.5939 141.838 64.0348C141.838 64.4758 141.834 64.966 141.828 65.5056C141.828 66.0124 141.91 66.5421 142.075 67.0949C142.246 67.6411 142.331 67.9931 142.331 68.1511C142.331 68.4275 142.2 68.6808 141.936 68.9112C141.68 69.1349 141.387 69.2468 141.058 69.2468C140.781 69.2468 140.508 69.1185 140.239 68.8618C139.969 68.5986 139.682 68.2202 139.38 67.7266ZM139.202 63.8276C138.807 63.9723 138.231 64.127 137.475 64.2915C136.724 64.4494 136.205 64.5679 135.915 64.6469C135.625 64.7192 135.349 64.8673 135.086 65.0911C134.823 65.3082 134.691 65.6142 134.691 66.0091C134.691 66.4171 134.846 66.7658 135.155 67.0554C135.464 67.3384 135.869 67.4799 136.369 67.4799C136.902 67.4799 137.392 67.3647 137.84 67.1344C138.294 66.8975 138.626 66.5947 138.837 66.2262C139.08 65.8182 139.202 65.147 139.202 64.2125V63.8276ZM144.226 58.5268H144.523V56.9079C144.523 56.4736 144.532 56.1347 144.552 55.8912C144.579 55.6411 144.644 55.4273 144.75 55.2496C144.855 55.0653 145.006 54.9173 145.204 54.8054C145.401 54.6869 145.622 54.6277 145.865 54.6277C146.207 54.6277 146.517 54.756 146.793 55.0127C146.977 55.1838 147.092 55.3944 147.138 55.6444C147.191 55.8879 147.217 56.2367 147.217 56.6908V58.5268H148.205C148.586 58.5268 148.876 58.6189 149.073 58.8032C149.277 58.9809 149.379 59.2112 149.379 59.4941C149.379 59.8561 149.234 60.1094 148.945 60.2542C148.662 60.399 148.254 60.4714 147.721 60.4714H147.217V65.4267C147.217 65.8478 147.231 66.1736 147.257 66.4039C147.29 66.6276 147.369 66.8119 147.494 66.9567C147.625 67.0949 147.836 67.164 148.126 67.164C148.283 67.164 148.497 67.1377 148.767 67.085C149.037 67.0258 149.248 66.9962 149.399 66.9962C149.616 66.9962 149.81 67.085 149.981 67.2627C150.159 67.4338 150.248 67.6477 150.248 67.9043C150.248 68.3386 150.011 68.671 149.537 68.9013C149.063 69.1316 148.382 69.2468 147.494 69.2468C146.651 69.2468 146.013 69.1053 145.579 68.8223C145.144 68.5393 144.858 68.1478 144.72 67.6477C144.588 67.1475 144.523 66.4796 144.523 65.6438V60.4714H144.167C143.779 60.4714 143.483 60.3793 143.279 60.195C143.075 60.0107 142.973 59.7771 142.973 59.4941C142.973 59.2112 143.078 58.9809 143.289 58.8032C143.506 58.6189 143.818 58.5268 144.226 58.5268ZM158.056 67.7266C157.404 68.2333 156.773 68.615 156.161 68.8717C155.555 69.1217 154.874 69.2468 154.117 69.2468C153.426 69.2468 152.818 69.1119 152.291 68.8421C151.771 68.5657 151.37 68.1939 151.087 67.7266C150.804 67.2594 150.662 66.7527 150.662 66.2065C150.662 65.4694 150.896 64.841 151.363 64.3211C151.83 63.8012 152.472 63.4525 153.288 63.2748C153.459 63.2353 153.884 63.1464 154.561 63.0083C155.239 62.8701 155.818 62.745 156.299 62.6332C156.786 62.5147 157.312 62.3732 157.878 62.2087C157.845 61.498 157.7 60.9781 157.444 60.6491C157.194 60.3134 156.671 60.1456 155.874 60.1456C155.19 60.1456 154.673 60.2411 154.325 60.4319C153.982 60.6227 153.686 60.909 153.436 61.2907C153.193 61.6724 153.018 61.9257 152.913 62.0508C152.814 62.1692 152.597 62.2284 152.262 62.2284C151.959 62.2284 151.696 62.133 151.472 61.9422C151.255 61.7448 151.146 61.4947 151.146 61.192C151.146 60.7182 151.314 60.2575 151.65 59.81C151.985 59.3625 152.508 58.994 153.219 58.7045C153.93 58.4149 154.815 58.2701 155.874 58.2701C157.059 58.2701 157.99 58.4116 158.668 58.6946C159.346 58.971 159.823 59.4119 160.099 60.0173C160.382 60.6227 160.524 61.4256 160.524 62.4259C160.524 63.0576 160.52 63.5939 160.514 64.0348C160.514 64.4758 160.51 64.966 160.504 65.5056C160.504 66.0124 160.586 66.5421 160.751 67.0949C160.922 67.6411 161.007 67.9931 161.007 68.1511C161.007 68.4275 160.876 68.6808 160.612 68.9112C160.356 69.1349 160.063 69.2468 159.734 69.2468C159.458 69.2468 159.184 69.1185 158.915 68.8618C158.645 68.5986 158.359 68.2202 158.056 67.7266ZM157.878 63.8276C157.483 63.9723 156.908 64.127 156.151 64.2915C155.401 64.4494 154.881 64.5679 154.591 64.6469C154.302 64.7192 154.025 64.8673 153.762 65.0911C153.499 65.3082 153.367 65.6142 153.367 66.0091C153.367 66.4171 153.522 66.7658 153.831 67.0554C154.14 67.3384 154.545 67.4799 155.045 67.4799C155.578 67.4799 156.068 67.3647 156.516 67.1344C156.97 66.8975 157.302 66.5947 157.513 66.2262C157.756 65.8182 157.878 65.147 157.878 64.2125V63.8276ZM165.716 59.7804V60.1062C166.19 59.481 166.706 59.0236 167.266 58.7341C167.832 58.4379 168.48 58.2899 169.21 58.2899C169.921 58.2899 170.556 58.4445 171.115 58.7538C171.675 59.0631 172.093 59.5007 172.369 60.0667C172.547 60.3957 172.662 60.7511 172.714 61.1327C172.767 61.5144 172.793 62.0014 172.793 62.5937V67.6082C172.793 68.1478 172.668 68.5558 172.418 68.8322C172.175 69.1086 171.856 69.2468 171.461 69.2468C171.059 69.2468 170.734 69.1053 170.484 68.8223C170.233 68.5393 170.108 68.1346 170.108 67.6082V63.1168C170.108 62.2284 169.983 61.5506 169.733 61.0834C169.49 60.6096 169 60.3727 168.263 60.3727C167.782 60.3727 167.345 60.5174 166.95 60.807C166.555 61.09 166.265 61.4815 166.081 61.9817C165.949 62.3831 165.884 63.1333 165.884 64.2323V67.6082C165.884 68.1544 165.755 68.5657 165.499 68.8421C165.249 69.1119 164.923 69.2468 164.521 69.2468C164.133 69.2468 163.814 69.1053 163.564 68.8223C163.314 68.5393 163.189 68.1346 163.189 67.6082V59.8199C163.189 59.3066 163.301 58.9249 163.524 58.6748C163.748 58.4182 164.054 58.2899 164.442 58.2899C164.679 58.2899 164.893 58.3458 165.084 58.4577C165.275 58.5696 165.426 58.7374 165.538 58.9611C165.657 59.1849 165.716 59.458 165.716 59.7804ZM183.03 59.8002V60.1259C183.536 59.5007 184.063 59.0434 184.609 58.7538C185.155 58.4577 185.774 58.3096 186.465 58.3096C187.294 58.3096 188.057 58.5235 188.755 58.9512C189.452 59.379 190.002 60.0042 190.403 60.8267C190.811 61.6493 191.015 62.6233 191.015 63.7486C191.015 64.5778 190.897 65.3411 190.66 66.0387C190.43 66.7297 190.111 67.312 189.703 67.7859C189.295 68.2531 188.811 68.615 188.251 68.8717C187.699 69.1217 187.103 69.2468 186.465 69.2468C185.695 69.2468 185.047 69.0921 184.52 68.7828C184 68.4735 183.504 68.0195 183.03 67.4206V71.4678C183.03 72.6523 182.599 73.2446 181.737 73.2446C181.23 73.2446 180.894 73.0899 180.73 72.7806C180.565 72.4779 180.483 72.0337 180.483 71.448V59.8199C180.483 59.3066 180.595 58.9249 180.819 58.6748C181.042 58.4182 181.348 58.2899 181.737 58.2899C182.118 58.2899 182.428 58.4215 182.664 58.6847C182.908 58.9414 183.03 59.3132 183.03 59.8002ZM188.311 63.719C188.311 63.0083 188.202 62.3995 187.985 61.8928C187.768 61.3795 187.465 60.988 187.077 60.7182C186.695 60.4418 186.271 60.3036 185.803 60.3036C185.06 60.3036 184.431 60.5964 183.918 61.1821C183.411 61.7678 183.158 62.6299 183.158 63.7683C183.158 64.841 183.411 65.6767 183.918 66.2756C184.425 66.8678 185.053 67.164 185.803 67.164C186.251 67.164 186.666 67.0357 187.047 66.779C187.429 66.5158 187.735 66.1242 187.965 65.6043C188.196 65.0845 188.311 64.456 188.311 63.719ZM199.988 67.7266C199.337 68.2333 198.705 68.615 198.093 68.8717C197.488 69.1217 196.806 69.2468 196.05 69.2468C195.359 69.2468 194.75 69.1119 194.223 68.8421C193.704 68.5657 193.302 68.1939 193.019 67.7266C192.736 67.2594 192.595 66.7527 192.595 66.2065C192.595 65.4694 192.828 64.841 193.296 64.3211C193.763 63.8012 194.404 63.4525 195.22 63.2748C195.392 63.2353 195.816 63.1464 196.494 63.0083C197.172 62.8701 197.751 62.745 198.231 62.6332C198.718 62.5147 199.245 62.3732 199.811 62.2087C199.778 61.498 199.633 60.9781 199.376 60.6491C199.126 60.3134 198.603 60.1456 197.807 60.1456C197.122 60.1456 196.606 60.2411 196.257 60.4319C195.915 60.6227 195.619 60.909 195.369 61.2907C195.125 61.6724 194.951 61.9257 194.845 62.0508C194.747 62.1692 194.53 62.2284 194.194 62.2284C193.891 62.2284 193.628 62.133 193.404 61.9422C193.187 61.7448 193.078 61.4947 193.078 61.192C193.078 60.7182 193.246 60.2575 193.582 59.81C193.917 59.3625 194.441 58.994 195.151 58.7045C195.862 58.4149 196.747 58.2701 197.807 58.2701C198.991 58.2701 199.922 58.4116 200.6 58.6946C201.278 58.971 201.755 59.4119 202.032 60.0173C202.314 60.6227 202.456 61.4256 202.456 62.4259C202.456 63.0576 202.453 63.5939 202.446 64.0348C202.446 64.4758 202.443 64.966 202.436 65.5056C202.436 66.0124 202.518 66.5421 202.683 67.0949C202.854 67.6411 202.94 67.9931 202.94 68.1511C202.94 68.4275 202.808 68.6808 202.545 68.9112C202.288 69.1349 201.995 69.2468 201.666 69.2468C201.39 69.2468 201.117 69.1185 200.847 68.8618C200.577 68.5986 200.291 68.2202 199.988 67.7266ZM199.811 63.8276C199.416 63.9723 198.84 64.127 198.083 64.2915C197.333 64.4494 196.813 64.5679 196.523 64.6469C196.234 64.7192 195.958 64.8673 195.694 65.0911C195.431 65.3082 195.299 65.6142 195.299 66.0091C195.299 66.4171 195.454 66.7658 195.763 67.0554C196.073 67.3384 196.477 67.4799 196.978 67.4799C197.511 67.4799 198.001 67.3647 198.448 67.1344C198.902 66.8975 199.235 66.5947 199.445 66.2262C199.689 65.8182 199.811 65.147 199.811 64.2125V63.8276ZM212.584 67.7069V67.4404C212.222 67.855 211.863 68.1939 211.508 68.4571C211.159 68.7137 210.777 68.9079 210.363 69.0395C209.955 69.1777 209.507 69.2468 209.02 69.2468C208.375 69.2468 207.776 69.1119 207.224 68.8421C206.678 68.5657 206.204 68.1741 205.802 67.6674C205.401 67.1607 205.095 66.5651 204.884 65.8807C204.68 65.1963 204.578 64.456 204.578 63.6597C204.578 61.9751 204.99 60.6622 205.812 59.7212C206.635 58.7801 207.717 58.3096 209.06 58.3096C209.836 58.3096 210.491 58.4445 211.024 58.7143C211.557 58.9776 212.077 59.3856 212.584 59.9383V55.9603C212.584 55.4075 212.692 54.9896 212.909 54.7067C213.133 54.4237 213.449 54.2822 213.857 54.2822C214.265 54.2822 214.578 54.4138 214.795 54.6771C215.019 54.9337 215.13 55.3154 215.13 55.8221V67.7069C215.13 68.2202 215.012 68.6052 214.775 68.8618C214.538 69.1185 214.232 69.2468 213.857 69.2468C213.489 69.2468 213.183 69.1152 212.939 68.8519C212.702 68.5821 212.584 68.2004 212.584 67.7069ZM207.283 63.7486C207.283 64.479 207.395 65.1009 207.619 65.6142C207.849 66.1275 208.161 66.5158 208.556 66.779C208.951 67.0357 209.382 67.164 209.849 67.164C210.323 67.164 210.754 67.0422 211.143 66.7987C211.537 66.5487 211.85 66.1703 212.08 65.6636C212.317 65.1503 212.436 64.5119 212.436 63.7486C212.436 63.0313 212.317 62.416 212.08 61.9027C211.85 61.3828 211.534 60.988 211.133 60.7182C210.738 60.4418 210.303 60.3036 209.83 60.3036C209.336 60.3036 208.895 60.4451 208.507 60.728C208.119 61.0044 207.816 61.4058 207.599 61.9323C207.388 62.4522 207.283 63.0576 207.283 63.7486ZM224.646 67.7266C223.995 68.2333 223.363 68.615 222.751 68.8717C222.146 69.1217 221.464 69.2468 220.708 69.2468C220.017 69.2468 219.408 69.1119 218.881 68.8421C218.362 68.5657 217.96 68.1939 217.677 67.7266C217.394 67.2594 217.253 66.7527 217.253 66.2065C217.253 65.4694 217.486 64.841 217.954 64.3211C218.421 63.8012 219.062 63.4525 219.878 63.2748C220.05 63.2353 220.474 63.1464 221.152 63.0083C221.83 62.8701 222.409 62.745 222.889 62.6332C223.376 62.5147 223.903 62.3732 224.469 62.2087C224.436 61.498 224.291 60.9781 224.034 60.6491C223.784 60.3134 223.261 60.1456 222.465 60.1456C221.78 60.1456 221.264 60.2411 220.915 60.4319C220.573 60.6227 220.277 60.909 220.027 61.2907C219.783 61.6724 219.609 61.9257 219.503 62.0508C219.405 62.1692 219.187 62.2284 218.852 62.2284C218.549 62.2284 218.286 62.133 218.062 61.9422C217.845 61.7448 217.736 61.4947 217.736 61.192C217.736 60.7182 217.904 60.2575 218.24 59.81C218.575 59.3625 219.099 58.994 219.809 58.7045C220.52 58.4149 221.405 58.2701 222.465 58.2701C223.649 58.2701 224.58 58.4116 225.258 58.6946C225.936 58.971 226.413 59.4119 226.689 60.0173C226.972 60.6227 227.114 61.4256 227.114 62.4259C227.114 63.0576 227.111 63.5939 227.104 64.0348C227.104 64.4758 227.101 64.966 227.094 65.5056C227.094 66.0124 227.176 66.5421 227.341 67.0949C227.512 67.6411 227.598 67.9931 227.598 68.1511C227.598 68.4275 227.466 68.6808 227.203 68.9112C226.946 69.1349 226.653 69.2468 226.324 69.2468C226.048 69.2468 225.775 69.1185 225.505 68.8618C225.235 68.5986 224.949 68.2202 224.646 67.7266ZM224.469 63.8276C224.074 63.9723 223.498 64.127 222.741 64.2915C221.991 64.4494 221.471 64.5679 221.181 64.6469C220.892 64.7192 220.615 64.8673 220.352 65.0911C220.089 65.3082 219.957 65.6142 219.957 66.0091C219.957 66.4171 220.112 66.7658 220.421 67.0554C220.731 67.3384 221.135 67.4799 221.636 67.4799C222.169 67.4799 222.659 67.3647 223.106 67.1344C223.56 66.8975 223.893 66.5947 224.103 66.2262C224.347 65.8182 224.469 65.147 224.469 64.2125V63.8276ZM235.06 58.5268H235.356V56.9079C235.356 56.4736 235.366 56.1347 235.386 55.8912C235.412 55.6411 235.478 55.4273 235.583 55.2496C235.689 55.0653 235.84 54.9173 236.037 54.8054C236.235 54.6869 236.455 54.6277 236.699 54.6277C237.041 54.6277 237.35 54.756 237.627 55.0127C237.811 55.1838 237.926 55.3944 237.972 55.6444C238.025 55.8879 238.051 56.2367 238.051 56.6908V58.5268H239.038C239.42 58.5268 239.709 58.6189 239.907 58.8032C240.111 58.9809 240.213 59.2112 240.213 59.4941C240.213 59.8561 240.068 60.1094 239.779 60.2542C239.496 60.399 239.088 60.4714 238.555 60.4714H238.051V65.4267C238.051 65.8478 238.064 66.1736 238.091 66.4039C238.123 66.6276 238.202 66.8119 238.327 66.9567C238.459 67.0949 238.67 67.164 238.959 67.164C239.117 67.164 239.331 67.1377 239.601 67.085C239.871 67.0258 240.081 66.9962 240.233 66.9962C240.45 66.9962 240.644 67.085 240.815 67.2627C240.993 67.4338 241.082 67.6477 241.082 67.9043C241.082 68.3386 240.845 68.671 240.371 68.9013C239.897 69.1316 239.216 69.2468 238.327 69.2468C237.485 69.2468 236.847 69.1053 236.413 68.8223C235.978 68.5393 235.692 68.1478 235.554 67.6477C235.422 67.1475 235.356 66.4796 235.356 65.6438V60.4714H235.001C234.613 60.4714 234.317 60.3793 234.113 60.195C233.909 60.0107 233.807 59.7771 233.807 59.4941C233.807 59.2112 233.912 58.9809 234.122 58.8032C234.34 58.6189 234.652 58.5268 235.06 58.5268ZM249.6 64.4297H244.329C244.336 65.0417 244.457 65.5813 244.694 66.0485C244.938 66.5158 245.257 66.8678 245.652 67.1048C246.053 67.3417 246.494 67.4601 246.975 67.4601C247.297 67.4601 247.59 67.4239 247.853 67.3515C248.123 67.2726 248.383 67.1541 248.633 66.9962C248.883 66.8317 249.113 66.6573 249.324 66.473C249.534 66.2887 249.808 66.0387 250.143 65.7228C250.281 65.6043 250.479 65.5451 250.735 65.5451C251.012 65.5451 251.236 65.6208 251.407 65.7722C251.578 65.9235 251.663 66.1374 251.663 66.4138C251.663 66.6573 251.568 66.9435 251.377 67.2726C251.186 67.595 250.897 67.9076 250.508 68.2103C250.127 68.5064 249.643 68.7532 249.057 68.9506C248.478 69.1481 247.81 69.2468 247.054 69.2468C245.323 69.2468 243.977 68.7532 243.016 67.7661C242.055 66.779 241.575 65.4398 241.575 63.7486C241.575 62.9523 241.694 62.2153 241.93 61.5375C242.167 60.8531 242.513 60.2674 242.967 59.7804C243.421 59.2934 243.98 58.9216 244.645 58.665C245.31 58.4017 246.047 58.2701 246.856 58.2701C247.909 58.2701 248.811 58.4939 249.561 58.9414C250.318 59.3823 250.884 59.9548 251.259 60.6589C251.634 61.3631 251.821 62.0804 251.821 62.8108C251.821 63.4886 251.627 63.9296 251.239 64.1336C250.851 64.331 250.304 64.4297 249.6 64.4297ZM244.329 62.8997H249.215C249.15 61.9784 248.899 61.2907 248.465 60.8366C248.037 60.376 247.471 60.1456 246.767 60.1456C246.096 60.1456 245.543 60.3793 245.109 60.8465C244.681 61.3071 244.421 61.9915 244.329 62.8997ZM263.736 60.2641V68.0919C263.736 68.9868 263.64 69.7568 263.449 70.4017C263.259 71.0466 262.953 71.5796 262.531 72.0008C262.11 72.422 261.557 72.7346 260.873 72.9386C260.195 73.1426 259.35 73.2446 258.336 73.2446C257.408 73.2446 256.579 73.113 255.849 72.8497C255.118 72.5931 254.556 72.2575 254.161 71.8429C253.766 71.4349 253.568 71.0137 253.568 70.5794C253.568 70.2503 253.68 69.9805 253.904 69.7699C254.128 69.5659 254.398 69.4639 254.714 69.4639C255.108 69.4639 255.454 69.6383 255.75 69.9871C255.895 70.1648 256.043 70.3425 256.194 70.5201C256.352 70.7044 256.523 70.8591 256.707 70.9841C256.898 71.1157 257.125 71.2111 257.389 71.2703C257.652 71.3362 257.955 71.3691 258.297 71.3691C258.994 71.3691 259.534 71.2703 259.916 71.0729C260.304 70.8821 260.574 70.6123 260.725 70.2635C260.883 69.9147 260.975 69.5396 261.001 69.1382C261.028 68.7434 261.047 68.105 261.061 67.2232C260.646 67.8023 260.166 68.2432 259.619 68.5459C259.08 68.8486 258.435 69 257.685 69C256.783 69 255.993 68.7697 255.316 68.309C254.644 67.8484 254.128 67.2035 253.766 66.3743C253.404 65.5451 253.223 64.5876 253.223 63.5018C253.223 62.6924 253.332 61.9619 253.549 61.3104C253.772 60.6589 254.088 60.1094 254.496 59.662C254.904 59.2145 255.375 58.8788 255.908 58.6551C256.441 58.4248 257.027 58.3096 257.665 58.3096C258.428 58.3096 259.09 58.4577 259.649 58.7538C260.208 59.0434 260.728 59.5007 261.209 60.1259V59.7607C261.209 59.2934 261.324 58.9315 261.554 58.6748C261.784 58.4182 262.081 58.2899 262.443 58.2899C262.962 58.2899 263.308 58.461 263.479 58.8032C263.65 59.1388 263.736 59.6258 263.736 60.2641ZM255.928 63.6795C255.928 64.7719 256.165 65.5978 256.638 66.1571C257.119 66.7165 257.737 66.9962 258.494 66.9962C258.942 66.9962 259.363 66.8777 259.758 66.6408C260.159 66.3973 260.485 66.0354 260.735 65.555C260.985 65.068 261.11 64.479 261.11 63.7881C261.11 62.6891 260.866 61.8336 260.38 61.2216C259.899 60.6096 259.264 60.3036 258.474 60.3036C257.704 60.3036 257.086 60.5964 256.619 61.1821C256.158 61.7678 255.928 62.6002 255.928 63.6795ZM272.758 67.7266C272.106 68.2333 271.475 68.615 270.863 68.8717C270.257 69.1217 269.576 69.2468 268.819 69.2468C268.128 69.2468 267.52 69.1119 266.993 68.8421C266.473 68.5657 266.072 68.1939 265.789 67.7266C265.506 67.2594 265.364 66.7527 265.364 66.2065C265.364 65.4694 265.598 64.841 266.065 64.3211C266.532 63.8012 267.174 63.4525 267.99 63.2748C268.161 63.2353 268.586 63.1464 269.263 63.0083C269.941 62.8701 270.52 62.745 271.001 62.6332C271.488 62.5147 272.014 62.3732 272.58 62.2087C272.547 61.498 272.402 60.9781 272.146 60.6491C271.896 60.3134 271.373 60.1456 270.576 60.1456C269.892 60.1456 269.375 60.2411 269.027 60.4319C268.684 60.6227 268.388 60.909 268.138 61.2907C267.895 61.6724 267.72 61.9257 267.615 62.0508C267.516 62.1692 267.299 62.2284 266.964 62.2284C266.661 62.2284 266.398 62.133 266.174 61.9422C265.957 61.7448 265.848 61.4947 265.848 61.192C265.848 60.7182 266.016 60.2575 266.352 59.81C266.687 59.3625 267.21 58.994 267.921 58.7045C268.632 58.4149 269.517 58.2701 270.576 58.2701C271.761 58.2701 272.692 58.4116 273.37 58.6946C274.048 58.971 274.525 59.4119 274.801 60.0173C275.084 60.6227 275.226 61.4256 275.226 62.4259C275.226 63.0576 275.222 63.5939 275.216 64.0348C275.216 64.4758 275.212 64.966 275.206 65.5056C275.206 66.0124 275.288 66.5421 275.453 67.0949C275.624 67.6411 275.709 67.9931 275.709 68.1511C275.709 68.4275 275.578 68.6808 275.314 68.9112C275.058 69.1349 274.765 69.2468 274.436 69.2468C274.16 69.2468 273.886 69.1185 273.617 68.8618C273.347 68.5986 273.061 68.2202 272.758 67.7266ZM272.58 63.8276C272.185 63.9723 271.61 64.127 270.853 64.2915C270.103 64.4494 269.583 64.5679 269.293 64.6469C269.004 64.7192 268.727 64.8673 268.464 65.0911C268.201 65.3082 268.069 65.6142 268.069 66.0091C268.069 66.4171 268.224 66.7658 268.533 67.0554C268.842 67.3384 269.247 67.4799 269.747 67.4799C270.28 67.4799 270.77 67.3647 271.218 67.1344C271.672 66.8975 272.004 66.5947 272.215 66.2262C272.458 65.8182 272.58 65.147 272.58 64.2125V63.8276ZM280.418 59.7804V60.1062C280.892 59.481 281.408 59.0236 281.968 58.7341C282.534 58.4379 283.182 58.2899 283.912 58.2899C284.623 58.2899 285.258 58.4445 285.817 58.7538C286.377 59.0631 286.795 59.5007 287.071 60.0667C287.249 60.3957 287.364 60.7511 287.416 61.1327C287.469 61.5144 287.495 62.0014 287.495 62.5937V67.6082C287.495 68.1478 287.37 68.5558 287.12 68.8322C286.877 69.1086 286.558 69.2468 286.163 69.2468C285.761 69.2468 285.436 69.1053 285.186 68.8223C284.935 68.5393 284.81 68.1346 284.81 67.6082V63.1168C284.81 62.2284 284.685 61.5506 284.435 61.0834C284.192 60.6096 283.702 60.3727 282.965 60.3727C282.484 60.3727 282.047 60.5174 281.652 60.807C281.257 61.09 280.967 61.4815 280.783 61.9817C280.651 62.3831 280.586 63.1333 280.586 64.2323V67.6082C280.586 68.1544 280.457 68.5657 280.201 68.8421C279.951 69.1119 279.625 69.2468 279.223 69.2468C278.835 69.2468 278.516 69.1053 278.266 68.8223C278.016 68.5393 277.891 68.1346 277.891 67.6082V59.8199C277.891 59.3066 278.003 58.9249 278.226 58.6748C278.45 58.4182 278.756 58.2899 279.144 58.2899C279.381 58.2899 279.595 58.3458 279.786 58.4577C279.977 58.5696 280.128 58.7374 280.24 58.9611C280.359 59.1849 280.418 59.458 280.418 59.7804ZM300.101 60.2641V68.0919C300.101 68.9868 300.005 69.7568 299.814 70.4017C299.624 71.0466 299.318 71.5796 298.896 72.0008C298.475 72.422 297.923 72.7346 297.238 72.9386C296.56 73.1426 295.715 73.2446 294.701 73.2446C293.773 73.2446 292.944 73.113 292.214 72.8497C291.483 72.5931 290.921 72.2575 290.526 71.8429C290.131 71.4349 289.934 71.0137 289.934 70.5794C289.934 70.2503 290.045 69.9805 290.269 69.7699C290.493 69.5659 290.763 69.4639 291.079 69.4639C291.473 69.4639 291.819 69.6383 292.115 69.9871C292.26 70.1648 292.408 70.3425 292.559 70.5201C292.717 70.7044 292.888 70.8591 293.073 70.9841C293.263 71.1157 293.49 71.2111 293.754 71.2703C294.017 71.3362 294.32 71.3691 294.662 71.3691C295.359 71.3691 295.899 71.2703 296.281 71.0729C296.669 70.8821 296.939 70.6123 297.09 70.2635C297.248 69.9147 297.34 69.5396 297.366 69.1382C297.393 68.7434 297.413 68.105 297.426 67.2232C297.011 67.8023 296.531 68.2432 295.984 68.5459C295.445 68.8486 294.8 69 294.05 69C293.148 69 292.359 68.7697 291.681 68.309C291.009 67.8484 290.493 67.2035 290.131 66.3743C289.769 65.5451 289.588 64.5876 289.588 63.5018C289.588 62.6924 289.697 61.9619 289.914 61.3104C290.138 60.6589 290.453 60.1094 290.861 59.662C291.269 59.2145 291.74 58.8788 292.273 58.6551C292.806 58.4248 293.392 58.3096 294.03 58.3096C294.793 58.3096 295.455 58.4577 296.014 58.7538C296.573 59.0434 297.093 59.5007 297.574 60.1259V59.7607C297.574 59.2934 297.689 58.9315 297.919 58.6748C298.15 58.4182 298.446 58.2899 298.808 58.2899C299.327 58.2899 299.673 58.461 299.844 58.8032C300.015 59.1388 300.101 59.6258 300.101 60.2641ZM292.293 63.6795C292.293 64.7719 292.53 65.5978 293.003 66.1571C293.484 66.7165 294.102 66.9962 294.859 66.9962C295.307 66.9962 295.728 66.8777 296.123 66.6408C296.524 66.3973 296.85 66.0354 297.1 65.555C297.35 65.068 297.475 64.479 297.475 63.7881C297.475 62.6891 297.232 61.8336 296.745 61.2216C296.264 60.6096 295.629 60.3036 294.839 60.3036C294.069 60.3036 293.451 60.5964 292.984 61.1821C292.523 61.7678 292.293 62.6002 292.293 63.6795ZM309.123 67.7266C308.471 68.2333 307.84 68.615 307.228 68.8717C306.622 69.1217 305.941 69.2468 305.184 69.2468C304.493 69.2468 303.885 69.1119 303.358 68.8421C302.838 68.5657 302.437 68.1939 302.154 67.7266C301.871 67.2594 301.729 66.7527 301.729 66.2065C301.729 65.4694 301.963 64.841 302.43 64.3211C302.898 63.8012 303.539 63.4525 304.355 63.2748C304.526 63.2353 304.951 63.1464 305.629 63.0083C306.306 62.8701 306.885 62.745 307.366 62.6332C307.853 62.5147 308.379 62.3732 308.945 62.2087C308.912 61.498 308.768 60.9781 308.511 60.6491C308.261 60.3134 307.738 60.1456 306.941 60.1456C306.257 60.1456 305.74 60.2411 305.392 60.4319C305.049 60.6227 304.753 60.909 304.503 61.2907C304.26 61.6724 304.085 61.9257 303.98 62.0508C303.881 62.1692 303.664 62.2284 303.329 62.2284C303.026 62.2284 302.763 62.133 302.539 61.9422C302.322 61.7448 302.213 61.4947 302.213 61.192C302.213 60.7182 302.381 60.2575 302.717 59.81C303.052 59.3625 303.575 58.994 304.286 58.7045C304.997 58.4149 305.882 58.2701 306.941 58.2701C308.126 58.2701 309.057 58.4116 309.735 58.6946C310.413 58.971 310.89 59.4119 311.166 60.0173C311.449 60.6227 311.591 61.4256 311.591 62.4259C311.591 63.0576 311.587 63.5939 311.581 64.0348C311.581 64.4758 311.578 64.966 311.571 65.5056C311.571 66.0124 311.653 66.5421 311.818 67.0949C311.989 67.6411 312.074 67.9931 312.074 68.1511C312.074 68.4275 311.943 68.6808 311.68 68.9112C311.423 69.1349 311.13 69.2468 310.801 69.2468C310.525 69.2468 310.252 69.1185 309.982 68.8618C309.712 68.5986 309.426 68.2202 309.123 67.7266ZM308.945 63.8276C308.55 63.9723 307.975 64.127 307.218 64.2915C306.468 64.4494 305.948 64.5679 305.658 64.6469C305.369 64.7192 305.092 64.8673 304.829 65.0911C304.566 65.3082 304.434 65.6142 304.434 66.0091C304.434 66.4171 304.589 66.7658 304.898 67.0554C305.207 67.3384 305.612 67.4799 306.112 67.4799C306.645 67.4799 307.136 67.3647 307.583 67.1344C308.037 66.8975 308.369 66.5947 308.58 66.2262C308.823 65.8182 308.945 65.147 308.945 64.2125V63.8276ZM316.783 59.7804V60.1062C317.257 59.481 317.773 59.0236 318.333 58.7341C318.899 58.4379 319.547 58.2899 320.277 58.2899C320.988 58.2899 321.623 58.4445 322.182 58.7538C322.742 59.0631 323.16 59.5007 323.436 60.0667C323.614 60.3957 323.729 60.7511 323.781 61.1327C323.834 61.5144 323.86 62.0014 323.86 62.5937V67.6082C323.86 68.1478 323.735 68.5558 323.485 68.8322C323.242 69.1086 322.923 69.2468 322.528 69.2468C322.126 69.2468 321.801 69.1053 321.551 68.8223C321.301 68.5393 321.176 68.1346 321.176 67.6082V63.1168C321.176 62.2284 321.05 61.5506 320.8 61.0834C320.557 60.6096 320.067 60.3727 319.33 60.3727C318.849 60.3727 318.412 60.5174 318.017 60.807C317.622 61.09 317.332 61.4815 317.148 61.9817C317.016 62.3831 316.951 63.1333 316.951 64.2323V67.6082C316.951 68.1544 316.822 68.5657 316.566 68.8421C316.316 69.1119 315.99 69.2468 315.588 69.2468C315.2 69.2468 314.881 69.1053 314.631 68.8223C314.381 68.5393 314.256 68.1346 314.256 67.6082V59.8199C314.256 59.3066 314.368 58.9249 314.591 58.6748C314.815 58.4182 315.121 58.2899 315.51 58.2899C315.746 58.2899 315.96 58.3458 316.151 58.4577C316.342 58.5696 316.493 58.7374 316.605 58.9611C316.724 59.1849 316.783 59.458 316.783 59.7804ZM327.444 62.7319L327.128 58.0036C327.069 57.0823 327.039 56.4209 327.039 56.0195C327.039 55.4733 327.18 55.0489 327.463 54.7462C327.753 54.4369 328.131 54.2822 328.599 54.2822C329.165 54.2822 329.543 54.4796 329.734 54.8745C329.925 55.2627 330.02 55.8254 330.02 56.5624C330.02 56.9968 329.997 57.4377 329.951 57.8852L329.526 62.7516C329.48 63.3307 329.382 63.7749 329.23 64.0842C329.079 64.3935 328.829 64.5481 328.48 64.5481C328.125 64.5481 327.878 64.4001 327.74 64.1039C327.602 63.8012 327.503 63.3439 327.444 62.7319ZM328.539 69.227C328.138 69.227 327.786 69.0987 327.483 68.8421C327.187 68.5788 327.039 68.2136 327.039 67.7464C327.039 67.3384 327.18 66.9929 327.463 66.7099C327.753 66.4204 328.105 66.2756 328.52 66.2756C328.934 66.2756 329.286 66.4204 329.576 66.7099C329.872 66.9929 330.02 67.3384 330.02 67.7464C330.02 68.207 329.872 68.569 329.576 68.8322C329.28 69.0954 328.934 69.227 328.539 69.227Z" fill="#F5F5F5"/>
</g>
<defs>
<filter id="filter0_d_308_206" x="0" y="0" width="444" height="135" filterUnits="userSpaceOnUse" color-interpolation-filters="sRGB">
<feFlood flood-opacity="0" result="BackgroundImageFix"/>
<feColorMatrix in="SourceAlpha" type="matrix" values="0 0 0 0 0 0 0 0 0 0 0 0 0 0 0 0 0 0 127 0" result="hardAlpha"/>
<feOffset dy="4"/>
<feGaussianBlur stdDeviation="2"/>
<feComposite in2="hardAlpha" operator="out"/>
<feColorMatrix type="matrix" values="0 0 0 0 0 0 0 0 0 0 0 0 0 0 0 0 0 0 0.25 0"/>
<feBlend mode="normal" in2="BackgroundImageFix" result="effect1_dropShadow_308_206"/>
<feBlend mode="normal" in="SourceGraphic" in2="effect1_dropShadow_308_206" result="shape"/>
</filter>
</defs>
</svg>
